%TF.GenerationSoftware,KiCad,Pcbnew,9.0.2*%
%TF.CreationDate,2025-08-14T19:07:51+07:00*%
%TF.ProjectId,Gamepad PCB,47616d65-7061-4642-9050-43422e6b6963,v03*%
%TF.SameCoordinates,Original*%
%TF.FileFunction,Copper,L2,Inr*%
%TF.FilePolarity,Positive*%
%FSLAX46Y46*%
G04 Gerber Fmt 4.6, Leading zero omitted, Abs format (unit mm)*
G04 Created by KiCad (PCBNEW 9.0.2) date 2025-08-14 19:07:51*
%MOMM*%
%LPD*%
G01*
G04 APERTURE LIST*
%TA.AperFunction,ComponentPad*%
%ADD10C,3.600000*%
%TD*%
%TA.AperFunction,ComponentPad*%
%ADD11O,2.600000X1.700000*%
%TD*%
%TA.AperFunction,ComponentPad*%
%ADD12C,1.750000*%
%TD*%
%TA.AperFunction,ComponentPad*%
%ADD13C,1.800000*%
%TD*%
%TA.AperFunction,ComponentPad*%
%ADD14O,3.300000X2.000000*%
%TD*%
%TA.AperFunction,HeatsinkPad*%
%ADD15C,0.500000*%
%TD*%
%TA.AperFunction,HeatsinkPad*%
%ADD16O,1.000000X2.100000*%
%TD*%
%TA.AperFunction,HeatsinkPad*%
%ADD17O,1.000000X1.800000*%
%TD*%
%TA.AperFunction,ComponentPad*%
%ADD18C,2.100000*%
%TD*%
%TA.AperFunction,ComponentPad*%
%ADD19C,1.600000*%
%TD*%
%TA.AperFunction,HeatsinkPad*%
%ADD20C,0.600000*%
%TD*%
%TA.AperFunction,ComponentPad*%
%ADD21R,1.905000X2.000000*%
%TD*%
%TA.AperFunction,ComponentPad*%
%ADD22O,1.905000X2.000000*%
%TD*%
%TA.AperFunction,ViaPad*%
%ADD23C,0.600000*%
%TD*%
%TA.AperFunction,ViaPad*%
%ADD24C,0.500000*%
%TD*%
%TA.AperFunction,Conductor*%
%ADD25C,0.500000*%
%TD*%
%TA.AperFunction,Conductor*%
%ADD26C,0.300000*%
%TD*%
G04 APERTURE END LIST*
D10*
%TO.N,N/C*%
%TO.C,H8*%
X168000000Y-90000000D03*
%TD*%
%TO.N,N/C*%
%TO.C,H5*%
X97610000Y-57610000D03*
%TD*%
D11*
%TO.N,Net-(D7-A)*%
%TO.C,SW19*%
X164940000Y-116300000D03*
%TO.N,Net-(SW11A-B)*%
X164940000Y-121000000D03*
%TO.N,N/C*%
X164940000Y-125700000D03*
%TD*%
D10*
%TO.N,N/C*%
%TO.C,H1*%
X132400000Y-51000000D03*
%TD*%
D12*
%TO.N,GND*%
%TO.C,SW3*%
X145550000Y-135637500D03*
%TO.N,/IO0*%
X141049999Y-135637500D03*
%TD*%
D10*
%TO.N,N/C*%
%TO.C,H2*%
X175600000Y-51000000D03*
%TD*%
D13*
%TO.N,/IO17*%
%TO.C,J7*%
X145000000Y-63750000D03*
%TO.N,/IO18*%
X147540000Y-63750000D03*
%TO.N,/IO19*%
X150079999Y-63750000D03*
%TO.N,/IO20*%
X152620000Y-63750000D03*
%TO.N,/MOSI*%
X155160000Y-63750000D03*
%TO.N,/CLK*%
X157700000Y-63750000D03*
%TO.N,+3.3V_Perip*%
X160240000Y-63750000D03*
%TO.N,GND*%
X162780001Y-63750000D03*
%TD*%
D10*
%TO.N,N/C*%
%TO.C,H7*%
X140000000Y-90000000D03*
%TD*%
D14*
%TO.N,Net-(D10-A)*%
%TO.C,SW16*%
X185310000Y-56110000D03*
%TO.N,Net-(SW12A-B)*%
X185310000Y-51410000D03*
%TO.N,N/C*%
X185310000Y-46710000D03*
%TD*%
D15*
%TO.N,N/C*%
%TO.C,U11*%
X141670000Y-111820000D03*
X141670000Y-113120000D03*
X142770000Y-111820000D03*
X142770000Y-113120000D03*
%TD*%
D11*
%TO.N,Net-(D19-A)*%
%TO.C,SW7*%
X143060000Y-116300000D03*
%TO.N,Net-(SW11A-B)*%
X143060000Y-121000000D03*
%TO.N,N/C*%
X143060000Y-125700000D03*
%TD*%
D15*
%TO.N,unconnected-(U2-EP-Pad9)_6*%
%TO.C,U2*%
X182250000Y-135025000D03*
%TO.N,unconnected-(U2-EP-Pad9)*%
X182250000Y-133725000D03*
%TO.N,unconnected-(U2-EP-Pad9)_5*%
X182249999Y-134375000D03*
%TO.N,unconnected-(U2-EP-Pad9)_3*%
X180350001Y-134375000D03*
%TO.N,unconnected-(U2-EP-Pad9)_7*%
X180350000Y-135025000D03*
%TO.N,unconnected-(U2-EP-Pad9)_2*%
X180350000Y-133725000D03*
%TD*%
D11*
%TO.N,Net-(D11-A)*%
%TO.C,SW15*%
X157650000Y-116300000D03*
%TO.N,Net-(SW11A-B)*%
X157650000Y-121000000D03*
%TO.N,N/C*%
X157650000Y-125700000D03*
%TD*%
D14*
%TO.N,Net-(D14-A)*%
%TO.C,SW12*%
X122690000Y-56110000D03*
%TO.N,Net-(SW12A-B)*%
X122690000Y-51410000D03*
%TO.N,N/C*%
X122690000Y-46710000D03*
%TD*%
D15*
%TO.N,N/C*%
%TO.C,U7*%
X207500000Y-114800000D03*
X208850000Y-114800000D03*
X210200000Y-114800000D03*
X207500000Y-112900000D03*
X208850000Y-112900000D03*
X210200000Y-112900000D03*
%TD*%
D10*
%TO.N,N/C*%
%TO.C,H4*%
X211500000Y-135000000D03*
%TD*%
%TO.N,N/C*%
%TO.C,H6*%
X210390000Y-57610000D03*
%TD*%
%TO.N,N/C*%
%TO.C,H3*%
X96500000Y-135000000D03*
%TD*%
D16*
%TO.N,GND*%
%TO.C,J1*%
X149680000Y-131895000D03*
D17*
X149680000Y-136075000D03*
D16*
X158320000Y-131895000D03*
D17*
X158320000Y-136075000D03*
%TD*%
D18*
%TO.N,*%
%TO.C,SW2*%
X168250000Y-133147500D03*
X161240000Y-133147500D03*
D12*
%TO.N,GND*%
X167000000Y-135637500D03*
%TO.N,/EN*%
X162500000Y-135637500D03*
%TD*%
D11*
%TO.N,Net-(D15-A)*%
%TO.C,SW11*%
X150350000Y-116300000D03*
%TO.N,Net-(SW11A-B)*%
X150350000Y-121000000D03*
%TO.N,N/C*%
X150350000Y-125700000D03*
%TD*%
D13*
%TO.N,+3.3V_Perip*%
%TO.C,J6*%
X138080000Y-116400000D03*
%TO.N,Net-(J6-Pin_2)*%
X135540000Y-116400000D03*
%TO.N,GND*%
X133000000Y-116400000D03*
%TD*%
D19*
%TO.N,+3.3V*%
%TO.C,C2*%
X159700000Y-99000000D03*
%TO.N,GND*%
X157699999Y-99000000D03*
%TD*%
D20*
%TO.N,GND*%
%TO.C,U6*%
X102300000Y-113935000D03*
X100900000Y-113935000D03*
X103000000Y-114635000D03*
X101600000Y-114635000D03*
X100200000Y-114635000D03*
X102300000Y-115335000D03*
X100900000Y-115335000D03*
X103000000Y-116035000D03*
X101600000Y-116035000D03*
X100200000Y-116035000D03*
X102300000Y-116735000D03*
X100900000Y-116735000D03*
%TD*%
D19*
%TO.N,Net-(D1-K)*%
%TO.C,C6*%
X199000000Y-120699999D03*
%TO.N,GND*%
X199000000Y-122699999D03*
%TD*%
D13*
%TO.N,+3.3V_Perip*%
%TO.C,J5*%
X138100000Y-122700000D03*
%TO.N,Net-(J5-Pin_2)*%
X135560000Y-122700000D03*
%TO.N,GND*%
X133020000Y-122700000D03*
%TD*%
D19*
%TO.N,Net-(D1-K)*%
%TO.C,C10*%
X199400000Y-108550000D03*
%TO.N,GND*%
X201400000Y-108550000D03*
%TD*%
D18*
%TO.N,*%
%TO.C,SW4*%
X109475500Y-58452499D03*
X102465500Y-58452500D03*
D12*
%TO.N,Net-(SW12A-B)*%
X108225500Y-55962500D03*
%TO.N,Net-(D18-A)*%
X103725499Y-55962500D03*
%TD*%
D19*
%TO.N,+BATT*%
%TO.C,C16*%
X216200000Y-118300000D03*
%TO.N,GND*%
X218200000Y-118300000D03*
%TD*%
D13*
%TO.N,Net-(J2-A)*%
%TO.C,J2*%
X214609999Y-106100000D03*
%TO.N,Net-(J2-B)*%
X217149999Y-106100000D03*
%TD*%
D18*
%TO.N,*%
%TO.C,SW8*%
X205475500Y-58452499D03*
X198465500Y-58452500D03*
D12*
%TO.N,Net-(D6-A)*%
X204225500Y-55962500D03*
%TO.N,Net-(SW12A-B)*%
X199725499Y-55962500D03*
%TD*%
D13*
%TO.N,+3.3V_Perip*%
%TO.C,J4*%
X184400000Y-111300000D03*
%TO.N,Net-(J4-Pin_2)*%
X184400000Y-113840000D03*
%TO.N,GND*%
X184400000Y-116380000D03*
%TD*%
%TO.N,GND*%
%TO.C,U4*%
X157620000Y-93500000D03*
%TO.N,+3.3V*%
X157620000Y-90960000D03*
%TO.N,/IO21*%
X155080000Y-93500000D03*
%TO.N,/IO14*%
X155080000Y-90960000D03*
%TO.N,/CLK*%
X152540000Y-93500000D03*
%TO.N,/MOSI*%
X152540000Y-90960000D03*
%TO.N,Net-(U4-MISO)*%
X150000000Y-93500000D03*
%TO.N,unconnected-(U4-IRQ-Pad8)*%
X150000000Y-90960000D03*
%TD*%
%TO.N,+3.3V_Perip*%
%TO.C,J3*%
X184400000Y-121600000D03*
%TO.N,Net-(J3-Pin_2)*%
X184400000Y-124140000D03*
%TO.N,GND*%
X184400000Y-126680000D03*
%TD*%
D21*
%TO.N,Net-(Q3-Pad1)*%
%TO.C,Q3*%
X212820000Y-122950000D03*
D22*
%TO.N,+BATT*%
X215360000Y-122950000D03*
%TO.N,Net-(J2-A)*%
X217900000Y-122950000D03*
%TD*%
D23*
%TO.N,+3.3V_Perip*%
X202500000Y-121074998D03*
D24*
X147300000Y-110000000D03*
D23*
X182600000Y-118200002D03*
X137600000Y-111500000D03*
X169680053Y-108880053D03*
D24*
X146600000Y-112220000D03*
D23*
%TO.N,GND*%
X138500000Y-112300000D03*
X160900000Y-128350000D03*
D24*
X137300001Y-128750000D03*
D23*
X96900000Y-112000000D03*
X162425002Y-67400000D03*
D24*
X94637499Y-105000000D03*
D23*
X203700000Y-134800000D03*
X203699999Y-133239999D03*
X213400000Y-130000000D03*
X204100000Y-122800000D03*
X131000000Y-108500000D03*
D24*
X145553081Y-110297085D03*
D23*
X209500000Y-117900000D03*
D24*
X178900000Y-113079999D03*
D23*
X127756250Y-125770000D03*
X219587500Y-112337500D03*
D24*
X155500000Y-130100000D03*
D23*
X124050000Y-127270000D03*
D24*
X93880000Y-108085000D03*
D23*
X210750000Y-128200000D03*
D24*
X131300000Y-132000000D03*
D23*
X93880000Y-125585000D03*
X163400000Y-67400000D03*
X96899999Y-110150000D03*
X146000000Y-104925000D03*
X171400000Y-135575000D03*
X202450000Y-110500000D03*
X112162501Y-125700000D03*
X204224999Y-124875001D03*
X162400000Y-128374998D03*
X131700000Y-127300000D03*
X202500000Y-122800000D03*
X191000000Y-134000000D03*
X204300000Y-112650000D03*
X150800000Y-131320000D03*
X206900000Y-117900000D03*
D24*
X94637499Y-106500000D03*
D23*
X218600000Y-129925002D03*
D24*
X181100000Y-106850000D03*
D23*
X157200000Y-131320000D03*
X209000000Y-120100000D03*
D24*
X178650000Y-117729999D03*
D23*
X185100000Y-135262501D03*
X207175000Y-122100000D03*
D24*
X181150000Y-117925000D03*
X175900000Y-105125000D03*
D23*
X133700000Y-129200000D03*
D24*
X153091821Y-132548463D03*
D23*
X153400000Y-105300000D03*
%TO.N,+BATT*%
X218400000Y-124687500D03*
X210700000Y-129200000D03*
%TO.N,+3.3V*%
X201950000Y-124900002D03*
X131975000Y-129200000D03*
X95149999Y-108085000D03*
D24*
X162000000Y-104300000D03*
D23*
X124050000Y-125770000D03*
X132350000Y-135500000D03*
%TO.N,VBUS*%
X210755000Y-116500000D03*
X207000000Y-109549999D03*
X167800000Y-130100000D03*
X152481642Y-133350000D03*
X209650000Y-124600000D03*
D24*
X142600000Y-128300000D03*
%TO.N,Net-(C18-Pad1)*%
X158550000Y-105250000D03*
X207750000Y-129150000D03*
X216600000Y-126400000D03*
D23*
%TO.N,/EN*%
X96420000Y-108085000D03*
X96362501Y-106500000D03*
%TO.N,/DTR*%
X124630762Y-135150001D03*
X129081378Y-135490689D03*
%TO.N,Net-(Q5-Pad1)*%
X213400000Y-128100000D03*
D24*
X158550000Y-104050000D03*
X218400000Y-126512500D03*
D23*
X213350000Y-126450000D03*
D24*
%TO.N,Net-(D6-K)*%
X164500000Y-96300000D03*
X167200000Y-119000000D03*
X173650000Y-124079999D03*
X193200000Y-125300000D03*
X174850000Y-58900000D03*
X121400000Y-127300000D03*
X175400000Y-130000000D03*
X164940000Y-112840000D03*
D23*
%TO.N,Net-(U12-A2)*%
X171989237Y-114870002D03*
X129550000Y-123250000D03*
D24*
%TO.N,Net-(SW11A-B)*%
X171801323Y-114001323D03*
%TO.N,/SCL*%
X177800000Y-135300003D03*
X148500000Y-129000000D03*
D23*
X134400000Y-133575000D03*
%TO.N,/SDA*%
X136000000Y-131600000D03*
D24*
X177800000Y-134500000D03*
X147600000Y-127600000D03*
D23*
%TO.N,/IO17*%
X109600000Y-102900000D03*
D24*
%TO.N,/IO18*%
X112600000Y-104200000D03*
D23*
%TO.N,/IO20*%
X119400000Y-106300003D03*
%TO.N,/IO19*%
X116000000Y-105200000D03*
%TO.N,Net-(U8-OC)*%
X217400000Y-110100002D03*
X216400002Y-116300000D03*
%TO.N,Net-(U8-OD)*%
X217400000Y-112000000D03*
X218300000Y-116300000D03*
%TO.N,Net-(D9-A)*%
X188000000Y-105300000D03*
%TO.N,Net-(U12-A3)*%
X196460000Y-109500000D03*
X173900000Y-110540000D03*
D24*
%TO.N,Net-(J3-Pin_2)*%
X146400000Y-113470000D03*
%TO.N,Net-(J4-Pin_2)*%
X145970000Y-112870000D03*
D23*
%TO.N,/IO36*%
X173900000Y-109270001D03*
%TO.N,/IO35*%
X173900000Y-108000000D03*
%TO.N,/IO37*%
X178650000Y-119000000D03*
%TO.N,/IO38*%
X178650000Y-125350000D03*
%TO.N,/IO40*%
X178650000Y-126620001D03*
%TO.N,/IO39*%
X173650000Y-125350000D03*
%TO.N,/IO48*%
X114400000Y-134000000D03*
X111640000Y-122550000D03*
%TO.N,/IO0*%
X110437499Y-125700000D03*
D24*
%TO.N,Net-(D10-K)*%
X173650000Y-122810000D03*
X174800000Y-56500000D03*
X176900000Y-130000000D03*
X192400000Y-125400000D03*
X162800000Y-116300000D03*
X163000000Y-112900000D03*
X164200000Y-97900000D03*
X109300000Y-119500000D03*
D23*
%TO.N,Net-(D13-A)*%
X188050000Y-113000000D03*
D24*
%TO.N,Net-(D14-K)*%
X173650000Y-121540000D03*
X133300000Y-56500000D03*
X178400000Y-130000000D03*
X132100000Y-118600000D03*
X155500000Y-116300000D03*
X155700000Y-112700000D03*
X163400000Y-99500000D03*
%TO.N,Net-(D18-K)*%
X146900000Y-115900000D03*
X121050735Y-111000735D03*
X173650000Y-120270001D03*
X133300000Y-58900000D03*
X179900000Y-130000000D03*
X162600000Y-101200000D03*
X151400000Y-113700000D03*
%TO.N,/DEFAULT_LED*%
X108200000Y-109300000D03*
%TO.N,/RGB_LED*%
X108200000Y-110100000D03*
D23*
%TO.N,/TXD*%
X101200000Y-132000000D03*
%TO.N,/RXD*%
X97690000Y-125585000D03*
%TD*%
D25*
%TO.N,+3.3V_Perip*%
X202500000Y-119400000D02*
X202500000Y-121074998D01*
X137600000Y-111500000D02*
X137600000Y-115920000D01*
X147300000Y-109500000D02*
X139600000Y-109500000D01*
X169600000Y-109000000D02*
X169100000Y-109500000D01*
X137600000Y-115920000D02*
X138080000Y-116400000D01*
D26*
X147300000Y-111520000D02*
X146600000Y-112220000D01*
X147300000Y-110000000D02*
X147300000Y-111520000D01*
X147300000Y-109500000D02*
X147300000Y-110000000D01*
D25*
X182600000Y-118200002D02*
X201300002Y-118200002D01*
X169100000Y-109500000D02*
X147300000Y-109500000D01*
X139600000Y-109500000D02*
X137600000Y-111500000D01*
X201300002Y-118200002D02*
X202500000Y-119400000D01*
%TO.N,GND*%
X204100000Y-122800000D02*
X204100000Y-124750002D01*
X204100000Y-124750002D02*
X204224999Y-124875001D01*
%TO.N,+BATT*%
X217400000Y-125507500D02*
X217400000Y-126712075D01*
X218400000Y-124687500D02*
X218220000Y-124687500D01*
X216200000Y-118300000D02*
X219900000Y-122000000D01*
X219900000Y-123500000D02*
X218712500Y-124687500D01*
X218712500Y-124687500D02*
X218400000Y-124687500D01*
X214912075Y-129200000D02*
X210700000Y-129200000D01*
X219900000Y-122000000D02*
X219900000Y-123500000D01*
X218220000Y-124687500D02*
X217400000Y-125507500D01*
X217400000Y-126712075D02*
X214912075Y-129200000D01*
%TO.N,+3.3V*%
X162000000Y-104300000D02*
X193000000Y-104300000D01*
X127700000Y-129100000D02*
X131875000Y-129100000D01*
X132350000Y-131950000D02*
X131975000Y-131575000D01*
X124370000Y-125770000D02*
X127700000Y-129100000D01*
X132350000Y-135500000D02*
X132350000Y-131950000D01*
X131975000Y-131575000D02*
X131975000Y-129200000D01*
X193000000Y-104300000D02*
X203251000Y-114551000D01*
X203251000Y-114551000D02*
X203251000Y-123599002D01*
X131875000Y-129100000D02*
X131975000Y-129200000D01*
X203251000Y-123599002D02*
X201950000Y-124900002D01*
X124050000Y-125770000D02*
X124370000Y-125770000D01*
%TO.N,VBUS*%
X209650000Y-131137078D02*
X209650000Y-124600000D01*
X148450000Y-130450000D02*
X148450000Y-132750000D01*
X147100000Y-129100000D02*
X148450000Y-130450000D01*
X151981642Y-133850000D02*
X152481642Y-133350000D01*
X207000000Y-109549999D02*
X209149999Y-109549999D01*
X149550000Y-133850000D02*
X151981642Y-133850000D01*
X204287078Y-136500000D02*
X209650000Y-131137078D01*
X211054999Y-111454999D02*
X211054999Y-116200001D01*
X147100000Y-129050000D02*
X147100000Y-129100000D01*
X142600000Y-128300000D02*
X146350000Y-128300000D01*
X209149999Y-109549999D02*
X211054999Y-111454999D01*
X146350000Y-128300000D02*
X147100000Y-129050000D01*
X175400000Y-136500000D02*
X204287078Y-136500000D01*
X167800000Y-130100000D02*
X169000000Y-130100000D01*
X148450000Y-132750000D02*
X149550000Y-133850000D01*
X169000000Y-130100000D02*
X175400000Y-136500000D01*
X211054999Y-116200001D02*
X210755000Y-116500000D01*
D26*
%TO.N,Net-(C18-Pad1)*%
X208750000Y-128150000D02*
X207750000Y-129150000D01*
X208750000Y-122650000D02*
X208750000Y-128150000D01*
X198000000Y-103200000D02*
X205200000Y-110400000D01*
X158550000Y-105250000D02*
X160600000Y-103200000D01*
X205200000Y-110400000D02*
X205200000Y-119100000D01*
X205200000Y-119100000D02*
X208750000Y-122650000D01*
X160600000Y-103200000D02*
X198000000Y-103200000D01*
%TO.N,/EN*%
X96000000Y-108505000D02*
X96000000Y-128920654D01*
X96420000Y-108085000D02*
X96000000Y-108505000D01*
X160637499Y-137500000D02*
X162499999Y-135637500D01*
X104579346Y-137500000D02*
X160637499Y-137500000D01*
X96000000Y-128920654D02*
X104579346Y-137500000D01*
D25*
%TO.N,Net-(J2-A)*%
X214609998Y-106100000D02*
X214609998Y-119190002D01*
X214609998Y-119190002D02*
X214600000Y-119200000D01*
X214600000Y-119200000D02*
X217900000Y-122500000D01*
D26*
%TO.N,/CLK*%
X153800000Y-92240000D02*
X153800000Y-90100000D01*
X155100000Y-88800000D02*
X155100000Y-68600000D01*
X152540000Y-93500000D02*
X153800000Y-92240000D01*
X155100000Y-68600000D02*
X157700000Y-66000000D01*
X157700000Y-66000000D02*
X157700000Y-63750000D01*
X153800000Y-90100000D02*
X155100000Y-88800000D01*
%TO.N,/MOSI*%
X152540000Y-66370000D02*
X155160000Y-63750000D01*
X152540000Y-90960000D02*
X152540000Y-66370000D01*
%TO.N,/DTR*%
X124971450Y-135490689D02*
X129081378Y-135490689D01*
X124630762Y-135150001D02*
X124971450Y-135490689D01*
%TO.N,Net-(Q5-Pad1)*%
X211750000Y-126450000D02*
X210500000Y-125200000D01*
X160100000Y-102400000D02*
X158550000Y-103950000D01*
X210500000Y-123691480D02*
X205944000Y-119135480D01*
X210500000Y-125200000D02*
X210500000Y-123691480D01*
X158550000Y-103950000D02*
X158550000Y-104050000D01*
X205944000Y-119135480D02*
X205944000Y-109994000D01*
X213350000Y-126450000D02*
X211750000Y-126450000D01*
X205944000Y-109994000D02*
X198350000Y-102400000D01*
X198350000Y-102400000D02*
X160100000Y-102400000D01*
%TO.N,Net-(D6-K)*%
X173650000Y-124079999D02*
X174679999Y-124079999D01*
X122800000Y-125900000D02*
X121400000Y-127300000D01*
X175200000Y-124600000D02*
X175200000Y-129800000D01*
X193200000Y-126000000D02*
X187400000Y-131800000D01*
X174679999Y-124079999D02*
X175200000Y-124600000D01*
X164940000Y-112840000D02*
X167200000Y-115100000D01*
X138500000Y-121200000D02*
X140000000Y-119700000D01*
X168200000Y-58900000D02*
X174850000Y-58900000D01*
X162000000Y-119000000D02*
X167200000Y-119000000D01*
X140000000Y-119700000D02*
X161300000Y-119700000D01*
X122800000Y-124500000D02*
X122800000Y-125900000D01*
X193200000Y-125300000D02*
X193200000Y-126000000D01*
X167200000Y-115100000D02*
X167200000Y-119000000D01*
X177200000Y-131800000D02*
X175400000Y-130000000D01*
X165801000Y-86799000D02*
X165801000Y-61299000D01*
X165801000Y-61299000D02*
X168200000Y-58900000D01*
X164500000Y-88100000D02*
X165801000Y-86799000D01*
X175200000Y-129800000D02*
X175400000Y-130000000D01*
X122800000Y-124500000D02*
X126100000Y-121200000D01*
X126100000Y-121200000D02*
X138500000Y-121200000D01*
X164500000Y-96300000D02*
X164500000Y-88100000D01*
X187400000Y-131800000D02*
X177200000Y-131800000D01*
X161300000Y-119700000D02*
X162000000Y-119000000D01*
%TO.N,Net-(U12-A2)*%
X130300000Y-124000000D02*
X129550000Y-123250000D01*
X171989237Y-121810763D02*
X169800000Y-124000000D01*
X171989237Y-114870002D02*
X171989237Y-121810763D01*
X169800000Y-124000000D02*
X130300000Y-124000000D01*
%TO.N,Net-(SW11A-B)*%
X171100000Y-114700000D02*
X171100000Y-119100000D01*
X157650000Y-121000000D02*
X164940000Y-121000000D01*
X171507357Y-114295289D02*
X171504711Y-114295289D01*
X169200000Y-121000000D02*
X164940000Y-121000000D01*
X171100000Y-119100000D02*
X169200000Y-121000000D01*
X143060000Y-121000000D02*
X150350000Y-121000000D01*
X150350000Y-121000000D02*
X157650000Y-121000000D01*
X171801323Y-114001323D02*
X171507357Y-114295289D01*
X171504711Y-114295289D02*
X171100000Y-114700000D01*
%TO.N,/IO17*%
X138500000Y-102900000D02*
X144100000Y-97300000D01*
X109600000Y-102900000D02*
X138500000Y-102900000D01*
X144100000Y-97300000D02*
X144100000Y-64650000D01*
X144100000Y-64650000D02*
X145000000Y-63750000D01*
%TO.N,/IO18*%
X145700000Y-65590000D02*
X145700000Y-98047837D01*
X145700000Y-98047837D02*
X139547837Y-104200000D01*
X139547837Y-104200000D02*
X112600000Y-104200000D01*
X147540000Y-63750000D02*
X145700000Y-65590000D01*
%TO.N,/IO20*%
X119400000Y-106300003D02*
X141999997Y-106300003D01*
X148600000Y-67770000D02*
X152620000Y-63750000D01*
X141999997Y-106300003D02*
X148600000Y-99700000D01*
X148600000Y-99700000D02*
X148600000Y-67770000D01*
%TO.N,/IO19*%
X116000000Y-105200000D02*
X140900000Y-105200000D01*
X140900000Y-105200000D02*
X147300000Y-98800000D01*
X147300000Y-98800000D02*
X147300000Y-66529999D01*
X147300000Y-66529999D02*
X150079999Y-63750000D01*
D25*
%TO.N,Net-(U8-OC)*%
X217400000Y-110100002D02*
X216400002Y-111100000D01*
X216400002Y-111100000D02*
X216400002Y-116300000D01*
%TO.N,Net-(U8-OD)*%
X217400000Y-112000000D02*
X217400000Y-115400000D01*
X217400000Y-115400000D02*
X218300000Y-116300000D01*
D26*
%TO.N,Net-(U12-A3)*%
X175560000Y-110540000D02*
X173900000Y-110540000D01*
X176600000Y-109500000D02*
X175560000Y-110540000D01*
X196460000Y-109500000D02*
X176600000Y-109500000D01*
%TO.N,Net-(J3-Pin_2)*%
X147730000Y-113470000D02*
X149200000Y-112000000D01*
X181900000Y-121640000D02*
X184400000Y-124140000D01*
X146400000Y-113470000D02*
X147730000Y-113470000D01*
X179800000Y-112000000D02*
X181900000Y-114100000D01*
X181900000Y-114100000D02*
X181900000Y-121640000D01*
X149200000Y-112000000D02*
X179800000Y-112000000D01*
%TO.N,Net-(J4-Pin_2)*%
X146150057Y-112870000D02*
X145970000Y-112870000D01*
X181378520Y-112870000D02*
X180007520Y-111499000D01*
X180007520Y-111499000D02*
X148801000Y-111499000D01*
X146649943Y-112870000D02*
X146648943Y-112869000D01*
X146151057Y-112869000D02*
X146150057Y-112870000D01*
X184400000Y-113840000D02*
X183430000Y-112870000D01*
X183430000Y-112870000D02*
X181378520Y-112870000D01*
X148801000Y-111499000D02*
X147430000Y-112870000D01*
X146648943Y-112869000D02*
X146151057Y-112869000D01*
X147430000Y-112870000D02*
X146649943Y-112870000D01*
%TO.N,/IO0*%
X113300000Y-136500000D02*
X140187499Y-136500000D01*
X140187499Y-136500000D02*
X141049999Y-135637500D01*
X110437499Y-125700000D02*
X110437499Y-133637499D01*
X110437499Y-133637499D02*
X113300000Y-136500000D01*
%TO.N,Net-(D10-K)*%
X163000000Y-112900000D02*
X162800000Y-113100000D01*
X192400000Y-125400000D02*
X186800000Y-131000000D01*
X175510000Y-122810000D02*
X175900000Y-123200000D01*
X175900000Y-123200000D02*
X175900000Y-129000000D01*
X175900000Y-129000000D02*
X176900000Y-130000000D01*
X162800000Y-113100000D02*
X162800000Y-116300000D01*
X177900000Y-131000000D02*
X176900000Y-130000000D01*
X109300000Y-119500000D02*
X110300000Y-120500000D01*
X169700000Y-56500000D02*
X174800000Y-56500000D01*
X163700000Y-87800000D02*
X165300000Y-86200000D01*
X162800000Y-116500000D02*
X162800000Y-116300000D01*
X164200000Y-97900000D02*
X163700000Y-97400000D01*
X138100000Y-120500000D02*
X139400000Y-119200000D01*
X173650000Y-122810000D02*
X175510000Y-122810000D01*
X165300000Y-60900000D02*
X169700000Y-56500000D01*
X160100000Y-119200000D02*
X162800000Y-116500000D01*
X110300000Y-120500000D02*
X138100000Y-120500000D01*
X165300000Y-86200000D02*
X165300000Y-60900000D01*
X186800000Y-131000000D02*
X177900000Y-131000000D01*
X139400000Y-119200000D02*
X160100000Y-119200000D01*
X163700000Y-97400000D02*
X163700000Y-87800000D01*
%TO.N,Net-(D14-K)*%
X155500000Y-116500000D02*
X155500000Y-116300000D01*
X163000000Y-97700000D02*
X163000000Y-87700000D01*
X164700000Y-60791480D02*
X160408520Y-56500000D01*
X163400000Y-99500000D02*
X163400000Y-98100000D01*
X160408520Y-56500000D02*
X133300000Y-56500000D01*
X140600000Y-118600000D02*
X140601000Y-118599000D01*
X155500000Y-112900000D02*
X155500000Y-116300000D01*
X132100000Y-118600000D02*
X140600000Y-118600000D01*
X140601000Y-118599000D02*
X153401000Y-118599000D01*
X176100000Y-121500000D02*
X176600000Y-122000000D01*
X163000000Y-87700000D02*
X164700000Y-86000000D01*
X164700000Y-86000000D02*
X164700000Y-60791480D01*
X176600000Y-128200000D02*
X178400000Y-130000000D01*
X155700000Y-112700000D02*
X155500000Y-112900000D01*
X173650000Y-121540000D02*
X173690000Y-121500000D01*
X173690000Y-121500000D02*
X176100000Y-121500000D01*
X155650000Y-112750000D02*
X155700000Y-112700000D01*
X176600000Y-122000000D02*
X176600000Y-128200000D01*
X163400000Y-98100000D02*
X163000000Y-97700000D01*
X153401000Y-118599000D02*
X155500000Y-116500000D01*
%TO.N,Net-(D18-K)*%
X176500000Y-120300000D02*
X177200000Y-121000000D01*
X162200000Y-99000000D02*
X162200000Y-87600000D01*
X124500000Y-117900000D02*
X144900000Y-117900000D01*
X162600000Y-101200000D02*
X162600000Y-99400000D01*
X151400000Y-113700000D02*
X149100000Y-113700000D01*
X173679999Y-120300000D02*
X176500000Y-120300000D01*
X162600000Y-99400000D02*
X162200000Y-99000000D01*
X173650000Y-120270001D02*
X173679999Y-120300000D01*
X121700000Y-111650000D02*
X121700000Y-115100000D01*
X177200000Y-121000000D02*
X177200000Y-127300000D01*
X177200000Y-127300000D02*
X179900000Y-130000000D01*
X162100000Y-58900000D02*
X133300000Y-58900000D01*
X149100000Y-113700000D02*
X146900000Y-115900000D01*
X121050735Y-111000735D02*
X121700000Y-111650000D01*
X164199000Y-60999000D02*
X162100000Y-58900000D01*
X164199000Y-85601000D02*
X164199000Y-60999000D01*
X162200000Y-87600000D02*
X164199000Y-85601000D01*
X144900000Y-117900000D02*
X146900000Y-115900000D01*
X121700000Y-115100000D02*
X124500000Y-117900000D01*
%TD*%
M02*
