%TF.GenerationSoftware,KiCad,Pcbnew,9.0.2*%
%TF.CreationDate,2025-07-06T19:20:27+07:00*%
%TF.ProjectId,Gamepad PCB,47616d65-7061-4642-9050-43422e6b6963,v03*%
%TF.SameCoordinates,Original*%
%TF.FileFunction,Paste,Top*%
%TF.FilePolarity,Positive*%
%FSLAX46Y46*%
G04 Gerber Fmt 4.6, Leading zero omitted, Abs format (unit mm)*
G04 Created by KiCad (PCBNEW 9.0.2) date 2025-07-06 19:20:27*
%MOMM*%
%LPD*%
G01*
G04 APERTURE LIST*
G04 Aperture macros list*
%AMRoundRect*
0 Rectangle with rounded corners*
0 $1 Rounding radius*
0 $2 $3 $4 $5 $6 $7 $8 $9 X,Y pos of 4 corners*
0 Add a 4 corners polygon primitive as box body*
4,1,4,$2,$3,$4,$5,$6,$7,$8,$9,$2,$3,0*
0 Add four circle primitives for the rounded corners*
1,1,$1+$1,$2,$3*
1,1,$1+$1,$4,$5*
1,1,$1+$1,$6,$7*
1,1,$1+$1,$8,$9*
0 Add four rect primitives between the rounded corners*
20,1,$1+$1,$2,$3,$4,$5,0*
20,1,$1+$1,$4,$5,$6,$7,0*
20,1,$1+$1,$6,$7,$8,$9,0*
20,1,$1+$1,$8,$9,$2,$3,0*%
G04 Aperture macros list end*
%ADD10R,2.100000X1.400000*%
%ADD11RoundRect,0.237500X0.300000X0.237500X-0.300000X0.237500X-0.300000X-0.237500X0.300000X-0.237500X0*%
%ADD12RoundRect,0.237500X-0.300000X-0.237500X0.300000X-0.237500X0.300000X0.237500X-0.300000X0.237500X0*%
%ADD13RoundRect,0.150000X0.850000X0.150000X-0.850000X0.150000X-0.850000X-0.150000X0.850000X-0.150000X0*%
%ADD14RoundRect,0.237500X0.250000X0.237500X-0.250000X0.237500X-0.250000X-0.237500X0.250000X-0.237500X0*%
%ADD15RoundRect,0.200000X-0.750000X-0.200000X0.750000X-0.200000X0.750000X0.200000X-0.750000X0.200000X0*%
%ADD16RoundRect,0.237500X-0.250000X-0.237500X0.250000X-0.237500X0.250000X0.237500X-0.250000X0.237500X0*%
%ADD17RoundRect,0.237500X-0.237500X0.300000X-0.237500X-0.300000X0.237500X-0.300000X0.237500X0.300000X0*%
%ADD18RoundRect,0.237500X-0.237500X0.250000X-0.237500X-0.250000X0.237500X-0.250000X0.237500X0.250000X0*%
%ADD19RoundRect,0.375000X-0.375000X0.625000X-0.375000X-0.625000X0.375000X-0.625000X0.375000X0.625000X0*%
%ADD20RoundRect,0.500000X-1.400000X0.500000X-1.400000X-0.500000X1.400000X-0.500000X1.400000X0.500000X0*%
%ADD21RoundRect,0.150000X0.512500X0.150000X-0.512500X0.150000X-0.512500X-0.150000X0.512500X-0.150000X0*%
%ADD22RoundRect,0.200000X0.750000X0.200000X-0.750000X0.200000X-0.750000X-0.200000X0.750000X-0.200000X0*%
%ADD23RoundRect,0.250001X0.462499X0.624999X-0.462499X0.624999X-0.462499X-0.624999X0.462499X-0.624999X0*%
%ADD24RoundRect,0.250001X0.624999X-0.462499X0.624999X0.462499X-0.624999X0.462499X-0.624999X-0.462499X0*%
%ADD25RoundRect,0.237500X0.237500X-0.250000X0.237500X0.250000X-0.237500X0.250000X-0.237500X-0.250000X0*%
%ADD26RoundRect,0.237500X0.237500X-0.300000X0.237500X0.300000X-0.237500X0.300000X-0.237500X-0.300000X0*%
%ADD27RoundRect,0.175000X-0.175000X-0.220000X0.175000X-0.220000X0.175000X0.220000X-0.175000X0.220000X0*%
%ADD28RoundRect,0.075000X-0.650000X-0.075000X0.650000X-0.075000X0.650000X0.075000X-0.650000X0.075000X0*%
%ADD29RoundRect,0.200000X-0.200000X0.750000X-0.200000X-0.750000X0.200000X-0.750000X0.200000X0.750000X0*%
%ADD30RoundRect,0.207500X0.207500X0.207500X-0.207500X0.207500X-0.207500X-0.207500X0.207500X-0.207500X0*%
%ADD31RoundRect,0.062500X0.412500X0.062500X-0.412500X0.062500X-0.412500X-0.062500X0.412500X-0.062500X0*%
%ADD32RoundRect,0.062500X0.062500X0.412500X-0.062500X0.412500X-0.062500X-0.412500X0.062500X-0.412500X0*%
%ADD33RoundRect,0.182500X0.302500X0.182500X-0.302500X0.182500X-0.302500X-0.182500X0.302500X-0.182500X0*%
%ADD34RoundRect,0.062500X0.387500X0.062500X-0.387500X0.062500X-0.387500X-0.062500X0.387500X-0.062500X0*%
%ADD35RoundRect,0.225000X-0.225000X-0.375000X0.225000X-0.375000X0.225000X0.375000X-0.225000X0.375000X0*%
%ADD36RoundRect,0.150000X0.150000X-0.512500X0.150000X0.512500X-0.150000X0.512500X-0.150000X-0.512500X0*%
%ADD37RoundRect,0.250000X0.645000X-0.670000X0.645000X0.670000X-0.645000X0.670000X-0.645000X-0.670000X0*%
%ADD38RoundRect,0.175000X0.175000X-1.250000X0.175000X1.250000X-0.175000X1.250000X-0.175000X-1.250000X0*%
%ADD39RoundRect,0.150000X-0.150000X-0.425000X0.150000X-0.425000X0.150000X0.425000X-0.150000X0.425000X0*%
%ADD40RoundRect,0.075000X-0.075000X-0.500000X0.075000X-0.500000X0.075000X0.500000X-0.075000X0.500000X0*%
%ADD41O,1.000000X2.100000*%
%ADD42O,1.000000X1.800000*%
%ADD43RoundRect,0.150000X-0.150000X0.512500X-0.150000X-0.512500X0.150000X-0.512500X0.150000X0.512500X0*%
G04 APERTURE END LIST*
D10*
%TO.C,SW6*%
X109450000Y-107750000D03*
X118550000Y-107750000D03*
X109450000Y-112250000D03*
X118550000Y-112250000D03*
%TD*%
D11*
%TO.C,C14*%
X96900000Y-112000000D03*
X95174998Y-112000000D03*
%TD*%
D10*
%TO.C,SW9*%
X187360000Y-113000000D03*
X196460000Y-113000000D03*
X187360000Y-117500000D03*
X196460000Y-117500000D03*
%TD*%
D12*
%TO.C,C22*%
X94637499Y-106500000D03*
X96362501Y-106500000D03*
%TD*%
D13*
%TO.C,U12*%
X178900000Y-115620001D03*
X178900000Y-114350000D03*
X178900000Y-113079999D03*
X178900000Y-111810000D03*
X178900000Y-110540000D03*
X178900000Y-109270001D03*
X178900000Y-108000000D03*
X178900000Y-106729999D03*
X173900000Y-106729999D03*
X173900000Y-108000000D03*
X173900000Y-109270001D03*
X173900000Y-110540000D03*
X173900000Y-111810000D03*
X173900000Y-113079999D03*
X173900000Y-114350000D03*
X173900000Y-115620001D03*
%TD*%
D14*
%TO.C,R24*%
X175875000Y-105125000D03*
X174050000Y-105125000D03*
%TD*%
D15*
%TO.C,Q5*%
X213400000Y-128100000D03*
X213400000Y-130000000D03*
X216400000Y-129050000D03*
%TD*%
D16*
%TO.C,R20*%
X124050000Y-127270000D03*
X125875000Y-127270000D03*
%TD*%
D17*
%TO.C,C18*%
X218600000Y-128200000D03*
X218600000Y-129925002D03*
%TD*%
%TO.C,C23*%
X182600000Y-106875000D03*
X182600000Y-108600002D03*
%TD*%
D18*
%TO.C,R21*%
X175400000Y-128175000D03*
X175400000Y-130000000D03*
%TD*%
%TO.C,R4*%
X218100000Y-124637500D03*
X218100000Y-126462500D03*
%TD*%
D19*
%TO.C,U1*%
X204250000Y-124900001D03*
X201950000Y-124900002D03*
D20*
X201950000Y-131200000D03*
D19*
X199650000Y-124900001D03*
%TD*%
D21*
%TO.C,U8*%
X217400000Y-112000000D03*
X217400000Y-111050001D03*
X217400000Y-110100002D03*
X215125000Y-110100002D03*
X215125000Y-111050001D03*
X215125000Y-112000000D03*
%TD*%
D14*
%TO.C,R9*%
X208700000Y-103750000D03*
X206875000Y-103750000D03*
%TD*%
D18*
%TO.C,R5*%
X219600000Y-110500000D03*
X219600000Y-112325000D03*
%TD*%
D11*
%TO.C,C3*%
X159250000Y-95500000D03*
X157524998Y-95500000D03*
%TD*%
D10*
%TO.C,SW13*%
X187360000Y-121000000D03*
X196460000Y-121000000D03*
X187360000Y-125500000D03*
X196460000Y-125500000D03*
%TD*%
D11*
%TO.C,C26*%
X112162501Y-125700000D03*
X110437499Y-125700000D03*
%TD*%
D10*
%TO.C,SW17*%
X187360000Y-129000000D03*
X196460000Y-129000000D03*
X187360000Y-133500000D03*
X196460000Y-133500000D03*
%TD*%
D12*
%TO.C,C27*%
X145375000Y-59200000D03*
X147100000Y-59200000D03*
%TD*%
D22*
%TO.C,Q4*%
X113600000Y-119650000D03*
X113600000Y-117750000D03*
X110600000Y-118700000D03*
%TD*%
D17*
%TO.C,C12*%
X202500000Y-121074998D03*
X202500000Y-122800000D03*
%TD*%
D23*
%TO.C,D3*%
X205075000Y-106150000D03*
X202100000Y-106150000D03*
%TD*%
D24*
%TO.C,D5*%
X171400000Y-135575000D03*
X171400000Y-132600000D03*
%TD*%
D17*
%TO.C,C7*%
X201000000Y-121074998D03*
X201000000Y-122800000D03*
%TD*%
D14*
%TO.C,R8*%
X208700000Y-106150000D03*
X206875000Y-106150000D03*
%TD*%
%TO.C,R17*%
X132993750Y-125770000D03*
X131168750Y-125770000D03*
%TD*%
D12*
%TO.C,C24*%
X131975000Y-129200000D03*
X133700000Y-129200000D03*
%TD*%
D16*
%TO.C,R11*%
X115587500Y-114125001D03*
X117412500Y-114125001D03*
%TD*%
D22*
%TO.C,Q6*%
X210750000Y-130100000D03*
X210750000Y-128200000D03*
X207750000Y-129150000D03*
%TD*%
D18*
%TO.C,R25*%
X179900000Y-128175000D03*
X179900000Y-130000000D03*
%TD*%
D12*
%TO.C,C9*%
X203150001Y-134910001D03*
X204875003Y-134910001D03*
%TD*%
D19*
%TO.C,U5*%
X204300000Y-112650000D03*
X202000000Y-112650001D03*
D20*
X202000000Y-118949999D03*
D19*
X199700000Y-112650000D03*
%TD*%
D16*
%TO.C,R22*%
X127756250Y-125770000D03*
X129581250Y-125770000D03*
%TD*%
D23*
%TO.C,D2*%
X205125000Y-103800000D03*
X202150000Y-103800000D03*
%TD*%
D25*
%TO.C,R16*%
X134400000Y-135400000D03*
X134400000Y-133575000D03*
%TD*%
D16*
%TO.C,R2*%
X115587500Y-117800000D03*
X117412500Y-117800000D03*
%TD*%
D26*
%TO.C,C1*%
X185100000Y-135262501D03*
X185100000Y-133537499D03*
%TD*%
D18*
%TO.C,R27*%
X176900000Y-128175000D03*
X176900000Y-130000000D03*
%TD*%
D11*
%TO.C,C21*%
X96362501Y-105000000D03*
X94637499Y-105000000D03*
%TD*%
D10*
%TO.C,SW1*%
X149450000Y-104050000D03*
X158550000Y-104050000D03*
X149450000Y-108550000D03*
X158550000Y-108550000D03*
%TD*%
D27*
%TO.C,U11*%
X141800000Y-112000000D03*
X141800000Y-112940000D03*
X142640000Y-112000000D03*
X142640000Y-112940000D03*
D28*
X140070000Y-111470000D03*
X140070000Y-111970000D03*
X140070000Y-112470000D03*
X140070000Y-112970000D03*
X140070000Y-113470000D03*
X144370000Y-113470000D03*
X144370000Y-112970000D03*
X144370000Y-112470000D03*
X144370000Y-111970000D03*
X144370000Y-111470000D03*
%TD*%
D22*
%TO.C,Q2*%
X113600000Y-116050000D03*
X113600000Y-114150000D03*
X110600000Y-115100000D03*
%TD*%
D18*
%TO.C,R3*%
X216600000Y-124625000D03*
X216600000Y-126450000D03*
%TD*%
D29*
%TO.C,Q1*%
X214450000Y-116800000D03*
X212550000Y-116800000D03*
X213500000Y-119800000D03*
%TD*%
D17*
%TO.C,C19*%
X213050000Y-112187499D03*
X213050000Y-113912501D03*
%TD*%
D12*
%TO.C,C11*%
X200725000Y-110500000D03*
X202450000Y-110500000D03*
%TD*%
D26*
%TO.C,C5*%
X162400000Y-130100000D03*
X162400000Y-128374998D03*
%TD*%
D18*
%TO.C,R26*%
X178400000Y-128175000D03*
X178400000Y-130000000D03*
%TD*%
D25*
%TO.C,R28*%
X170500000Y-130712500D03*
X170500000Y-128887500D03*
%TD*%
D30*
%TO.C,U10*%
X129030000Y-132300000D03*
X129030000Y-131270000D03*
X129030000Y-130240000D03*
X128000000Y-132300000D03*
X128000000Y-131270000D03*
X128000000Y-130240000D03*
X126970000Y-132300000D03*
X126970000Y-131270000D03*
X126970000Y-130240000D03*
D31*
X130375000Y-132770000D03*
X130375000Y-132270000D03*
X130375000Y-131770000D03*
X130375001Y-131270000D03*
X130375000Y-130770000D03*
X130375000Y-130270000D03*
X130375000Y-129770000D03*
D32*
X129500000Y-128895000D03*
X129000000Y-128895000D03*
X128500000Y-128895000D03*
X128000000Y-128894999D03*
X127500000Y-128895000D03*
X127000000Y-128895000D03*
X126500000Y-128895000D03*
D31*
X125625000Y-129770000D03*
X125625000Y-130270000D03*
X125625000Y-130770000D03*
X125624999Y-131270000D03*
X125625000Y-131770000D03*
X125625000Y-132270000D03*
X125625000Y-132770000D03*
D32*
X126500000Y-133645000D03*
X127000000Y-133645000D03*
X127500000Y-133645000D03*
X128000000Y-133645001D03*
X128500000Y-133645000D03*
X129000000Y-133645000D03*
X129500000Y-133645000D03*
%TD*%
D25*
%TO.C,R18*%
X136000000Y-135425000D03*
X136000000Y-133600000D03*
%TD*%
D17*
%TO.C,C28*%
X181150000Y-117925000D03*
X181150000Y-119650002D03*
%TD*%
D16*
%TO.C,R7*%
X213225000Y-125100000D03*
X215050000Y-125100000D03*
%TD*%
D12*
%TO.C,C17*%
X216125000Y-120350000D03*
X217850000Y-120350000D03*
%TD*%
D33*
%TO.C,U2*%
X181900000Y-134700000D03*
X181900000Y-133800000D03*
X180700000Y-134700000D03*
X180700000Y-133800000D03*
D34*
X183200000Y-135225000D03*
X183200000Y-134575000D03*
X183200000Y-133925000D03*
X183200000Y-133275000D03*
X179400000Y-133275000D03*
X179400000Y-133925000D03*
X179400000Y-134575000D03*
X179400000Y-135225000D03*
%TD*%
D35*
%TO.C,D1*%
X206350000Y-124600000D03*
X209650000Y-124600000D03*
%TD*%
D12*
%TO.C,C8*%
X203150000Y-133350000D03*
X204875002Y-133350000D03*
%TD*%
D10*
%TO.C,SW14*%
X98450000Y-118750000D03*
X107550000Y-118750000D03*
X98450000Y-123250000D03*
X107550000Y-123250000D03*
%TD*%
D36*
%TO.C,U3*%
X136350002Y-128750000D03*
X137300001Y-128750000D03*
X138250000Y-128750000D03*
X138250000Y-126475000D03*
X137300001Y-126475000D03*
X136350002Y-126475000D03*
%TD*%
D10*
%TO.C,SW5*%
X187360000Y-105000000D03*
X196460000Y-105000000D03*
X187360000Y-109500000D03*
X196460000Y-109500000D03*
%TD*%
D12*
%TO.C,C15*%
X95174999Y-110150000D03*
X96899999Y-110150000D03*
%TD*%
D37*
%TO.C,U7*%
X207390000Y-114840000D03*
X209610000Y-114840000D03*
X207390000Y-112560000D03*
X209610000Y-112560000D03*
D38*
X206595000Y-117850001D03*
X207865000Y-117850000D03*
X209135000Y-117850000D03*
X210405000Y-117850001D03*
X210405000Y-109549999D03*
X209135000Y-109550000D03*
X207865000Y-109550000D03*
X206595000Y-109549999D03*
%TD*%
D12*
%TO.C,C25*%
X131175000Y-127500000D03*
X132900000Y-127500000D03*
%TD*%
D17*
%TO.C,C13*%
X204100000Y-121074998D03*
X204100000Y-122800000D03*
%TD*%
D16*
%TO.C,R23*%
X124050000Y-125770000D03*
X125875000Y-125770000D03*
%TD*%
D26*
%TO.C,C4*%
X160900000Y-130075002D03*
X160900000Y-128350000D03*
%TD*%
D25*
%TO.C,R6*%
X213050000Y-110325000D03*
X213050000Y-108500000D03*
%TD*%
D13*
%TO.C,U13*%
X178650000Y-126620001D03*
X178650000Y-125350000D03*
X178650000Y-124079999D03*
X178650000Y-122810000D03*
X178650000Y-121540000D03*
X178650000Y-120270001D03*
X178650000Y-119000000D03*
X178650000Y-117729999D03*
X173650000Y-117729999D03*
X173650000Y-119000000D03*
X173650000Y-120270001D03*
X173650000Y-121540000D03*
X173650000Y-122810000D03*
X173650000Y-124079999D03*
X173650000Y-125350000D03*
X173650000Y-126620001D03*
%TD*%
D14*
%TO.C,R1*%
X209100000Y-122550000D03*
X207275000Y-122550000D03*
%TD*%
D39*
%TO.C,J1*%
X150800000Y-131320000D03*
X151600000Y-131320000D03*
D40*
X152750000Y-131320001D03*
X153750000Y-131320000D03*
X154250000Y-131320000D03*
X155250000Y-131320001D03*
D39*
X156400000Y-131320000D03*
X157200000Y-131320000D03*
X157200000Y-131320000D03*
X156400000Y-131320000D03*
D40*
X155750000Y-131320000D03*
X154750000Y-131320000D03*
X153250000Y-131320000D03*
X152250000Y-131320000D03*
D39*
X151600000Y-131320000D03*
X150800000Y-131320000D03*
D41*
X149680000Y-131895000D03*
D42*
X149680000Y-136075000D03*
D41*
X158320000Y-131895000D03*
D42*
X158320000Y-136075000D03*
%TD*%
D14*
%TO.C,R10*%
X209490000Y-120500000D03*
X207665000Y-120500000D03*
%TD*%
D43*
%TO.C,U9*%
X218300000Y-114025000D03*
X217350001Y-114025000D03*
X216400002Y-114025000D03*
X216400002Y-116300000D03*
X217350001Y-116300000D03*
X218300000Y-116300000D03*
%TD*%
D10*
%TO.C,SW10*%
X120450000Y-118750000D03*
X129550000Y-118750000D03*
X120450000Y-123250000D03*
X129550000Y-123250000D03*
%TD*%
%TO.C,SW18*%
X109450000Y-129750000D03*
X118550000Y-129750000D03*
X109450000Y-134250000D03*
X118550000Y-134250000D03*
%TD*%
D25*
%TO.C,R19*%
X181050000Y-108675000D03*
X181050000Y-106850000D03*
%TD*%
D14*
%TO.C,R15*%
X96912500Y-113600000D03*
X95087500Y-113600000D03*
%TD*%
M02*
