%TF.GenerationSoftware,KiCad,Pcbnew,9.0.2*%
%TF.CreationDate,2025-08-14T03:12:12+07:00*%
%TF.ProjectId,Gamepad PCB,47616d65-7061-4642-9050-43422e6b6963,v03*%
%TF.SameCoordinates,Original*%
%TF.FileFunction,Soldermask,Top*%
%TF.FilePolarity,Negative*%
%FSLAX46Y46*%
G04 Gerber Fmt 4.6, Leading zero omitted, Abs format (unit mm)*
G04 Created by KiCad (PCBNEW 9.0.2) date 2025-08-14 03:12:12*
%MOMM*%
%LPD*%
G01*
G04 APERTURE LIST*
G04 Aperture macros list*
%AMRoundRect*
0 Rectangle with rounded corners*
0 $1 Rounding radius*
0 $2 $3 $4 $5 $6 $7 $8 $9 X,Y pos of 4 corners*
0 Add a 4 corners polygon primitive as box body*
4,1,4,$2,$3,$4,$5,$6,$7,$8,$9,$2,$3,0*
0 Add four circle primitives for the rounded corners*
1,1,$1+$1,$2,$3*
1,1,$1+$1,$4,$5*
1,1,$1+$1,$6,$7*
1,1,$1+$1,$8,$9*
0 Add four rect primitives between the rounded corners*
20,1,$1+$1,$2,$3,$4,$5,0*
20,1,$1+$1,$4,$5,$6,$7,0*
20,1,$1+$1,$6,$7,$8,$9,0*
20,1,$1+$1,$8,$9,$2,$3,0*%
%AMFreePoly0*
4,1,6,1.000000,0.000000,0.500000,-0.750000,-0.500000,-0.750000,-0.500000,0.750000,0.500000,0.750000,1.000000,0.000000,1.000000,0.000000,$1*%
%AMFreePoly1*
4,1,6,0.500000,-0.750000,-0.650000,-0.750000,-0.150000,0.000000,-0.650000,0.750000,0.500000,0.750000,0.500000,-0.750000,0.500000,-0.750000,$1*%
G04 Aperture macros list end*
%ADD10C,0.000000*%
%ADD11RoundRect,0.237500X0.250000X0.237500X-0.250000X0.237500X-0.250000X-0.237500X0.250000X-0.237500X0*%
%ADD12RoundRect,0.250001X0.462499X0.624999X-0.462499X0.624999X-0.462499X-0.624999X0.462499X-0.624999X0*%
%ADD13RoundRect,0.102000X-1.050000X-0.700000X1.050000X-0.700000X1.050000X0.700000X-1.050000X0.700000X0*%
%ADD14RoundRect,0.237500X-0.237500X0.250000X-0.237500X-0.250000X0.237500X-0.250000X0.237500X0.250000X0*%
%ADD15RoundRect,0.062500X0.387500X0.062500X-0.387500X0.062500X-0.387500X-0.062500X0.387500X-0.062500X0*%
%ADD16R,2.400000X1.800000*%
%ADD17C,2.000000*%
%ADD18R,2.000000X2.000000*%
%ADD19R,1.680000X1.880000*%
%ADD20RoundRect,0.075000X-0.650000X-0.075000X0.650000X-0.075000X0.650000X0.075000X-0.650000X0.075000X0*%
%ADD21R,3.100000X3.100000*%
%ADD22RoundRect,0.062500X0.062500X0.412500X-0.062500X0.412500X-0.062500X-0.412500X0.062500X-0.412500X0*%
%ADD23RoundRect,0.062500X0.412500X0.062500X-0.412500X0.062500X-0.412500X-0.062500X0.412500X-0.062500X0*%
%ADD24O,2.600000X1.700000*%
%ADD25O,3.300000X2.000000*%
%ADD26C,1.750000*%
%ADD27C,2.100000*%
%ADD28RoundRect,0.200000X0.750000X0.200000X-0.750000X0.200000X-0.750000X-0.200000X0.750000X-0.200000X0*%
%ADD29C,5.600000*%
%ADD30C,3.600000*%
%ADD31RoundRect,0.237500X0.300000X0.237500X-0.300000X0.237500X-0.300000X-0.237500X0.300000X-0.237500X0*%
%ADD32RoundRect,0.237500X-0.300000X-0.237500X0.300000X-0.237500X0.300000X0.237500X-0.300000X0.237500X0*%
%ADD33RoundRect,0.150000X0.850000X0.150000X-0.850000X0.150000X-0.850000X-0.150000X0.850000X-0.150000X0*%
%ADD34RoundRect,0.200000X-0.750000X-0.200000X0.750000X-0.200000X0.750000X0.200000X-0.750000X0.200000X0*%
%ADD35RoundRect,0.237500X-0.250000X-0.237500X0.250000X-0.237500X0.250000X0.237500X-0.250000X0.237500X0*%
%ADD36RoundRect,0.237500X-0.237500X0.300000X-0.237500X-0.300000X0.237500X-0.300000X0.237500X0.300000X0*%
%ADD37RoundRect,0.225000X0.225000X0.375000X-0.225000X0.375000X-0.225000X-0.375000X0.225000X-0.375000X0*%
%ADD38RoundRect,0.150000X0.512500X0.150000X-0.512500X0.150000X-0.512500X-0.150000X0.512500X-0.150000X0*%
%ADD39RoundRect,0.250001X0.624999X-0.462499X0.624999X0.462499X-0.624999X0.462499X-0.624999X-0.462499X0*%
%ADD40RoundRect,0.225000X-0.225000X-0.375000X0.225000X-0.375000X0.225000X0.375000X-0.225000X0.375000X0*%
%ADD41C,1.800000*%
%ADD42RoundRect,0.375000X-0.375000X0.625000X-0.375000X-0.625000X0.375000X-0.625000X0.375000X0.625000X0*%
%ADD43RoundRect,0.500000X-1.400000X0.500000X-1.400000X-0.500000X1.400000X-0.500000X1.400000X0.500000X0*%
%ADD44RoundRect,0.237500X0.237500X-0.250000X0.237500X0.250000X-0.237500X0.250000X-0.237500X-0.250000X0*%
%ADD45RoundRect,0.237500X0.237500X-0.300000X0.237500X0.300000X-0.237500X0.300000X-0.237500X-0.300000X0*%
%ADD46RoundRect,0.200000X-0.200000X0.750000X-0.200000X-0.750000X0.200000X-0.750000X0.200000X0.750000X0*%
%ADD47FreePoly0,270.000000*%
%ADD48FreePoly1,270.000000*%
%ADD49RoundRect,0.150000X0.150000X-0.512500X0.150000X0.512500X-0.150000X0.512500X-0.150000X-0.512500X0*%
%ADD50RoundRect,0.150000X-0.150000X-0.425000X0.150000X-0.425000X0.150000X0.425000X-0.150000X0.425000X0*%
%ADD51RoundRect,0.075000X-0.075000X-0.500000X0.075000X-0.500000X0.075000X0.500000X-0.075000X0.500000X0*%
%ADD52O,1.000000X2.100000*%
%ADD53O,1.000000X1.800000*%
%ADD54RoundRect,0.150000X-0.150000X0.512500X-0.150000X-0.512500X0.150000X-0.512500X0.150000X0.512500X0*%
%ADD55RoundRect,0.225000X0.375000X-0.225000X0.375000X0.225000X-0.375000X0.225000X-0.375000X-0.225000X0*%
%ADD56C,1.600000*%
%ADD57R,1.905000X2.000000*%
%ADD58O,1.905000X2.000000*%
%ADD59RoundRect,0.150000X0.150000X-0.650000X0.150000X0.650000X-0.150000X0.650000X-0.150000X-0.650000X0*%
%ADD60R,3.200000X2.400000*%
G04 APERTURE END LIST*
D10*
%TO.C,JP1*%
G36*
X173450000Y-131049999D02*
G01*
X171950000Y-131049999D01*
X171950000Y-128599999D01*
X173450000Y-128599999D01*
X173450000Y-131049999D01*
G37*
%TD*%
D11*
%TO.C,R9*%
X210275000Y-107450000D03*
X208450000Y-107450000D03*
%TD*%
D12*
%TO.C,D3*%
X203687500Y-105150000D03*
X206662500Y-105150000D03*
%TD*%
D11*
%TO.C,R8*%
X208462500Y-105150000D03*
X210287500Y-105150000D03*
%TD*%
D13*
%TO.C,SW10*%
X129550000Y-123250000D03*
X120450000Y-123250000D03*
X129550000Y-118750000D03*
X120450000Y-118750000D03*
%TD*%
D14*
%TO.C,R3*%
X218400000Y-124687500D03*
X218400000Y-126512500D03*
%TD*%
D15*
%TO.C,U2*%
X183200000Y-135350000D03*
X183200000Y-134700000D03*
X183200000Y-134050000D03*
X183200000Y-133400000D03*
X179400000Y-133400000D03*
X179400000Y-134050000D03*
X179400000Y-134700000D03*
X179400000Y-135350000D03*
D16*
X181300000Y-134375000D03*
%TD*%
D17*
%TO.C,BZ1*%
X166600000Y-107400001D03*
D18*
X166600000Y-99800000D03*
%TD*%
D19*
%TO.C,U11*%
X142220000Y-112470000D03*
D20*
X144370000Y-111470000D03*
X144370000Y-111970000D03*
X144370000Y-112470000D03*
X144370000Y-112970000D03*
X144370000Y-113470000D03*
X140070000Y-113470000D03*
X140070000Y-112970000D03*
X140070000Y-112470000D03*
X140070000Y-111970000D03*
X140070000Y-111470000D03*
%TD*%
D21*
%TO.C,U10*%
X128000000Y-131270000D03*
D22*
X129500000Y-133645000D03*
X129000000Y-133645000D03*
X128500000Y-133645000D03*
X128000000Y-133645001D03*
X127500000Y-133645000D03*
X127000000Y-133645000D03*
X126500000Y-133645000D03*
D23*
X125625000Y-132770000D03*
X125625000Y-132270000D03*
X125625000Y-131770000D03*
X125624999Y-131270000D03*
X125625000Y-130770000D03*
X125625000Y-130270000D03*
X125625000Y-129770000D03*
D22*
X126500000Y-128895000D03*
X127000000Y-128895000D03*
X127500000Y-128895000D03*
X128000000Y-128894999D03*
X128500000Y-128895000D03*
X129000000Y-128895000D03*
X129500000Y-128895000D03*
D23*
X130375000Y-129770000D03*
X130375000Y-130270000D03*
X130375000Y-130770000D03*
X130375001Y-131270000D03*
X130375000Y-131770000D03*
X130375000Y-132270000D03*
X130375000Y-132770000D03*
%TD*%
D24*
%TO.C,SW19*%
X164940000Y-125700000D03*
X164940000Y-121000000D03*
X164940000Y-116300000D03*
%TD*%
D25*
%TO.C,SW16*%
X185310000Y-46710000D03*
X185310000Y-51410000D03*
X185310000Y-56110000D03*
%TD*%
D24*
%TO.C,SW15*%
X157650000Y-125700000D03*
X157650000Y-121000000D03*
X157650000Y-116300000D03*
%TD*%
D25*
%TO.C,SW12*%
X122690000Y-46710000D03*
X122690000Y-51410000D03*
X122690000Y-56110000D03*
%TD*%
D24*
%TO.C,SW11*%
X150350000Y-125700000D03*
X150350000Y-121000000D03*
X150350000Y-116300000D03*
%TD*%
D26*
%TO.C,SW8*%
X199725499Y-55962500D03*
X204225500Y-55962500D03*
D27*
X198465500Y-58452500D03*
X205475500Y-58452499D03*
%TD*%
D24*
%TO.C,SW7*%
X143060000Y-125700000D03*
X143060000Y-121000000D03*
X143060000Y-116300000D03*
%TD*%
D26*
%TO.C,SW4*%
X103725499Y-55962500D03*
X108225500Y-55962500D03*
D27*
X102465500Y-58452500D03*
X109475500Y-58452499D03*
%TD*%
D26*
%TO.C,SW3*%
X141049999Y-135637500D03*
X145550000Y-135637500D03*
D27*
X139790000Y-133147500D03*
X146800000Y-133147501D03*
%TD*%
D26*
%TO.C,SW2*%
X162500000Y-135637500D03*
X167000000Y-135637500D03*
D27*
X161240000Y-133147500D03*
X168250000Y-133147500D03*
%TD*%
D28*
%TO.C,Q4*%
X110600000Y-118700000D03*
X113600000Y-117750000D03*
X113600000Y-119650000D03*
%TD*%
D29*
%TO.C,H8*%
X168000000Y-90000000D03*
D30*
X168000000Y-90000000D03*
%TD*%
D29*
%TO.C,H7*%
X140000000Y-90000000D03*
D30*
X140000000Y-90000000D03*
%TD*%
D29*
%TO.C,H6*%
X210390000Y-57610000D03*
D30*
X210390000Y-57610000D03*
%TD*%
D29*
%TO.C,H5*%
X97610000Y-57610000D03*
D30*
X97610000Y-57610000D03*
%TD*%
D29*
%TO.C,H4*%
X211500000Y-135000000D03*
D30*
X211500000Y-135000000D03*
%TD*%
D29*
%TO.C,H3*%
X96500000Y-135000000D03*
D30*
X96500000Y-135000000D03*
%TD*%
D29*
%TO.C,H2*%
X175600000Y-51000000D03*
D30*
X175600000Y-51000000D03*
%TD*%
D29*
%TO.C,H1*%
X132400000Y-51000000D03*
D30*
X132400000Y-51000000D03*
%TD*%
D13*
%TO.C,SW6*%
X109450000Y-107750000D03*
X118550000Y-107750000D03*
X109450000Y-112250000D03*
X118550000Y-112250000D03*
%TD*%
D31*
%TO.C,C14*%
X96900000Y-112000000D03*
X95174998Y-112000000D03*
%TD*%
D13*
%TO.C,SW9*%
X187360000Y-113000000D03*
X196460000Y-113000000D03*
X187360000Y-117500000D03*
X196460000Y-117500000D03*
%TD*%
D32*
%TO.C,C22*%
X94637499Y-106500000D03*
X96362501Y-106500000D03*
%TD*%
D33*
%TO.C,U12*%
X178900000Y-115620001D03*
X178900000Y-114350000D03*
X178900000Y-113079999D03*
X178900000Y-111810000D03*
X178900000Y-110540000D03*
X178900000Y-109270001D03*
X178900000Y-108000000D03*
X178900000Y-106729999D03*
X173900000Y-106729999D03*
X173900000Y-108000000D03*
X173900000Y-109270001D03*
X173900000Y-110540000D03*
X173900000Y-111810000D03*
X173900000Y-113079999D03*
X173900000Y-114350000D03*
X173900000Y-115620001D03*
%TD*%
D11*
%TO.C,R24*%
X175875000Y-105125000D03*
X174050000Y-105125000D03*
%TD*%
D34*
%TO.C,Q5*%
X213400000Y-128100000D03*
X213400000Y-130000000D03*
X216400000Y-129050000D03*
%TD*%
D35*
%TO.C,R20*%
X124050000Y-127270000D03*
X125875000Y-127270000D03*
%TD*%
D36*
%TO.C,C18*%
X218600000Y-128200000D03*
X218600000Y-129925002D03*
%TD*%
%TO.C,C23*%
X182600000Y-106875000D03*
X182600000Y-108600002D03*
%TD*%
D14*
%TO.C,R21*%
X175400000Y-128175000D03*
X175400000Y-130000000D03*
%TD*%
%TO.C,R4*%
X216600000Y-124575000D03*
X216600000Y-126400000D03*
%TD*%
D37*
%TO.C,D8*%
X119200000Y-127400000D03*
X115900000Y-127400000D03*
%TD*%
D38*
%TO.C,U8*%
X217400000Y-112000000D03*
X217400000Y-111050001D03*
X217400000Y-110100002D03*
X215125000Y-110100002D03*
X215125000Y-111050001D03*
X215125000Y-112000000D03*
%TD*%
D14*
%TO.C,R5*%
X219600000Y-110500000D03*
X219600000Y-112325000D03*
%TD*%
D31*
%TO.C,C3*%
X157524998Y-95500000D03*
X159250000Y-95500000D03*
%TD*%
D13*
%TO.C,SW13*%
X196460000Y-121000000D03*
X187360000Y-121000000D03*
X187360000Y-125500000D03*
X196460000Y-125500000D03*
%TD*%
D31*
%TO.C,C26*%
X112162501Y-125700000D03*
X110437499Y-125700000D03*
%TD*%
D13*
%TO.C,SW17*%
X187360000Y-129000000D03*
X196460000Y-129000000D03*
X187360000Y-133500000D03*
X196460000Y-133500000D03*
%TD*%
D31*
%TO.C,C27*%
X162425002Y-67400000D03*
X160700000Y-67400000D03*
%TD*%
D36*
%TO.C,C12*%
X202500000Y-121074998D03*
X202500000Y-122800000D03*
%TD*%
D39*
%TO.C,D5*%
X171400000Y-135575000D03*
X171400000Y-132600000D03*
%TD*%
D36*
%TO.C,C7*%
X201000000Y-121074998D03*
X201000000Y-122800000D03*
%TD*%
D37*
%TO.C,D12*%
X108150000Y-116500000D03*
X104850000Y-116500000D03*
%TD*%
D11*
%TO.C,R17*%
X132993750Y-125770000D03*
X131168750Y-125770000D03*
%TD*%
D40*
%TO.C,D17*%
X181900000Y-131400000D03*
X185200000Y-131400000D03*
%TD*%
D32*
%TO.C,C24*%
X131975000Y-129200000D03*
X133700000Y-129200000D03*
%TD*%
D35*
%TO.C,R11*%
X115587500Y-114125001D03*
X117412500Y-114125001D03*
%TD*%
D28*
%TO.C,Q6*%
X210750000Y-130100000D03*
X210750000Y-128200000D03*
X207750000Y-129150000D03*
%TD*%
D41*
%TO.C,J7*%
X162780001Y-63750000D03*
X145000000Y-63750000D03*
X147540000Y-63750000D03*
X150079999Y-63750000D03*
X152620000Y-63750000D03*
X155160000Y-63750000D03*
X157700000Y-63750000D03*
X160240000Y-63750000D03*
%TD*%
D14*
%TO.C,R25*%
X179900000Y-128175000D03*
X179900000Y-130000000D03*
%TD*%
D32*
%TO.C,C9*%
X201974998Y-134800000D03*
X203700000Y-134800000D03*
%TD*%
D37*
%TO.C,D14*%
X133300000Y-56500000D03*
X130000000Y-56500000D03*
%TD*%
D42*
%TO.C,U5*%
X204300000Y-112650000D03*
X202000000Y-112650001D03*
D43*
X202000000Y-118949999D03*
D42*
X199700000Y-112650000D03*
%TD*%
D35*
%TO.C,R22*%
X127756250Y-125770000D03*
X129581250Y-125770000D03*
%TD*%
D12*
%TO.C,D2*%
X206700000Y-107500000D03*
X203725000Y-107500000D03*
%TD*%
D44*
%TO.C,R16*%
X134400000Y-135400000D03*
X134400000Y-133575000D03*
%TD*%
D35*
%TO.C,R2*%
X115587500Y-117800000D03*
X117412500Y-117800000D03*
%TD*%
D45*
%TO.C,C1*%
X185100000Y-135262501D03*
X185100000Y-133537499D03*
%TD*%
D14*
%TO.C,R27*%
X176900000Y-128175000D03*
X176900000Y-130000000D03*
%TD*%
D31*
%TO.C,C21*%
X96362501Y-105000000D03*
X94637499Y-105000000D03*
%TD*%
D13*
%TO.C,SW1*%
X149450000Y-104050000D03*
X158550000Y-104050000D03*
X149450000Y-108550000D03*
X158550000Y-108550000D03*
%TD*%
D28*
%TO.C,Q2*%
X113600000Y-116050000D03*
X113600000Y-114150000D03*
X110600000Y-115100000D03*
%TD*%
D46*
%TO.C,Q1*%
X214450000Y-116800000D03*
X212550000Y-116800000D03*
X213500000Y-119800000D03*
%TD*%
D36*
%TO.C,C19*%
X213050000Y-112187499D03*
X213050000Y-113912501D03*
%TD*%
D32*
%TO.C,C11*%
X200725000Y-110500000D03*
X202450000Y-110500000D03*
%TD*%
D47*
%TO.C,JP1*%
X172700000Y-129100000D03*
D48*
X172700000Y-130549998D03*
%TD*%
D45*
%TO.C,C5*%
X162400000Y-130100000D03*
X162400000Y-128374998D03*
%TD*%
D14*
%TO.C,R26*%
X178400000Y-128175000D03*
X178400000Y-130000000D03*
%TD*%
D44*
%TO.C,R28*%
X170500000Y-130712500D03*
X170500000Y-128887500D03*
%TD*%
%TO.C,R18*%
X136000000Y-135425000D03*
X136000000Y-133600000D03*
%TD*%
D36*
%TO.C,C28*%
X181150000Y-117925000D03*
X181150000Y-119650002D03*
%TD*%
D35*
%TO.C,R7*%
X213225000Y-125100000D03*
X215050000Y-125100000D03*
%TD*%
D37*
%TO.C,D16*%
X129700000Y-116400000D03*
X126400000Y-116400000D03*
%TD*%
D32*
%TO.C,C17*%
X216125000Y-120350000D03*
X217850000Y-120350000D03*
%TD*%
D40*
%TO.C,D1*%
X206350000Y-124600000D03*
X209650000Y-124600000D03*
%TD*%
%TO.C,D10*%
X174800000Y-56500000D03*
X178100000Y-56500000D03*
%TD*%
D32*
%TO.C,C8*%
X201974997Y-133239999D03*
X203699999Y-133239999D03*
%TD*%
D13*
%TO.C,SW14*%
X98450000Y-118750000D03*
X107550000Y-118750000D03*
X98450000Y-123250000D03*
X107550000Y-123250000D03*
%TD*%
D49*
%TO.C,U3*%
X136350002Y-128750000D03*
X137300001Y-128750000D03*
X138250000Y-128750000D03*
X138250000Y-126475000D03*
X137300001Y-126475000D03*
X136350002Y-126475000D03*
%TD*%
D13*
%TO.C,SW5*%
X187360000Y-105000000D03*
X196460000Y-105000000D03*
X187360000Y-109500000D03*
X196460000Y-109500000D03*
%TD*%
D32*
%TO.C,C15*%
X95174999Y-110150000D03*
X96899999Y-110150000D03*
%TD*%
%TO.C,C25*%
X129975000Y-127300000D03*
X131700000Y-127300000D03*
%TD*%
D36*
%TO.C,C13*%
X204100000Y-121074998D03*
X204100000Y-122800000D03*
%TD*%
D35*
%TO.C,R23*%
X124050000Y-125770000D03*
X125875000Y-125770000D03*
%TD*%
D45*
%TO.C,C4*%
X160900000Y-130075002D03*
X160900000Y-128350000D03*
%TD*%
D40*
%TO.C,D6*%
X174850000Y-58900000D03*
X178150000Y-58900000D03*
%TD*%
D44*
%TO.C,R6*%
X213050000Y-110325000D03*
X213050000Y-108500000D03*
%TD*%
D33*
%TO.C,U13*%
X178650000Y-126620001D03*
X178650000Y-125350000D03*
X178650000Y-124079999D03*
X178650000Y-122810000D03*
X178650000Y-121540000D03*
X178650000Y-120270001D03*
X178650000Y-119000000D03*
X178650000Y-117729999D03*
X173650000Y-117729999D03*
X173650000Y-119000000D03*
X173650000Y-120270001D03*
X173650000Y-121540000D03*
X173650000Y-122810000D03*
X173650000Y-124079999D03*
X173650000Y-125350000D03*
X173650000Y-126620001D03*
%TD*%
D11*
%TO.C,R1*%
X209000000Y-122100000D03*
X207175000Y-122100000D03*
%TD*%
D50*
%TO.C,J1*%
X150800000Y-131320000D03*
X151600000Y-131320000D03*
D51*
X152750000Y-131320001D03*
X153750000Y-131320000D03*
X154250000Y-131320000D03*
X155250000Y-131320001D03*
D50*
X156400000Y-131320000D03*
X157200000Y-131320000D03*
X157200000Y-131320000D03*
X156400000Y-131320000D03*
D51*
X155750000Y-131320000D03*
X154750000Y-131320000D03*
X153250000Y-131320000D03*
X152250000Y-131320000D03*
D50*
X151600000Y-131320000D03*
X150800000Y-131320000D03*
D52*
X149680000Y-131895000D03*
D53*
X149680000Y-136075000D03*
D52*
X158320000Y-131895000D03*
D53*
X158320000Y-136075000D03*
%TD*%
D11*
%TO.C,R10*%
X209000000Y-120100000D03*
X207175000Y-120100000D03*
%TD*%
D54*
%TO.C,U9*%
X218300000Y-114025000D03*
X217350001Y-114025000D03*
X216400002Y-114025000D03*
X216400002Y-116300000D03*
X217350001Y-116300000D03*
X218300000Y-116300000D03*
%TD*%
D55*
%TO.C,D20*%
X121100000Y-111050000D03*
X121100000Y-107750000D03*
%TD*%
D37*
%TO.C,D18*%
X133300000Y-58900000D03*
X130000000Y-58900000D03*
%TD*%
D13*
%TO.C,SW18*%
X118550000Y-134250000D03*
X109450000Y-129750000D03*
X118550000Y-129750000D03*
X109450000Y-134250000D03*
%TD*%
D44*
%TO.C,R19*%
X181050000Y-108675000D03*
X181050000Y-106850000D03*
%TD*%
D11*
%TO.C,R15*%
X96912500Y-113600000D03*
X95087500Y-113600000D03*
%TD*%
D41*
%TO.C,J6*%
X138080000Y-116400000D03*
X135540000Y-116400000D03*
X133000000Y-116400000D03*
%TD*%
D56*
%TO.C,C2*%
X157699999Y-99000000D03*
X159700000Y-99000000D03*
%TD*%
%TO.C,C6*%
X199000000Y-120699999D03*
X199000000Y-122699999D03*
%TD*%
D41*
%TO.C,J5*%
X138100000Y-122700000D03*
X135560000Y-122700000D03*
X133020000Y-122700000D03*
%TD*%
D56*
%TO.C,C10*%
X199400000Y-108550000D03*
X201400000Y-108550000D03*
%TD*%
%TO.C,C16*%
X216200000Y-118300000D03*
X218200000Y-118300000D03*
%TD*%
D41*
%TO.C,J2*%
X214609999Y-106100000D03*
X217149999Y-106100000D03*
%TD*%
%TO.C,J4*%
X184400000Y-111300000D03*
X184400000Y-113840000D03*
X184400000Y-116380000D03*
%TD*%
%TO.C,U4*%
X157620000Y-93500000D03*
X157620000Y-90960000D03*
X155080000Y-93500000D03*
X155080000Y-90960000D03*
X152540000Y-93500000D03*
X152540000Y-90960000D03*
X150000000Y-93500000D03*
X150000000Y-90960000D03*
%TD*%
%TO.C,J3*%
X184400000Y-121600000D03*
X184400000Y-124140000D03*
X184400000Y-126680000D03*
%TD*%
D57*
%TO.C,Q3*%
X212820000Y-122950000D03*
D58*
X215360000Y-122950000D03*
X217900000Y-122950000D03*
%TD*%
D42*
%TO.C,U1*%
X204250000Y-124900001D03*
X201950000Y-124900002D03*
D43*
X201950000Y-131200000D03*
D42*
X199650000Y-124900001D03*
%TD*%
D40*
%TO.C,D21*%
X181600000Y-129000000D03*
X184900000Y-129000000D03*
%TD*%
D59*
%TO.C,U7*%
X206945000Y-116500000D03*
X208215000Y-116500000D03*
X209485000Y-116500000D03*
X210755000Y-116500000D03*
X210755000Y-111200000D03*
X209485000Y-111200000D03*
X208215000Y-111200000D03*
X206945000Y-111200000D03*
D60*
X208850000Y-113850000D03*
%TD*%
M02*
