M48
; DRILL file {KiCad 9.0.2} date 2025-07-06T19:20:26+0700
; FORMAT={-:-/ absolute / metric / decimal}
; #@! TF.CreationDate,2025-07-06T19:20:26+07:00
; #@! TF.GenerationSoftware,Kicad,Pcbnew,9.0.2
; #@! TF.FileFunction,Plated,1,4,PTH
FMAT,2
METRIC
; #@! TA.AperFunction,Plated,PTH,ViaDrill
T1C0.200
; #@! TA.AperFunction,Plated,PTH,ComponentDrill
T2C0.200
; #@! TA.AperFunction,Plated,PTH,ViaDrill
T3C0.250
; #@! TA.AperFunction,Plated,PTH,ViaDrill
T4C0.300
; #@! TA.AperFunction,Plated,PTH,ComponentDrill
T5C0.600
; #@! TA.AperFunction,Plated,PTH,ComponentDrill
T6C0.800
; #@! TA.AperFunction,Plated,PTH,ComponentDrill
T7C0.990
; #@! TA.AperFunction,Plated,PTH,ComponentDrill
T8C1.000
; #@! TA.AperFunction,Plated,PTH,ComponentDrill
T9C1.100
; #@! TA.AperFunction,Plated,PTH,ComponentDrill
T10C1.200
; #@! TA.AperFunction,Plated,PTH,ComponentDrill
T11C1.300
; #@! TA.AperFunction,Plated,PTH,ComponentDrill
T12C3.200
%
G90
G05
T1
X93.88Y-108.085
X94.637Y-105.0
X94.637Y-106.5
X131.3Y-132.0
X137.3Y-128.75
X142.6Y-128.3
X145.97Y-112.87
X146.4Y-113.47
X147.6Y-127.6
X148.5Y-129.0
X150.3Y-113.7
X152.25Y-112.85
X153.092Y-132.548
X155.5Y-130.1
X158.55Y-104.05
X158.55Y-105.25
X159.2Y-112.9
X162.0Y-104.3
X162.6Y-101.2
X163.4Y-99.5
X164.2Y-97.9
X164.5Y-96.3
X164.94Y-112.84
X173.65Y-120.27
X173.65Y-121.54
X173.65Y-122.81
X173.65Y-124.08
X175.4Y-130.0
X175.9Y-105.125
X176.9Y-130.0
X177.8Y-134.5
X177.8Y-135.3
X178.4Y-130.0
X178.65Y-117.73
X178.9Y-113.08
X179.9Y-130.0
X181.1Y-106.85
X181.15Y-117.925
X207.75Y-129.15
T2
X100.2Y-114.635
X100.2Y-116.035
X100.9Y-113.935
X100.9Y-115.335
X100.9Y-116.735
X101.6Y-114.635
X101.6Y-116.035
X102.3Y-113.935
X102.3Y-115.335
X102.3Y-116.735
X103.0Y-114.635
X103.0Y-116.035
X141.67Y-111.82
X141.67Y-113.12
X142.77Y-111.82
X142.77Y-113.12
X180.35Y-133.6
X180.35Y-134.9
X180.35Y-134.25
X182.25Y-134.25
X182.25Y-133.6
X182.25Y-134.9
T3
X151.3Y-89.6
X171.801Y-114.001
T4
X93.88Y-125.585
X95.15Y-108.085
X96.363Y-106.5
X96.42Y-108.085
X96.9Y-110.15
X96.9Y-112.0
X97.69Y-125.585
X101.2Y-132.0
X107.55Y-118.75
X108.7Y-103.8
X110.437Y-125.7
X111.64Y-122.55
X112.163Y-125.7
X112.6Y-104.7
X114.4Y-134.0
X116.0Y-105.5
X118.55Y-107.75
X118.55Y-129.75
X119.4Y-106.3
X124.05Y-125.77
X124.05Y-127.27
X124.631Y-135.15
X127.756Y-125.77
X129.081Y-135.491
X129.55Y-118.75
X129.55Y-123.25
X130.4Y-130.0
X132.35Y-135.5
X132.9Y-127.5
X133.7Y-129.2
X134.4Y-133.575
X136.0Y-131.6
X138.5Y-112.3
X146.6Y-112.22
X150.8Y-131.32
X152.482Y-133.35
X153.4Y-105.3
X157.2Y-131.32
X160.9Y-128.35
X162.4Y-128.375
X167.8Y-130.1
X169.68Y-108.88
X171.4Y-135.575
X171.989Y-114.87
X173.65Y-125.35
X173.9Y-108.0
X173.9Y-109.27
X173.9Y-110.54
X178.65Y-119.0
X178.65Y-125.35
X178.65Y-126.62
X182.6Y-118.2
X185.1Y-135.263
X191.0Y-134.0
X196.46Y-109.5
X201.95Y-124.9
X202.0Y-118.95
X202.45Y-110.5
X202.5Y-122.8
X204.1Y-122.8
X204.225Y-124.875
X204.3Y-112.65
X204.875Y-133.35
X204.875Y-134.85
X206.595Y-109.55
X206.595Y-117.85
X207.275Y-122.55
X209.135Y-117.85
X209.49Y-120.5
X209.65Y-124.6
X210.405Y-117.85
X210.7Y-129.2
X210.75Y-128.2
X213.35Y-126.45
X213.4Y-130.0
X216.4Y-116.3
X216.6Y-126.45
X217.4Y-110.1
X217.4Y-112.0
X218.3Y-116.3
X218.6Y-129.925
X219.587Y-112.337
T6
X157.5Y-99.0
X159.5Y-99.0
X199.0Y-120.7
X199.0Y-122.7
X199.4Y-108.55
X201.4Y-108.55
X216.2Y-118.3
X218.2Y-118.3
T7
X103.725Y-55.962
X108.225Y-55.962
X141.05Y-135.637
X145.55Y-135.637
X162.5Y-135.637
X167.0Y-135.637
X199.725Y-55.962
X204.225Y-55.962
T8
X133.0Y-116.4
X133.02Y-122.7
X135.54Y-116.4
X135.56Y-122.7
X138.08Y-116.4
X138.1Y-122.7
X145.0Y-63.75
X147.54Y-63.75
X150.0Y-90.96
X150.0Y-93.5
X150.08Y-63.75
X152.54Y-90.96
X152.54Y-93.5
X152.62Y-63.75
X155.08Y-90.96
X155.08Y-93.5
X155.16Y-63.75
X157.62Y-90.96
X157.62Y-93.5
X157.7Y-63.75
X160.24Y-63.75
X160.5Y-106.2
X162.78Y-63.75
X168.1Y-106.2
X184.4Y-111.3
X184.4Y-113.84
X184.4Y-116.38
X184.4Y-121.6
X184.4Y-124.14
X184.4Y-126.68
X214.61Y-106.1
X217.15Y-106.1
T9
X212.82Y-122.95
X215.36Y-122.95
X217.9Y-122.95
T11
X102.465Y-58.453
X109.475Y-58.452
X139.79Y-133.148
X146.8Y-133.148
X161.24Y-133.148
X168.25Y-133.148
X198.465Y-58.453
X205.475Y-58.452
T12
X96.5Y-135.0
X97.61Y-57.61
X132.4Y-51.0
X140.0Y-90.0
X168.0Y-90.0
X175.6Y-51.0
X210.39Y-57.61
X211.5Y-135.0
T5
G00X149.68Y-131.345
M15
G01X149.68Y-132.445
M16
G05
G00X149.68Y-135.675
M15
G01X149.68Y-136.475
M16
G05
G00X158.32Y-131.345
M15
G01X158.32Y-132.445
M16
G05
G00X158.32Y-135.675
M15
G01X158.32Y-136.475
M16
G05
T10
G00X122.04Y-46.71
M15
G01X123.34Y-46.71
M16
G05
G00X122.04Y-51.41
M15
G01X123.34Y-51.41
M16
G05
G00X122.04Y-56.11
M15
G01X123.34Y-56.11
M16
G05
G00X143.46Y-116.3
M15
G01X142.66Y-116.3
M16
G05
G00X143.46Y-121.0
M15
G01X142.66Y-121.0
M16
G05
G00X143.46Y-125.7
M15
G01X142.66Y-125.7
M16
G05
G00X150.75Y-116.3
M15
G01X149.95Y-116.3
M16
G05
G00X150.75Y-121.0
M15
G01X149.95Y-121.0
M16
G05
G00X150.75Y-125.7
M15
G01X149.95Y-125.7
M16
G05
G00X158.05Y-116.3
M15
G01X157.25Y-116.3
M16
G05
G00X158.05Y-121.0
M15
G01X157.25Y-121.0
M16
G05
G00X158.05Y-125.7
M15
G01X157.25Y-125.7
M16
G05
G00X165.34Y-116.3
M15
G01X164.54Y-116.3
M16
G05
G00X165.34Y-121.0
M15
G01X164.54Y-121.0
M16
G05
G00X165.34Y-125.7
M15
G01X164.54Y-125.7
M16
G05
G00X184.66Y-46.71
M15
G01X185.96Y-46.71
M16
G05
G00X184.66Y-51.41
M15
G01X185.96Y-51.41
M16
G05
G00X184.66Y-56.11
M15
G01X185.96Y-56.11
M16
G05
M30
