%TF.GenerationSoftware,KiCad,Pcbnew,9.0.2*%
%TF.CreationDate,2025-08-14T19:07:51+07:00*%
%TF.ProjectId,Gamepad PCB,47616d65-7061-4642-9050-43422e6b6963,v03*%
%TF.SameCoordinates,Original*%
%TF.FileFunction,Paste,Top*%
%TF.FilePolarity,Positive*%
%FSLAX46Y46*%
G04 Gerber Fmt 4.6, Leading zero omitted, Abs format (unit mm)*
G04 Created by KiCad (PCBNEW 9.0.2) date 2025-08-14 19:07:51*
%MOMM*%
%LPD*%
G01*
G04 APERTURE LIST*
G04 Aperture macros list*
%AMRoundRect*
0 Rectangle with rounded corners*
0 $1 Rounding radius*
0 $2 $3 $4 $5 $6 $7 $8 $9 X,Y pos of 4 corners*
0 Add a 4 corners polygon primitive as box body*
4,1,4,$2,$3,$4,$5,$6,$7,$8,$9,$2,$3,0*
0 Add four circle primitives for the rounded corners*
1,1,$1+$1,$2,$3*
1,1,$1+$1,$4,$5*
1,1,$1+$1,$6,$7*
1,1,$1+$1,$8,$9*
0 Add four rect primitives between the rounded corners*
20,1,$1+$1,$2,$3,$4,$5,0*
20,1,$1+$1,$4,$5,$6,$7,0*
20,1,$1+$1,$6,$7,$8,$9,0*
20,1,$1+$1,$8,$9,$2,$3,0*%
G04 Aperture macros list end*
%ADD10R,2.100000X1.400000*%
%ADD11RoundRect,0.237500X0.300000X0.237500X-0.300000X0.237500X-0.300000X-0.237500X0.300000X-0.237500X0*%
%ADD12RoundRect,0.237500X-0.300000X-0.237500X0.300000X-0.237500X0.300000X0.237500X-0.300000X0.237500X0*%
%ADD13RoundRect,0.150000X0.850000X0.150000X-0.850000X0.150000X-0.850000X-0.150000X0.850000X-0.150000X0*%
%ADD14RoundRect,0.237500X0.250000X0.237500X-0.250000X0.237500X-0.250000X-0.237500X0.250000X-0.237500X0*%
%ADD15RoundRect,0.200000X-0.750000X-0.200000X0.750000X-0.200000X0.750000X0.200000X-0.750000X0.200000X0*%
%ADD16RoundRect,0.237500X-0.250000X-0.237500X0.250000X-0.237500X0.250000X0.237500X-0.250000X0.237500X0*%
%ADD17RoundRect,0.225000X-0.225000X-0.375000X0.225000X-0.375000X0.225000X0.375000X-0.225000X0.375000X0*%
%ADD18RoundRect,0.237500X-0.237500X0.300000X-0.237500X-0.300000X0.237500X-0.300000X0.237500X0.300000X0*%
%ADD19RoundRect,0.237500X-0.237500X0.250000X-0.237500X-0.250000X0.237500X-0.250000X0.237500X0.250000X0*%
%ADD20RoundRect,0.225000X0.225000X0.375000X-0.225000X0.375000X-0.225000X-0.375000X0.225000X-0.375000X0*%
%ADD21RoundRect,0.375000X-0.375000X0.625000X-0.375000X-0.625000X0.375000X-0.625000X0.375000X0.625000X0*%
%ADD22RoundRect,0.500000X-1.400000X0.500000X-1.400000X-0.500000X1.400000X-0.500000X1.400000X0.500000X0*%
%ADD23RoundRect,0.150000X0.512500X0.150000X-0.512500X0.150000X-0.512500X-0.150000X0.512500X-0.150000X0*%
%ADD24RoundRect,0.200000X0.750000X0.200000X-0.750000X0.200000X-0.750000X-0.200000X0.750000X-0.200000X0*%
%ADD25RoundRect,0.250001X0.462499X0.624999X-0.462499X0.624999X-0.462499X-0.624999X0.462499X-0.624999X0*%
%ADD26RoundRect,0.250001X0.624999X-0.462499X0.624999X0.462499X-0.624999X0.462499X-0.624999X-0.462499X0*%
%ADD27RoundRect,0.237500X0.237500X-0.250000X0.237500X0.250000X-0.237500X0.250000X-0.237500X-0.250000X0*%
%ADD28RoundRect,0.090000X0.660000X0.360000X-0.660000X0.360000X-0.660000X-0.360000X0.660000X-0.360000X0*%
%ADD29RoundRect,0.237500X0.237500X-0.300000X0.237500X0.300000X-0.237500X0.300000X-0.237500X-0.300000X0*%
%ADD30RoundRect,0.175000X-0.175000X-0.220000X0.175000X-0.220000X0.175000X0.220000X-0.175000X0.220000X0*%
%ADD31RoundRect,0.075000X-0.650000X-0.075000X0.650000X-0.075000X0.650000X0.075000X-0.650000X0.075000X0*%
%ADD32RoundRect,0.200000X-0.200000X0.750000X-0.200000X-0.750000X0.200000X-0.750000X0.200000X0.750000X0*%
%ADD33RoundRect,0.207500X0.207500X0.207500X-0.207500X0.207500X-0.207500X-0.207500X0.207500X-0.207500X0*%
%ADD34RoundRect,0.062500X0.412500X0.062500X-0.412500X0.062500X-0.412500X-0.062500X0.412500X-0.062500X0*%
%ADD35RoundRect,0.062500X0.062500X0.412500X-0.062500X0.412500X-0.062500X-0.412500X0.062500X-0.412500X0*%
%ADD36RoundRect,0.182500X0.302500X0.182500X-0.302500X0.182500X-0.302500X-0.182500X0.302500X-0.182500X0*%
%ADD37RoundRect,0.062500X0.387500X0.062500X-0.387500X0.062500X-0.387500X-0.062500X0.387500X-0.062500X0*%
%ADD38RoundRect,0.150000X0.150000X-0.512500X0.150000X0.512500X-0.150000X0.512500X-0.150000X-0.512500X0*%
%ADD39RoundRect,0.242500X0.402500X-0.242500X0.402500X0.242500X-0.402500X0.242500X-0.402500X-0.242500X0*%
%ADD40RoundRect,0.150000X0.150000X-0.650000X0.150000X0.650000X-0.150000X0.650000X-0.150000X-0.650000X0*%
%ADD41RoundRect,0.150000X-0.150000X-0.425000X0.150000X-0.425000X0.150000X0.425000X-0.150000X0.425000X0*%
%ADD42RoundRect,0.075000X-0.075000X-0.500000X0.075000X-0.500000X0.075000X0.500000X-0.075000X0.500000X0*%
%ADD43O,1.000000X2.100000*%
%ADD44O,1.000000X1.800000*%
%ADD45RoundRect,0.250001X-0.624999X0.462499X-0.624999X-0.462499X0.624999X-0.462499X0.624999X0.462499X0*%
%ADD46RoundRect,0.150000X-0.150000X0.512500X-0.150000X-0.512500X0.150000X-0.512500X0.150000X0.512500X0*%
%ADD47RoundRect,0.225000X0.375000X-0.225000X0.375000X0.225000X-0.375000X0.225000X-0.375000X-0.225000X0*%
G04 APERTURE END LIST*
D10*
%TO.C,SW6*%
X109450000Y-107750000D03*
X118550000Y-107750000D03*
X109450000Y-112250000D03*
X118550000Y-112250000D03*
%TD*%
D11*
%TO.C,C14*%
X96900000Y-112000000D03*
X95174998Y-112000000D03*
%TD*%
D10*
%TO.C,SW9*%
X187360000Y-117500000D03*
X196460000Y-113000000D03*
X187360000Y-113000000D03*
X196460000Y-117500000D03*
%TD*%
D12*
%TO.C,C22*%
X94637499Y-106500000D03*
X96362501Y-106500000D03*
%TD*%
D13*
%TO.C,U12*%
X178900000Y-115620001D03*
X178900000Y-114350000D03*
X178900000Y-113079999D03*
X178900000Y-111810000D03*
X178900000Y-110540000D03*
X178900000Y-109270001D03*
X178900000Y-108000000D03*
X178900000Y-106729999D03*
X173900000Y-106729999D03*
X173900000Y-108000000D03*
X173900000Y-109270001D03*
X173900000Y-110540000D03*
X173900000Y-111810000D03*
X173900000Y-113079999D03*
X173900000Y-114350000D03*
X173900000Y-115620001D03*
%TD*%
D14*
%TO.C,R24*%
X175875000Y-105125000D03*
X174050000Y-105125000D03*
%TD*%
D15*
%TO.C,Q5*%
X213400000Y-128100000D03*
X213400000Y-130000000D03*
X216400000Y-129050000D03*
%TD*%
D16*
%TO.C,R20*%
X124050000Y-127270000D03*
X125875000Y-127270000D03*
%TD*%
D17*
%TO.C,D21*%
X181600000Y-129000000D03*
X184900000Y-129000000D03*
%TD*%
D18*
%TO.C,C18*%
X218600000Y-128200000D03*
X218600000Y-129925002D03*
%TD*%
%TO.C,C23*%
X182600000Y-106875000D03*
X182600000Y-108600002D03*
%TD*%
D16*
%TO.C,R29*%
X130699537Y-113267262D03*
X132524537Y-113267262D03*
%TD*%
D19*
%TO.C,R21*%
X175400000Y-128175000D03*
X175400000Y-130000000D03*
%TD*%
%TO.C,R4*%
X216600000Y-124575000D03*
X216600000Y-126400000D03*
%TD*%
D20*
%TO.C,D8*%
X119200000Y-127400000D03*
X115900000Y-127400000D03*
%TD*%
D21*
%TO.C,U1*%
X204250000Y-124900001D03*
X201950000Y-124900002D03*
D22*
X201950000Y-131200000D03*
D21*
X199650000Y-124900001D03*
%TD*%
D23*
%TO.C,U8*%
X217400000Y-112000000D03*
X217400000Y-111050001D03*
X217400000Y-110100002D03*
X215125000Y-110100002D03*
X215125000Y-111050001D03*
X215125000Y-112000000D03*
%TD*%
D12*
%TO.C,C29*%
X145537499Y-110000000D03*
X147262501Y-110000000D03*
%TD*%
D14*
%TO.C,R9*%
X210275000Y-107450000D03*
X208450000Y-107450000D03*
%TD*%
D19*
%TO.C,R5*%
X219600000Y-110500000D03*
X219600000Y-112325000D03*
%TD*%
D11*
%TO.C,C3*%
X159250000Y-95500000D03*
X157524998Y-95500000D03*
%TD*%
D10*
%TO.C,SW13*%
X187360000Y-125500000D03*
X196460000Y-121000000D03*
X187360000Y-121000000D03*
X196460000Y-125500000D03*
%TD*%
D11*
%TO.C,C26*%
X112162501Y-125700000D03*
X110437499Y-125700000D03*
%TD*%
D10*
%TO.C,SW17*%
X187360000Y-133500000D03*
X196460000Y-129000000D03*
X187360000Y-129000000D03*
X196460000Y-133500000D03*
%TD*%
D11*
%TO.C,C27*%
X162425002Y-67400000D03*
X160700000Y-67400000D03*
%TD*%
D24*
%TO.C,Q4*%
X113600000Y-119650000D03*
X113600000Y-117750000D03*
X110600000Y-118700000D03*
%TD*%
D18*
%TO.C,C12*%
X202500000Y-121074998D03*
X202500000Y-122800000D03*
%TD*%
D25*
%TO.C,D3*%
X206662500Y-105150000D03*
X203687500Y-105150000D03*
%TD*%
D26*
%TO.C,D5*%
X171400000Y-135575000D03*
X171400000Y-132600000D03*
%TD*%
D18*
%TO.C,C7*%
X201000000Y-121074998D03*
X201000000Y-122800000D03*
%TD*%
D20*
%TO.C,D12*%
X108150000Y-116500000D03*
X104850000Y-116500000D03*
%TD*%
D14*
%TO.C,R8*%
X210287500Y-105150000D03*
X208462500Y-105150000D03*
%TD*%
%TO.C,R17*%
X132993750Y-125770000D03*
X131168750Y-125770000D03*
%TD*%
D17*
%TO.C,D17*%
X181900000Y-131400000D03*
X185200000Y-131400000D03*
%TD*%
D12*
%TO.C,C24*%
X131975000Y-129200000D03*
X133700000Y-129200000D03*
%TD*%
D16*
%TO.C,R11*%
X115587500Y-114125001D03*
X117412500Y-114125001D03*
%TD*%
D24*
%TO.C,Q6*%
X210750000Y-130100000D03*
X210750000Y-128200000D03*
X207750000Y-129150000D03*
%TD*%
D19*
%TO.C,R25*%
X179900000Y-128175000D03*
X179900000Y-130000000D03*
%TD*%
D12*
%TO.C,C9*%
X201974998Y-134800000D03*
X203700000Y-134800000D03*
%TD*%
D20*
%TO.C,D14*%
X133300000Y-56500000D03*
X130000000Y-56500000D03*
%TD*%
D21*
%TO.C,U5*%
X202000000Y-112650001D03*
X204300000Y-112650000D03*
D22*
X202000000Y-118949999D03*
D21*
X199700000Y-112650000D03*
%TD*%
D16*
%TO.C,R22*%
X127756250Y-125770000D03*
X129581250Y-125770000D03*
%TD*%
D25*
%TO.C,D2*%
X206700000Y-107500000D03*
X203725000Y-107500000D03*
%TD*%
D27*
%TO.C,R16*%
X134400000Y-135400000D03*
X134400000Y-133575000D03*
%TD*%
D16*
%TO.C,R2*%
X115587500Y-117800000D03*
X117412500Y-117800000D03*
%TD*%
D28*
%TO.C,D22*%
X134050000Y-111150000D03*
X134050000Y-107850000D03*
X129150000Y-107850000D03*
X129150000Y-111150000D03*
%TD*%
D29*
%TO.C,C1*%
X185100000Y-135262501D03*
X185100000Y-133537499D03*
%TD*%
D19*
%TO.C,R27*%
X176900000Y-128175000D03*
X176900000Y-130000000D03*
%TD*%
D11*
%TO.C,C21*%
X96362501Y-105000000D03*
X94637499Y-105000000D03*
%TD*%
D10*
%TO.C,SW1*%
X149450000Y-104050000D03*
X149450000Y-108550000D03*
X158550000Y-104050000D03*
X158550000Y-108550000D03*
%TD*%
D30*
%TO.C,U11*%
X141800000Y-112000000D03*
X141800000Y-112940000D03*
X142640000Y-112000000D03*
X142640000Y-112940000D03*
D31*
X140070000Y-111470000D03*
X140070000Y-111970000D03*
X140070000Y-112470000D03*
X140070000Y-112970000D03*
X140070000Y-113470000D03*
X144370000Y-113470000D03*
X144370000Y-112970000D03*
X144370000Y-112470000D03*
X144370000Y-111970000D03*
X144370000Y-111470000D03*
%TD*%
D24*
%TO.C,Q2*%
X113600000Y-116050000D03*
X113600000Y-114150000D03*
X110600000Y-115100000D03*
%TD*%
D19*
%TO.C,R3*%
X218400000Y-124687500D03*
X218400000Y-126512500D03*
%TD*%
D32*
%TO.C,Q1*%
X214450000Y-116800000D03*
X212550000Y-116800000D03*
X213500000Y-119800000D03*
%TD*%
D18*
%TO.C,C19*%
X213050000Y-112187499D03*
X213050000Y-113912501D03*
%TD*%
D12*
%TO.C,C11*%
X200725000Y-110500000D03*
X202450000Y-110500000D03*
%TD*%
D29*
%TO.C,C5*%
X162400000Y-130100000D03*
X162400000Y-128374998D03*
%TD*%
D19*
%TO.C,R26*%
X178400000Y-128175000D03*
X178400000Y-130000000D03*
%TD*%
D27*
%TO.C,R28*%
X170500000Y-130712500D03*
X170500000Y-128887500D03*
%TD*%
D33*
%TO.C,U10*%
X129030000Y-132300000D03*
X129030000Y-131270000D03*
X129030000Y-130240000D03*
X128000000Y-132300000D03*
X128000000Y-131270000D03*
X128000000Y-130240000D03*
X126970000Y-132300000D03*
X126970000Y-131270000D03*
X126970000Y-130240000D03*
D34*
X130375000Y-132770000D03*
X130375000Y-132270000D03*
X130375000Y-131770000D03*
X130375001Y-131270000D03*
X130375000Y-130770000D03*
X130375000Y-130270000D03*
X130375000Y-129770000D03*
D35*
X129500000Y-128895000D03*
X129000000Y-128895000D03*
X128500000Y-128895000D03*
X128000000Y-128894999D03*
X127500000Y-128895000D03*
X127000000Y-128895000D03*
X126500000Y-128895000D03*
D34*
X125625000Y-129770000D03*
X125625000Y-130270000D03*
X125625000Y-130770000D03*
X125624999Y-131270000D03*
X125625000Y-131770000D03*
X125625000Y-132270000D03*
X125625000Y-132770000D03*
D35*
X126500000Y-133645000D03*
X127000000Y-133645000D03*
X127500000Y-133645000D03*
X128000000Y-133645001D03*
X128500000Y-133645000D03*
X129000000Y-133645000D03*
X129500000Y-133645000D03*
%TD*%
D27*
%TO.C,R18*%
X136000000Y-135425000D03*
X136000000Y-133600000D03*
%TD*%
D18*
%TO.C,C28*%
X181150000Y-117925000D03*
X181150000Y-119650002D03*
%TD*%
D16*
%TO.C,R7*%
X213225000Y-125100000D03*
X215050000Y-125100000D03*
%TD*%
D20*
%TO.C,D16*%
X129700000Y-116400000D03*
X126400000Y-116400000D03*
%TD*%
D14*
%TO.C,R30*%
X143725000Y-107900000D03*
X141900000Y-107900000D03*
%TD*%
D12*
%TO.C,C17*%
X216125000Y-120350000D03*
X217850000Y-120350000D03*
%TD*%
D36*
%TO.C,U2*%
X181900000Y-134825000D03*
X181900000Y-133925000D03*
X180700000Y-134825000D03*
X180700000Y-133925000D03*
D37*
X183200000Y-135350000D03*
X183200000Y-134700000D03*
X183200000Y-134050000D03*
X183200000Y-133400000D03*
X179400000Y-133400000D03*
X179400000Y-134050000D03*
X179400000Y-134700000D03*
X179400000Y-135350000D03*
%TD*%
D17*
%TO.C,D1*%
X206350000Y-124600000D03*
X209650000Y-124600000D03*
%TD*%
%TO.C,D10*%
X174800000Y-56500000D03*
X178100000Y-56500000D03*
%TD*%
D12*
%TO.C,C8*%
X201974997Y-133239999D03*
X203699999Y-133239999D03*
%TD*%
D10*
%TO.C,SW14*%
X98450000Y-118750000D03*
X107550000Y-123250000D03*
X107550000Y-118750000D03*
X98450000Y-123250000D03*
%TD*%
D38*
%TO.C,U3*%
X136350002Y-128750000D03*
X137300001Y-128750000D03*
X138250000Y-128750000D03*
X138250000Y-126475000D03*
X137300001Y-126475000D03*
X136350002Y-126475000D03*
%TD*%
D10*
%TO.C,SW5*%
X187360000Y-109500000D03*
X196460000Y-105000000D03*
X187360000Y-105000000D03*
X196460000Y-109500000D03*
%TD*%
D12*
%TO.C,C15*%
X95174999Y-110150000D03*
X96899999Y-110150000D03*
%TD*%
D39*
%TO.C,U7*%
X208050000Y-114450000D03*
X209650000Y-114450000D03*
X208050000Y-113250000D03*
X209650000Y-113250000D03*
D40*
X206945000Y-116500000D03*
X208215000Y-116500000D03*
X209485000Y-116500000D03*
X210755000Y-116500000D03*
X210755000Y-111200000D03*
X209485000Y-111200000D03*
X208215000Y-111200000D03*
X206945000Y-111200000D03*
%TD*%
D12*
%TO.C,C25*%
X129975000Y-127300000D03*
X131700000Y-127300000D03*
%TD*%
D18*
%TO.C,C13*%
X204100000Y-121074998D03*
X204100000Y-122800000D03*
%TD*%
D16*
%TO.C,R23*%
X124050000Y-125770000D03*
X125875000Y-125770000D03*
%TD*%
D29*
%TO.C,C4*%
X160900000Y-130075002D03*
X160900000Y-128350000D03*
%TD*%
D17*
%TO.C,D6*%
X174850000Y-58900000D03*
X178150000Y-58900000D03*
%TD*%
D27*
%TO.C,R6*%
X213050000Y-110325000D03*
X213050000Y-108500000D03*
%TD*%
D13*
%TO.C,U13*%
X178650000Y-126620001D03*
X178650000Y-125350000D03*
X178650000Y-124079999D03*
X178650000Y-122810000D03*
X178650000Y-121540000D03*
X178650000Y-120270001D03*
X178650000Y-119000000D03*
X178650000Y-117729999D03*
X173650000Y-117729999D03*
X173650000Y-119000000D03*
X173650000Y-120270001D03*
X173650000Y-121540000D03*
X173650000Y-122810000D03*
X173650000Y-124079999D03*
X173650000Y-125350000D03*
X173650000Y-126620001D03*
%TD*%
D14*
%TO.C,R1*%
X209000000Y-122100000D03*
X207175000Y-122100000D03*
%TD*%
D41*
%TO.C,J1*%
X150800000Y-131320000D03*
X151600000Y-131320000D03*
D42*
X152750000Y-131320001D03*
X153750000Y-131320000D03*
X154250000Y-131320000D03*
X155250000Y-131320001D03*
D41*
X156400000Y-131320000D03*
X157200000Y-131320000D03*
X157200000Y-131320000D03*
X156400000Y-131320000D03*
D42*
X155750000Y-131320000D03*
X154750000Y-131320000D03*
X153250000Y-131320000D03*
X152250000Y-131320000D03*
D41*
X151600000Y-131320000D03*
X150800000Y-131320000D03*
D43*
X149680000Y-131895000D03*
D44*
X149680000Y-136075000D03*
D43*
X158320000Y-131895000D03*
D44*
X158320000Y-136075000D03*
%TD*%
D45*
%TO.C,D24*%
X146000000Y-104925000D03*
X146000000Y-107900000D03*
%TD*%
D14*
%TO.C,R10*%
X209000000Y-120100000D03*
X207175000Y-120100000D03*
%TD*%
D46*
%TO.C,U9*%
X218300000Y-114025000D03*
X217350001Y-114025000D03*
X216400002Y-114025000D03*
X216400002Y-116300000D03*
X217350001Y-116300000D03*
X218300000Y-116300000D03*
%TD*%
D10*
%TO.C,SW10*%
X120450000Y-118750000D03*
X129550000Y-118750000D03*
X120450000Y-123250000D03*
X129550000Y-123250000D03*
%TD*%
D47*
%TO.C,D20*%
X121100000Y-111050000D03*
X121100000Y-107750000D03*
%TD*%
D20*
%TO.C,D18*%
X133300000Y-58900000D03*
X130000000Y-58900000D03*
%TD*%
D10*
%TO.C,SW18*%
X109450000Y-129750000D03*
X118550000Y-134250000D03*
X118550000Y-129750000D03*
X109450000Y-134250000D03*
%TD*%
D27*
%TO.C,R19*%
X181050000Y-108675000D03*
X181050000Y-106850000D03*
%TD*%
D14*
%TO.C,R15*%
X96912500Y-113600000D03*
X95087500Y-113600000D03*
%TD*%
M02*
