%TF.GenerationSoftware,KiCad,Pcbnew,9.0.2*%
%TF.CreationDate,2025-07-06T19:20:28+07:00*%
%TF.ProjectId,Gamepad PCB,47616d65-7061-4642-9050-43422e6b6963,v03*%
%TF.SameCoordinates,Original*%
%TF.FileFunction,Legend,Bot*%
%TF.FilePolarity,Positive*%
%FSLAX46Y46*%
G04 Gerber Fmt 4.6, Leading zero omitted, Abs format (unit mm)*
G04 Created by KiCad (PCBNEW 9.0.2) date 2025-07-06 19:20:28*
%MOMM*%
%LPD*%
G01*
G04 APERTURE LIST*
%ADD10C,0.100000*%
%ADD11C,0.150000*%
%ADD12C,0.120000*%
%ADD13C,0.127000*%
%ADD14C,0.200000*%
G04 APERTURE END LIST*
D10*
X135873333Y-111857419D02*
X135873333Y-112571704D01*
X135873333Y-112571704D02*
X135920952Y-112714561D01*
X135920952Y-112714561D02*
X136016190Y-112809800D01*
X136016190Y-112809800D02*
X136159047Y-112857419D01*
X136159047Y-112857419D02*
X136254285Y-112857419D01*
X134968571Y-111857419D02*
X135159047Y-111857419D01*
X135159047Y-111857419D02*
X135254285Y-111905038D01*
X135254285Y-111905038D02*
X135301904Y-111952657D01*
X135301904Y-111952657D02*
X135397142Y-112095514D01*
X135397142Y-112095514D02*
X135444761Y-112285990D01*
X135444761Y-112285990D02*
X135444761Y-112666942D01*
X135444761Y-112666942D02*
X135397142Y-112762180D01*
X135397142Y-112762180D02*
X135349523Y-112809800D01*
X135349523Y-112809800D02*
X135254285Y-112857419D01*
X135254285Y-112857419D02*
X135063809Y-112857419D01*
X135063809Y-112857419D02*
X134968571Y-112809800D01*
X134968571Y-112809800D02*
X134920952Y-112762180D01*
X134920952Y-112762180D02*
X134873333Y-112666942D01*
X134873333Y-112666942D02*
X134873333Y-112428847D01*
X134873333Y-112428847D02*
X134920952Y-112333609D01*
X134920952Y-112333609D02*
X134968571Y-112285990D01*
X134968571Y-112285990D02*
X135063809Y-112238371D01*
X135063809Y-112238371D02*
X135254285Y-112238371D01*
X135254285Y-112238371D02*
X135349523Y-112285990D01*
X135349523Y-112285990D02*
X135397142Y-112333609D01*
X135397142Y-112333609D02*
X135444761Y-112428847D01*
D11*
X187295238Y-136750057D02*
X187390476Y-136702438D01*
X187390476Y-136702438D02*
X187485714Y-136607200D01*
X187485714Y-136607200D02*
X187628571Y-136464342D01*
X187628571Y-136464342D02*
X187723809Y-136416723D01*
X187723809Y-136416723D02*
X187819047Y-136416723D01*
X187771428Y-136654819D02*
X187866666Y-136607200D01*
X187866666Y-136607200D02*
X187961904Y-136511961D01*
X187961904Y-136511961D02*
X188009523Y-136321485D01*
X188009523Y-136321485D02*
X188009523Y-135988152D01*
X188009523Y-135988152D02*
X187961904Y-135797676D01*
X187961904Y-135797676D02*
X187866666Y-135702438D01*
X187866666Y-135702438D02*
X187771428Y-135654819D01*
X187771428Y-135654819D02*
X187580952Y-135654819D01*
X187580952Y-135654819D02*
X187485714Y-135702438D01*
X187485714Y-135702438D02*
X187390476Y-135797676D01*
X187390476Y-135797676D02*
X187342857Y-135988152D01*
X187342857Y-135988152D02*
X187342857Y-136321485D01*
X187342857Y-136321485D02*
X187390476Y-136511961D01*
X187390476Y-136511961D02*
X187485714Y-136607200D01*
X187485714Y-136607200D02*
X187580952Y-136654819D01*
X187580952Y-136654819D02*
X187771428Y-136654819D01*
X186771428Y-136083390D02*
X186866666Y-136035771D01*
X186866666Y-136035771D02*
X186914285Y-135988152D01*
X186914285Y-135988152D02*
X186961904Y-135892914D01*
X186961904Y-135892914D02*
X186961904Y-135845295D01*
X186961904Y-135845295D02*
X186914285Y-135750057D01*
X186914285Y-135750057D02*
X186866666Y-135702438D01*
X186866666Y-135702438D02*
X186771428Y-135654819D01*
X186771428Y-135654819D02*
X186580952Y-135654819D01*
X186580952Y-135654819D02*
X186485714Y-135702438D01*
X186485714Y-135702438D02*
X186438095Y-135750057D01*
X186438095Y-135750057D02*
X186390476Y-135845295D01*
X186390476Y-135845295D02*
X186390476Y-135892914D01*
X186390476Y-135892914D02*
X186438095Y-135988152D01*
X186438095Y-135988152D02*
X186485714Y-136035771D01*
X186485714Y-136035771D02*
X186580952Y-136083390D01*
X186580952Y-136083390D02*
X186771428Y-136083390D01*
X186771428Y-136083390D02*
X186866666Y-136131009D01*
X186866666Y-136131009D02*
X186914285Y-136178628D01*
X186914285Y-136178628D02*
X186961904Y-136273866D01*
X186961904Y-136273866D02*
X186961904Y-136464342D01*
X186961904Y-136464342D02*
X186914285Y-136559580D01*
X186914285Y-136559580D02*
X186866666Y-136607200D01*
X186866666Y-136607200D02*
X186771428Y-136654819D01*
X186771428Y-136654819D02*
X186580952Y-136654819D01*
X186580952Y-136654819D02*
X186485714Y-136607200D01*
X186485714Y-136607200D02*
X186438095Y-136559580D01*
X186438095Y-136559580D02*
X186390476Y-136464342D01*
X186390476Y-136464342D02*
X186390476Y-136273866D01*
X186390476Y-136273866D02*
X186438095Y-136178628D01*
X186438095Y-136178628D02*
X186485714Y-136131009D01*
X186485714Y-136131009D02*
X186580952Y-136083390D01*
X118042857Y-116754819D02*
X118376190Y-116278628D01*
X118614285Y-116754819D02*
X118614285Y-115754819D01*
X118614285Y-115754819D02*
X118233333Y-115754819D01*
X118233333Y-115754819D02*
X118138095Y-115802438D01*
X118138095Y-115802438D02*
X118090476Y-115850057D01*
X118090476Y-115850057D02*
X118042857Y-115945295D01*
X118042857Y-115945295D02*
X118042857Y-116088152D01*
X118042857Y-116088152D02*
X118090476Y-116183390D01*
X118090476Y-116183390D02*
X118138095Y-116231009D01*
X118138095Y-116231009D02*
X118233333Y-116278628D01*
X118233333Y-116278628D02*
X118614285Y-116278628D01*
X117090476Y-116754819D02*
X117661904Y-116754819D01*
X117376190Y-116754819D02*
X117376190Y-115754819D01*
X117376190Y-115754819D02*
X117471428Y-115897676D01*
X117471428Y-115897676D02*
X117566666Y-115992914D01*
X117566666Y-115992914D02*
X117661904Y-116040533D01*
X116709523Y-115850057D02*
X116661904Y-115802438D01*
X116661904Y-115802438D02*
X116566666Y-115754819D01*
X116566666Y-115754819D02*
X116328571Y-115754819D01*
X116328571Y-115754819D02*
X116233333Y-115802438D01*
X116233333Y-115802438D02*
X116185714Y-115850057D01*
X116185714Y-115850057D02*
X116138095Y-115945295D01*
X116138095Y-115945295D02*
X116138095Y-116040533D01*
X116138095Y-116040533D02*
X116185714Y-116183390D01*
X116185714Y-116183390D02*
X116757142Y-116754819D01*
X116757142Y-116754819D02*
X116138095Y-116754819D01*
X158666666Y-95759580D02*
X158714285Y-95807200D01*
X158714285Y-95807200D02*
X158857142Y-95854819D01*
X158857142Y-95854819D02*
X158952380Y-95854819D01*
X158952380Y-95854819D02*
X159095237Y-95807200D01*
X159095237Y-95807200D02*
X159190475Y-95711961D01*
X159190475Y-95711961D02*
X159238094Y-95616723D01*
X159238094Y-95616723D02*
X159285713Y-95426247D01*
X159285713Y-95426247D02*
X159285713Y-95283390D01*
X159285713Y-95283390D02*
X159238094Y-95092914D01*
X159238094Y-95092914D02*
X159190475Y-94997676D01*
X159190475Y-94997676D02*
X159095237Y-94902438D01*
X159095237Y-94902438D02*
X158952380Y-94854819D01*
X158952380Y-94854819D02*
X158857142Y-94854819D01*
X158857142Y-94854819D02*
X158714285Y-94902438D01*
X158714285Y-94902438D02*
X158666666Y-94950057D01*
X158285713Y-94950057D02*
X158238094Y-94902438D01*
X158238094Y-94902438D02*
X158142856Y-94854819D01*
X158142856Y-94854819D02*
X157904761Y-94854819D01*
X157904761Y-94854819D02*
X157809523Y-94902438D01*
X157809523Y-94902438D02*
X157761904Y-94950057D01*
X157761904Y-94950057D02*
X157714285Y-95045295D01*
X157714285Y-95045295D02*
X157714285Y-95140533D01*
X157714285Y-95140533D02*
X157761904Y-95283390D01*
X157761904Y-95283390D02*
X158333332Y-95854819D01*
X158333332Y-95854819D02*
X157714285Y-95854819D01*
X188554819Y-124561905D02*
X187554819Y-124561905D01*
X187554819Y-124561905D02*
X187554819Y-124800000D01*
X187554819Y-124800000D02*
X187602438Y-124942857D01*
X187602438Y-124942857D02*
X187697676Y-125038095D01*
X187697676Y-125038095D02*
X187792914Y-125085714D01*
X187792914Y-125085714D02*
X187983390Y-125133333D01*
X187983390Y-125133333D02*
X188126247Y-125133333D01*
X188126247Y-125133333D02*
X188316723Y-125085714D01*
X188316723Y-125085714D02*
X188411961Y-125038095D01*
X188411961Y-125038095D02*
X188507200Y-124942857D01*
X188507200Y-124942857D02*
X188554819Y-124800000D01*
X188554819Y-124800000D02*
X188554819Y-124561905D01*
X187888152Y-125990476D02*
X188554819Y-125990476D01*
X187507200Y-125752381D02*
X188221485Y-125514286D01*
X188221485Y-125514286D02*
X188221485Y-126133333D01*
D10*
X82857419Y-116438095D02*
X83666942Y-116438095D01*
X83666942Y-116438095D02*
X83762180Y-116485714D01*
X83762180Y-116485714D02*
X83809800Y-116533333D01*
X83809800Y-116533333D02*
X83857419Y-116628571D01*
X83857419Y-116628571D02*
X83857419Y-116819047D01*
X83857419Y-116819047D02*
X83809800Y-116914285D01*
X83809800Y-116914285D02*
X83762180Y-116961904D01*
X83762180Y-116961904D02*
X83666942Y-117009523D01*
X83666942Y-117009523D02*
X82857419Y-117009523D01*
X82857419Y-117914285D02*
X82857419Y-117723809D01*
X82857419Y-117723809D02*
X82905038Y-117628571D01*
X82905038Y-117628571D02*
X82952657Y-117580952D01*
X82952657Y-117580952D02*
X83095514Y-117485714D01*
X83095514Y-117485714D02*
X83285990Y-117438095D01*
X83285990Y-117438095D02*
X83666942Y-117438095D01*
X83666942Y-117438095D02*
X83762180Y-117485714D01*
X83762180Y-117485714D02*
X83809800Y-117533333D01*
X83809800Y-117533333D02*
X83857419Y-117628571D01*
X83857419Y-117628571D02*
X83857419Y-117819047D01*
X83857419Y-117819047D02*
X83809800Y-117914285D01*
X83809800Y-117914285D02*
X83762180Y-117961904D01*
X83762180Y-117961904D02*
X83666942Y-118009523D01*
X83666942Y-118009523D02*
X83428847Y-118009523D01*
X83428847Y-118009523D02*
X83333609Y-117961904D01*
X83333609Y-117961904D02*
X83285990Y-117914285D01*
X83285990Y-117914285D02*
X83238371Y-117819047D01*
X83238371Y-117819047D02*
X83238371Y-117628571D01*
X83238371Y-117628571D02*
X83285990Y-117533333D01*
X83285990Y-117533333D02*
X83333609Y-117485714D01*
X83333609Y-117485714D02*
X83428847Y-117438095D01*
D11*
X194959580Y-121533332D02*
X195007200Y-121485713D01*
X195007200Y-121485713D02*
X195054819Y-121342856D01*
X195054819Y-121342856D02*
X195054819Y-121247618D01*
X195054819Y-121247618D02*
X195007200Y-121104761D01*
X195007200Y-121104761D02*
X194911961Y-121009523D01*
X194911961Y-121009523D02*
X194816723Y-120961904D01*
X194816723Y-120961904D02*
X194626247Y-120914285D01*
X194626247Y-120914285D02*
X194483390Y-120914285D01*
X194483390Y-120914285D02*
X194292914Y-120961904D01*
X194292914Y-120961904D02*
X194197676Y-121009523D01*
X194197676Y-121009523D02*
X194102438Y-121104761D01*
X194102438Y-121104761D02*
X194054819Y-121247618D01*
X194054819Y-121247618D02*
X194054819Y-121342856D01*
X194054819Y-121342856D02*
X194102438Y-121485713D01*
X194102438Y-121485713D02*
X194150057Y-121533332D01*
X194054819Y-122390475D02*
X194054819Y-122199999D01*
X194054819Y-122199999D02*
X194102438Y-122104761D01*
X194102438Y-122104761D02*
X194150057Y-122057142D01*
X194150057Y-122057142D02*
X194292914Y-121961904D01*
X194292914Y-121961904D02*
X194483390Y-121914285D01*
X194483390Y-121914285D02*
X194864342Y-121914285D01*
X194864342Y-121914285D02*
X194959580Y-121961904D01*
X194959580Y-121961904D02*
X195007200Y-122009523D01*
X195007200Y-122009523D02*
X195054819Y-122104761D01*
X195054819Y-122104761D02*
X195054819Y-122295237D01*
X195054819Y-122295237D02*
X195007200Y-122390475D01*
X195007200Y-122390475D02*
X194959580Y-122438094D01*
X194959580Y-122438094D02*
X194864342Y-122485713D01*
X194864342Y-122485713D02*
X194626247Y-122485713D01*
X194626247Y-122485713D02*
X194531009Y-122438094D01*
X194531009Y-122438094D02*
X194483390Y-122390475D01*
X194483390Y-122390475D02*
X194435771Y-122295237D01*
X194435771Y-122295237D02*
X194435771Y-122104761D01*
X194435771Y-122104761D02*
X194483390Y-122009523D01*
X194483390Y-122009523D02*
X194531009Y-121961904D01*
X194531009Y-121961904D02*
X194626247Y-121914285D01*
D10*
X135893333Y-118157419D02*
X135893333Y-118871704D01*
X135893333Y-118871704D02*
X135940952Y-119014561D01*
X135940952Y-119014561D02*
X136036190Y-119109800D01*
X136036190Y-119109800D02*
X136179047Y-119157419D01*
X136179047Y-119157419D02*
X136274285Y-119157419D01*
X134940952Y-118157419D02*
X135417142Y-118157419D01*
X135417142Y-118157419D02*
X135464761Y-118633609D01*
X135464761Y-118633609D02*
X135417142Y-118585990D01*
X135417142Y-118585990D02*
X135321904Y-118538371D01*
X135321904Y-118538371D02*
X135083809Y-118538371D01*
X135083809Y-118538371D02*
X134988571Y-118585990D01*
X134988571Y-118585990D02*
X134940952Y-118633609D01*
X134940952Y-118633609D02*
X134893333Y-118728847D01*
X134893333Y-118728847D02*
X134893333Y-118966942D01*
X134893333Y-118966942D02*
X134940952Y-119062180D01*
X134940952Y-119062180D02*
X134988571Y-119109800D01*
X134988571Y-119109800D02*
X135083809Y-119157419D01*
X135083809Y-119157419D02*
X135321904Y-119157419D01*
X135321904Y-119157419D02*
X135417142Y-119109800D01*
X135417142Y-119109800D02*
X135464761Y-119062180D01*
D11*
X188059580Y-130557142D02*
X188107200Y-130509523D01*
X188107200Y-130509523D02*
X188154819Y-130366666D01*
X188154819Y-130366666D02*
X188154819Y-130271428D01*
X188154819Y-130271428D02*
X188107200Y-130128571D01*
X188107200Y-130128571D02*
X188011961Y-130033333D01*
X188011961Y-130033333D02*
X187916723Y-129985714D01*
X187916723Y-129985714D02*
X187726247Y-129938095D01*
X187726247Y-129938095D02*
X187583390Y-129938095D01*
X187583390Y-129938095D02*
X187392914Y-129985714D01*
X187392914Y-129985714D02*
X187297676Y-130033333D01*
X187297676Y-130033333D02*
X187202438Y-130128571D01*
X187202438Y-130128571D02*
X187154819Y-130271428D01*
X187154819Y-130271428D02*
X187154819Y-130366666D01*
X187154819Y-130366666D02*
X187202438Y-130509523D01*
X187202438Y-130509523D02*
X187250057Y-130557142D01*
X187250057Y-130938095D02*
X187202438Y-130985714D01*
X187202438Y-130985714D02*
X187154819Y-131080952D01*
X187154819Y-131080952D02*
X187154819Y-131319047D01*
X187154819Y-131319047D02*
X187202438Y-131414285D01*
X187202438Y-131414285D02*
X187250057Y-131461904D01*
X187250057Y-131461904D02*
X187345295Y-131509523D01*
X187345295Y-131509523D02*
X187440533Y-131509523D01*
X187440533Y-131509523D02*
X187583390Y-131461904D01*
X187583390Y-131461904D02*
X188154819Y-130890476D01*
X188154819Y-130890476D02*
X188154819Y-131509523D01*
X187154819Y-132128571D02*
X187154819Y-132223809D01*
X187154819Y-132223809D02*
X187202438Y-132319047D01*
X187202438Y-132319047D02*
X187250057Y-132366666D01*
X187250057Y-132366666D02*
X187345295Y-132414285D01*
X187345295Y-132414285D02*
X187535771Y-132461904D01*
X187535771Y-132461904D02*
X187773866Y-132461904D01*
X187773866Y-132461904D02*
X187964342Y-132414285D01*
X187964342Y-132414285D02*
X188059580Y-132366666D01*
X188059580Y-132366666D02*
X188107200Y-132319047D01*
X188107200Y-132319047D02*
X188154819Y-132223809D01*
X188154819Y-132223809D02*
X188154819Y-132128571D01*
X188154819Y-132128571D02*
X188107200Y-132033333D01*
X188107200Y-132033333D02*
X188059580Y-131985714D01*
X188059580Y-131985714D02*
X187964342Y-131938095D01*
X187964342Y-131938095D02*
X187773866Y-131890476D01*
X187773866Y-131890476D02*
X187535771Y-131890476D01*
X187535771Y-131890476D02*
X187345295Y-131938095D01*
X187345295Y-131938095D02*
X187250057Y-131985714D01*
X187250057Y-131985714D02*
X187202438Y-132033333D01*
X187202438Y-132033333D02*
X187154819Y-132128571D01*
X201042857Y-112659580D02*
X201090476Y-112707200D01*
X201090476Y-112707200D02*
X201233333Y-112754819D01*
X201233333Y-112754819D02*
X201328571Y-112754819D01*
X201328571Y-112754819D02*
X201471428Y-112707200D01*
X201471428Y-112707200D02*
X201566666Y-112611961D01*
X201566666Y-112611961D02*
X201614285Y-112516723D01*
X201614285Y-112516723D02*
X201661904Y-112326247D01*
X201661904Y-112326247D02*
X201661904Y-112183390D01*
X201661904Y-112183390D02*
X201614285Y-111992914D01*
X201614285Y-111992914D02*
X201566666Y-111897676D01*
X201566666Y-111897676D02*
X201471428Y-111802438D01*
X201471428Y-111802438D02*
X201328571Y-111754819D01*
X201328571Y-111754819D02*
X201233333Y-111754819D01*
X201233333Y-111754819D02*
X201090476Y-111802438D01*
X201090476Y-111802438D02*
X201042857Y-111850057D01*
X200090476Y-112754819D02*
X200661904Y-112754819D01*
X200376190Y-112754819D02*
X200376190Y-111754819D01*
X200376190Y-111754819D02*
X200471428Y-111897676D01*
X200471428Y-111897676D02*
X200566666Y-111992914D01*
X200566666Y-111992914D02*
X200661904Y-112040533D01*
X199471428Y-111754819D02*
X199376190Y-111754819D01*
X199376190Y-111754819D02*
X199280952Y-111802438D01*
X199280952Y-111802438D02*
X199233333Y-111850057D01*
X199233333Y-111850057D02*
X199185714Y-111945295D01*
X199185714Y-111945295D02*
X199138095Y-112135771D01*
X199138095Y-112135771D02*
X199138095Y-112373866D01*
X199138095Y-112373866D02*
X199185714Y-112564342D01*
X199185714Y-112564342D02*
X199233333Y-112659580D01*
X199233333Y-112659580D02*
X199280952Y-112707200D01*
X199280952Y-112707200D02*
X199376190Y-112754819D01*
X199376190Y-112754819D02*
X199471428Y-112754819D01*
X199471428Y-112754819D02*
X199566666Y-112707200D01*
X199566666Y-112707200D02*
X199614285Y-112659580D01*
X199614285Y-112659580D02*
X199661904Y-112564342D01*
X199661904Y-112564342D02*
X199709523Y-112373866D01*
X199709523Y-112373866D02*
X199709523Y-112135771D01*
X199709523Y-112135771D02*
X199661904Y-111945295D01*
X199661904Y-111945295D02*
X199614285Y-111850057D01*
X199614285Y-111850057D02*
X199566666Y-111802438D01*
X199566666Y-111802438D02*
X199471428Y-111754819D01*
X148487337Y-98678199D02*
X148386322Y-98105780D01*
X148891398Y-98274138D02*
X148184291Y-97567032D01*
X148184291Y-97567032D02*
X147914917Y-97836406D01*
X147914917Y-97836406D02*
X147881245Y-97937421D01*
X147881245Y-97937421D02*
X147881245Y-98004764D01*
X147881245Y-98004764D02*
X147914917Y-98105780D01*
X147914917Y-98105780D02*
X148015932Y-98206795D01*
X148015932Y-98206795D02*
X148116948Y-98240467D01*
X148116948Y-98240467D02*
X148184291Y-98240467D01*
X148184291Y-98240467D02*
X148285306Y-98206795D01*
X148285306Y-98206795D02*
X148554680Y-97937421D01*
X147813902Y-99351634D02*
X148217963Y-98947573D01*
X148015932Y-99149604D02*
X147308826Y-98442497D01*
X147308826Y-98442497D02*
X147477184Y-98476169D01*
X147477184Y-98476169D02*
X147611871Y-98476169D01*
X147611871Y-98476169D02*
X147712887Y-98442497D01*
X146736406Y-99486322D02*
X147207810Y-99957726D01*
X146635390Y-99048589D02*
X147308825Y-99385306D01*
X147308825Y-99385306D02*
X146871093Y-99823039D01*
X107308832Y-58207200D02*
X107165975Y-58254819D01*
X107165975Y-58254819D02*
X106927880Y-58254819D01*
X106927880Y-58254819D02*
X106832642Y-58207200D01*
X106832642Y-58207200D02*
X106785023Y-58159580D01*
X106785023Y-58159580D02*
X106737404Y-58064342D01*
X106737404Y-58064342D02*
X106737404Y-57969104D01*
X106737404Y-57969104D02*
X106785023Y-57873866D01*
X106785023Y-57873866D02*
X106832642Y-57826247D01*
X106832642Y-57826247D02*
X106927880Y-57778628D01*
X106927880Y-57778628D02*
X107118356Y-57731009D01*
X107118356Y-57731009D02*
X107213594Y-57683390D01*
X107213594Y-57683390D02*
X107261213Y-57635771D01*
X107261213Y-57635771D02*
X107308832Y-57540533D01*
X107308832Y-57540533D02*
X107308832Y-57445295D01*
X107308832Y-57445295D02*
X107261213Y-57350057D01*
X107261213Y-57350057D02*
X107213594Y-57302438D01*
X107213594Y-57302438D02*
X107118356Y-57254819D01*
X107118356Y-57254819D02*
X106880261Y-57254819D01*
X106880261Y-57254819D02*
X106737404Y-57302438D01*
X106404070Y-57254819D02*
X106165975Y-58254819D01*
X106165975Y-58254819D02*
X105975499Y-57540533D01*
X105975499Y-57540533D02*
X105785023Y-58254819D01*
X105785023Y-58254819D02*
X105546928Y-57254819D01*
X104737404Y-57588152D02*
X104737404Y-58254819D01*
X104975499Y-57207200D02*
X105213594Y-57921485D01*
X105213594Y-57921485D02*
X104594547Y-57921485D01*
X115030357Y-113854819D02*
X115363690Y-113378628D01*
X115601785Y-113854819D02*
X115601785Y-112854819D01*
X115601785Y-112854819D02*
X115220833Y-112854819D01*
X115220833Y-112854819D02*
X115125595Y-112902438D01*
X115125595Y-112902438D02*
X115077976Y-112950057D01*
X115077976Y-112950057D02*
X115030357Y-113045295D01*
X115030357Y-113045295D02*
X115030357Y-113188152D01*
X115030357Y-113188152D02*
X115077976Y-113283390D01*
X115077976Y-113283390D02*
X115125595Y-113331009D01*
X115125595Y-113331009D02*
X115220833Y-113378628D01*
X115220833Y-113378628D02*
X115601785Y-113378628D01*
X114077976Y-113854819D02*
X114649404Y-113854819D01*
X114363690Y-113854819D02*
X114363690Y-112854819D01*
X114363690Y-112854819D02*
X114458928Y-112997676D01*
X114458928Y-112997676D02*
X114554166Y-113092914D01*
X114554166Y-113092914D02*
X114649404Y-113140533D01*
X113744642Y-112854819D02*
X113125595Y-112854819D01*
X113125595Y-112854819D02*
X113458928Y-113235771D01*
X113458928Y-113235771D02*
X113316071Y-113235771D01*
X113316071Y-113235771D02*
X113220833Y-113283390D01*
X113220833Y-113283390D02*
X113173214Y-113331009D01*
X113173214Y-113331009D02*
X113125595Y-113426247D01*
X113125595Y-113426247D02*
X113125595Y-113664342D01*
X113125595Y-113664342D02*
X113173214Y-113759580D01*
X113173214Y-113759580D02*
X113220833Y-113807200D01*
X113220833Y-113807200D02*
X113316071Y-113854819D01*
X113316071Y-113854819D02*
X113601785Y-113854819D01*
X113601785Y-113854819D02*
X113697023Y-113807200D01*
X113697023Y-113807200D02*
X113744642Y-113759580D01*
X217842857Y-120459580D02*
X217890476Y-120507200D01*
X217890476Y-120507200D02*
X218033333Y-120554819D01*
X218033333Y-120554819D02*
X218128571Y-120554819D01*
X218128571Y-120554819D02*
X218271428Y-120507200D01*
X218271428Y-120507200D02*
X218366666Y-120411961D01*
X218366666Y-120411961D02*
X218414285Y-120316723D01*
X218414285Y-120316723D02*
X218461904Y-120126247D01*
X218461904Y-120126247D02*
X218461904Y-119983390D01*
X218461904Y-119983390D02*
X218414285Y-119792914D01*
X218414285Y-119792914D02*
X218366666Y-119697676D01*
X218366666Y-119697676D02*
X218271428Y-119602438D01*
X218271428Y-119602438D02*
X218128571Y-119554819D01*
X218128571Y-119554819D02*
X218033333Y-119554819D01*
X218033333Y-119554819D02*
X217890476Y-119602438D01*
X217890476Y-119602438D02*
X217842857Y-119650057D01*
X216890476Y-120554819D02*
X217461904Y-120554819D01*
X217176190Y-120554819D02*
X217176190Y-119554819D01*
X217176190Y-119554819D02*
X217271428Y-119697676D01*
X217271428Y-119697676D02*
X217366666Y-119792914D01*
X217366666Y-119792914D02*
X217461904Y-119840533D01*
X216033333Y-119554819D02*
X216223809Y-119554819D01*
X216223809Y-119554819D02*
X216319047Y-119602438D01*
X216319047Y-119602438D02*
X216366666Y-119650057D01*
X216366666Y-119650057D02*
X216461904Y-119792914D01*
X216461904Y-119792914D02*
X216509523Y-119983390D01*
X216509523Y-119983390D02*
X216509523Y-120364342D01*
X216509523Y-120364342D02*
X216461904Y-120459580D01*
X216461904Y-120459580D02*
X216414285Y-120507200D01*
X216414285Y-120507200D02*
X216319047Y-120554819D01*
X216319047Y-120554819D02*
X216128571Y-120554819D01*
X216128571Y-120554819D02*
X216033333Y-120507200D01*
X216033333Y-120507200D02*
X215985714Y-120459580D01*
X215985714Y-120459580D02*
X215938095Y-120364342D01*
X215938095Y-120364342D02*
X215938095Y-120126247D01*
X215938095Y-120126247D02*
X215985714Y-120031009D01*
X215985714Y-120031009D02*
X216033333Y-119983390D01*
X216033333Y-119983390D02*
X216128571Y-119935771D01*
X216128571Y-119935771D02*
X216319047Y-119935771D01*
X216319047Y-119935771D02*
X216414285Y-119983390D01*
X216414285Y-119983390D02*
X216461904Y-120031009D01*
X216461904Y-120031009D02*
X216509523Y-120126247D01*
D10*
X215346666Y-102942580D02*
X215346666Y-102228295D01*
X215346666Y-102228295D02*
X215299047Y-102085438D01*
X215299047Y-102085438D02*
X215203809Y-101990200D01*
X215203809Y-101990200D02*
X215060952Y-101942580D01*
X215060952Y-101942580D02*
X214965714Y-101942580D01*
X215775238Y-102847342D02*
X215822857Y-102894961D01*
X215822857Y-102894961D02*
X215918095Y-102942580D01*
X215918095Y-102942580D02*
X216156190Y-102942580D01*
X216156190Y-102942580D02*
X216251428Y-102894961D01*
X216251428Y-102894961D02*
X216299047Y-102847342D01*
X216299047Y-102847342D02*
X216346666Y-102752104D01*
X216346666Y-102752104D02*
X216346666Y-102656866D01*
X216346666Y-102656866D02*
X216299047Y-102514009D01*
X216299047Y-102514009D02*
X215727619Y-101942580D01*
X215727619Y-101942580D02*
X216346666Y-101942580D01*
D11*
X203308832Y-58049700D02*
X203165975Y-58097319D01*
X203165975Y-58097319D02*
X202927880Y-58097319D01*
X202927880Y-58097319D02*
X202832642Y-58049700D01*
X202832642Y-58049700D02*
X202785023Y-58002080D01*
X202785023Y-58002080D02*
X202737404Y-57906842D01*
X202737404Y-57906842D02*
X202737404Y-57811604D01*
X202737404Y-57811604D02*
X202785023Y-57716366D01*
X202785023Y-57716366D02*
X202832642Y-57668747D01*
X202832642Y-57668747D02*
X202927880Y-57621128D01*
X202927880Y-57621128D02*
X203118356Y-57573509D01*
X203118356Y-57573509D02*
X203213594Y-57525890D01*
X203213594Y-57525890D02*
X203261213Y-57478271D01*
X203261213Y-57478271D02*
X203308832Y-57383033D01*
X203308832Y-57383033D02*
X203308832Y-57287795D01*
X203308832Y-57287795D02*
X203261213Y-57192557D01*
X203261213Y-57192557D02*
X203213594Y-57144938D01*
X203213594Y-57144938D02*
X203118356Y-57097319D01*
X203118356Y-57097319D02*
X202880261Y-57097319D01*
X202880261Y-57097319D02*
X202737404Y-57144938D01*
X202404070Y-57097319D02*
X202165975Y-58097319D01*
X202165975Y-58097319D02*
X201975499Y-57383033D01*
X201975499Y-57383033D02*
X201785023Y-58097319D01*
X201785023Y-58097319D02*
X201546928Y-57097319D01*
X201023118Y-57525890D02*
X201118356Y-57478271D01*
X201118356Y-57478271D02*
X201165975Y-57430652D01*
X201165975Y-57430652D02*
X201213594Y-57335414D01*
X201213594Y-57335414D02*
X201213594Y-57287795D01*
X201213594Y-57287795D02*
X201165975Y-57192557D01*
X201165975Y-57192557D02*
X201118356Y-57144938D01*
X201118356Y-57144938D02*
X201023118Y-57097319D01*
X201023118Y-57097319D02*
X200832642Y-57097319D01*
X200832642Y-57097319D02*
X200737404Y-57144938D01*
X200737404Y-57144938D02*
X200689785Y-57192557D01*
X200689785Y-57192557D02*
X200642166Y-57287795D01*
X200642166Y-57287795D02*
X200642166Y-57335414D01*
X200642166Y-57335414D02*
X200689785Y-57430652D01*
X200689785Y-57430652D02*
X200737404Y-57478271D01*
X200737404Y-57478271D02*
X200832642Y-57525890D01*
X200832642Y-57525890D02*
X201023118Y-57525890D01*
X201023118Y-57525890D02*
X201118356Y-57573509D01*
X201118356Y-57573509D02*
X201165975Y-57621128D01*
X201165975Y-57621128D02*
X201213594Y-57716366D01*
X201213594Y-57716366D02*
X201213594Y-57906842D01*
X201213594Y-57906842D02*
X201165975Y-58002080D01*
X201165975Y-58002080D02*
X201118356Y-58049700D01*
X201118356Y-58049700D02*
X201023118Y-58097319D01*
X201023118Y-58097319D02*
X200832642Y-58097319D01*
X200832642Y-58097319D02*
X200737404Y-58049700D01*
X200737404Y-58049700D02*
X200689785Y-58002080D01*
X200689785Y-58002080D02*
X200642166Y-57906842D01*
X200642166Y-57906842D02*
X200642166Y-57716366D01*
X200642166Y-57716366D02*
X200689785Y-57621128D01*
X200689785Y-57621128D02*
X200737404Y-57573509D01*
X200737404Y-57573509D02*
X200832642Y-57525890D01*
D10*
X179857419Y-113506666D02*
X180571704Y-113506666D01*
X180571704Y-113506666D02*
X180714561Y-113459047D01*
X180714561Y-113459047D02*
X180809800Y-113363809D01*
X180809800Y-113363809D02*
X180857419Y-113220952D01*
X180857419Y-113220952D02*
X180857419Y-113125714D01*
X180190752Y-114411428D02*
X180857419Y-114411428D01*
X179809800Y-114173333D02*
X180524085Y-113935238D01*
X180524085Y-113935238D02*
X180524085Y-114554285D01*
D11*
X199757319Y-131160705D02*
X198757319Y-131160705D01*
X198757319Y-131160705D02*
X199471604Y-131423944D01*
X199471604Y-131423944D02*
X198757319Y-131687183D01*
X198757319Y-131687183D02*
X199757319Y-131687183D01*
X199757319Y-132476901D02*
X199757319Y-132025634D01*
X199757319Y-132251267D02*
X198757319Y-132251267D01*
X198757319Y-132251267D02*
X198900176Y-132176056D01*
X198900176Y-132176056D02*
X198995414Y-132100845D01*
X198995414Y-132100845D02*
X199043033Y-132025634D01*
D10*
X192941033Y-131680951D02*
X192941033Y-130919047D01*
X192941033Y-132680951D02*
X192941033Y-131919047D01*
X192560080Y-132299999D02*
X193321985Y-132299999D01*
D11*
X165180952Y-98931009D02*
X165038095Y-98978628D01*
X165038095Y-98978628D02*
X164990476Y-99026247D01*
X164990476Y-99026247D02*
X164942857Y-99121485D01*
X164942857Y-99121485D02*
X164942857Y-99264342D01*
X164942857Y-99264342D02*
X164990476Y-99359580D01*
X164990476Y-99359580D02*
X165038095Y-99407200D01*
X165038095Y-99407200D02*
X165133333Y-99454819D01*
X165133333Y-99454819D02*
X165514285Y-99454819D01*
X165514285Y-99454819D02*
X165514285Y-98454819D01*
X165514285Y-98454819D02*
X165180952Y-98454819D01*
X165180952Y-98454819D02*
X165085714Y-98502438D01*
X165085714Y-98502438D02*
X165038095Y-98550057D01*
X165038095Y-98550057D02*
X164990476Y-98645295D01*
X164990476Y-98645295D02*
X164990476Y-98740533D01*
X164990476Y-98740533D02*
X165038095Y-98835771D01*
X165038095Y-98835771D02*
X165085714Y-98883390D01*
X165085714Y-98883390D02*
X165180952Y-98931009D01*
X165180952Y-98931009D02*
X165514285Y-98931009D01*
X164609523Y-98454819D02*
X163942857Y-98454819D01*
X163942857Y-98454819D02*
X164609523Y-99454819D01*
X164609523Y-99454819D02*
X163942857Y-99454819D01*
X163038095Y-99454819D02*
X163609523Y-99454819D01*
X163323809Y-99454819D02*
X163323809Y-98454819D01*
X163323809Y-98454819D02*
X163419047Y-98597676D01*
X163419047Y-98597676D02*
X163514285Y-98692914D01*
X163514285Y-98692914D02*
X163609523Y-98740533D01*
X168490951Y-103733866D02*
X167729047Y-103733866D01*
X168109999Y-104114819D02*
X168109999Y-103352914D01*
D10*
X157105080Y-82324404D02*
X156295557Y-82324404D01*
X156295557Y-82324404D02*
X156200319Y-82276785D01*
X156200319Y-82276785D02*
X156152700Y-82229166D01*
X156152700Y-82229166D02*
X156105080Y-82133928D01*
X156105080Y-82133928D02*
X156105080Y-81943452D01*
X156105080Y-81943452D02*
X156152700Y-81848214D01*
X156152700Y-81848214D02*
X156200319Y-81800595D01*
X156200319Y-81800595D02*
X156295557Y-81752976D01*
X156295557Y-81752976D02*
X157105080Y-81752976D01*
X156771747Y-80848214D02*
X156105080Y-80848214D01*
X157152700Y-81086309D02*
X156438414Y-81324404D01*
X156438414Y-81324404D02*
X156438414Y-80705357D01*
X179857419Y-123806666D02*
X180571704Y-123806666D01*
X180571704Y-123806666D02*
X180714561Y-123759047D01*
X180714561Y-123759047D02*
X180809800Y-123663809D01*
X180809800Y-123663809D02*
X180857419Y-123520952D01*
X180857419Y-123520952D02*
X180857419Y-123425714D01*
X179857419Y-124187619D02*
X179857419Y-124806666D01*
X179857419Y-124806666D02*
X180238371Y-124473333D01*
X180238371Y-124473333D02*
X180238371Y-124616190D01*
X180238371Y-124616190D02*
X180285990Y-124711428D01*
X180285990Y-124711428D02*
X180333609Y-124759047D01*
X180333609Y-124759047D02*
X180428847Y-124806666D01*
X180428847Y-124806666D02*
X180666942Y-124806666D01*
X180666942Y-124806666D02*
X180762180Y-124759047D01*
X180762180Y-124759047D02*
X180809800Y-124711428D01*
X180809800Y-124711428D02*
X180857419Y-124616190D01*
X180857419Y-124616190D02*
X180857419Y-124330476D01*
X180857419Y-124330476D02*
X180809800Y-124235238D01*
X180809800Y-124235238D02*
X180762180Y-124187619D01*
D11*
X154995238Y-109550057D02*
X155090476Y-109502438D01*
X155090476Y-109502438D02*
X155185714Y-109407200D01*
X155185714Y-109407200D02*
X155328571Y-109264342D01*
X155328571Y-109264342D02*
X155423809Y-109216723D01*
X155423809Y-109216723D02*
X155519047Y-109216723D01*
X155471428Y-109454819D02*
X155566666Y-109407200D01*
X155566666Y-109407200D02*
X155661904Y-109311961D01*
X155661904Y-109311961D02*
X155709523Y-109121485D01*
X155709523Y-109121485D02*
X155709523Y-108788152D01*
X155709523Y-108788152D02*
X155661904Y-108597676D01*
X155661904Y-108597676D02*
X155566666Y-108502438D01*
X155566666Y-108502438D02*
X155471428Y-108454819D01*
X155471428Y-108454819D02*
X155280952Y-108454819D01*
X155280952Y-108454819D02*
X155185714Y-108502438D01*
X155185714Y-108502438D02*
X155090476Y-108597676D01*
X155090476Y-108597676D02*
X155042857Y-108788152D01*
X155042857Y-108788152D02*
X155042857Y-109121485D01*
X155042857Y-109121485D02*
X155090476Y-109311961D01*
X155090476Y-109311961D02*
X155185714Y-109407200D01*
X155185714Y-109407200D02*
X155280952Y-109454819D01*
X155280952Y-109454819D02*
X155471428Y-109454819D01*
X154709523Y-108454819D02*
X154042857Y-108454819D01*
X154042857Y-108454819D02*
X154471428Y-109454819D01*
X215455238Y-127600057D02*
X215550476Y-127552438D01*
X215550476Y-127552438D02*
X215645714Y-127457200D01*
X215645714Y-127457200D02*
X215788571Y-127314342D01*
X215788571Y-127314342D02*
X215883809Y-127266723D01*
X215883809Y-127266723D02*
X215979047Y-127266723D01*
X215931428Y-127504819D02*
X216026666Y-127457200D01*
X216026666Y-127457200D02*
X216121904Y-127361961D01*
X216121904Y-127361961D02*
X216169523Y-127171485D01*
X216169523Y-127171485D02*
X216169523Y-126838152D01*
X216169523Y-126838152D02*
X216121904Y-126647676D01*
X216121904Y-126647676D02*
X216026666Y-126552438D01*
X216026666Y-126552438D02*
X215931428Y-126504819D01*
X215931428Y-126504819D02*
X215740952Y-126504819D01*
X215740952Y-126504819D02*
X215645714Y-126552438D01*
X215645714Y-126552438D02*
X215550476Y-126647676D01*
X215550476Y-126647676D02*
X215502857Y-126838152D01*
X215502857Y-126838152D02*
X215502857Y-127171485D01*
X215502857Y-127171485D02*
X215550476Y-127361961D01*
X215550476Y-127361961D02*
X215645714Y-127457200D01*
X215645714Y-127457200D02*
X215740952Y-127504819D01*
X215740952Y-127504819D02*
X215931428Y-127504819D01*
X215169523Y-126504819D02*
X214550476Y-126504819D01*
X214550476Y-126504819D02*
X214883809Y-126885771D01*
X214883809Y-126885771D02*
X214740952Y-126885771D01*
X214740952Y-126885771D02*
X214645714Y-126933390D01*
X214645714Y-126933390D02*
X214598095Y-126981009D01*
X214598095Y-126981009D02*
X214550476Y-127076247D01*
X214550476Y-127076247D02*
X214550476Y-127314342D01*
X214550476Y-127314342D02*
X214598095Y-127409580D01*
X214598095Y-127409580D02*
X214645714Y-127457200D01*
X214645714Y-127457200D02*
X214740952Y-127504819D01*
X214740952Y-127504819D02*
X215026666Y-127504819D01*
X215026666Y-127504819D02*
X215121904Y-127457200D01*
X215121904Y-127457200D02*
X215169523Y-127409580D01*
D10*
%TO.C,J6*%
X130540000Y-113100000D02*
X130540000Y-119000000D01*
X130540000Y-119000000D02*
X140540000Y-119000000D01*
X140540000Y-113100000D02*
X130540000Y-113100000D01*
X140540000Y-113100000D02*
X140540000Y-119000000D01*
D12*
%TO.C,Q8*%
X190660000Y-137280000D02*
X189860000Y-137280000D01*
X190660000Y-137280000D02*
X191460000Y-137280000D01*
X191460000Y-134120000D02*
X190000000Y-134120000D01*
X191460000Y-134120000D02*
X191460000Y-135050000D01*
X191460000Y-137280000D02*
X191460000Y-136350000D01*
X189600000Y-137640000D02*
X189120000Y-137640000D01*
X189360000Y-137310000D01*
X189600000Y-137640000D01*
G36*
X189600000Y-137640000D02*
G01*
X189120000Y-137640000D01*
X189360000Y-137310000D01*
X189600000Y-137640000D01*
G37*
%TO.C,R12*%
X114642224Y-115777500D02*
X114132776Y-115777500D01*
X114642224Y-116822500D02*
X114132776Y-116822500D01*
%TO.C,C2*%
X161120001Y-99000000D02*
G75*
G02*
X155879999Y-99000000I-2620001J0D01*
G01*
X155879999Y-99000000D02*
G75*
G02*
X161120001Y-99000000I2620001J0D01*
G01*
%TO.C,D4*%
X188950000Y-120790000D02*
X188950000Y-127800000D01*
X188950000Y-120790000D02*
X192250000Y-120790000D01*
X192250000Y-120790000D02*
X192250000Y-127800000D01*
%TO.C,U6*%
X86240000Y-107635000D02*
X86240000Y-126035000D01*
X86240000Y-107635000D02*
X92440000Y-107635000D01*
X86240000Y-126035000D02*
X92440000Y-126035000D01*
X111090000Y-107635000D02*
X112090000Y-107635000D01*
X112090000Y-107635000D02*
X112090000Y-109135000D01*
X112090000Y-126035000D02*
X111090000Y-126035000D01*
X112090000Y-126035000D02*
X112090000Y-124535000D01*
X93115000Y-107635000D02*
X92615000Y-107635000D01*
X93115000Y-107135000D01*
X93115000Y-107635000D01*
G36*
X93115000Y-107635000D02*
G01*
X92615000Y-107635000D01*
X93115000Y-107135000D01*
X93115000Y-107635000D01*
G37*
%TO.C,C6*%
X201620000Y-121699999D02*
G75*
G02*
X196380000Y-121699999I-2620000J0D01*
G01*
X196380000Y-121699999D02*
G75*
G02*
X201620000Y-121699999I2620000J0D01*
G01*
D10*
%TO.C,J5*%
X130560000Y-119400000D02*
X130560000Y-125300000D01*
X130560000Y-125300000D02*
X140560000Y-125300000D01*
X140560000Y-119400000D02*
X130560000Y-119400000D01*
X140560000Y-119400000D02*
X140560000Y-125300000D01*
D12*
%TO.C,C20*%
X188790000Y-131908768D02*
X188790000Y-131616234D01*
X189810000Y-131908768D02*
X189810000Y-131616234D01*
%TO.C,C10*%
X203020000Y-108550000D02*
G75*
G02*
X197780000Y-108550000I-2620000J0D01*
G01*
X197780000Y-108550000D02*
G75*
G02*
X203020000Y-108550000I2620000J0D01*
G01*
%TO.C,R14*%
X146150420Y-97610654D02*
X146510654Y-97250420D01*
X146889346Y-98349580D02*
X147249580Y-97989346D01*
%TO.C,SW4*%
X102115500Y-55062499D02*
X102115500Y-57162501D01*
X102115500Y-59762500D02*
X102115500Y-60272500D01*
X102635500Y-59762500D02*
X102635500Y-60272500D01*
X102635500Y-60272500D02*
X102115500Y-60272500D01*
X102635501Y-56932500D02*
X102635500Y-57162500D01*
X103175500Y-56932500D02*
X102635501Y-56932500D01*
X107675500Y-56932500D02*
X104275500Y-56932500D01*
X109315500Y-56932500D02*
X108775500Y-56932500D01*
X109315500Y-56932500D02*
X109315500Y-57162501D01*
X109315500Y-59762500D02*
X109315500Y-60272500D01*
X109835500Y-55062500D02*
X109835500Y-57162500D01*
X109835500Y-59762500D02*
X109835500Y-60272500D01*
X109835500Y-60272500D02*
X109315500Y-60272500D01*
%TO.C,R13*%
X114642224Y-114287500D02*
X114132776Y-114287500D01*
X114642224Y-115332500D02*
X114132776Y-115332500D01*
%TO.C,C16*%
X219820000Y-118300000D02*
G75*
G02*
X214580000Y-118300000I-2620000J0D01*
G01*
X214580000Y-118300000D02*
G75*
G02*
X219820000Y-118300000I2620000J0D01*
G01*
D10*
%TO.C,J2*%
X211879999Y-103550000D02*
X219879999Y-103550000D01*
X211879999Y-109400000D02*
X211879999Y-104250000D01*
X219879999Y-109400000D02*
X211879999Y-109400000D01*
X219879999Y-109400000D02*
X219879999Y-103550000D01*
D12*
%TO.C,SW8*%
X198115500Y-55062499D02*
X198115500Y-57162501D01*
X198115500Y-59762500D02*
X198115500Y-60272500D01*
X198635500Y-59762500D02*
X198635500Y-60272500D01*
X198635500Y-60272500D02*
X198115500Y-60272500D01*
X198635501Y-56932500D02*
X198635500Y-57162500D01*
X199175500Y-56932500D02*
X198635501Y-56932500D01*
X203675500Y-56932500D02*
X200275500Y-56932500D01*
X205315500Y-56932500D02*
X204775500Y-56932500D01*
X205315500Y-56932500D02*
X205315500Y-57162501D01*
X205315500Y-59762500D02*
X205315500Y-60272500D01*
X205835500Y-55062500D02*
X205835500Y-57162500D01*
X205835500Y-59762500D02*
X205835500Y-60272500D01*
X205835500Y-60272500D02*
X205315500Y-60272500D01*
D10*
%TO.C,J4*%
X181100000Y-108840000D02*
X181100000Y-118840000D01*
X181100000Y-108840000D02*
X187000000Y-108840000D01*
X181100000Y-118840000D02*
X187000000Y-118840000D01*
X187000000Y-118840000D02*
X187000000Y-108840000D01*
D13*
%TO.C,M1*%
X192607500Y-130800000D02*
X193602500Y-130800000D01*
X192607500Y-132800000D02*
X193602500Y-132800000D01*
X193602500Y-130800000D02*
X194432500Y-130800000D01*
X193602500Y-132800000D02*
X193602500Y-130800000D01*
X193602500Y-132800000D02*
X194432500Y-132800000D01*
D14*
X191432500Y-133400000D02*
G75*
G02*
X191232500Y-133400000I-100000J0D01*
G01*
X191232500Y-133400000D02*
G75*
G02*
X191432500Y-133400000I100000J0D01*
G01*
D13*
X204302500Y-131800000D02*
G75*
G02*
X194302500Y-131800000I-5000000J0D01*
G01*
X194302500Y-131800000D02*
G75*
G02*
X204302500Y-131800000I5000000J0D01*
G01*
D12*
%TO.C,BZ1*%
X170400000Y-106200000D02*
G75*
G02*
X158200000Y-106200000I-6100000J0D01*
G01*
X158200000Y-106200000D02*
G75*
G02*
X170400000Y-106200000I6100000J0D01*
G01*
D10*
%TO.C,U4*%
X161500000Y-88960000D02*
X146500000Y-88960000D01*
X161500000Y-95500000D02*
X146500000Y-95500000D01*
X146500000Y-54500000D01*
X161500000Y-54500000D01*
X161500000Y-95500000D01*
%TO.C,J3*%
X181100000Y-119140000D02*
X181100000Y-129140000D01*
X181100000Y-119140000D02*
X187000000Y-119140000D01*
X181100000Y-129140000D02*
X187000000Y-129140000D01*
X187000000Y-129140000D02*
X187000000Y-119140000D01*
D12*
%TO.C,Q7*%
X154860000Y-107830000D02*
X154060000Y-107830000D01*
X154860000Y-107830000D02*
X155660000Y-107830000D01*
X155660000Y-104670000D02*
X154200000Y-104670000D01*
X155660000Y-104670000D02*
X155660000Y-105600000D01*
X155660000Y-107830000D02*
X155660000Y-106900000D01*
X153800000Y-108190000D02*
X153320000Y-108190000D01*
X153560000Y-107860000D01*
X153800000Y-108190000D01*
G36*
X153800000Y-108190000D02*
G01*
X153320000Y-108190000D01*
X153560000Y-107860000D01*
X153800000Y-108190000D01*
G37*
%TO.C,Q3*%
X210250000Y-121590000D02*
X220470000Y-121590000D01*
X210250000Y-124830000D02*
X220470000Y-124830000D01*
X210250000Y-126210000D02*
X210250000Y-121590000D01*
X210250000Y-126210000D02*
X220470000Y-126210000D01*
X213510000Y-126210000D02*
X213510000Y-124830000D01*
X217210000Y-126210000D02*
X217210000Y-124830000D01*
X220470000Y-126210000D02*
X220470000Y-121590000D01*
%TD*%
M02*
