%TF.GenerationSoftware,KiCad,Pcbnew,9.0.2*%
%TF.CreationDate,2025-08-14T19:07:51+07:00*%
%TF.ProjectId,Gamepad PCB,47616d65-7061-4642-9050-43422e6b6963,v03*%
%TF.SameCoordinates,Original*%
%TF.FileFunction,Soldermask,Bot*%
%TF.FilePolarity,Negative*%
%FSLAX46Y46*%
G04 Gerber Fmt 4.6, Leading zero omitted, Abs format (unit mm)*
G04 Created by KiCad (PCBNEW 9.0.2) date 2025-08-14 19:07:51*
%MOMM*%
%LPD*%
G01*
G04 APERTURE LIST*
G04 Aperture macros list*
%AMRoundRect*
0 Rectangle with rounded corners*
0 $1 Rounding radius*
0 $2 $3 $4 $5 $6 $7 $8 $9 X,Y pos of 4 corners*
0 Add a 4 corners polygon primitive as box body*
4,1,4,$2,$3,$4,$5,$6,$7,$8,$9,$2,$3,0*
0 Add four circle primitives for the rounded corners*
1,1,$1+$1,$2,$3*
1,1,$1+$1,$4,$5*
1,1,$1+$1,$6,$7*
1,1,$1+$1,$8,$9*
0 Add four rect primitives between the rounded corners*
20,1,$1+$1,$2,$3,$4,$5,0*
20,1,$1+$1,$4,$5,$6,$7,0*
20,1,$1+$1,$6,$7,$8,$9,0*
20,1,$1+$1,$8,$9,$2,$3,0*%
G04 Aperture macros list end*
%ADD10C,3.600000*%
%ADD11C,5.600000*%
%ADD12O,2.600000X1.700000*%
%ADD13C,2.100000*%
%ADD14C,1.750000*%
%ADD15C,1.800000*%
%ADD16O,3.300000X2.000000*%
%ADD17R,2.000000X2.000000*%
%ADD18C,2.000000*%
%ADD19O,1.000000X2.100000*%
%ADD20O,1.000000X1.800000*%
%ADD21RoundRect,0.225000X0.225000X0.375000X-0.225000X0.375000X-0.225000X-0.375000X0.225000X-0.375000X0*%
%ADD22RoundRect,0.200000X-0.750000X-0.200000X0.750000X-0.200000X0.750000X0.200000X-0.750000X0.200000X0*%
%ADD23RoundRect,0.237500X0.250000X0.237500X-0.250000X0.237500X-0.250000X-0.237500X0.250000X-0.237500X0*%
%ADD24C,1.600000*%
%ADD25RoundRect,0.250000X-0.650000X1.500000X-0.650000X-1.500000X0.650000X-1.500000X0.650000X1.500000X0*%
%ADD26R,0.900000X1.500000*%
%ADD27R,1.500000X0.900000*%
%ADD28C,0.600000*%
%ADD29R,3.900000X3.900000*%
%ADD30RoundRect,0.237500X0.237500X-0.300000X0.237500X0.300000X-0.237500X0.300000X-0.237500X-0.300000X0*%
%ADD31RoundRect,0.237500X-0.008839X-0.344715X0.344715X0.008839X0.008839X0.344715X-0.344715X-0.008839X0*%
%ADD32RoundRect,0.241000X0.831000X-0.241000X0.831000X0.241000X-0.831000X0.241000X-0.831000X-0.241000X0*%
%ADD33R,1.905000X2.000000*%
%ADD34O,1.905000X2.000000*%
G04 APERTURE END LIST*
D10*
%TO.C,H8*%
X168000000Y-90000000D03*
D11*
X168000000Y-90000000D03*
%TD*%
D10*
%TO.C,H5*%
X97610000Y-57610000D03*
D11*
X97610000Y-57610000D03*
%TD*%
D12*
%TO.C,SW19*%
X164940000Y-116300000D03*
X164940000Y-121000000D03*
X164940000Y-125700000D03*
%TD*%
D10*
%TO.C,H1*%
X132400000Y-51000000D03*
D11*
X132400000Y-51000000D03*
%TD*%
D13*
%TO.C,SW3*%
X146800000Y-133147501D03*
X139790000Y-133147500D03*
D14*
X145550000Y-135637500D03*
X141049999Y-135637500D03*
%TD*%
D10*
%TO.C,H2*%
X175600000Y-51000000D03*
D11*
X175600000Y-51000000D03*
%TD*%
D15*
%TO.C,J7*%
X145000000Y-63750000D03*
X147540000Y-63750000D03*
X150079999Y-63750000D03*
X152620000Y-63750000D03*
X155160000Y-63750000D03*
X157700000Y-63750000D03*
X160240000Y-63750000D03*
X162780001Y-63750000D03*
%TD*%
D10*
%TO.C,H7*%
X140000000Y-90000000D03*
D11*
X140000000Y-90000000D03*
%TD*%
D16*
%TO.C,SW16*%
X185310000Y-56110000D03*
X185310000Y-51410000D03*
X185310000Y-46710000D03*
%TD*%
D12*
%TO.C,SW7*%
X143060000Y-116300000D03*
X143060000Y-121000000D03*
X143060000Y-125700000D03*
%TD*%
D17*
%TO.C,BZ1*%
X166600000Y-99800000D03*
D18*
X166600000Y-107400001D03*
%TD*%
D12*
%TO.C,SW15*%
X157650000Y-116300000D03*
X157650000Y-121000000D03*
X157650000Y-125700000D03*
%TD*%
D16*
%TO.C,SW12*%
X122690000Y-56110000D03*
X122690000Y-51410000D03*
X122690000Y-46710000D03*
%TD*%
D10*
%TO.C,H4*%
X211500000Y-135000000D03*
D11*
X211500000Y-135000000D03*
%TD*%
D10*
%TO.C,H6*%
X210390000Y-57610000D03*
D11*
X210390000Y-57610000D03*
%TD*%
D10*
%TO.C,H3*%
X96500000Y-135000000D03*
D11*
X96500000Y-135000000D03*
%TD*%
D19*
%TO.C,J1*%
X149680000Y-131895000D03*
D20*
X149680000Y-136075000D03*
D19*
X158320000Y-131895000D03*
D20*
X158320000Y-136075000D03*
%TD*%
D13*
%TO.C,SW2*%
X168250000Y-133147500D03*
X161240000Y-133147500D03*
D14*
X167000000Y-135637500D03*
X162500000Y-135637500D03*
%TD*%
D12*
%TO.C,SW11*%
X150350000Y-116300000D03*
X150350000Y-121000000D03*
X150350000Y-125700000D03*
%TD*%
D21*
%TO.C,D13*%
X191350000Y-113000000D03*
X188050000Y-113000000D03*
%TD*%
D15*
%TO.C,J6*%
X138080000Y-116400000D03*
X135540000Y-116400000D03*
X133000000Y-116400000D03*
%TD*%
D22*
%TO.C,Q8*%
X189200000Y-136650000D03*
X189200000Y-134750000D03*
X192200000Y-135700000D03*
%TD*%
D23*
%TO.C,R12*%
X115300000Y-116300000D03*
X113475000Y-116300000D03*
%TD*%
D24*
%TO.C,C2*%
X159700000Y-99000000D03*
X157699999Y-99000000D03*
%TD*%
D25*
%TO.C,D4*%
X190600000Y-122800000D03*
X190600000Y-127800000D03*
%TD*%
D26*
%TO.C,U6*%
X93880000Y-108085000D03*
X95150000Y-108085000D03*
X96420000Y-108085000D03*
X97690000Y-108085000D03*
X98960000Y-108085000D03*
X100230000Y-108085000D03*
X101500000Y-108085000D03*
X102770000Y-108085000D03*
X104040000Y-108085000D03*
X105310000Y-108085000D03*
X106580000Y-108085000D03*
X107850000Y-108085000D03*
X109120000Y-108085000D03*
X110390000Y-108085000D03*
D27*
X111640000Y-109850000D03*
X111640000Y-111120000D03*
X111640000Y-112390000D03*
X111640000Y-113660000D03*
X111640000Y-114930000D03*
X111640000Y-116200000D03*
X111640000Y-117470000D03*
X111640000Y-118740000D03*
X111640000Y-120010000D03*
X111640000Y-121280000D03*
X111640000Y-122550000D03*
X111640000Y-123820000D03*
D26*
X110390000Y-125585000D03*
X109120000Y-125585000D03*
X107850000Y-125585000D03*
X106580000Y-125585000D03*
X105310000Y-125585000D03*
X104040000Y-125585000D03*
X102770000Y-125585000D03*
X101500000Y-125585000D03*
X100230000Y-125585000D03*
X98960000Y-125585000D03*
X97690000Y-125585000D03*
X96420000Y-125585000D03*
X95150000Y-125585000D03*
X93880000Y-125585000D03*
D28*
X102300000Y-113935000D03*
X100900000Y-113935000D03*
X103000000Y-114635000D03*
X101600000Y-114635000D03*
X100200000Y-114635000D03*
X102300000Y-115335000D03*
D29*
X101600000Y-115335000D03*
D28*
X100900000Y-115335000D03*
X103000000Y-116035000D03*
X101600000Y-116035000D03*
X100200000Y-116035000D03*
X102300000Y-116735000D03*
X100900000Y-116735000D03*
%TD*%
D24*
%TO.C,C6*%
X199000000Y-120699999D03*
X199000000Y-122699999D03*
%TD*%
D15*
%TO.C,J5*%
X138100000Y-122700000D03*
X135560000Y-122700000D03*
X133020000Y-122700000D03*
%TD*%
D30*
%TO.C,C20*%
X189300000Y-132625002D03*
X189300000Y-130900000D03*
%TD*%
D24*
%TO.C,C10*%
X199400000Y-108550000D03*
X201400000Y-108550000D03*
%TD*%
D21*
%TO.C,D11*%
X162800000Y-116300000D03*
X159500000Y-116300000D03*
%TD*%
D31*
%TO.C,R14*%
X146054765Y-98445235D03*
X147345235Y-97154765D03*
%TD*%
D13*
%TO.C,SW4*%
X109475500Y-58452499D03*
X102465500Y-58452500D03*
D14*
X108225500Y-55962500D03*
X103725499Y-55962500D03*
%TD*%
D21*
%TO.C,D7*%
X170400000Y-116300000D03*
X167100000Y-116300000D03*
%TD*%
D23*
%TO.C,R13*%
X115300000Y-114810000D03*
X113475000Y-114810000D03*
%TD*%
D24*
%TO.C,C16*%
X216200000Y-118300000D03*
X218200000Y-118300000D03*
%TD*%
D15*
%TO.C,J2*%
X214609999Y-106100000D03*
X217149999Y-106100000D03*
%TD*%
D13*
%TO.C,SW8*%
X205475500Y-58452499D03*
X198465500Y-58452500D03*
D14*
X204225500Y-55962500D03*
X199725499Y-55962500D03*
%TD*%
D15*
%TO.C,J4*%
X184400000Y-111300000D03*
X184400000Y-113840000D03*
X184400000Y-116380000D03*
%TD*%
D32*
%TO.C,M1*%
X191312500Y-132400000D03*
X191312500Y-131200000D03*
%TD*%
D21*
%TO.C,D15*%
X155500000Y-116300000D03*
X152200000Y-116300000D03*
%TD*%
D15*
%TO.C,U4*%
X157620000Y-93500000D03*
X157620000Y-90960000D03*
X155080000Y-93500000D03*
X155080000Y-90960000D03*
X152540000Y-93500000D03*
X152540000Y-90960000D03*
X150000000Y-93500000D03*
X150000000Y-90960000D03*
%TD*%
D21*
%TO.C,D9*%
X191300000Y-105300000D03*
X188000000Y-105300000D03*
%TD*%
D15*
%TO.C,J3*%
X184400000Y-121600000D03*
X184400000Y-124140000D03*
X184400000Y-126680000D03*
%TD*%
D22*
%TO.C,Q7*%
X153400000Y-107200000D03*
X153400000Y-105300000D03*
X156400000Y-106250000D03*
%TD*%
D21*
%TO.C,D19*%
X148250000Y-116300000D03*
X144950000Y-116300000D03*
%TD*%
D33*
%TO.C,Q3*%
X212820000Y-122950000D03*
D34*
X215360000Y-122950000D03*
X217900000Y-122950000D03*
%TD*%
M02*
