%TF.GenerationSoftware,KiCad,Pcbnew,9.0.2*%
%TF.CreationDate,2025-08-14T03:12:12+07:00*%
%TF.ProjectId,Gamepad PCB,47616d65-7061-4642-9050-43422e6b6963,v03*%
%TF.SameCoordinates,Original*%
%TF.FileFunction,Legend,Top*%
%TF.FilePolarity,Positive*%
%FSLAX46Y46*%
G04 Gerber Fmt 4.6, Leading zero omitted, Abs format (unit mm)*
G04 Created by KiCad (PCBNEW 9.0.2) date 2025-08-14 03:12:12*
%MOMM*%
%LPD*%
G01*
G04 APERTURE LIST*
%ADD10C,0.150000*%
%ADD11C,0.100000*%
%ADD12C,0.120000*%
%ADD13C,0.200000*%
%ADD14C,0.127000*%
G04 APERTURE END LIST*
D10*
X212108333Y-107854819D02*
X211775000Y-107378628D01*
X211536905Y-107854819D02*
X211536905Y-106854819D01*
X211536905Y-106854819D02*
X211917857Y-106854819D01*
X211917857Y-106854819D02*
X212013095Y-106902438D01*
X212013095Y-106902438D02*
X212060714Y-106950057D01*
X212060714Y-106950057D02*
X212108333Y-107045295D01*
X212108333Y-107045295D02*
X212108333Y-107188152D01*
X212108333Y-107188152D02*
X212060714Y-107283390D01*
X212060714Y-107283390D02*
X212013095Y-107331009D01*
X212013095Y-107331009D02*
X211917857Y-107378628D01*
X211917857Y-107378628D02*
X211536905Y-107378628D01*
X212584524Y-107854819D02*
X212775000Y-107854819D01*
X212775000Y-107854819D02*
X212870238Y-107807200D01*
X212870238Y-107807200D02*
X212917857Y-107759580D01*
X212917857Y-107759580D02*
X213013095Y-107616723D01*
X213013095Y-107616723D02*
X213060714Y-107426247D01*
X213060714Y-107426247D02*
X213060714Y-107045295D01*
X213060714Y-107045295D02*
X213013095Y-106950057D01*
X213013095Y-106950057D02*
X212965476Y-106902438D01*
X212965476Y-106902438D02*
X212870238Y-106854819D01*
X212870238Y-106854819D02*
X212679762Y-106854819D01*
X212679762Y-106854819D02*
X212584524Y-106902438D01*
X212584524Y-106902438D02*
X212536905Y-106950057D01*
X212536905Y-106950057D02*
X212489286Y-107045295D01*
X212489286Y-107045295D02*
X212489286Y-107283390D01*
X212489286Y-107283390D02*
X212536905Y-107378628D01*
X212536905Y-107378628D02*
X212584524Y-107426247D01*
X212584524Y-107426247D02*
X212679762Y-107473866D01*
X212679762Y-107473866D02*
X212870238Y-107473866D01*
X212870238Y-107473866D02*
X212965476Y-107426247D01*
X212965476Y-107426247D02*
X213013095Y-107378628D01*
X213013095Y-107378628D02*
X213060714Y-107283390D01*
X200924405Y-105654819D02*
X200924405Y-104654819D01*
X200924405Y-104654819D02*
X201162500Y-104654819D01*
X201162500Y-104654819D02*
X201305357Y-104702438D01*
X201305357Y-104702438D02*
X201400595Y-104797676D01*
X201400595Y-104797676D02*
X201448214Y-104892914D01*
X201448214Y-104892914D02*
X201495833Y-105083390D01*
X201495833Y-105083390D02*
X201495833Y-105226247D01*
X201495833Y-105226247D02*
X201448214Y-105416723D01*
X201448214Y-105416723D02*
X201400595Y-105511961D01*
X201400595Y-105511961D02*
X201305357Y-105607200D01*
X201305357Y-105607200D02*
X201162500Y-105654819D01*
X201162500Y-105654819D02*
X200924405Y-105654819D01*
X201829167Y-104654819D02*
X202448214Y-104654819D01*
X202448214Y-104654819D02*
X202114881Y-105035771D01*
X202114881Y-105035771D02*
X202257738Y-105035771D01*
X202257738Y-105035771D02*
X202352976Y-105083390D01*
X202352976Y-105083390D02*
X202400595Y-105131009D01*
X202400595Y-105131009D02*
X202448214Y-105226247D01*
X202448214Y-105226247D02*
X202448214Y-105464342D01*
X202448214Y-105464342D02*
X202400595Y-105559580D01*
X202400595Y-105559580D02*
X202352976Y-105607200D01*
X202352976Y-105607200D02*
X202257738Y-105654819D01*
X202257738Y-105654819D02*
X201972024Y-105654819D01*
X201972024Y-105654819D02*
X201876786Y-105607200D01*
X201876786Y-105607200D02*
X201829167Y-105559580D01*
X209211098Y-104026971D02*
X208877765Y-103550780D01*
X208639670Y-104026971D02*
X208639670Y-103026971D01*
X208639670Y-103026971D02*
X209020622Y-103026971D01*
X209020622Y-103026971D02*
X209115860Y-103074590D01*
X209115860Y-103074590D02*
X209163479Y-103122209D01*
X209163479Y-103122209D02*
X209211098Y-103217447D01*
X209211098Y-103217447D02*
X209211098Y-103360304D01*
X209211098Y-103360304D02*
X209163479Y-103455542D01*
X209163479Y-103455542D02*
X209115860Y-103503161D01*
X209115860Y-103503161D02*
X209020622Y-103550780D01*
X209020622Y-103550780D02*
X208639670Y-103550780D01*
X209782527Y-103455542D02*
X209687289Y-103407923D01*
X209687289Y-103407923D02*
X209639670Y-103360304D01*
X209639670Y-103360304D02*
X209592051Y-103265066D01*
X209592051Y-103265066D02*
X209592051Y-103217447D01*
X209592051Y-103217447D02*
X209639670Y-103122209D01*
X209639670Y-103122209D02*
X209687289Y-103074590D01*
X209687289Y-103074590D02*
X209782527Y-103026971D01*
X209782527Y-103026971D02*
X209973003Y-103026971D01*
X209973003Y-103026971D02*
X210068241Y-103074590D01*
X210068241Y-103074590D02*
X210115860Y-103122209D01*
X210115860Y-103122209D02*
X210163479Y-103217447D01*
X210163479Y-103217447D02*
X210163479Y-103265066D01*
X210163479Y-103265066D02*
X210115860Y-103360304D01*
X210115860Y-103360304D02*
X210068241Y-103407923D01*
X210068241Y-103407923D02*
X209973003Y-103455542D01*
X209973003Y-103455542D02*
X209782527Y-103455542D01*
X209782527Y-103455542D02*
X209687289Y-103503161D01*
X209687289Y-103503161D02*
X209639670Y-103550780D01*
X209639670Y-103550780D02*
X209592051Y-103646018D01*
X209592051Y-103646018D02*
X209592051Y-103836494D01*
X209592051Y-103836494D02*
X209639670Y-103931732D01*
X209639670Y-103931732D02*
X209687289Y-103979352D01*
X209687289Y-103979352D02*
X209782527Y-104026971D01*
X209782527Y-104026971D02*
X209973003Y-104026971D01*
X209973003Y-104026971D02*
X210068241Y-103979352D01*
X210068241Y-103979352D02*
X210115860Y-103931732D01*
X210115860Y-103931732D02*
X210163479Y-103836494D01*
X210163479Y-103836494D02*
X210163479Y-103646018D01*
X210163479Y-103646018D02*
X210115860Y-103550780D01*
X210115860Y-103550780D02*
X210068241Y-103503161D01*
X210068241Y-103503161D02*
X209973003Y-103455542D01*
X120515476Y-117022200D02*
X120658333Y-117069819D01*
X120658333Y-117069819D02*
X120896428Y-117069819D01*
X120896428Y-117069819D02*
X120991666Y-117022200D01*
X120991666Y-117022200D02*
X121039285Y-116974580D01*
X121039285Y-116974580D02*
X121086904Y-116879342D01*
X121086904Y-116879342D02*
X121086904Y-116784104D01*
X121086904Y-116784104D02*
X121039285Y-116688866D01*
X121039285Y-116688866D02*
X120991666Y-116641247D01*
X120991666Y-116641247D02*
X120896428Y-116593628D01*
X120896428Y-116593628D02*
X120705952Y-116546009D01*
X120705952Y-116546009D02*
X120610714Y-116498390D01*
X120610714Y-116498390D02*
X120563095Y-116450771D01*
X120563095Y-116450771D02*
X120515476Y-116355533D01*
X120515476Y-116355533D02*
X120515476Y-116260295D01*
X120515476Y-116260295D02*
X120563095Y-116165057D01*
X120563095Y-116165057D02*
X120610714Y-116117438D01*
X120610714Y-116117438D02*
X120705952Y-116069819D01*
X120705952Y-116069819D02*
X120944047Y-116069819D01*
X120944047Y-116069819D02*
X121086904Y-116117438D01*
X121420238Y-116069819D02*
X121658333Y-117069819D01*
X121658333Y-117069819D02*
X121848809Y-116355533D01*
X121848809Y-116355533D02*
X122039285Y-117069819D01*
X122039285Y-117069819D02*
X122277381Y-116069819D01*
X123182142Y-117069819D02*
X122610714Y-117069819D01*
X122896428Y-117069819D02*
X122896428Y-116069819D01*
X122896428Y-116069819D02*
X122801190Y-116212676D01*
X122801190Y-116212676D02*
X122705952Y-116307914D01*
X122705952Y-116307914D02*
X122610714Y-116355533D01*
X123801190Y-116069819D02*
X123896428Y-116069819D01*
X123896428Y-116069819D02*
X123991666Y-116117438D01*
X123991666Y-116117438D02*
X124039285Y-116165057D01*
X124039285Y-116165057D02*
X124086904Y-116260295D01*
X124086904Y-116260295D02*
X124134523Y-116450771D01*
X124134523Y-116450771D02*
X124134523Y-116688866D01*
X124134523Y-116688866D02*
X124086904Y-116879342D01*
X124086904Y-116879342D02*
X124039285Y-116974580D01*
X124039285Y-116974580D02*
X123991666Y-117022200D01*
X123991666Y-117022200D02*
X123896428Y-117069819D01*
X123896428Y-117069819D02*
X123801190Y-117069819D01*
X123801190Y-117069819D02*
X123705952Y-117022200D01*
X123705952Y-117022200D02*
X123658333Y-116974580D01*
X123658333Y-116974580D02*
X123610714Y-116879342D01*
X123610714Y-116879342D02*
X123563095Y-116688866D01*
X123563095Y-116688866D02*
X123563095Y-116450771D01*
X123563095Y-116450771D02*
X123610714Y-116260295D01*
X123610714Y-116260295D02*
X123658333Y-116165057D01*
X123658333Y-116165057D02*
X123705952Y-116117438D01*
X123705952Y-116117438D02*
X123801190Y-116069819D01*
X220033333Y-126254819D02*
X219700000Y-125778628D01*
X219461905Y-126254819D02*
X219461905Y-125254819D01*
X219461905Y-125254819D02*
X219842857Y-125254819D01*
X219842857Y-125254819D02*
X219938095Y-125302438D01*
X219938095Y-125302438D02*
X219985714Y-125350057D01*
X219985714Y-125350057D02*
X220033333Y-125445295D01*
X220033333Y-125445295D02*
X220033333Y-125588152D01*
X220033333Y-125588152D02*
X219985714Y-125683390D01*
X219985714Y-125683390D02*
X219938095Y-125731009D01*
X219938095Y-125731009D02*
X219842857Y-125778628D01*
X219842857Y-125778628D02*
X219461905Y-125778628D01*
X220366667Y-125254819D02*
X220985714Y-125254819D01*
X220985714Y-125254819D02*
X220652381Y-125635771D01*
X220652381Y-125635771D02*
X220795238Y-125635771D01*
X220795238Y-125635771D02*
X220890476Y-125683390D01*
X220890476Y-125683390D02*
X220938095Y-125731009D01*
X220938095Y-125731009D02*
X220985714Y-125826247D01*
X220985714Y-125826247D02*
X220985714Y-126064342D01*
X220985714Y-126064342D02*
X220938095Y-126159580D01*
X220938095Y-126159580D02*
X220890476Y-126207200D01*
X220890476Y-126207200D02*
X220795238Y-126254819D01*
X220795238Y-126254819D02*
X220509524Y-126254819D01*
X220509524Y-126254819D02*
X220414286Y-126207200D01*
X220414286Y-126207200D02*
X220366667Y-126159580D01*
X180538095Y-136279820D02*
X180538095Y-137089343D01*
X180538095Y-137089343D02*
X180585714Y-137184581D01*
X180585714Y-137184581D02*
X180633333Y-137232201D01*
X180633333Y-137232201D02*
X180728571Y-137279820D01*
X180728571Y-137279820D02*
X180919047Y-137279820D01*
X180919047Y-137279820D02*
X181014285Y-137232201D01*
X181014285Y-137232201D02*
X181061904Y-137184581D01*
X181061904Y-137184581D02*
X181109523Y-137089343D01*
X181109523Y-137089343D02*
X181109523Y-136279820D01*
X181538095Y-136375058D02*
X181585714Y-136327439D01*
X181585714Y-136327439D02*
X181680952Y-136279820D01*
X181680952Y-136279820D02*
X181919047Y-136279820D01*
X181919047Y-136279820D02*
X182014285Y-136327439D01*
X182014285Y-136327439D02*
X182061904Y-136375058D01*
X182061904Y-136375058D02*
X182109523Y-136470296D01*
X182109523Y-136470296D02*
X182109523Y-136565534D01*
X182109523Y-136565534D02*
X182061904Y-136708391D01*
X182061904Y-136708391D02*
X181490476Y-137279820D01*
X181490476Y-137279820D02*
X182109523Y-137279820D01*
X173731009Y-103980952D02*
X173778628Y-103838095D01*
X173778628Y-103838095D02*
X173826247Y-103790476D01*
X173826247Y-103790476D02*
X173921485Y-103742857D01*
X173921485Y-103742857D02*
X174064342Y-103742857D01*
X174064342Y-103742857D02*
X174159580Y-103790476D01*
X174159580Y-103790476D02*
X174207200Y-103838095D01*
X174207200Y-103838095D02*
X174254819Y-103933333D01*
X174254819Y-103933333D02*
X174254819Y-104314285D01*
X174254819Y-104314285D02*
X173254819Y-104314285D01*
X173254819Y-104314285D02*
X173254819Y-103980952D01*
X173254819Y-103980952D02*
X173302438Y-103885714D01*
X173302438Y-103885714D02*
X173350057Y-103838095D01*
X173350057Y-103838095D02*
X173445295Y-103790476D01*
X173445295Y-103790476D02*
X173540533Y-103790476D01*
X173540533Y-103790476D02*
X173635771Y-103838095D01*
X173635771Y-103838095D02*
X173683390Y-103885714D01*
X173683390Y-103885714D02*
X173731009Y-103980952D01*
X173731009Y-103980952D02*
X173731009Y-104314285D01*
X173254819Y-103409523D02*
X173254819Y-102742857D01*
X173254819Y-102742857D02*
X174254819Y-103409523D01*
X174254819Y-103409523D02*
X174254819Y-102742857D01*
X174254819Y-101838095D02*
X174254819Y-102409523D01*
X174254819Y-102123809D02*
X173254819Y-102123809D01*
X173254819Y-102123809D02*
X173397676Y-102219047D01*
X173397676Y-102219047D02*
X173492914Y-102314285D01*
X173492914Y-102314285D02*
X173540533Y-102409523D01*
X169213866Y-100170951D02*
X169213866Y-99409047D01*
X169594819Y-99789999D02*
X168832914Y-99789999D01*
X140981905Y-109474819D02*
X140981905Y-110284342D01*
X140981905Y-110284342D02*
X141029524Y-110379580D01*
X141029524Y-110379580D02*
X141077143Y-110427200D01*
X141077143Y-110427200D02*
X141172381Y-110474819D01*
X141172381Y-110474819D02*
X141362857Y-110474819D01*
X141362857Y-110474819D02*
X141458095Y-110427200D01*
X141458095Y-110427200D02*
X141505714Y-110379580D01*
X141505714Y-110379580D02*
X141553333Y-110284342D01*
X141553333Y-110284342D02*
X141553333Y-109474819D01*
X142553333Y-110474819D02*
X141981905Y-110474819D01*
X142267619Y-110474819D02*
X142267619Y-109474819D01*
X142267619Y-109474819D02*
X142172381Y-109617676D01*
X142172381Y-109617676D02*
X142077143Y-109712914D01*
X142077143Y-109712914D02*
X141981905Y-109760533D01*
X143505714Y-110474819D02*
X142934286Y-110474819D01*
X143220000Y-110474819D02*
X143220000Y-109474819D01*
X143220000Y-109474819D02*
X143124762Y-109617676D01*
X143124762Y-109617676D02*
X143029524Y-109712914D01*
X143029524Y-109712914D02*
X142934286Y-109760533D01*
X126761905Y-134524819D02*
X126761905Y-135334342D01*
X126761905Y-135334342D02*
X126809524Y-135429580D01*
X126809524Y-135429580D02*
X126857143Y-135477200D01*
X126857143Y-135477200D02*
X126952381Y-135524819D01*
X126952381Y-135524819D02*
X127142857Y-135524819D01*
X127142857Y-135524819D02*
X127238095Y-135477200D01*
X127238095Y-135477200D02*
X127285714Y-135429580D01*
X127285714Y-135429580D02*
X127333333Y-135334342D01*
X127333333Y-135334342D02*
X127333333Y-134524819D01*
X128333333Y-135524819D02*
X127761905Y-135524819D01*
X128047619Y-135524819D02*
X128047619Y-134524819D01*
X128047619Y-134524819D02*
X127952381Y-134667676D01*
X127952381Y-134667676D02*
X127857143Y-134762914D01*
X127857143Y-134762914D02*
X127761905Y-134810533D01*
X128952381Y-134524819D02*
X129047619Y-134524819D01*
X129047619Y-134524819D02*
X129142857Y-134572438D01*
X129142857Y-134572438D02*
X129190476Y-134620057D01*
X129190476Y-134620057D02*
X129238095Y-134715295D01*
X129238095Y-134715295D02*
X129285714Y-134905771D01*
X129285714Y-134905771D02*
X129285714Y-135143866D01*
X129285714Y-135143866D02*
X129238095Y-135334342D01*
X129238095Y-135334342D02*
X129190476Y-135429580D01*
X129190476Y-135429580D02*
X129142857Y-135477200D01*
X129142857Y-135477200D02*
X129047619Y-135524819D01*
X129047619Y-135524819D02*
X128952381Y-135524819D01*
X128952381Y-135524819D02*
X128857143Y-135477200D01*
X128857143Y-135477200D02*
X128809524Y-135429580D01*
X128809524Y-135429580D02*
X128761905Y-135334342D01*
X128761905Y-135334342D02*
X128714286Y-135143866D01*
X128714286Y-135143866D02*
X128714286Y-134905771D01*
X128714286Y-134905771D02*
X128761905Y-134715295D01*
X128761905Y-134715295D02*
X128809524Y-134620057D01*
X128809524Y-134620057D02*
X128857143Y-134572438D01*
X128857143Y-134572438D02*
X128952381Y-134524819D01*
D11*
X162390200Y-119190476D02*
X162342580Y-119333333D01*
X162342580Y-119333333D02*
X162342580Y-119571428D01*
X162342580Y-119571428D02*
X162390200Y-119666666D01*
X162390200Y-119666666D02*
X162437819Y-119714285D01*
X162437819Y-119714285D02*
X162533057Y-119761904D01*
X162533057Y-119761904D02*
X162628295Y-119761904D01*
X162628295Y-119761904D02*
X162723533Y-119714285D01*
X162723533Y-119714285D02*
X162771152Y-119666666D01*
X162771152Y-119666666D02*
X162818771Y-119571428D01*
X162818771Y-119571428D02*
X162866390Y-119380952D01*
X162866390Y-119380952D02*
X162914009Y-119285714D01*
X162914009Y-119285714D02*
X162961628Y-119238095D01*
X162961628Y-119238095D02*
X163056866Y-119190476D01*
X163056866Y-119190476D02*
X163152104Y-119190476D01*
X163152104Y-119190476D02*
X163247342Y-119238095D01*
X163247342Y-119238095D02*
X163294961Y-119285714D01*
X163294961Y-119285714D02*
X163342580Y-119380952D01*
X163342580Y-119380952D02*
X163342580Y-119619047D01*
X163342580Y-119619047D02*
X163294961Y-119761904D01*
X163342580Y-120095238D02*
X162342580Y-120333333D01*
X162342580Y-120333333D02*
X163056866Y-120523809D01*
X163056866Y-120523809D02*
X162342580Y-120714285D01*
X162342580Y-120714285D02*
X163342580Y-120952381D01*
X162342580Y-121857142D02*
X162342580Y-121285714D01*
X162342580Y-121571428D02*
X163342580Y-121571428D01*
X163342580Y-121571428D02*
X163199723Y-121476190D01*
X163199723Y-121476190D02*
X163104485Y-121380952D01*
X163104485Y-121380952D02*
X163056866Y-121285714D01*
X162342580Y-122333333D02*
X162342580Y-122523809D01*
X162342580Y-122523809D02*
X162390200Y-122619047D01*
X162390200Y-122619047D02*
X162437819Y-122666666D01*
X162437819Y-122666666D02*
X162580676Y-122761904D01*
X162580676Y-122761904D02*
X162771152Y-122809523D01*
X162771152Y-122809523D02*
X163152104Y-122809523D01*
X163152104Y-122809523D02*
X163247342Y-122761904D01*
X163247342Y-122761904D02*
X163294961Y-122714285D01*
X163294961Y-122714285D02*
X163342580Y-122619047D01*
X163342580Y-122619047D02*
X163342580Y-122428571D01*
X163342580Y-122428571D02*
X163294961Y-122333333D01*
X163294961Y-122333333D02*
X163247342Y-122285714D01*
X163247342Y-122285714D02*
X163152104Y-122238095D01*
X163152104Y-122238095D02*
X162914009Y-122238095D01*
X162914009Y-122238095D02*
X162818771Y-122285714D01*
X162818771Y-122285714D02*
X162771152Y-122333333D01*
X162771152Y-122333333D02*
X162723533Y-122428571D01*
X162723533Y-122428571D02*
X162723533Y-122619047D01*
X162723533Y-122619047D02*
X162771152Y-122714285D01*
X162771152Y-122714285D02*
X162818771Y-122761904D01*
X162818771Y-122761904D02*
X162914009Y-122809523D01*
X183209800Y-52809523D02*
X183257419Y-52666666D01*
X183257419Y-52666666D02*
X183257419Y-52428571D01*
X183257419Y-52428571D02*
X183209800Y-52333333D01*
X183209800Y-52333333D02*
X183162180Y-52285714D01*
X183162180Y-52285714D02*
X183066942Y-52238095D01*
X183066942Y-52238095D02*
X182971704Y-52238095D01*
X182971704Y-52238095D02*
X182876466Y-52285714D01*
X182876466Y-52285714D02*
X182828847Y-52333333D01*
X182828847Y-52333333D02*
X182781228Y-52428571D01*
X182781228Y-52428571D02*
X182733609Y-52619047D01*
X182733609Y-52619047D02*
X182685990Y-52714285D01*
X182685990Y-52714285D02*
X182638371Y-52761904D01*
X182638371Y-52761904D02*
X182543133Y-52809523D01*
X182543133Y-52809523D02*
X182447895Y-52809523D01*
X182447895Y-52809523D02*
X182352657Y-52761904D01*
X182352657Y-52761904D02*
X182305038Y-52714285D01*
X182305038Y-52714285D02*
X182257419Y-52619047D01*
X182257419Y-52619047D02*
X182257419Y-52380952D01*
X182257419Y-52380952D02*
X182305038Y-52238095D01*
X182257419Y-51904761D02*
X183257419Y-51666666D01*
X183257419Y-51666666D02*
X182543133Y-51476190D01*
X182543133Y-51476190D02*
X183257419Y-51285714D01*
X183257419Y-51285714D02*
X182257419Y-51047619D01*
X183257419Y-50142857D02*
X183257419Y-50714285D01*
X183257419Y-50428571D02*
X182257419Y-50428571D01*
X182257419Y-50428571D02*
X182400276Y-50523809D01*
X182400276Y-50523809D02*
X182495514Y-50619047D01*
X182495514Y-50619047D02*
X182543133Y-50714285D01*
X182257419Y-49285714D02*
X182257419Y-49476190D01*
X182257419Y-49476190D02*
X182305038Y-49571428D01*
X182305038Y-49571428D02*
X182352657Y-49619047D01*
X182352657Y-49619047D02*
X182495514Y-49714285D01*
X182495514Y-49714285D02*
X182685990Y-49761904D01*
X182685990Y-49761904D02*
X183066942Y-49761904D01*
X183066942Y-49761904D02*
X183162180Y-49714285D01*
X183162180Y-49714285D02*
X183209800Y-49666666D01*
X183209800Y-49666666D02*
X183257419Y-49571428D01*
X183257419Y-49571428D02*
X183257419Y-49380952D01*
X183257419Y-49380952D02*
X183209800Y-49285714D01*
X183209800Y-49285714D02*
X183162180Y-49238095D01*
X183162180Y-49238095D02*
X183066942Y-49190476D01*
X183066942Y-49190476D02*
X182828847Y-49190476D01*
X182828847Y-49190476D02*
X182733609Y-49238095D01*
X182733609Y-49238095D02*
X182685990Y-49285714D01*
X182685990Y-49285714D02*
X182638371Y-49380952D01*
X182638371Y-49380952D02*
X182638371Y-49571428D01*
X182638371Y-49571428D02*
X182685990Y-49666666D01*
X182685990Y-49666666D02*
X182733609Y-49714285D01*
X182733609Y-49714285D02*
X182828847Y-49761904D01*
X159090200Y-119090476D02*
X159042580Y-119233333D01*
X159042580Y-119233333D02*
X159042580Y-119471428D01*
X159042580Y-119471428D02*
X159090200Y-119566666D01*
X159090200Y-119566666D02*
X159137819Y-119614285D01*
X159137819Y-119614285D02*
X159233057Y-119661904D01*
X159233057Y-119661904D02*
X159328295Y-119661904D01*
X159328295Y-119661904D02*
X159423533Y-119614285D01*
X159423533Y-119614285D02*
X159471152Y-119566666D01*
X159471152Y-119566666D02*
X159518771Y-119471428D01*
X159518771Y-119471428D02*
X159566390Y-119280952D01*
X159566390Y-119280952D02*
X159614009Y-119185714D01*
X159614009Y-119185714D02*
X159661628Y-119138095D01*
X159661628Y-119138095D02*
X159756866Y-119090476D01*
X159756866Y-119090476D02*
X159852104Y-119090476D01*
X159852104Y-119090476D02*
X159947342Y-119138095D01*
X159947342Y-119138095D02*
X159994961Y-119185714D01*
X159994961Y-119185714D02*
X160042580Y-119280952D01*
X160042580Y-119280952D02*
X160042580Y-119519047D01*
X160042580Y-119519047D02*
X159994961Y-119661904D01*
X160042580Y-119995238D02*
X159042580Y-120233333D01*
X159042580Y-120233333D02*
X159756866Y-120423809D01*
X159756866Y-120423809D02*
X159042580Y-120614285D01*
X159042580Y-120614285D02*
X160042580Y-120852381D01*
X159042580Y-121757142D02*
X159042580Y-121185714D01*
X159042580Y-121471428D02*
X160042580Y-121471428D01*
X160042580Y-121471428D02*
X159899723Y-121376190D01*
X159899723Y-121376190D02*
X159804485Y-121280952D01*
X159804485Y-121280952D02*
X159756866Y-121185714D01*
X160042580Y-122661904D02*
X160042580Y-122185714D01*
X160042580Y-122185714D02*
X159566390Y-122138095D01*
X159566390Y-122138095D02*
X159614009Y-122185714D01*
X159614009Y-122185714D02*
X159661628Y-122280952D01*
X159661628Y-122280952D02*
X159661628Y-122519047D01*
X159661628Y-122519047D02*
X159614009Y-122614285D01*
X159614009Y-122614285D02*
X159566390Y-122661904D01*
X159566390Y-122661904D02*
X159471152Y-122709523D01*
X159471152Y-122709523D02*
X159233057Y-122709523D01*
X159233057Y-122709523D02*
X159137819Y-122661904D01*
X159137819Y-122661904D02*
X159090200Y-122614285D01*
X159090200Y-122614285D02*
X159042580Y-122519047D01*
X159042580Y-122519047D02*
X159042580Y-122280952D01*
X159042580Y-122280952D02*
X159090200Y-122185714D01*
X159090200Y-122185714D02*
X159137819Y-122138095D01*
X120609800Y-53219523D02*
X120657419Y-53076666D01*
X120657419Y-53076666D02*
X120657419Y-52838571D01*
X120657419Y-52838571D02*
X120609800Y-52743333D01*
X120609800Y-52743333D02*
X120562180Y-52695714D01*
X120562180Y-52695714D02*
X120466942Y-52648095D01*
X120466942Y-52648095D02*
X120371704Y-52648095D01*
X120371704Y-52648095D02*
X120276466Y-52695714D01*
X120276466Y-52695714D02*
X120228847Y-52743333D01*
X120228847Y-52743333D02*
X120181228Y-52838571D01*
X120181228Y-52838571D02*
X120133609Y-53029047D01*
X120133609Y-53029047D02*
X120085990Y-53124285D01*
X120085990Y-53124285D02*
X120038371Y-53171904D01*
X120038371Y-53171904D02*
X119943133Y-53219523D01*
X119943133Y-53219523D02*
X119847895Y-53219523D01*
X119847895Y-53219523D02*
X119752657Y-53171904D01*
X119752657Y-53171904D02*
X119705038Y-53124285D01*
X119705038Y-53124285D02*
X119657419Y-53029047D01*
X119657419Y-53029047D02*
X119657419Y-52790952D01*
X119657419Y-52790952D02*
X119705038Y-52648095D01*
X119657419Y-52314761D02*
X120657419Y-52076666D01*
X120657419Y-52076666D02*
X119943133Y-51886190D01*
X119943133Y-51886190D02*
X120657419Y-51695714D01*
X120657419Y-51695714D02*
X119657419Y-51457619D01*
X120657419Y-50552857D02*
X120657419Y-51124285D01*
X120657419Y-50838571D02*
X119657419Y-50838571D01*
X119657419Y-50838571D02*
X119800276Y-50933809D01*
X119800276Y-50933809D02*
X119895514Y-51029047D01*
X119895514Y-51029047D02*
X119943133Y-51124285D01*
X119752657Y-50171904D02*
X119705038Y-50124285D01*
X119705038Y-50124285D02*
X119657419Y-50029047D01*
X119657419Y-50029047D02*
X119657419Y-49790952D01*
X119657419Y-49790952D02*
X119705038Y-49695714D01*
X119705038Y-49695714D02*
X119752657Y-49648095D01*
X119752657Y-49648095D02*
X119847895Y-49600476D01*
X119847895Y-49600476D02*
X119943133Y-49600476D01*
X119943133Y-49600476D02*
X120085990Y-49648095D01*
X120085990Y-49648095D02*
X120657419Y-50219523D01*
X120657419Y-50219523D02*
X120657419Y-49600476D01*
X152090200Y-119090476D02*
X152042580Y-119233333D01*
X152042580Y-119233333D02*
X152042580Y-119471428D01*
X152042580Y-119471428D02*
X152090200Y-119566666D01*
X152090200Y-119566666D02*
X152137819Y-119614285D01*
X152137819Y-119614285D02*
X152233057Y-119661904D01*
X152233057Y-119661904D02*
X152328295Y-119661904D01*
X152328295Y-119661904D02*
X152423533Y-119614285D01*
X152423533Y-119614285D02*
X152471152Y-119566666D01*
X152471152Y-119566666D02*
X152518771Y-119471428D01*
X152518771Y-119471428D02*
X152566390Y-119280952D01*
X152566390Y-119280952D02*
X152614009Y-119185714D01*
X152614009Y-119185714D02*
X152661628Y-119138095D01*
X152661628Y-119138095D02*
X152756866Y-119090476D01*
X152756866Y-119090476D02*
X152852104Y-119090476D01*
X152852104Y-119090476D02*
X152947342Y-119138095D01*
X152947342Y-119138095D02*
X152994961Y-119185714D01*
X152994961Y-119185714D02*
X153042580Y-119280952D01*
X153042580Y-119280952D02*
X153042580Y-119519047D01*
X153042580Y-119519047D02*
X152994961Y-119661904D01*
X153042580Y-119995238D02*
X152042580Y-120233333D01*
X152042580Y-120233333D02*
X152756866Y-120423809D01*
X152756866Y-120423809D02*
X152042580Y-120614285D01*
X152042580Y-120614285D02*
X153042580Y-120852381D01*
X152042580Y-121757142D02*
X152042580Y-121185714D01*
X152042580Y-121471428D02*
X153042580Y-121471428D01*
X153042580Y-121471428D02*
X152899723Y-121376190D01*
X152899723Y-121376190D02*
X152804485Y-121280952D01*
X152804485Y-121280952D02*
X152756866Y-121185714D01*
X152042580Y-122709523D02*
X152042580Y-122138095D01*
X152042580Y-122423809D02*
X153042580Y-122423809D01*
X153042580Y-122423809D02*
X152899723Y-122328571D01*
X152899723Y-122328571D02*
X152804485Y-122233333D01*
X152804485Y-122233333D02*
X152756866Y-122138095D01*
X144690200Y-119666667D02*
X144642580Y-119809524D01*
X144642580Y-119809524D02*
X144642580Y-120047619D01*
X144642580Y-120047619D02*
X144690200Y-120142857D01*
X144690200Y-120142857D02*
X144737819Y-120190476D01*
X144737819Y-120190476D02*
X144833057Y-120238095D01*
X144833057Y-120238095D02*
X144928295Y-120238095D01*
X144928295Y-120238095D02*
X145023533Y-120190476D01*
X145023533Y-120190476D02*
X145071152Y-120142857D01*
X145071152Y-120142857D02*
X145118771Y-120047619D01*
X145118771Y-120047619D02*
X145166390Y-119857143D01*
X145166390Y-119857143D02*
X145214009Y-119761905D01*
X145214009Y-119761905D02*
X145261628Y-119714286D01*
X145261628Y-119714286D02*
X145356866Y-119666667D01*
X145356866Y-119666667D02*
X145452104Y-119666667D01*
X145452104Y-119666667D02*
X145547342Y-119714286D01*
X145547342Y-119714286D02*
X145594961Y-119761905D01*
X145594961Y-119761905D02*
X145642580Y-119857143D01*
X145642580Y-119857143D02*
X145642580Y-120095238D01*
X145642580Y-120095238D02*
X145594961Y-120238095D01*
X145642580Y-120571429D02*
X144642580Y-120809524D01*
X144642580Y-120809524D02*
X145356866Y-121000000D01*
X145356866Y-121000000D02*
X144642580Y-121190476D01*
X144642580Y-121190476D02*
X145642580Y-121428572D01*
X145642580Y-121714286D02*
X145642580Y-122380952D01*
X145642580Y-122380952D02*
X144642580Y-121952381D01*
D10*
X141966667Y-134364700D02*
X142109524Y-134412319D01*
X142109524Y-134412319D02*
X142347619Y-134412319D01*
X142347619Y-134412319D02*
X142442857Y-134364700D01*
X142442857Y-134364700D02*
X142490476Y-134317080D01*
X142490476Y-134317080D02*
X142538095Y-134221842D01*
X142538095Y-134221842D02*
X142538095Y-134126604D01*
X142538095Y-134126604D02*
X142490476Y-134031366D01*
X142490476Y-134031366D02*
X142442857Y-133983747D01*
X142442857Y-133983747D02*
X142347619Y-133936128D01*
X142347619Y-133936128D02*
X142157143Y-133888509D01*
X142157143Y-133888509D02*
X142061905Y-133840890D01*
X142061905Y-133840890D02*
X142014286Y-133793271D01*
X142014286Y-133793271D02*
X141966667Y-133698033D01*
X141966667Y-133698033D02*
X141966667Y-133602795D01*
X141966667Y-133602795D02*
X142014286Y-133507557D01*
X142014286Y-133507557D02*
X142061905Y-133459938D01*
X142061905Y-133459938D02*
X142157143Y-133412319D01*
X142157143Y-133412319D02*
X142395238Y-133412319D01*
X142395238Y-133412319D02*
X142538095Y-133459938D01*
X142871429Y-133412319D02*
X143109524Y-134412319D01*
X143109524Y-134412319D02*
X143300000Y-133698033D01*
X143300000Y-133698033D02*
X143490476Y-134412319D01*
X143490476Y-134412319D02*
X143728572Y-133412319D01*
X144014286Y-133412319D02*
X144633333Y-133412319D01*
X144633333Y-133412319D02*
X144300000Y-133793271D01*
X144300000Y-133793271D02*
X144442857Y-133793271D01*
X144442857Y-133793271D02*
X144538095Y-133840890D01*
X144538095Y-133840890D02*
X144585714Y-133888509D01*
X144585714Y-133888509D02*
X144633333Y-133983747D01*
X144633333Y-133983747D02*
X144633333Y-134221842D01*
X144633333Y-134221842D02*
X144585714Y-134317080D01*
X144585714Y-134317080D02*
X144538095Y-134364700D01*
X144538095Y-134364700D02*
X144442857Y-134412319D01*
X144442857Y-134412319D02*
X144157143Y-134412319D01*
X144157143Y-134412319D02*
X144061905Y-134364700D01*
X144061905Y-134364700D02*
X144014286Y-134317080D01*
X163416667Y-134364700D02*
X163559524Y-134412319D01*
X163559524Y-134412319D02*
X163797619Y-134412319D01*
X163797619Y-134412319D02*
X163892857Y-134364700D01*
X163892857Y-134364700D02*
X163940476Y-134317080D01*
X163940476Y-134317080D02*
X163988095Y-134221842D01*
X163988095Y-134221842D02*
X163988095Y-134126604D01*
X163988095Y-134126604D02*
X163940476Y-134031366D01*
X163940476Y-134031366D02*
X163892857Y-133983747D01*
X163892857Y-133983747D02*
X163797619Y-133936128D01*
X163797619Y-133936128D02*
X163607143Y-133888509D01*
X163607143Y-133888509D02*
X163511905Y-133840890D01*
X163511905Y-133840890D02*
X163464286Y-133793271D01*
X163464286Y-133793271D02*
X163416667Y-133698033D01*
X163416667Y-133698033D02*
X163416667Y-133602795D01*
X163416667Y-133602795D02*
X163464286Y-133507557D01*
X163464286Y-133507557D02*
X163511905Y-133459938D01*
X163511905Y-133459938D02*
X163607143Y-133412319D01*
X163607143Y-133412319D02*
X163845238Y-133412319D01*
X163845238Y-133412319D02*
X163988095Y-133459938D01*
X164321429Y-133412319D02*
X164559524Y-134412319D01*
X164559524Y-134412319D02*
X164750000Y-133698033D01*
X164750000Y-133698033D02*
X164940476Y-134412319D01*
X164940476Y-134412319D02*
X165178572Y-133412319D01*
X165511905Y-133507557D02*
X165559524Y-133459938D01*
X165559524Y-133459938D02*
X165654762Y-133412319D01*
X165654762Y-133412319D02*
X165892857Y-133412319D01*
X165892857Y-133412319D02*
X165988095Y-133459938D01*
X165988095Y-133459938D02*
X166035714Y-133507557D01*
X166035714Y-133507557D02*
X166083333Y-133602795D01*
X166083333Y-133602795D02*
X166083333Y-133698033D01*
X166083333Y-133698033D02*
X166035714Y-133840890D01*
X166035714Y-133840890D02*
X165464286Y-134412319D01*
X165464286Y-134412319D02*
X166083333Y-134412319D01*
X112004761Y-122000057D02*
X111909523Y-121952438D01*
X111909523Y-121952438D02*
X111814285Y-121857200D01*
X111814285Y-121857200D02*
X111671428Y-121714342D01*
X111671428Y-121714342D02*
X111576190Y-121666723D01*
X111576190Y-121666723D02*
X111480952Y-121666723D01*
X111528571Y-121904819D02*
X111433333Y-121857200D01*
X111433333Y-121857200D02*
X111338095Y-121761961D01*
X111338095Y-121761961D02*
X111290476Y-121571485D01*
X111290476Y-121571485D02*
X111290476Y-121238152D01*
X111290476Y-121238152D02*
X111338095Y-121047676D01*
X111338095Y-121047676D02*
X111433333Y-120952438D01*
X111433333Y-120952438D02*
X111528571Y-120904819D01*
X111528571Y-120904819D02*
X111719047Y-120904819D01*
X111719047Y-120904819D02*
X111814285Y-120952438D01*
X111814285Y-120952438D02*
X111909523Y-121047676D01*
X111909523Y-121047676D02*
X111957142Y-121238152D01*
X111957142Y-121238152D02*
X111957142Y-121571485D01*
X111957142Y-121571485D02*
X111909523Y-121761961D01*
X111909523Y-121761961D02*
X111814285Y-121857200D01*
X111814285Y-121857200D02*
X111719047Y-121904819D01*
X111719047Y-121904819D02*
X111528571Y-121904819D01*
X112814285Y-121238152D02*
X112814285Y-121904819D01*
X112576190Y-120857200D02*
X112338095Y-121571485D01*
X112338095Y-121571485D02*
X112957142Y-121571485D01*
X167238095Y-86704819D02*
X167238095Y-85704819D01*
X167238095Y-86181009D02*
X167809523Y-86181009D01*
X167809523Y-86704819D02*
X167809523Y-85704819D01*
X168428571Y-86133390D02*
X168333333Y-86085771D01*
X168333333Y-86085771D02*
X168285714Y-86038152D01*
X168285714Y-86038152D02*
X168238095Y-85942914D01*
X168238095Y-85942914D02*
X168238095Y-85895295D01*
X168238095Y-85895295D02*
X168285714Y-85800057D01*
X168285714Y-85800057D02*
X168333333Y-85752438D01*
X168333333Y-85752438D02*
X168428571Y-85704819D01*
X168428571Y-85704819D02*
X168619047Y-85704819D01*
X168619047Y-85704819D02*
X168714285Y-85752438D01*
X168714285Y-85752438D02*
X168761904Y-85800057D01*
X168761904Y-85800057D02*
X168809523Y-85895295D01*
X168809523Y-85895295D02*
X168809523Y-85942914D01*
X168809523Y-85942914D02*
X168761904Y-86038152D01*
X168761904Y-86038152D02*
X168714285Y-86085771D01*
X168714285Y-86085771D02*
X168619047Y-86133390D01*
X168619047Y-86133390D02*
X168428571Y-86133390D01*
X168428571Y-86133390D02*
X168333333Y-86181009D01*
X168333333Y-86181009D02*
X168285714Y-86228628D01*
X168285714Y-86228628D02*
X168238095Y-86323866D01*
X168238095Y-86323866D02*
X168238095Y-86514342D01*
X168238095Y-86514342D02*
X168285714Y-86609580D01*
X168285714Y-86609580D02*
X168333333Y-86657200D01*
X168333333Y-86657200D02*
X168428571Y-86704819D01*
X168428571Y-86704819D02*
X168619047Y-86704819D01*
X168619047Y-86704819D02*
X168714285Y-86657200D01*
X168714285Y-86657200D02*
X168761904Y-86609580D01*
X168761904Y-86609580D02*
X168809523Y-86514342D01*
X168809523Y-86514342D02*
X168809523Y-86323866D01*
X168809523Y-86323866D02*
X168761904Y-86228628D01*
X168761904Y-86228628D02*
X168714285Y-86181009D01*
X168714285Y-86181009D02*
X168619047Y-86133390D01*
X139238095Y-86704819D02*
X139238095Y-85704819D01*
X139238095Y-86181009D02*
X139809523Y-86181009D01*
X139809523Y-86704819D02*
X139809523Y-85704819D01*
X140190476Y-85704819D02*
X140857142Y-85704819D01*
X140857142Y-85704819D02*
X140428571Y-86704819D01*
X206238095Y-60454819D02*
X206238095Y-59454819D01*
X206238095Y-59931009D02*
X206809523Y-59931009D01*
X206809523Y-60454819D02*
X206809523Y-59454819D01*
X207714285Y-59454819D02*
X207523809Y-59454819D01*
X207523809Y-59454819D02*
X207428571Y-59502438D01*
X207428571Y-59502438D02*
X207380952Y-59550057D01*
X207380952Y-59550057D02*
X207285714Y-59692914D01*
X207285714Y-59692914D02*
X207238095Y-59883390D01*
X207238095Y-59883390D02*
X207238095Y-60264342D01*
X207238095Y-60264342D02*
X207285714Y-60359580D01*
X207285714Y-60359580D02*
X207333333Y-60407200D01*
X207333333Y-60407200D02*
X207428571Y-60454819D01*
X207428571Y-60454819D02*
X207619047Y-60454819D01*
X207619047Y-60454819D02*
X207714285Y-60407200D01*
X207714285Y-60407200D02*
X207761904Y-60359580D01*
X207761904Y-60359580D02*
X207809523Y-60264342D01*
X207809523Y-60264342D02*
X207809523Y-60026247D01*
X207809523Y-60026247D02*
X207761904Y-59931009D01*
X207761904Y-59931009D02*
X207714285Y-59883390D01*
X207714285Y-59883390D02*
X207619047Y-59835771D01*
X207619047Y-59835771D02*
X207428571Y-59835771D01*
X207428571Y-59835771D02*
X207333333Y-59883390D01*
X207333333Y-59883390D02*
X207285714Y-59931009D01*
X207285714Y-59931009D02*
X207238095Y-60026247D01*
X100238095Y-60554819D02*
X100238095Y-59554819D01*
X100238095Y-60031009D02*
X100809523Y-60031009D01*
X100809523Y-60554819D02*
X100809523Y-59554819D01*
X101761904Y-59554819D02*
X101285714Y-59554819D01*
X101285714Y-59554819D02*
X101238095Y-60031009D01*
X101238095Y-60031009D02*
X101285714Y-59983390D01*
X101285714Y-59983390D02*
X101380952Y-59935771D01*
X101380952Y-59935771D02*
X101619047Y-59935771D01*
X101619047Y-59935771D02*
X101714285Y-59983390D01*
X101714285Y-59983390D02*
X101761904Y-60031009D01*
X101761904Y-60031009D02*
X101809523Y-60126247D01*
X101809523Y-60126247D02*
X101809523Y-60364342D01*
X101809523Y-60364342D02*
X101761904Y-60459580D01*
X101761904Y-60459580D02*
X101714285Y-60507200D01*
X101714285Y-60507200D02*
X101619047Y-60554819D01*
X101619047Y-60554819D02*
X101380952Y-60554819D01*
X101380952Y-60554819D02*
X101285714Y-60507200D01*
X101285714Y-60507200D02*
X101238095Y-60459580D01*
X210738095Y-131704819D02*
X210738095Y-130704819D01*
X210738095Y-131181009D02*
X211309523Y-131181009D01*
X211309523Y-131704819D02*
X211309523Y-130704819D01*
X212214285Y-131038152D02*
X212214285Y-131704819D01*
X211976190Y-130657200D02*
X211738095Y-131371485D01*
X211738095Y-131371485D02*
X212357142Y-131371485D01*
X95738095Y-131704819D02*
X95738095Y-130704819D01*
X95738095Y-131181009D02*
X96309523Y-131181009D01*
X96309523Y-131704819D02*
X96309523Y-130704819D01*
X96690476Y-130704819D02*
X97309523Y-130704819D01*
X97309523Y-130704819D02*
X96976190Y-131085771D01*
X96976190Y-131085771D02*
X97119047Y-131085771D01*
X97119047Y-131085771D02*
X97214285Y-131133390D01*
X97214285Y-131133390D02*
X97261904Y-131181009D01*
X97261904Y-131181009D02*
X97309523Y-131276247D01*
X97309523Y-131276247D02*
X97309523Y-131514342D01*
X97309523Y-131514342D02*
X97261904Y-131609580D01*
X97261904Y-131609580D02*
X97214285Y-131657200D01*
X97214285Y-131657200D02*
X97119047Y-131704819D01*
X97119047Y-131704819D02*
X96833333Y-131704819D01*
X96833333Y-131704819D02*
X96738095Y-131657200D01*
X96738095Y-131657200D02*
X96690476Y-131609580D01*
X174838095Y-47454819D02*
X174838095Y-46454819D01*
X174838095Y-46931009D02*
X175409523Y-46931009D01*
X175409523Y-47454819D02*
X175409523Y-46454819D01*
X175838095Y-46550057D02*
X175885714Y-46502438D01*
X175885714Y-46502438D02*
X175980952Y-46454819D01*
X175980952Y-46454819D02*
X176219047Y-46454819D01*
X176219047Y-46454819D02*
X176314285Y-46502438D01*
X176314285Y-46502438D02*
X176361904Y-46550057D01*
X176361904Y-46550057D02*
X176409523Y-46645295D01*
X176409523Y-46645295D02*
X176409523Y-46740533D01*
X176409523Y-46740533D02*
X176361904Y-46883390D01*
X176361904Y-46883390D02*
X175790476Y-47454819D01*
X175790476Y-47454819D02*
X176409523Y-47454819D01*
X129438095Y-47554819D02*
X129438095Y-46554819D01*
X129438095Y-47031009D02*
X130009523Y-47031009D01*
X130009523Y-47554819D02*
X130009523Y-46554819D01*
X131009523Y-47554819D02*
X130438095Y-47554819D01*
X130723809Y-47554819D02*
X130723809Y-46554819D01*
X130723809Y-46554819D02*
X130628571Y-46697676D01*
X130628571Y-46697676D02*
X130533333Y-46792914D01*
X130533333Y-46792914D02*
X130438095Y-46840533D01*
X109991667Y-106022200D02*
X110134524Y-106069819D01*
X110134524Y-106069819D02*
X110372619Y-106069819D01*
X110372619Y-106069819D02*
X110467857Y-106022200D01*
X110467857Y-106022200D02*
X110515476Y-105974580D01*
X110515476Y-105974580D02*
X110563095Y-105879342D01*
X110563095Y-105879342D02*
X110563095Y-105784104D01*
X110563095Y-105784104D02*
X110515476Y-105688866D01*
X110515476Y-105688866D02*
X110467857Y-105641247D01*
X110467857Y-105641247D02*
X110372619Y-105593628D01*
X110372619Y-105593628D02*
X110182143Y-105546009D01*
X110182143Y-105546009D02*
X110086905Y-105498390D01*
X110086905Y-105498390D02*
X110039286Y-105450771D01*
X110039286Y-105450771D02*
X109991667Y-105355533D01*
X109991667Y-105355533D02*
X109991667Y-105260295D01*
X109991667Y-105260295D02*
X110039286Y-105165057D01*
X110039286Y-105165057D02*
X110086905Y-105117438D01*
X110086905Y-105117438D02*
X110182143Y-105069819D01*
X110182143Y-105069819D02*
X110420238Y-105069819D01*
X110420238Y-105069819D02*
X110563095Y-105117438D01*
X110896429Y-105069819D02*
X111134524Y-106069819D01*
X111134524Y-106069819D02*
X111325000Y-105355533D01*
X111325000Y-105355533D02*
X111515476Y-106069819D01*
X111515476Y-106069819D02*
X111753572Y-105069819D01*
X112563095Y-105069819D02*
X112372619Y-105069819D01*
X112372619Y-105069819D02*
X112277381Y-105117438D01*
X112277381Y-105117438D02*
X112229762Y-105165057D01*
X112229762Y-105165057D02*
X112134524Y-105307914D01*
X112134524Y-105307914D02*
X112086905Y-105498390D01*
X112086905Y-105498390D02*
X112086905Y-105879342D01*
X112086905Y-105879342D02*
X112134524Y-105974580D01*
X112134524Y-105974580D02*
X112182143Y-106022200D01*
X112182143Y-106022200D02*
X112277381Y-106069819D01*
X112277381Y-106069819D02*
X112467857Y-106069819D01*
X112467857Y-106069819D02*
X112563095Y-106022200D01*
X112563095Y-106022200D02*
X112610714Y-105974580D01*
X112610714Y-105974580D02*
X112658333Y-105879342D01*
X112658333Y-105879342D02*
X112658333Y-105641247D01*
X112658333Y-105641247D02*
X112610714Y-105546009D01*
X112610714Y-105546009D02*
X112563095Y-105498390D01*
X112563095Y-105498390D02*
X112467857Y-105450771D01*
X112467857Y-105450771D02*
X112277381Y-105450771D01*
X112277381Y-105450771D02*
X112182143Y-105498390D01*
X112182143Y-105498390D02*
X112134524Y-105546009D01*
X112134524Y-105546009D02*
X112086905Y-105641247D01*
X92357142Y-112359580D02*
X92309523Y-112407200D01*
X92309523Y-112407200D02*
X92166666Y-112454819D01*
X92166666Y-112454819D02*
X92071428Y-112454819D01*
X92071428Y-112454819D02*
X91928571Y-112407200D01*
X91928571Y-112407200D02*
X91833333Y-112311961D01*
X91833333Y-112311961D02*
X91785714Y-112216723D01*
X91785714Y-112216723D02*
X91738095Y-112026247D01*
X91738095Y-112026247D02*
X91738095Y-111883390D01*
X91738095Y-111883390D02*
X91785714Y-111692914D01*
X91785714Y-111692914D02*
X91833333Y-111597676D01*
X91833333Y-111597676D02*
X91928571Y-111502438D01*
X91928571Y-111502438D02*
X92071428Y-111454819D01*
X92071428Y-111454819D02*
X92166666Y-111454819D01*
X92166666Y-111454819D02*
X92309523Y-111502438D01*
X92309523Y-111502438D02*
X92357142Y-111550057D01*
X93309523Y-112454819D02*
X92738095Y-112454819D01*
X93023809Y-112454819D02*
X93023809Y-111454819D01*
X93023809Y-111454819D02*
X92928571Y-111597676D01*
X92928571Y-111597676D02*
X92833333Y-111692914D01*
X92833333Y-111692914D02*
X92738095Y-111740533D01*
X94166666Y-111788152D02*
X94166666Y-112454819D01*
X93928571Y-111407200D02*
X93690476Y-112121485D01*
X93690476Y-112121485D02*
X94309523Y-112121485D01*
X187866667Y-111507200D02*
X188009524Y-111554819D01*
X188009524Y-111554819D02*
X188247619Y-111554819D01*
X188247619Y-111554819D02*
X188342857Y-111507200D01*
X188342857Y-111507200D02*
X188390476Y-111459580D01*
X188390476Y-111459580D02*
X188438095Y-111364342D01*
X188438095Y-111364342D02*
X188438095Y-111269104D01*
X188438095Y-111269104D02*
X188390476Y-111173866D01*
X188390476Y-111173866D02*
X188342857Y-111126247D01*
X188342857Y-111126247D02*
X188247619Y-111078628D01*
X188247619Y-111078628D02*
X188057143Y-111031009D01*
X188057143Y-111031009D02*
X187961905Y-110983390D01*
X187961905Y-110983390D02*
X187914286Y-110935771D01*
X187914286Y-110935771D02*
X187866667Y-110840533D01*
X187866667Y-110840533D02*
X187866667Y-110745295D01*
X187866667Y-110745295D02*
X187914286Y-110650057D01*
X187914286Y-110650057D02*
X187961905Y-110602438D01*
X187961905Y-110602438D02*
X188057143Y-110554819D01*
X188057143Y-110554819D02*
X188295238Y-110554819D01*
X188295238Y-110554819D02*
X188438095Y-110602438D01*
X188771429Y-110554819D02*
X189009524Y-111554819D01*
X189009524Y-111554819D02*
X189200000Y-110840533D01*
X189200000Y-110840533D02*
X189390476Y-111554819D01*
X189390476Y-111554819D02*
X189628572Y-110554819D01*
X190057143Y-111554819D02*
X190247619Y-111554819D01*
X190247619Y-111554819D02*
X190342857Y-111507200D01*
X190342857Y-111507200D02*
X190390476Y-111459580D01*
X190390476Y-111459580D02*
X190485714Y-111316723D01*
X190485714Y-111316723D02*
X190533333Y-111126247D01*
X190533333Y-111126247D02*
X190533333Y-110745295D01*
X190533333Y-110745295D02*
X190485714Y-110650057D01*
X190485714Y-110650057D02*
X190438095Y-110602438D01*
X190438095Y-110602438D02*
X190342857Y-110554819D01*
X190342857Y-110554819D02*
X190152381Y-110554819D01*
X190152381Y-110554819D02*
X190057143Y-110602438D01*
X190057143Y-110602438D02*
X190009524Y-110650057D01*
X190009524Y-110650057D02*
X189961905Y-110745295D01*
X189961905Y-110745295D02*
X189961905Y-110983390D01*
X189961905Y-110983390D02*
X190009524Y-111078628D01*
X190009524Y-111078628D02*
X190057143Y-111126247D01*
X190057143Y-111126247D02*
X190152381Y-111173866D01*
X190152381Y-111173866D02*
X190342857Y-111173866D01*
X190342857Y-111173866D02*
X190438095Y-111126247D01*
X190438095Y-111126247D02*
X190485714Y-111078628D01*
X190485714Y-111078628D02*
X190533333Y-110983390D01*
X98157142Y-105359580D02*
X98109523Y-105407200D01*
X98109523Y-105407200D02*
X97966666Y-105454819D01*
X97966666Y-105454819D02*
X97871428Y-105454819D01*
X97871428Y-105454819D02*
X97728571Y-105407200D01*
X97728571Y-105407200D02*
X97633333Y-105311961D01*
X97633333Y-105311961D02*
X97585714Y-105216723D01*
X97585714Y-105216723D02*
X97538095Y-105026247D01*
X97538095Y-105026247D02*
X97538095Y-104883390D01*
X97538095Y-104883390D02*
X97585714Y-104692914D01*
X97585714Y-104692914D02*
X97633333Y-104597676D01*
X97633333Y-104597676D02*
X97728571Y-104502438D01*
X97728571Y-104502438D02*
X97871428Y-104454819D01*
X97871428Y-104454819D02*
X97966666Y-104454819D01*
X97966666Y-104454819D02*
X98109523Y-104502438D01*
X98109523Y-104502438D02*
X98157142Y-104550057D01*
X98538095Y-104550057D02*
X98585714Y-104502438D01*
X98585714Y-104502438D02*
X98680952Y-104454819D01*
X98680952Y-104454819D02*
X98919047Y-104454819D01*
X98919047Y-104454819D02*
X99014285Y-104502438D01*
X99014285Y-104502438D02*
X99061904Y-104550057D01*
X99061904Y-104550057D02*
X99109523Y-104645295D01*
X99109523Y-104645295D02*
X99109523Y-104740533D01*
X99109523Y-104740533D02*
X99061904Y-104883390D01*
X99061904Y-104883390D02*
X98490476Y-105454819D01*
X98490476Y-105454819D02*
X99109523Y-105454819D01*
X99490476Y-104550057D02*
X99538095Y-104502438D01*
X99538095Y-104502438D02*
X99633333Y-104454819D01*
X99633333Y-104454819D02*
X99871428Y-104454819D01*
X99871428Y-104454819D02*
X99966666Y-104502438D01*
X99966666Y-104502438D02*
X100014285Y-104550057D01*
X100014285Y-104550057D02*
X100061904Y-104645295D01*
X100061904Y-104645295D02*
X100061904Y-104740533D01*
X100061904Y-104740533D02*
X100014285Y-104883390D01*
X100014285Y-104883390D02*
X99442857Y-105454819D01*
X99442857Y-105454819D02*
X100061904Y-105454819D01*
X175161905Y-112454819D02*
X175161905Y-113264342D01*
X175161905Y-113264342D02*
X175209524Y-113359580D01*
X175209524Y-113359580D02*
X175257143Y-113407200D01*
X175257143Y-113407200D02*
X175352381Y-113454819D01*
X175352381Y-113454819D02*
X175542857Y-113454819D01*
X175542857Y-113454819D02*
X175638095Y-113407200D01*
X175638095Y-113407200D02*
X175685714Y-113359580D01*
X175685714Y-113359580D02*
X175733333Y-113264342D01*
X175733333Y-113264342D02*
X175733333Y-112454819D01*
X176733333Y-113454819D02*
X176161905Y-113454819D01*
X176447619Y-113454819D02*
X176447619Y-112454819D01*
X176447619Y-112454819D02*
X176352381Y-112597676D01*
X176352381Y-112597676D02*
X176257143Y-112692914D01*
X176257143Y-112692914D02*
X176161905Y-112740533D01*
X177114286Y-112550057D02*
X177161905Y-112502438D01*
X177161905Y-112502438D02*
X177257143Y-112454819D01*
X177257143Y-112454819D02*
X177495238Y-112454819D01*
X177495238Y-112454819D02*
X177590476Y-112502438D01*
X177590476Y-112502438D02*
X177638095Y-112550057D01*
X177638095Y-112550057D02*
X177685714Y-112645295D01*
X177685714Y-112645295D02*
X177685714Y-112740533D01*
X177685714Y-112740533D02*
X177638095Y-112883390D01*
X177638095Y-112883390D02*
X177066667Y-113454819D01*
X177066667Y-113454819D02*
X177685714Y-113454819D01*
X171057142Y-105654819D02*
X170723809Y-105178628D01*
X170485714Y-105654819D02*
X170485714Y-104654819D01*
X170485714Y-104654819D02*
X170866666Y-104654819D01*
X170866666Y-104654819D02*
X170961904Y-104702438D01*
X170961904Y-104702438D02*
X171009523Y-104750057D01*
X171009523Y-104750057D02*
X171057142Y-104845295D01*
X171057142Y-104845295D02*
X171057142Y-104988152D01*
X171057142Y-104988152D02*
X171009523Y-105083390D01*
X171009523Y-105083390D02*
X170961904Y-105131009D01*
X170961904Y-105131009D02*
X170866666Y-105178628D01*
X170866666Y-105178628D02*
X170485714Y-105178628D01*
X171438095Y-104750057D02*
X171485714Y-104702438D01*
X171485714Y-104702438D02*
X171580952Y-104654819D01*
X171580952Y-104654819D02*
X171819047Y-104654819D01*
X171819047Y-104654819D02*
X171914285Y-104702438D01*
X171914285Y-104702438D02*
X171961904Y-104750057D01*
X171961904Y-104750057D02*
X172009523Y-104845295D01*
X172009523Y-104845295D02*
X172009523Y-104940533D01*
X172009523Y-104940533D02*
X171961904Y-105083390D01*
X171961904Y-105083390D02*
X171390476Y-105654819D01*
X171390476Y-105654819D02*
X172009523Y-105654819D01*
X172866666Y-104988152D02*
X172866666Y-105654819D01*
X172628571Y-104607200D02*
X172390476Y-105321485D01*
X172390476Y-105321485D02*
X173009523Y-105321485D01*
X214804761Y-126850057D02*
X214709523Y-126802438D01*
X214709523Y-126802438D02*
X214614285Y-126707200D01*
X214614285Y-126707200D02*
X214471428Y-126564342D01*
X214471428Y-126564342D02*
X214376190Y-126516723D01*
X214376190Y-126516723D02*
X214280952Y-126516723D01*
X214328571Y-126754819D02*
X214233333Y-126707200D01*
X214233333Y-126707200D02*
X214138095Y-126611961D01*
X214138095Y-126611961D02*
X214090476Y-126421485D01*
X214090476Y-126421485D02*
X214090476Y-126088152D01*
X214090476Y-126088152D02*
X214138095Y-125897676D01*
X214138095Y-125897676D02*
X214233333Y-125802438D01*
X214233333Y-125802438D02*
X214328571Y-125754819D01*
X214328571Y-125754819D02*
X214519047Y-125754819D01*
X214519047Y-125754819D02*
X214614285Y-125802438D01*
X214614285Y-125802438D02*
X214709523Y-125897676D01*
X214709523Y-125897676D02*
X214757142Y-126088152D01*
X214757142Y-126088152D02*
X214757142Y-126421485D01*
X214757142Y-126421485D02*
X214709523Y-126611961D01*
X214709523Y-126611961D02*
X214614285Y-126707200D01*
X214614285Y-126707200D02*
X214519047Y-126754819D01*
X214519047Y-126754819D02*
X214328571Y-126754819D01*
X215661904Y-125754819D02*
X215185714Y-125754819D01*
X215185714Y-125754819D02*
X215138095Y-126231009D01*
X215138095Y-126231009D02*
X215185714Y-126183390D01*
X215185714Y-126183390D02*
X215280952Y-126135771D01*
X215280952Y-126135771D02*
X215519047Y-126135771D01*
X215519047Y-126135771D02*
X215614285Y-126183390D01*
X215614285Y-126183390D02*
X215661904Y-126231009D01*
X215661904Y-126231009D02*
X215709523Y-126326247D01*
X215709523Y-126326247D02*
X215709523Y-126564342D01*
X215709523Y-126564342D02*
X215661904Y-126659580D01*
X215661904Y-126659580D02*
X215614285Y-126707200D01*
X215614285Y-126707200D02*
X215519047Y-126754819D01*
X215519047Y-126754819D02*
X215280952Y-126754819D01*
X215280952Y-126754819D02*
X215185714Y-126707200D01*
X215185714Y-126707200D02*
X215138095Y-126659580D01*
X120857142Y-127754819D02*
X120523809Y-127278628D01*
X120285714Y-127754819D02*
X120285714Y-126754819D01*
X120285714Y-126754819D02*
X120666666Y-126754819D01*
X120666666Y-126754819D02*
X120761904Y-126802438D01*
X120761904Y-126802438D02*
X120809523Y-126850057D01*
X120809523Y-126850057D02*
X120857142Y-126945295D01*
X120857142Y-126945295D02*
X120857142Y-127088152D01*
X120857142Y-127088152D02*
X120809523Y-127183390D01*
X120809523Y-127183390D02*
X120761904Y-127231009D01*
X120761904Y-127231009D02*
X120666666Y-127278628D01*
X120666666Y-127278628D02*
X120285714Y-127278628D01*
X121238095Y-126850057D02*
X121285714Y-126802438D01*
X121285714Y-126802438D02*
X121380952Y-126754819D01*
X121380952Y-126754819D02*
X121619047Y-126754819D01*
X121619047Y-126754819D02*
X121714285Y-126802438D01*
X121714285Y-126802438D02*
X121761904Y-126850057D01*
X121761904Y-126850057D02*
X121809523Y-126945295D01*
X121809523Y-126945295D02*
X121809523Y-127040533D01*
X121809523Y-127040533D02*
X121761904Y-127183390D01*
X121761904Y-127183390D02*
X121190476Y-127754819D01*
X121190476Y-127754819D02*
X121809523Y-127754819D01*
X122428571Y-126754819D02*
X122523809Y-126754819D01*
X122523809Y-126754819D02*
X122619047Y-126802438D01*
X122619047Y-126802438D02*
X122666666Y-126850057D01*
X122666666Y-126850057D02*
X122714285Y-126945295D01*
X122714285Y-126945295D02*
X122761904Y-127135771D01*
X122761904Y-127135771D02*
X122761904Y-127373866D01*
X122761904Y-127373866D02*
X122714285Y-127564342D01*
X122714285Y-127564342D02*
X122666666Y-127659580D01*
X122666666Y-127659580D02*
X122619047Y-127707200D01*
X122619047Y-127707200D02*
X122523809Y-127754819D01*
X122523809Y-127754819D02*
X122428571Y-127754819D01*
X122428571Y-127754819D02*
X122333333Y-127707200D01*
X122333333Y-127707200D02*
X122285714Y-127659580D01*
X122285714Y-127659580D02*
X122238095Y-127564342D01*
X122238095Y-127564342D02*
X122190476Y-127373866D01*
X122190476Y-127373866D02*
X122190476Y-127135771D01*
X122190476Y-127135771D02*
X122238095Y-126945295D01*
X122238095Y-126945295D02*
X122285714Y-126850057D01*
X122285714Y-126850057D02*
X122333333Y-126802438D01*
X122333333Y-126802438D02*
X122428571Y-126754819D01*
X220389580Y-129705358D02*
X220437200Y-129752977D01*
X220437200Y-129752977D02*
X220484819Y-129895834D01*
X220484819Y-129895834D02*
X220484819Y-129991072D01*
X220484819Y-129991072D02*
X220437200Y-130133929D01*
X220437200Y-130133929D02*
X220341961Y-130229167D01*
X220341961Y-130229167D02*
X220246723Y-130276786D01*
X220246723Y-130276786D02*
X220056247Y-130324405D01*
X220056247Y-130324405D02*
X219913390Y-130324405D01*
X219913390Y-130324405D02*
X219722914Y-130276786D01*
X219722914Y-130276786D02*
X219627676Y-130229167D01*
X219627676Y-130229167D02*
X219532438Y-130133929D01*
X219532438Y-130133929D02*
X219484819Y-129991072D01*
X219484819Y-129991072D02*
X219484819Y-129895834D01*
X219484819Y-129895834D02*
X219532438Y-129752977D01*
X219532438Y-129752977D02*
X219580057Y-129705358D01*
X220484819Y-128752977D02*
X220484819Y-129324405D01*
X220484819Y-129038691D02*
X219484819Y-129038691D01*
X219484819Y-129038691D02*
X219627676Y-129133929D01*
X219627676Y-129133929D02*
X219722914Y-129229167D01*
X219722914Y-129229167D02*
X219770533Y-129324405D01*
X219913390Y-128181548D02*
X219865771Y-128276786D01*
X219865771Y-128276786D02*
X219818152Y-128324405D01*
X219818152Y-128324405D02*
X219722914Y-128372024D01*
X219722914Y-128372024D02*
X219675295Y-128372024D01*
X219675295Y-128372024D02*
X219580057Y-128324405D01*
X219580057Y-128324405D02*
X219532438Y-128276786D01*
X219532438Y-128276786D02*
X219484819Y-128181548D01*
X219484819Y-128181548D02*
X219484819Y-127991072D01*
X219484819Y-127991072D02*
X219532438Y-127895834D01*
X219532438Y-127895834D02*
X219580057Y-127848215D01*
X219580057Y-127848215D02*
X219675295Y-127800596D01*
X219675295Y-127800596D02*
X219722914Y-127800596D01*
X219722914Y-127800596D02*
X219818152Y-127848215D01*
X219818152Y-127848215D02*
X219865771Y-127895834D01*
X219865771Y-127895834D02*
X219913390Y-127991072D01*
X219913390Y-127991072D02*
X219913390Y-128181548D01*
X219913390Y-128181548D02*
X219961009Y-128276786D01*
X219961009Y-128276786D02*
X220008628Y-128324405D01*
X220008628Y-128324405D02*
X220103866Y-128372024D01*
X220103866Y-128372024D02*
X220294342Y-128372024D01*
X220294342Y-128372024D02*
X220389580Y-128324405D01*
X220389580Y-128324405D02*
X220437200Y-128276786D01*
X220437200Y-128276786D02*
X220484819Y-128181548D01*
X220484819Y-128181548D02*
X220484819Y-127991072D01*
X220484819Y-127991072D02*
X220437200Y-127895834D01*
X220437200Y-127895834D02*
X220389580Y-127848215D01*
X220389580Y-127848215D02*
X220294342Y-127800596D01*
X220294342Y-127800596D02*
X220103866Y-127800596D01*
X220103866Y-127800596D02*
X220008628Y-127848215D01*
X220008628Y-127848215D02*
X219961009Y-127895834D01*
X219961009Y-127895834D02*
X219913390Y-127991072D01*
X184389580Y-108380358D02*
X184437200Y-108427977D01*
X184437200Y-108427977D02*
X184484819Y-108570834D01*
X184484819Y-108570834D02*
X184484819Y-108666072D01*
X184484819Y-108666072D02*
X184437200Y-108808929D01*
X184437200Y-108808929D02*
X184341961Y-108904167D01*
X184341961Y-108904167D02*
X184246723Y-108951786D01*
X184246723Y-108951786D02*
X184056247Y-108999405D01*
X184056247Y-108999405D02*
X183913390Y-108999405D01*
X183913390Y-108999405D02*
X183722914Y-108951786D01*
X183722914Y-108951786D02*
X183627676Y-108904167D01*
X183627676Y-108904167D02*
X183532438Y-108808929D01*
X183532438Y-108808929D02*
X183484819Y-108666072D01*
X183484819Y-108666072D02*
X183484819Y-108570834D01*
X183484819Y-108570834D02*
X183532438Y-108427977D01*
X183532438Y-108427977D02*
X183580057Y-108380358D01*
X183580057Y-107999405D02*
X183532438Y-107951786D01*
X183532438Y-107951786D02*
X183484819Y-107856548D01*
X183484819Y-107856548D02*
X183484819Y-107618453D01*
X183484819Y-107618453D02*
X183532438Y-107523215D01*
X183532438Y-107523215D02*
X183580057Y-107475596D01*
X183580057Y-107475596D02*
X183675295Y-107427977D01*
X183675295Y-107427977D02*
X183770533Y-107427977D01*
X183770533Y-107427977D02*
X183913390Y-107475596D01*
X183913390Y-107475596D02*
X184484819Y-108047024D01*
X184484819Y-108047024D02*
X184484819Y-107427977D01*
X183484819Y-107094643D02*
X183484819Y-106475596D01*
X183484819Y-106475596D02*
X183865771Y-106808929D01*
X183865771Y-106808929D02*
X183865771Y-106666072D01*
X183865771Y-106666072D02*
X183913390Y-106570834D01*
X183913390Y-106570834D02*
X183961009Y-106523215D01*
X183961009Y-106523215D02*
X184056247Y-106475596D01*
X184056247Y-106475596D02*
X184294342Y-106475596D01*
X184294342Y-106475596D02*
X184389580Y-106523215D01*
X184389580Y-106523215D02*
X184437200Y-106570834D01*
X184437200Y-106570834D02*
X184484819Y-106666072D01*
X184484819Y-106666072D02*
X184484819Y-106951786D01*
X184484819Y-106951786D02*
X184437200Y-107047024D01*
X184437200Y-107047024D02*
X184389580Y-107094643D01*
X175854819Y-132742857D02*
X175378628Y-133076190D01*
X175854819Y-133314285D02*
X174854819Y-133314285D01*
X174854819Y-133314285D02*
X174854819Y-132933333D01*
X174854819Y-132933333D02*
X174902438Y-132838095D01*
X174902438Y-132838095D02*
X174950057Y-132790476D01*
X174950057Y-132790476D02*
X175045295Y-132742857D01*
X175045295Y-132742857D02*
X175188152Y-132742857D01*
X175188152Y-132742857D02*
X175283390Y-132790476D01*
X175283390Y-132790476D02*
X175331009Y-132838095D01*
X175331009Y-132838095D02*
X175378628Y-132933333D01*
X175378628Y-132933333D02*
X175378628Y-133314285D01*
X174950057Y-132361904D02*
X174902438Y-132314285D01*
X174902438Y-132314285D02*
X174854819Y-132219047D01*
X174854819Y-132219047D02*
X174854819Y-131980952D01*
X174854819Y-131980952D02*
X174902438Y-131885714D01*
X174902438Y-131885714D02*
X174950057Y-131838095D01*
X174950057Y-131838095D02*
X175045295Y-131790476D01*
X175045295Y-131790476D02*
X175140533Y-131790476D01*
X175140533Y-131790476D02*
X175283390Y-131838095D01*
X175283390Y-131838095D02*
X175854819Y-132409523D01*
X175854819Y-132409523D02*
X175854819Y-131790476D01*
X175854819Y-130838095D02*
X175854819Y-131409523D01*
X175854819Y-131123809D02*
X174854819Y-131123809D01*
X174854819Y-131123809D02*
X174997676Y-131219047D01*
X174997676Y-131219047D02*
X175092914Y-131314285D01*
X175092914Y-131314285D02*
X175140533Y-131409523D01*
X216533333Y-128354819D02*
X216200000Y-127878628D01*
X215961905Y-128354819D02*
X215961905Y-127354819D01*
X215961905Y-127354819D02*
X216342857Y-127354819D01*
X216342857Y-127354819D02*
X216438095Y-127402438D01*
X216438095Y-127402438D02*
X216485714Y-127450057D01*
X216485714Y-127450057D02*
X216533333Y-127545295D01*
X216533333Y-127545295D02*
X216533333Y-127688152D01*
X216533333Y-127688152D02*
X216485714Y-127783390D01*
X216485714Y-127783390D02*
X216438095Y-127831009D01*
X216438095Y-127831009D02*
X216342857Y-127878628D01*
X216342857Y-127878628D02*
X215961905Y-127878628D01*
X217390476Y-127688152D02*
X217390476Y-128354819D01*
X217152381Y-127307200D02*
X216914286Y-128021485D01*
X216914286Y-128021485D02*
X217533333Y-128021485D01*
X116561905Y-125954819D02*
X116561905Y-124954819D01*
X116561905Y-124954819D02*
X116800000Y-124954819D01*
X116800000Y-124954819D02*
X116942857Y-125002438D01*
X116942857Y-125002438D02*
X117038095Y-125097676D01*
X117038095Y-125097676D02*
X117085714Y-125192914D01*
X117085714Y-125192914D02*
X117133333Y-125383390D01*
X117133333Y-125383390D02*
X117133333Y-125526247D01*
X117133333Y-125526247D02*
X117085714Y-125716723D01*
X117085714Y-125716723D02*
X117038095Y-125811961D01*
X117038095Y-125811961D02*
X116942857Y-125907200D01*
X116942857Y-125907200D02*
X116800000Y-125954819D01*
X116800000Y-125954819D02*
X116561905Y-125954819D01*
X117704762Y-125383390D02*
X117609524Y-125335771D01*
X117609524Y-125335771D02*
X117561905Y-125288152D01*
X117561905Y-125288152D02*
X117514286Y-125192914D01*
X117514286Y-125192914D02*
X117514286Y-125145295D01*
X117514286Y-125145295D02*
X117561905Y-125050057D01*
X117561905Y-125050057D02*
X117609524Y-125002438D01*
X117609524Y-125002438D02*
X117704762Y-124954819D01*
X117704762Y-124954819D02*
X117895238Y-124954819D01*
X117895238Y-124954819D02*
X117990476Y-125002438D01*
X117990476Y-125002438D02*
X118038095Y-125050057D01*
X118038095Y-125050057D02*
X118085714Y-125145295D01*
X118085714Y-125145295D02*
X118085714Y-125192914D01*
X118085714Y-125192914D02*
X118038095Y-125288152D01*
X118038095Y-125288152D02*
X117990476Y-125335771D01*
X117990476Y-125335771D02*
X117895238Y-125383390D01*
X117895238Y-125383390D02*
X117704762Y-125383390D01*
X117704762Y-125383390D02*
X117609524Y-125431009D01*
X117609524Y-125431009D02*
X117561905Y-125478628D01*
X117561905Y-125478628D02*
X117514286Y-125573866D01*
X117514286Y-125573866D02*
X117514286Y-125764342D01*
X117514286Y-125764342D02*
X117561905Y-125859580D01*
X117561905Y-125859580D02*
X117609524Y-125907200D01*
X117609524Y-125907200D02*
X117704762Y-125954819D01*
X117704762Y-125954819D02*
X117895238Y-125954819D01*
X117895238Y-125954819D02*
X117990476Y-125907200D01*
X117990476Y-125907200D02*
X118038095Y-125859580D01*
X118038095Y-125859580D02*
X118085714Y-125764342D01*
X118085714Y-125764342D02*
X118085714Y-125573866D01*
X118085714Y-125573866D02*
X118038095Y-125478628D01*
X118038095Y-125478628D02*
X117990476Y-125431009D01*
X117990476Y-125431009D02*
X117895238Y-125383390D01*
X214038095Y-112954819D02*
X214038095Y-113764342D01*
X214038095Y-113764342D02*
X214085714Y-113859580D01*
X214085714Y-113859580D02*
X214133333Y-113907200D01*
X214133333Y-113907200D02*
X214228571Y-113954819D01*
X214228571Y-113954819D02*
X214419047Y-113954819D01*
X214419047Y-113954819D02*
X214514285Y-113907200D01*
X214514285Y-113907200D02*
X214561904Y-113859580D01*
X214561904Y-113859580D02*
X214609523Y-113764342D01*
X214609523Y-113764342D02*
X214609523Y-112954819D01*
X215228571Y-113383390D02*
X215133333Y-113335771D01*
X215133333Y-113335771D02*
X215085714Y-113288152D01*
X215085714Y-113288152D02*
X215038095Y-113192914D01*
X215038095Y-113192914D02*
X215038095Y-113145295D01*
X215038095Y-113145295D02*
X215085714Y-113050057D01*
X215085714Y-113050057D02*
X215133333Y-113002438D01*
X215133333Y-113002438D02*
X215228571Y-112954819D01*
X215228571Y-112954819D02*
X215419047Y-112954819D01*
X215419047Y-112954819D02*
X215514285Y-113002438D01*
X215514285Y-113002438D02*
X215561904Y-113050057D01*
X215561904Y-113050057D02*
X215609523Y-113145295D01*
X215609523Y-113145295D02*
X215609523Y-113192914D01*
X215609523Y-113192914D02*
X215561904Y-113288152D01*
X215561904Y-113288152D02*
X215514285Y-113335771D01*
X215514285Y-113335771D02*
X215419047Y-113383390D01*
X215419047Y-113383390D02*
X215228571Y-113383390D01*
X215228571Y-113383390D02*
X215133333Y-113431009D01*
X215133333Y-113431009D02*
X215085714Y-113478628D01*
X215085714Y-113478628D02*
X215038095Y-113573866D01*
X215038095Y-113573866D02*
X215038095Y-113764342D01*
X215038095Y-113764342D02*
X215085714Y-113859580D01*
X215085714Y-113859580D02*
X215133333Y-113907200D01*
X215133333Y-113907200D02*
X215228571Y-113954819D01*
X215228571Y-113954819D02*
X215419047Y-113954819D01*
X215419047Y-113954819D02*
X215514285Y-113907200D01*
X215514285Y-113907200D02*
X215561904Y-113859580D01*
X215561904Y-113859580D02*
X215609523Y-113764342D01*
X215609523Y-113764342D02*
X215609523Y-113573866D01*
X215609523Y-113573866D02*
X215561904Y-113478628D01*
X215561904Y-113478628D02*
X215514285Y-113431009D01*
X215514285Y-113431009D02*
X215419047Y-113383390D01*
X221484819Y-111579166D02*
X221008628Y-111912499D01*
X221484819Y-112150594D02*
X220484819Y-112150594D01*
X220484819Y-112150594D02*
X220484819Y-111769642D01*
X220484819Y-111769642D02*
X220532438Y-111674404D01*
X220532438Y-111674404D02*
X220580057Y-111626785D01*
X220580057Y-111626785D02*
X220675295Y-111579166D01*
X220675295Y-111579166D02*
X220818152Y-111579166D01*
X220818152Y-111579166D02*
X220913390Y-111626785D01*
X220913390Y-111626785D02*
X220961009Y-111674404D01*
X220961009Y-111674404D02*
X221008628Y-111769642D01*
X221008628Y-111769642D02*
X221008628Y-112150594D01*
X220484819Y-110674404D02*
X220484819Y-111150594D01*
X220484819Y-111150594D02*
X220961009Y-111198213D01*
X220961009Y-111198213D02*
X220913390Y-111150594D01*
X220913390Y-111150594D02*
X220865771Y-111055356D01*
X220865771Y-111055356D02*
X220865771Y-110817261D01*
X220865771Y-110817261D02*
X220913390Y-110722023D01*
X220913390Y-110722023D02*
X220961009Y-110674404D01*
X220961009Y-110674404D02*
X221056247Y-110626785D01*
X221056247Y-110626785D02*
X221294342Y-110626785D01*
X221294342Y-110626785D02*
X221389580Y-110674404D01*
X221389580Y-110674404D02*
X221437200Y-110722023D01*
X221437200Y-110722023D02*
X221484819Y-110817261D01*
X221484819Y-110817261D02*
X221484819Y-111055356D01*
X221484819Y-111055356D02*
X221437200Y-111150594D01*
X221437200Y-111150594D02*
X221389580Y-111198213D01*
X158220832Y-97289580D02*
X158173213Y-97337200D01*
X158173213Y-97337200D02*
X158030356Y-97384819D01*
X158030356Y-97384819D02*
X157935118Y-97384819D01*
X157935118Y-97384819D02*
X157792261Y-97337200D01*
X157792261Y-97337200D02*
X157697023Y-97241961D01*
X157697023Y-97241961D02*
X157649404Y-97146723D01*
X157649404Y-97146723D02*
X157601785Y-96956247D01*
X157601785Y-96956247D02*
X157601785Y-96813390D01*
X157601785Y-96813390D02*
X157649404Y-96622914D01*
X157649404Y-96622914D02*
X157697023Y-96527676D01*
X157697023Y-96527676D02*
X157792261Y-96432438D01*
X157792261Y-96432438D02*
X157935118Y-96384819D01*
X157935118Y-96384819D02*
X158030356Y-96384819D01*
X158030356Y-96384819D02*
X158173213Y-96432438D01*
X158173213Y-96432438D02*
X158220832Y-96480057D01*
X158554166Y-96384819D02*
X159173213Y-96384819D01*
X159173213Y-96384819D02*
X158839880Y-96765771D01*
X158839880Y-96765771D02*
X158982737Y-96765771D01*
X158982737Y-96765771D02*
X159077975Y-96813390D01*
X159077975Y-96813390D02*
X159125594Y-96861009D01*
X159125594Y-96861009D02*
X159173213Y-96956247D01*
X159173213Y-96956247D02*
X159173213Y-97194342D01*
X159173213Y-97194342D02*
X159125594Y-97289580D01*
X159125594Y-97289580D02*
X159077975Y-97337200D01*
X159077975Y-97337200D02*
X158982737Y-97384819D01*
X158982737Y-97384819D02*
X158697023Y-97384819D01*
X158697023Y-97384819D02*
X158601785Y-97337200D01*
X158601785Y-97337200D02*
X158554166Y-97289580D01*
X187425476Y-119507200D02*
X187568333Y-119554819D01*
X187568333Y-119554819D02*
X187806428Y-119554819D01*
X187806428Y-119554819D02*
X187901666Y-119507200D01*
X187901666Y-119507200D02*
X187949285Y-119459580D01*
X187949285Y-119459580D02*
X187996904Y-119364342D01*
X187996904Y-119364342D02*
X187996904Y-119269104D01*
X187996904Y-119269104D02*
X187949285Y-119173866D01*
X187949285Y-119173866D02*
X187901666Y-119126247D01*
X187901666Y-119126247D02*
X187806428Y-119078628D01*
X187806428Y-119078628D02*
X187615952Y-119031009D01*
X187615952Y-119031009D02*
X187520714Y-118983390D01*
X187520714Y-118983390D02*
X187473095Y-118935771D01*
X187473095Y-118935771D02*
X187425476Y-118840533D01*
X187425476Y-118840533D02*
X187425476Y-118745295D01*
X187425476Y-118745295D02*
X187473095Y-118650057D01*
X187473095Y-118650057D02*
X187520714Y-118602438D01*
X187520714Y-118602438D02*
X187615952Y-118554819D01*
X187615952Y-118554819D02*
X187854047Y-118554819D01*
X187854047Y-118554819D02*
X187996904Y-118602438D01*
X188330238Y-118554819D02*
X188568333Y-119554819D01*
X188568333Y-119554819D02*
X188758809Y-118840533D01*
X188758809Y-118840533D02*
X188949285Y-119554819D01*
X188949285Y-119554819D02*
X189187381Y-118554819D01*
X190092142Y-119554819D02*
X189520714Y-119554819D01*
X189806428Y-119554819D02*
X189806428Y-118554819D01*
X189806428Y-118554819D02*
X189711190Y-118697676D01*
X189711190Y-118697676D02*
X189615952Y-118792914D01*
X189615952Y-118792914D02*
X189520714Y-118840533D01*
X190425476Y-118554819D02*
X191044523Y-118554819D01*
X191044523Y-118554819D02*
X190711190Y-118935771D01*
X190711190Y-118935771D02*
X190854047Y-118935771D01*
X190854047Y-118935771D02*
X190949285Y-118983390D01*
X190949285Y-118983390D02*
X190996904Y-119031009D01*
X190996904Y-119031009D02*
X191044523Y-119126247D01*
X191044523Y-119126247D02*
X191044523Y-119364342D01*
X191044523Y-119364342D02*
X190996904Y-119459580D01*
X190996904Y-119459580D02*
X190949285Y-119507200D01*
X190949285Y-119507200D02*
X190854047Y-119554819D01*
X190854047Y-119554819D02*
X190568333Y-119554819D01*
X190568333Y-119554819D02*
X190473095Y-119507200D01*
X190473095Y-119507200D02*
X190425476Y-119459580D01*
X110657142Y-127489580D02*
X110609523Y-127537200D01*
X110609523Y-127537200D02*
X110466666Y-127584819D01*
X110466666Y-127584819D02*
X110371428Y-127584819D01*
X110371428Y-127584819D02*
X110228571Y-127537200D01*
X110228571Y-127537200D02*
X110133333Y-127441961D01*
X110133333Y-127441961D02*
X110085714Y-127346723D01*
X110085714Y-127346723D02*
X110038095Y-127156247D01*
X110038095Y-127156247D02*
X110038095Y-127013390D01*
X110038095Y-127013390D02*
X110085714Y-126822914D01*
X110085714Y-126822914D02*
X110133333Y-126727676D01*
X110133333Y-126727676D02*
X110228571Y-126632438D01*
X110228571Y-126632438D02*
X110371428Y-126584819D01*
X110371428Y-126584819D02*
X110466666Y-126584819D01*
X110466666Y-126584819D02*
X110609523Y-126632438D01*
X110609523Y-126632438D02*
X110657142Y-126680057D01*
X111038095Y-126680057D02*
X111085714Y-126632438D01*
X111085714Y-126632438D02*
X111180952Y-126584819D01*
X111180952Y-126584819D02*
X111419047Y-126584819D01*
X111419047Y-126584819D02*
X111514285Y-126632438D01*
X111514285Y-126632438D02*
X111561904Y-126680057D01*
X111561904Y-126680057D02*
X111609523Y-126775295D01*
X111609523Y-126775295D02*
X111609523Y-126870533D01*
X111609523Y-126870533D02*
X111561904Y-127013390D01*
X111561904Y-127013390D02*
X110990476Y-127584819D01*
X110990476Y-127584819D02*
X111609523Y-127584819D01*
X112466666Y-126584819D02*
X112276190Y-126584819D01*
X112276190Y-126584819D02*
X112180952Y-126632438D01*
X112180952Y-126632438D02*
X112133333Y-126680057D01*
X112133333Y-126680057D02*
X112038095Y-126822914D01*
X112038095Y-126822914D02*
X111990476Y-127013390D01*
X111990476Y-127013390D02*
X111990476Y-127394342D01*
X111990476Y-127394342D02*
X112038095Y-127489580D01*
X112038095Y-127489580D02*
X112085714Y-127537200D01*
X112085714Y-127537200D02*
X112180952Y-127584819D01*
X112180952Y-127584819D02*
X112371428Y-127584819D01*
X112371428Y-127584819D02*
X112466666Y-127537200D01*
X112466666Y-127537200D02*
X112514285Y-127489580D01*
X112514285Y-127489580D02*
X112561904Y-127394342D01*
X112561904Y-127394342D02*
X112561904Y-127156247D01*
X112561904Y-127156247D02*
X112514285Y-127061009D01*
X112514285Y-127061009D02*
X112466666Y-127013390D01*
X112466666Y-127013390D02*
X112371428Y-126965771D01*
X112371428Y-126965771D02*
X112180952Y-126965771D01*
X112180952Y-126965771D02*
X112085714Y-127013390D01*
X112085714Y-127013390D02*
X112038095Y-127061009D01*
X112038095Y-127061009D02*
X111990476Y-127156247D01*
X187425476Y-127507200D02*
X187568333Y-127554819D01*
X187568333Y-127554819D02*
X187806428Y-127554819D01*
X187806428Y-127554819D02*
X187901666Y-127507200D01*
X187901666Y-127507200D02*
X187949285Y-127459580D01*
X187949285Y-127459580D02*
X187996904Y-127364342D01*
X187996904Y-127364342D02*
X187996904Y-127269104D01*
X187996904Y-127269104D02*
X187949285Y-127173866D01*
X187949285Y-127173866D02*
X187901666Y-127126247D01*
X187901666Y-127126247D02*
X187806428Y-127078628D01*
X187806428Y-127078628D02*
X187615952Y-127031009D01*
X187615952Y-127031009D02*
X187520714Y-126983390D01*
X187520714Y-126983390D02*
X187473095Y-126935771D01*
X187473095Y-126935771D02*
X187425476Y-126840533D01*
X187425476Y-126840533D02*
X187425476Y-126745295D01*
X187425476Y-126745295D02*
X187473095Y-126650057D01*
X187473095Y-126650057D02*
X187520714Y-126602438D01*
X187520714Y-126602438D02*
X187615952Y-126554819D01*
X187615952Y-126554819D02*
X187854047Y-126554819D01*
X187854047Y-126554819D02*
X187996904Y-126602438D01*
X188330238Y-126554819D02*
X188568333Y-127554819D01*
X188568333Y-127554819D02*
X188758809Y-126840533D01*
X188758809Y-126840533D02*
X188949285Y-127554819D01*
X188949285Y-127554819D02*
X189187381Y-126554819D01*
X190092142Y-127554819D02*
X189520714Y-127554819D01*
X189806428Y-127554819D02*
X189806428Y-126554819D01*
X189806428Y-126554819D02*
X189711190Y-126697676D01*
X189711190Y-126697676D02*
X189615952Y-126792914D01*
X189615952Y-126792914D02*
X189520714Y-126840533D01*
X190425476Y-126554819D02*
X191092142Y-126554819D01*
X191092142Y-126554819D02*
X190663571Y-127554819D01*
X160919643Y-69189580D02*
X160872024Y-69237200D01*
X160872024Y-69237200D02*
X160729167Y-69284819D01*
X160729167Y-69284819D02*
X160633929Y-69284819D01*
X160633929Y-69284819D02*
X160491072Y-69237200D01*
X160491072Y-69237200D02*
X160395834Y-69141961D01*
X160395834Y-69141961D02*
X160348215Y-69046723D01*
X160348215Y-69046723D02*
X160300596Y-68856247D01*
X160300596Y-68856247D02*
X160300596Y-68713390D01*
X160300596Y-68713390D02*
X160348215Y-68522914D01*
X160348215Y-68522914D02*
X160395834Y-68427676D01*
X160395834Y-68427676D02*
X160491072Y-68332438D01*
X160491072Y-68332438D02*
X160633929Y-68284819D01*
X160633929Y-68284819D02*
X160729167Y-68284819D01*
X160729167Y-68284819D02*
X160872024Y-68332438D01*
X160872024Y-68332438D02*
X160919643Y-68380057D01*
X161300596Y-68380057D02*
X161348215Y-68332438D01*
X161348215Y-68332438D02*
X161443453Y-68284819D01*
X161443453Y-68284819D02*
X161681548Y-68284819D01*
X161681548Y-68284819D02*
X161776786Y-68332438D01*
X161776786Y-68332438D02*
X161824405Y-68380057D01*
X161824405Y-68380057D02*
X161872024Y-68475295D01*
X161872024Y-68475295D02*
X161872024Y-68570533D01*
X161872024Y-68570533D02*
X161824405Y-68713390D01*
X161824405Y-68713390D02*
X161252977Y-69284819D01*
X161252977Y-69284819D02*
X161872024Y-69284819D01*
X162205358Y-68284819D02*
X162872024Y-68284819D01*
X162872024Y-68284819D02*
X162443453Y-69284819D01*
X205259580Y-119342857D02*
X205307200Y-119390476D01*
X205307200Y-119390476D02*
X205354819Y-119533333D01*
X205354819Y-119533333D02*
X205354819Y-119628571D01*
X205354819Y-119628571D02*
X205307200Y-119771428D01*
X205307200Y-119771428D02*
X205211961Y-119866666D01*
X205211961Y-119866666D02*
X205116723Y-119914285D01*
X205116723Y-119914285D02*
X204926247Y-119961904D01*
X204926247Y-119961904D02*
X204783390Y-119961904D01*
X204783390Y-119961904D02*
X204592914Y-119914285D01*
X204592914Y-119914285D02*
X204497676Y-119866666D01*
X204497676Y-119866666D02*
X204402438Y-119771428D01*
X204402438Y-119771428D02*
X204354819Y-119628571D01*
X204354819Y-119628571D02*
X204354819Y-119533333D01*
X204354819Y-119533333D02*
X204402438Y-119390476D01*
X204402438Y-119390476D02*
X204450057Y-119342857D01*
X205354819Y-118390476D02*
X205354819Y-118961904D01*
X205354819Y-118676190D02*
X204354819Y-118676190D01*
X204354819Y-118676190D02*
X204497676Y-118771428D01*
X204497676Y-118771428D02*
X204592914Y-118866666D01*
X204592914Y-118866666D02*
X204640533Y-118961904D01*
X204450057Y-118009523D02*
X204402438Y-117961904D01*
X204402438Y-117961904D02*
X204354819Y-117866666D01*
X204354819Y-117866666D02*
X204354819Y-117628571D01*
X204354819Y-117628571D02*
X204402438Y-117533333D01*
X204402438Y-117533333D02*
X204450057Y-117485714D01*
X204450057Y-117485714D02*
X204545295Y-117438095D01*
X204545295Y-117438095D02*
X204640533Y-117438095D01*
X204640533Y-117438095D02*
X204783390Y-117485714D01*
X204783390Y-117485714D02*
X205354819Y-118057142D01*
X205354819Y-118057142D02*
X205354819Y-117438095D01*
X170054819Y-135738094D02*
X169054819Y-135738094D01*
X169054819Y-135738094D02*
X169054819Y-135499999D01*
X169054819Y-135499999D02*
X169102438Y-135357142D01*
X169102438Y-135357142D02*
X169197676Y-135261904D01*
X169197676Y-135261904D02*
X169292914Y-135214285D01*
X169292914Y-135214285D02*
X169483390Y-135166666D01*
X169483390Y-135166666D02*
X169626247Y-135166666D01*
X169626247Y-135166666D02*
X169816723Y-135214285D01*
X169816723Y-135214285D02*
X169911961Y-135261904D01*
X169911961Y-135261904D02*
X170007200Y-135357142D01*
X170007200Y-135357142D02*
X170054819Y-135499999D01*
X170054819Y-135499999D02*
X170054819Y-135738094D01*
X169054819Y-134261904D02*
X169054819Y-134738094D01*
X169054819Y-134738094D02*
X169531009Y-134785713D01*
X169531009Y-134785713D02*
X169483390Y-134738094D01*
X169483390Y-134738094D02*
X169435771Y-134642856D01*
X169435771Y-134642856D02*
X169435771Y-134404761D01*
X169435771Y-134404761D02*
X169483390Y-134309523D01*
X169483390Y-134309523D02*
X169531009Y-134261904D01*
X169531009Y-134261904D02*
X169626247Y-134214285D01*
X169626247Y-134214285D02*
X169864342Y-134214285D01*
X169864342Y-134214285D02*
X169959580Y-134261904D01*
X169959580Y-134261904D02*
X170007200Y-134309523D01*
X170007200Y-134309523D02*
X170054819Y-134404761D01*
X170054819Y-134404761D02*
X170054819Y-134642856D01*
X170054819Y-134642856D02*
X170007200Y-134738094D01*
X170007200Y-134738094D02*
X169959580Y-134785713D01*
X196759580Y-123566666D02*
X196807200Y-123614285D01*
X196807200Y-123614285D02*
X196854819Y-123757142D01*
X196854819Y-123757142D02*
X196854819Y-123852380D01*
X196854819Y-123852380D02*
X196807200Y-123995237D01*
X196807200Y-123995237D02*
X196711961Y-124090475D01*
X196711961Y-124090475D02*
X196616723Y-124138094D01*
X196616723Y-124138094D02*
X196426247Y-124185713D01*
X196426247Y-124185713D02*
X196283390Y-124185713D01*
X196283390Y-124185713D02*
X196092914Y-124138094D01*
X196092914Y-124138094D02*
X195997676Y-124090475D01*
X195997676Y-124090475D02*
X195902438Y-123995237D01*
X195902438Y-123995237D02*
X195854819Y-123852380D01*
X195854819Y-123852380D02*
X195854819Y-123757142D01*
X195854819Y-123757142D02*
X195902438Y-123614285D01*
X195902438Y-123614285D02*
X195950057Y-123566666D01*
X195854819Y-123233332D02*
X195854819Y-122566666D01*
X195854819Y-122566666D02*
X196854819Y-122995237D01*
X105185714Y-115054819D02*
X105185714Y-114054819D01*
X105185714Y-114054819D02*
X105423809Y-114054819D01*
X105423809Y-114054819D02*
X105566666Y-114102438D01*
X105566666Y-114102438D02*
X105661904Y-114197676D01*
X105661904Y-114197676D02*
X105709523Y-114292914D01*
X105709523Y-114292914D02*
X105757142Y-114483390D01*
X105757142Y-114483390D02*
X105757142Y-114626247D01*
X105757142Y-114626247D02*
X105709523Y-114816723D01*
X105709523Y-114816723D02*
X105661904Y-114911961D01*
X105661904Y-114911961D02*
X105566666Y-115007200D01*
X105566666Y-115007200D02*
X105423809Y-115054819D01*
X105423809Y-115054819D02*
X105185714Y-115054819D01*
X106709523Y-115054819D02*
X106138095Y-115054819D01*
X106423809Y-115054819D02*
X106423809Y-114054819D01*
X106423809Y-114054819D02*
X106328571Y-114197676D01*
X106328571Y-114197676D02*
X106233333Y-114292914D01*
X106233333Y-114292914D02*
X106138095Y-114340533D01*
X107090476Y-114150057D02*
X107138095Y-114102438D01*
X107138095Y-114102438D02*
X107233333Y-114054819D01*
X107233333Y-114054819D02*
X107471428Y-114054819D01*
X107471428Y-114054819D02*
X107566666Y-114102438D01*
X107566666Y-114102438D02*
X107614285Y-114150057D01*
X107614285Y-114150057D02*
X107661904Y-114245295D01*
X107661904Y-114245295D02*
X107661904Y-114340533D01*
X107661904Y-114340533D02*
X107614285Y-114483390D01*
X107614285Y-114483390D02*
X107042857Y-115054819D01*
X107042857Y-115054819D02*
X107661904Y-115054819D01*
X131557142Y-124754819D02*
X131223809Y-124278628D01*
X130985714Y-124754819D02*
X130985714Y-123754819D01*
X130985714Y-123754819D02*
X131366666Y-123754819D01*
X131366666Y-123754819D02*
X131461904Y-123802438D01*
X131461904Y-123802438D02*
X131509523Y-123850057D01*
X131509523Y-123850057D02*
X131557142Y-123945295D01*
X131557142Y-123945295D02*
X131557142Y-124088152D01*
X131557142Y-124088152D02*
X131509523Y-124183390D01*
X131509523Y-124183390D02*
X131461904Y-124231009D01*
X131461904Y-124231009D02*
X131366666Y-124278628D01*
X131366666Y-124278628D02*
X130985714Y-124278628D01*
X132509523Y-124754819D02*
X131938095Y-124754819D01*
X132223809Y-124754819D02*
X132223809Y-123754819D01*
X132223809Y-123754819D02*
X132128571Y-123897676D01*
X132128571Y-123897676D02*
X132033333Y-123992914D01*
X132033333Y-123992914D02*
X131938095Y-124040533D01*
X132842857Y-123754819D02*
X133509523Y-123754819D01*
X133509523Y-123754819D02*
X133080952Y-124754819D01*
X184054819Y-132514285D02*
X183054819Y-132514285D01*
X183054819Y-132514285D02*
X183054819Y-132276190D01*
X183054819Y-132276190D02*
X183102438Y-132133333D01*
X183102438Y-132133333D02*
X183197676Y-132038095D01*
X183197676Y-132038095D02*
X183292914Y-131990476D01*
X183292914Y-131990476D02*
X183483390Y-131942857D01*
X183483390Y-131942857D02*
X183626247Y-131942857D01*
X183626247Y-131942857D02*
X183816723Y-131990476D01*
X183816723Y-131990476D02*
X183911961Y-132038095D01*
X183911961Y-132038095D02*
X184007200Y-132133333D01*
X184007200Y-132133333D02*
X184054819Y-132276190D01*
X184054819Y-132276190D02*
X184054819Y-132514285D01*
X184054819Y-130990476D02*
X184054819Y-131561904D01*
X184054819Y-131276190D02*
X183054819Y-131276190D01*
X183054819Y-131276190D02*
X183197676Y-131371428D01*
X183197676Y-131371428D02*
X183292914Y-131466666D01*
X183292914Y-131466666D02*
X183340533Y-131561904D01*
X183054819Y-130657142D02*
X183054819Y-129990476D01*
X183054819Y-129990476D02*
X184054819Y-130419047D01*
X132257142Y-131059580D02*
X132209523Y-131107200D01*
X132209523Y-131107200D02*
X132066666Y-131154819D01*
X132066666Y-131154819D02*
X131971428Y-131154819D01*
X131971428Y-131154819D02*
X131828571Y-131107200D01*
X131828571Y-131107200D02*
X131733333Y-131011961D01*
X131733333Y-131011961D02*
X131685714Y-130916723D01*
X131685714Y-130916723D02*
X131638095Y-130726247D01*
X131638095Y-130726247D02*
X131638095Y-130583390D01*
X131638095Y-130583390D02*
X131685714Y-130392914D01*
X131685714Y-130392914D02*
X131733333Y-130297676D01*
X131733333Y-130297676D02*
X131828571Y-130202438D01*
X131828571Y-130202438D02*
X131971428Y-130154819D01*
X131971428Y-130154819D02*
X132066666Y-130154819D01*
X132066666Y-130154819D02*
X132209523Y-130202438D01*
X132209523Y-130202438D02*
X132257142Y-130250057D01*
X132638095Y-130250057D02*
X132685714Y-130202438D01*
X132685714Y-130202438D02*
X132780952Y-130154819D01*
X132780952Y-130154819D02*
X133019047Y-130154819D01*
X133019047Y-130154819D02*
X133114285Y-130202438D01*
X133114285Y-130202438D02*
X133161904Y-130250057D01*
X133161904Y-130250057D02*
X133209523Y-130345295D01*
X133209523Y-130345295D02*
X133209523Y-130440533D01*
X133209523Y-130440533D02*
X133161904Y-130583390D01*
X133161904Y-130583390D02*
X132590476Y-131154819D01*
X132590476Y-131154819D02*
X133209523Y-131154819D01*
X134066666Y-130488152D02*
X134066666Y-131154819D01*
X133828571Y-130107200D02*
X133590476Y-130821485D01*
X133590476Y-130821485D02*
X134209523Y-130821485D01*
X119157142Y-114754819D02*
X118823809Y-114278628D01*
X118585714Y-114754819D02*
X118585714Y-113754819D01*
X118585714Y-113754819D02*
X118966666Y-113754819D01*
X118966666Y-113754819D02*
X119061904Y-113802438D01*
X119061904Y-113802438D02*
X119109523Y-113850057D01*
X119109523Y-113850057D02*
X119157142Y-113945295D01*
X119157142Y-113945295D02*
X119157142Y-114088152D01*
X119157142Y-114088152D02*
X119109523Y-114183390D01*
X119109523Y-114183390D02*
X119061904Y-114231009D01*
X119061904Y-114231009D02*
X118966666Y-114278628D01*
X118966666Y-114278628D02*
X118585714Y-114278628D01*
X120109523Y-114754819D02*
X119538095Y-114754819D01*
X119823809Y-114754819D02*
X119823809Y-113754819D01*
X119823809Y-113754819D02*
X119728571Y-113897676D01*
X119728571Y-113897676D02*
X119633333Y-113992914D01*
X119633333Y-113992914D02*
X119538095Y-114040533D01*
X121061904Y-114754819D02*
X120490476Y-114754819D01*
X120776190Y-114754819D02*
X120776190Y-113754819D01*
X120776190Y-113754819D02*
X120680952Y-113897676D01*
X120680952Y-113897676D02*
X120585714Y-113992914D01*
X120585714Y-113992914D02*
X120490476Y-114040533D01*
X209154761Y-132450057D02*
X209059523Y-132402438D01*
X209059523Y-132402438D02*
X208964285Y-132307200D01*
X208964285Y-132307200D02*
X208821428Y-132164342D01*
X208821428Y-132164342D02*
X208726190Y-132116723D01*
X208726190Y-132116723D02*
X208630952Y-132116723D01*
X208678571Y-132354819D02*
X208583333Y-132307200D01*
X208583333Y-132307200D02*
X208488095Y-132211961D01*
X208488095Y-132211961D02*
X208440476Y-132021485D01*
X208440476Y-132021485D02*
X208440476Y-131688152D01*
X208440476Y-131688152D02*
X208488095Y-131497676D01*
X208488095Y-131497676D02*
X208583333Y-131402438D01*
X208583333Y-131402438D02*
X208678571Y-131354819D01*
X208678571Y-131354819D02*
X208869047Y-131354819D01*
X208869047Y-131354819D02*
X208964285Y-131402438D01*
X208964285Y-131402438D02*
X209059523Y-131497676D01*
X209059523Y-131497676D02*
X209107142Y-131688152D01*
X209107142Y-131688152D02*
X209107142Y-132021485D01*
X209107142Y-132021485D02*
X209059523Y-132211961D01*
X209059523Y-132211961D02*
X208964285Y-132307200D01*
X208964285Y-132307200D02*
X208869047Y-132354819D01*
X208869047Y-132354819D02*
X208678571Y-132354819D01*
X209964285Y-131354819D02*
X209773809Y-131354819D01*
X209773809Y-131354819D02*
X209678571Y-131402438D01*
X209678571Y-131402438D02*
X209630952Y-131450057D01*
X209630952Y-131450057D02*
X209535714Y-131592914D01*
X209535714Y-131592914D02*
X209488095Y-131783390D01*
X209488095Y-131783390D02*
X209488095Y-132164342D01*
X209488095Y-132164342D02*
X209535714Y-132259580D01*
X209535714Y-132259580D02*
X209583333Y-132307200D01*
X209583333Y-132307200D02*
X209678571Y-132354819D01*
X209678571Y-132354819D02*
X209869047Y-132354819D01*
X209869047Y-132354819D02*
X209964285Y-132307200D01*
X209964285Y-132307200D02*
X210011904Y-132259580D01*
X210011904Y-132259580D02*
X210059523Y-132164342D01*
X210059523Y-132164342D02*
X210059523Y-131926247D01*
X210059523Y-131926247D02*
X210011904Y-131831009D01*
X210011904Y-131831009D02*
X209964285Y-131783390D01*
X209964285Y-131783390D02*
X209869047Y-131735771D01*
X209869047Y-131735771D02*
X209678571Y-131735771D01*
X209678571Y-131735771D02*
X209583333Y-131783390D01*
X209583333Y-131783390D02*
X209535714Y-131831009D01*
X209535714Y-131831009D02*
X209488095Y-131926247D01*
D11*
X144666666Y-55207419D02*
X144666666Y-55921704D01*
X144666666Y-55921704D02*
X144619047Y-56064561D01*
X144619047Y-56064561D02*
X144523809Y-56159800D01*
X144523809Y-56159800D02*
X144380952Y-56207419D01*
X144380952Y-56207419D02*
X144285714Y-56207419D01*
X145047619Y-55207419D02*
X145714285Y-55207419D01*
X145714285Y-55207419D02*
X145285714Y-56207419D01*
D10*
X180954819Y-126942857D02*
X180478628Y-127276190D01*
X180954819Y-127514285D02*
X179954819Y-127514285D01*
X179954819Y-127514285D02*
X179954819Y-127133333D01*
X179954819Y-127133333D02*
X180002438Y-127038095D01*
X180002438Y-127038095D02*
X180050057Y-126990476D01*
X180050057Y-126990476D02*
X180145295Y-126942857D01*
X180145295Y-126942857D02*
X180288152Y-126942857D01*
X180288152Y-126942857D02*
X180383390Y-126990476D01*
X180383390Y-126990476D02*
X180431009Y-127038095D01*
X180431009Y-127038095D02*
X180478628Y-127133333D01*
X180478628Y-127133333D02*
X180478628Y-127514285D01*
X180050057Y-126561904D02*
X180002438Y-126514285D01*
X180002438Y-126514285D02*
X179954819Y-126419047D01*
X179954819Y-126419047D02*
X179954819Y-126180952D01*
X179954819Y-126180952D02*
X180002438Y-126085714D01*
X180002438Y-126085714D02*
X180050057Y-126038095D01*
X180050057Y-126038095D02*
X180145295Y-125990476D01*
X180145295Y-125990476D02*
X180240533Y-125990476D01*
X180240533Y-125990476D02*
X180383390Y-126038095D01*
X180383390Y-126038095D02*
X180954819Y-126609523D01*
X180954819Y-126609523D02*
X180954819Y-125990476D01*
X179954819Y-125085714D02*
X179954819Y-125561904D01*
X179954819Y-125561904D02*
X180431009Y-125609523D01*
X180431009Y-125609523D02*
X180383390Y-125561904D01*
X180383390Y-125561904D02*
X180335771Y-125466666D01*
X180335771Y-125466666D02*
X180335771Y-125228571D01*
X180335771Y-125228571D02*
X180383390Y-125133333D01*
X180383390Y-125133333D02*
X180431009Y-125085714D01*
X180431009Y-125085714D02*
X180526247Y-125038095D01*
X180526247Y-125038095D02*
X180764342Y-125038095D01*
X180764342Y-125038095D02*
X180859580Y-125085714D01*
X180859580Y-125085714D02*
X180907200Y-125133333D01*
X180907200Y-125133333D02*
X180954819Y-125228571D01*
X180954819Y-125228571D02*
X180954819Y-125466666D01*
X180954819Y-125466666D02*
X180907200Y-125561904D01*
X180907200Y-125561904D02*
X180859580Y-125609523D01*
X205458330Y-135249579D02*
X205410711Y-135297199D01*
X205410711Y-135297199D02*
X205267854Y-135344818D01*
X205267854Y-135344818D02*
X205172616Y-135344818D01*
X205172616Y-135344818D02*
X205029759Y-135297199D01*
X205029759Y-135297199D02*
X204934521Y-135201960D01*
X204934521Y-135201960D02*
X204886902Y-135106722D01*
X204886902Y-135106722D02*
X204839283Y-134916246D01*
X204839283Y-134916246D02*
X204839283Y-134773389D01*
X204839283Y-134773389D02*
X204886902Y-134582913D01*
X204886902Y-134582913D02*
X204934521Y-134487675D01*
X204934521Y-134487675D02*
X205029759Y-134392437D01*
X205029759Y-134392437D02*
X205172616Y-134344818D01*
X205172616Y-134344818D02*
X205267854Y-134344818D01*
X205267854Y-134344818D02*
X205410711Y-134392437D01*
X205410711Y-134392437D02*
X205458330Y-134440056D01*
X205934521Y-135344818D02*
X206124997Y-135344818D01*
X206124997Y-135344818D02*
X206220235Y-135297199D01*
X206220235Y-135297199D02*
X206267854Y-135249579D01*
X206267854Y-135249579D02*
X206363092Y-135106722D01*
X206363092Y-135106722D02*
X206410711Y-134916246D01*
X206410711Y-134916246D02*
X206410711Y-134535294D01*
X206410711Y-134535294D02*
X206363092Y-134440056D01*
X206363092Y-134440056D02*
X206315473Y-134392437D01*
X206315473Y-134392437D02*
X206220235Y-134344818D01*
X206220235Y-134344818D02*
X206029759Y-134344818D01*
X206029759Y-134344818D02*
X205934521Y-134392437D01*
X205934521Y-134392437D02*
X205886902Y-134440056D01*
X205886902Y-134440056D02*
X205839283Y-134535294D01*
X205839283Y-134535294D02*
X205839283Y-134773389D01*
X205839283Y-134773389D02*
X205886902Y-134868627D01*
X205886902Y-134868627D02*
X205934521Y-134916246D01*
X205934521Y-134916246D02*
X206029759Y-134963865D01*
X206029759Y-134963865D02*
X206220235Y-134963865D01*
X206220235Y-134963865D02*
X206315473Y-134916246D01*
X206315473Y-134916246D02*
X206363092Y-134868627D01*
X206363092Y-134868627D02*
X206410711Y-134773389D01*
X134435714Y-57054819D02*
X134435714Y-56054819D01*
X134435714Y-56054819D02*
X134673809Y-56054819D01*
X134673809Y-56054819D02*
X134816666Y-56102438D01*
X134816666Y-56102438D02*
X134911904Y-56197676D01*
X134911904Y-56197676D02*
X134959523Y-56292914D01*
X134959523Y-56292914D02*
X135007142Y-56483390D01*
X135007142Y-56483390D02*
X135007142Y-56626247D01*
X135007142Y-56626247D02*
X134959523Y-56816723D01*
X134959523Y-56816723D02*
X134911904Y-56911961D01*
X134911904Y-56911961D02*
X134816666Y-57007200D01*
X134816666Y-57007200D02*
X134673809Y-57054819D01*
X134673809Y-57054819D02*
X134435714Y-57054819D01*
X135959523Y-57054819D02*
X135388095Y-57054819D01*
X135673809Y-57054819D02*
X135673809Y-56054819D01*
X135673809Y-56054819D02*
X135578571Y-56197676D01*
X135578571Y-56197676D02*
X135483333Y-56292914D01*
X135483333Y-56292914D02*
X135388095Y-56340533D01*
X136816666Y-56388152D02*
X136816666Y-57054819D01*
X136578571Y-56007200D02*
X136340476Y-56721485D01*
X136340476Y-56721485D02*
X136959523Y-56721485D01*
X201054819Y-116591904D02*
X201864342Y-116591904D01*
X201864342Y-116591904D02*
X201959580Y-116544285D01*
X201959580Y-116544285D02*
X202007200Y-116496666D01*
X202007200Y-116496666D02*
X202054819Y-116401428D01*
X202054819Y-116401428D02*
X202054819Y-116210952D01*
X202054819Y-116210952D02*
X202007200Y-116115714D01*
X202007200Y-116115714D02*
X201959580Y-116068095D01*
X201959580Y-116068095D02*
X201864342Y-116020476D01*
X201864342Y-116020476D02*
X201054819Y-116020476D01*
X201054819Y-115068095D02*
X201054819Y-115544285D01*
X201054819Y-115544285D02*
X201531009Y-115591904D01*
X201531009Y-115591904D02*
X201483390Y-115544285D01*
X201483390Y-115544285D02*
X201435771Y-115449047D01*
X201435771Y-115449047D02*
X201435771Y-115210952D01*
X201435771Y-115210952D02*
X201483390Y-115115714D01*
X201483390Y-115115714D02*
X201531009Y-115068095D01*
X201531009Y-115068095D02*
X201626247Y-115020476D01*
X201626247Y-115020476D02*
X201864342Y-115020476D01*
X201864342Y-115020476D02*
X201959580Y-115068095D01*
X201959580Y-115068095D02*
X202007200Y-115115714D01*
X202007200Y-115115714D02*
X202054819Y-115210952D01*
X202054819Y-115210952D02*
X202054819Y-115449047D01*
X202054819Y-115449047D02*
X202007200Y-115544285D01*
X202007200Y-115544285D02*
X201959580Y-115591904D01*
X127757142Y-125154819D02*
X127423809Y-124678628D01*
X127185714Y-125154819D02*
X127185714Y-124154819D01*
X127185714Y-124154819D02*
X127566666Y-124154819D01*
X127566666Y-124154819D02*
X127661904Y-124202438D01*
X127661904Y-124202438D02*
X127709523Y-124250057D01*
X127709523Y-124250057D02*
X127757142Y-124345295D01*
X127757142Y-124345295D02*
X127757142Y-124488152D01*
X127757142Y-124488152D02*
X127709523Y-124583390D01*
X127709523Y-124583390D02*
X127661904Y-124631009D01*
X127661904Y-124631009D02*
X127566666Y-124678628D01*
X127566666Y-124678628D02*
X127185714Y-124678628D01*
X128138095Y-124250057D02*
X128185714Y-124202438D01*
X128185714Y-124202438D02*
X128280952Y-124154819D01*
X128280952Y-124154819D02*
X128519047Y-124154819D01*
X128519047Y-124154819D02*
X128614285Y-124202438D01*
X128614285Y-124202438D02*
X128661904Y-124250057D01*
X128661904Y-124250057D02*
X128709523Y-124345295D01*
X128709523Y-124345295D02*
X128709523Y-124440533D01*
X128709523Y-124440533D02*
X128661904Y-124583390D01*
X128661904Y-124583390D02*
X128090476Y-125154819D01*
X128090476Y-125154819D02*
X128709523Y-125154819D01*
X129090476Y-124250057D02*
X129138095Y-124202438D01*
X129138095Y-124202438D02*
X129233333Y-124154819D01*
X129233333Y-124154819D02*
X129471428Y-124154819D01*
X129471428Y-124154819D02*
X129566666Y-124202438D01*
X129566666Y-124202438D02*
X129614285Y-124250057D01*
X129614285Y-124250057D02*
X129661904Y-124345295D01*
X129661904Y-124345295D02*
X129661904Y-124440533D01*
X129661904Y-124440533D02*
X129614285Y-124583390D01*
X129614285Y-124583390D02*
X129042857Y-125154819D01*
X129042857Y-125154819D02*
X129661904Y-125154819D01*
X200728020Y-107549265D02*
X200728020Y-106549265D01*
X200728020Y-106549265D02*
X200966115Y-106549265D01*
X200966115Y-106549265D02*
X201108972Y-106596884D01*
X201108972Y-106596884D02*
X201204210Y-106692122D01*
X201204210Y-106692122D02*
X201251829Y-106787360D01*
X201251829Y-106787360D02*
X201299448Y-106977836D01*
X201299448Y-106977836D02*
X201299448Y-107120693D01*
X201299448Y-107120693D02*
X201251829Y-107311169D01*
X201251829Y-107311169D02*
X201204210Y-107406407D01*
X201204210Y-107406407D02*
X201108972Y-107501646D01*
X201108972Y-107501646D02*
X200966115Y-107549265D01*
X200966115Y-107549265D02*
X200728020Y-107549265D01*
X201680401Y-106644503D02*
X201728020Y-106596884D01*
X201728020Y-106596884D02*
X201823258Y-106549265D01*
X201823258Y-106549265D02*
X202061353Y-106549265D01*
X202061353Y-106549265D02*
X202156591Y-106596884D01*
X202156591Y-106596884D02*
X202204210Y-106644503D01*
X202204210Y-106644503D02*
X202251829Y-106739741D01*
X202251829Y-106739741D02*
X202251829Y-106834979D01*
X202251829Y-106834979D02*
X202204210Y-106977836D01*
X202204210Y-106977836D02*
X201632782Y-107549265D01*
X201632782Y-107549265D02*
X202251829Y-107549265D01*
X133424819Y-135130357D02*
X132948628Y-135463690D01*
X133424819Y-135701785D02*
X132424819Y-135701785D01*
X132424819Y-135701785D02*
X132424819Y-135320833D01*
X132424819Y-135320833D02*
X132472438Y-135225595D01*
X132472438Y-135225595D02*
X132520057Y-135177976D01*
X132520057Y-135177976D02*
X132615295Y-135130357D01*
X132615295Y-135130357D02*
X132758152Y-135130357D01*
X132758152Y-135130357D02*
X132853390Y-135177976D01*
X132853390Y-135177976D02*
X132901009Y-135225595D01*
X132901009Y-135225595D02*
X132948628Y-135320833D01*
X132948628Y-135320833D02*
X132948628Y-135701785D01*
X133424819Y-134177976D02*
X133424819Y-134749404D01*
X133424819Y-134463690D02*
X132424819Y-134463690D01*
X132424819Y-134463690D02*
X132567676Y-134558928D01*
X132567676Y-134558928D02*
X132662914Y-134654166D01*
X132662914Y-134654166D02*
X132710533Y-134749404D01*
X132424819Y-133320833D02*
X132424819Y-133511309D01*
X132424819Y-133511309D02*
X132472438Y-133606547D01*
X132472438Y-133606547D02*
X132520057Y-133654166D01*
X132520057Y-133654166D02*
X132662914Y-133749404D01*
X132662914Y-133749404D02*
X132853390Y-133797023D01*
X132853390Y-133797023D02*
X133234342Y-133797023D01*
X133234342Y-133797023D02*
X133329580Y-133749404D01*
X133329580Y-133749404D02*
X133377200Y-133701785D01*
X133377200Y-133701785D02*
X133424819Y-133606547D01*
X133424819Y-133606547D02*
X133424819Y-133416071D01*
X133424819Y-133416071D02*
X133377200Y-133320833D01*
X133377200Y-133320833D02*
X133329580Y-133273214D01*
X133329580Y-133273214D02*
X133234342Y-133225595D01*
X133234342Y-133225595D02*
X132996247Y-133225595D01*
X132996247Y-133225595D02*
X132901009Y-133273214D01*
X132901009Y-133273214D02*
X132853390Y-133320833D01*
X132853390Y-133320833D02*
X132805771Y-133416071D01*
X132805771Y-133416071D02*
X132805771Y-133606547D01*
X132805771Y-133606547D02*
X132853390Y-133701785D01*
X132853390Y-133701785D02*
X132901009Y-133749404D01*
X132901009Y-133749404D02*
X132996247Y-133797023D01*
X116333333Y-116824819D02*
X116000000Y-116348628D01*
X115761905Y-116824819D02*
X115761905Y-115824819D01*
X115761905Y-115824819D02*
X116142857Y-115824819D01*
X116142857Y-115824819D02*
X116238095Y-115872438D01*
X116238095Y-115872438D02*
X116285714Y-115920057D01*
X116285714Y-115920057D02*
X116333333Y-116015295D01*
X116333333Y-116015295D02*
X116333333Y-116158152D01*
X116333333Y-116158152D02*
X116285714Y-116253390D01*
X116285714Y-116253390D02*
X116238095Y-116301009D01*
X116238095Y-116301009D02*
X116142857Y-116348628D01*
X116142857Y-116348628D02*
X115761905Y-116348628D01*
X116714286Y-115920057D02*
X116761905Y-115872438D01*
X116761905Y-115872438D02*
X116857143Y-115824819D01*
X116857143Y-115824819D02*
X117095238Y-115824819D01*
X117095238Y-115824819D02*
X117190476Y-115872438D01*
X117190476Y-115872438D02*
X117238095Y-115920057D01*
X117238095Y-115920057D02*
X117285714Y-116015295D01*
X117285714Y-116015295D02*
X117285714Y-116110533D01*
X117285714Y-116110533D02*
X117238095Y-116253390D01*
X117238095Y-116253390D02*
X116666667Y-116824819D01*
X116666667Y-116824819D02*
X117285714Y-116824819D01*
X185459580Y-137066666D02*
X185507200Y-137114285D01*
X185507200Y-137114285D02*
X185554819Y-137257142D01*
X185554819Y-137257142D02*
X185554819Y-137352380D01*
X185554819Y-137352380D02*
X185507200Y-137495237D01*
X185507200Y-137495237D02*
X185411961Y-137590475D01*
X185411961Y-137590475D02*
X185316723Y-137638094D01*
X185316723Y-137638094D02*
X185126247Y-137685713D01*
X185126247Y-137685713D02*
X184983390Y-137685713D01*
X184983390Y-137685713D02*
X184792914Y-137638094D01*
X184792914Y-137638094D02*
X184697676Y-137590475D01*
X184697676Y-137590475D02*
X184602438Y-137495237D01*
X184602438Y-137495237D02*
X184554819Y-137352380D01*
X184554819Y-137352380D02*
X184554819Y-137257142D01*
X184554819Y-137257142D02*
X184602438Y-137114285D01*
X184602438Y-137114285D02*
X184650057Y-137066666D01*
X185554819Y-136114285D02*
X185554819Y-136685713D01*
X185554819Y-136399999D02*
X184554819Y-136399999D01*
X184554819Y-136399999D02*
X184697676Y-136495237D01*
X184697676Y-136495237D02*
X184792914Y-136590475D01*
X184792914Y-136590475D02*
X184840533Y-136685713D01*
X177454819Y-132842857D02*
X176978628Y-133176190D01*
X177454819Y-133414285D02*
X176454819Y-133414285D01*
X176454819Y-133414285D02*
X176454819Y-133033333D01*
X176454819Y-133033333D02*
X176502438Y-132938095D01*
X176502438Y-132938095D02*
X176550057Y-132890476D01*
X176550057Y-132890476D02*
X176645295Y-132842857D01*
X176645295Y-132842857D02*
X176788152Y-132842857D01*
X176788152Y-132842857D02*
X176883390Y-132890476D01*
X176883390Y-132890476D02*
X176931009Y-132938095D01*
X176931009Y-132938095D02*
X176978628Y-133033333D01*
X176978628Y-133033333D02*
X176978628Y-133414285D01*
X176550057Y-132461904D02*
X176502438Y-132414285D01*
X176502438Y-132414285D02*
X176454819Y-132319047D01*
X176454819Y-132319047D02*
X176454819Y-132080952D01*
X176454819Y-132080952D02*
X176502438Y-131985714D01*
X176502438Y-131985714D02*
X176550057Y-131938095D01*
X176550057Y-131938095D02*
X176645295Y-131890476D01*
X176645295Y-131890476D02*
X176740533Y-131890476D01*
X176740533Y-131890476D02*
X176883390Y-131938095D01*
X176883390Y-131938095D02*
X177454819Y-132509523D01*
X177454819Y-132509523D02*
X177454819Y-131890476D01*
X176454819Y-131557142D02*
X176454819Y-130890476D01*
X176454819Y-130890476D02*
X177454819Y-131319047D01*
X98157142Y-106759580D02*
X98109523Y-106807200D01*
X98109523Y-106807200D02*
X97966666Y-106854819D01*
X97966666Y-106854819D02*
X97871428Y-106854819D01*
X97871428Y-106854819D02*
X97728571Y-106807200D01*
X97728571Y-106807200D02*
X97633333Y-106711961D01*
X97633333Y-106711961D02*
X97585714Y-106616723D01*
X97585714Y-106616723D02*
X97538095Y-106426247D01*
X97538095Y-106426247D02*
X97538095Y-106283390D01*
X97538095Y-106283390D02*
X97585714Y-106092914D01*
X97585714Y-106092914D02*
X97633333Y-105997676D01*
X97633333Y-105997676D02*
X97728571Y-105902438D01*
X97728571Y-105902438D02*
X97871428Y-105854819D01*
X97871428Y-105854819D02*
X97966666Y-105854819D01*
X97966666Y-105854819D02*
X98109523Y-105902438D01*
X98109523Y-105902438D02*
X98157142Y-105950057D01*
X98538095Y-105950057D02*
X98585714Y-105902438D01*
X98585714Y-105902438D02*
X98680952Y-105854819D01*
X98680952Y-105854819D02*
X98919047Y-105854819D01*
X98919047Y-105854819D02*
X99014285Y-105902438D01*
X99014285Y-105902438D02*
X99061904Y-105950057D01*
X99061904Y-105950057D02*
X99109523Y-106045295D01*
X99109523Y-106045295D02*
X99109523Y-106140533D01*
X99109523Y-106140533D02*
X99061904Y-106283390D01*
X99061904Y-106283390D02*
X98490476Y-106854819D01*
X98490476Y-106854819D02*
X99109523Y-106854819D01*
X100061904Y-106854819D02*
X99490476Y-106854819D01*
X99776190Y-106854819D02*
X99776190Y-105854819D01*
X99776190Y-105854819D02*
X99680952Y-105997676D01*
X99680952Y-105997676D02*
X99585714Y-106092914D01*
X99585714Y-106092914D02*
X99490476Y-106140533D01*
X149991667Y-102322200D02*
X150134524Y-102369819D01*
X150134524Y-102369819D02*
X150372619Y-102369819D01*
X150372619Y-102369819D02*
X150467857Y-102322200D01*
X150467857Y-102322200D02*
X150515476Y-102274580D01*
X150515476Y-102274580D02*
X150563095Y-102179342D01*
X150563095Y-102179342D02*
X150563095Y-102084104D01*
X150563095Y-102084104D02*
X150515476Y-101988866D01*
X150515476Y-101988866D02*
X150467857Y-101941247D01*
X150467857Y-101941247D02*
X150372619Y-101893628D01*
X150372619Y-101893628D02*
X150182143Y-101846009D01*
X150182143Y-101846009D02*
X150086905Y-101798390D01*
X150086905Y-101798390D02*
X150039286Y-101750771D01*
X150039286Y-101750771D02*
X149991667Y-101655533D01*
X149991667Y-101655533D02*
X149991667Y-101560295D01*
X149991667Y-101560295D02*
X150039286Y-101465057D01*
X150039286Y-101465057D02*
X150086905Y-101417438D01*
X150086905Y-101417438D02*
X150182143Y-101369819D01*
X150182143Y-101369819D02*
X150420238Y-101369819D01*
X150420238Y-101369819D02*
X150563095Y-101417438D01*
X150896429Y-101369819D02*
X151134524Y-102369819D01*
X151134524Y-102369819D02*
X151325000Y-101655533D01*
X151325000Y-101655533D02*
X151515476Y-102369819D01*
X151515476Y-102369819D02*
X151753572Y-101369819D01*
X152658333Y-102369819D02*
X152086905Y-102369819D01*
X152372619Y-102369819D02*
X152372619Y-101369819D01*
X152372619Y-101369819D02*
X152277381Y-101512676D01*
X152277381Y-101512676D02*
X152182143Y-101607914D01*
X152182143Y-101607914D02*
X152086905Y-101655533D01*
X110204761Y-117050057D02*
X110109523Y-117002438D01*
X110109523Y-117002438D02*
X110014285Y-116907200D01*
X110014285Y-116907200D02*
X109871428Y-116764342D01*
X109871428Y-116764342D02*
X109776190Y-116716723D01*
X109776190Y-116716723D02*
X109680952Y-116716723D01*
X109728571Y-116954819D02*
X109633333Y-116907200D01*
X109633333Y-116907200D02*
X109538095Y-116811961D01*
X109538095Y-116811961D02*
X109490476Y-116621485D01*
X109490476Y-116621485D02*
X109490476Y-116288152D01*
X109490476Y-116288152D02*
X109538095Y-116097676D01*
X109538095Y-116097676D02*
X109633333Y-116002438D01*
X109633333Y-116002438D02*
X109728571Y-115954819D01*
X109728571Y-115954819D02*
X109919047Y-115954819D01*
X109919047Y-115954819D02*
X110014285Y-116002438D01*
X110014285Y-116002438D02*
X110109523Y-116097676D01*
X110109523Y-116097676D02*
X110157142Y-116288152D01*
X110157142Y-116288152D02*
X110157142Y-116621485D01*
X110157142Y-116621485D02*
X110109523Y-116811961D01*
X110109523Y-116811961D02*
X110014285Y-116907200D01*
X110014285Y-116907200D02*
X109919047Y-116954819D01*
X109919047Y-116954819D02*
X109728571Y-116954819D01*
X110538095Y-116050057D02*
X110585714Y-116002438D01*
X110585714Y-116002438D02*
X110680952Y-115954819D01*
X110680952Y-115954819D02*
X110919047Y-115954819D01*
X110919047Y-115954819D02*
X111014285Y-116002438D01*
X111014285Y-116002438D02*
X111061904Y-116050057D01*
X111061904Y-116050057D02*
X111109523Y-116145295D01*
X111109523Y-116145295D02*
X111109523Y-116240533D01*
X111109523Y-116240533D02*
X111061904Y-116383390D01*
X111061904Y-116383390D02*
X110490476Y-116954819D01*
X110490476Y-116954819D02*
X111109523Y-116954819D01*
X212950057Y-120195238D02*
X212902438Y-120290476D01*
X212902438Y-120290476D02*
X212807200Y-120385714D01*
X212807200Y-120385714D02*
X212664342Y-120528571D01*
X212664342Y-120528571D02*
X212616723Y-120623809D01*
X212616723Y-120623809D02*
X212616723Y-120719047D01*
X212854819Y-120671428D02*
X212807200Y-120766666D01*
X212807200Y-120766666D02*
X212711961Y-120861904D01*
X212711961Y-120861904D02*
X212521485Y-120909523D01*
X212521485Y-120909523D02*
X212188152Y-120909523D01*
X212188152Y-120909523D02*
X211997676Y-120861904D01*
X211997676Y-120861904D02*
X211902438Y-120766666D01*
X211902438Y-120766666D02*
X211854819Y-120671428D01*
X211854819Y-120671428D02*
X211854819Y-120480952D01*
X211854819Y-120480952D02*
X211902438Y-120385714D01*
X211902438Y-120385714D02*
X211997676Y-120290476D01*
X211997676Y-120290476D02*
X212188152Y-120242857D01*
X212188152Y-120242857D02*
X212521485Y-120242857D01*
X212521485Y-120242857D02*
X212711961Y-120290476D01*
X212711961Y-120290476D02*
X212807200Y-120385714D01*
X212807200Y-120385714D02*
X212854819Y-120480952D01*
X212854819Y-120480952D02*
X212854819Y-120671428D01*
X212854819Y-119290476D02*
X212854819Y-119861904D01*
X212854819Y-119576190D02*
X211854819Y-119576190D01*
X211854819Y-119576190D02*
X211997676Y-119671428D01*
X211997676Y-119671428D02*
X212092914Y-119766666D01*
X212092914Y-119766666D02*
X212140533Y-119861904D01*
X212159580Y-113839124D02*
X212207200Y-113886743D01*
X212207200Y-113886743D02*
X212254819Y-114029600D01*
X212254819Y-114029600D02*
X212254819Y-114124838D01*
X212254819Y-114124838D02*
X212207200Y-114267695D01*
X212207200Y-114267695D02*
X212111961Y-114362933D01*
X212111961Y-114362933D02*
X212016723Y-114410552D01*
X212016723Y-114410552D02*
X211826247Y-114458171D01*
X211826247Y-114458171D02*
X211683390Y-114458171D01*
X211683390Y-114458171D02*
X211492914Y-114410552D01*
X211492914Y-114410552D02*
X211397676Y-114362933D01*
X211397676Y-114362933D02*
X211302438Y-114267695D01*
X211302438Y-114267695D02*
X211254819Y-114124838D01*
X211254819Y-114124838D02*
X211254819Y-114029600D01*
X211254819Y-114029600D02*
X211302438Y-113886743D01*
X211302438Y-113886743D02*
X211350057Y-113839124D01*
X212254819Y-112886743D02*
X212254819Y-113458171D01*
X212254819Y-113172457D02*
X211254819Y-113172457D01*
X211254819Y-113172457D02*
X211397676Y-113267695D01*
X211397676Y-113267695D02*
X211492914Y-113362933D01*
X211492914Y-113362933D02*
X211540533Y-113458171D01*
X212254819Y-112410552D02*
X212254819Y-112220076D01*
X212254819Y-112220076D02*
X212207200Y-112124838D01*
X212207200Y-112124838D02*
X212159580Y-112077219D01*
X212159580Y-112077219D02*
X212016723Y-111981981D01*
X212016723Y-111981981D02*
X211826247Y-111934362D01*
X211826247Y-111934362D02*
X211445295Y-111934362D01*
X211445295Y-111934362D02*
X211350057Y-111981981D01*
X211350057Y-111981981D02*
X211302438Y-112029600D01*
X211302438Y-112029600D02*
X211254819Y-112124838D01*
X211254819Y-112124838D02*
X211254819Y-112315314D01*
X211254819Y-112315314D02*
X211302438Y-112410552D01*
X211302438Y-112410552D02*
X211350057Y-112458171D01*
X211350057Y-112458171D02*
X211445295Y-112505790D01*
X211445295Y-112505790D02*
X211683390Y-112505790D01*
X211683390Y-112505790D02*
X211778628Y-112458171D01*
X211778628Y-112458171D02*
X211826247Y-112410552D01*
X211826247Y-112410552D02*
X211873866Y-112315314D01*
X211873866Y-112315314D02*
X211873866Y-112124838D01*
X211873866Y-112124838D02*
X211826247Y-112029600D01*
X211826247Y-112029600D02*
X211778628Y-111981981D01*
X211778628Y-111981981D02*
X211683390Y-111934362D01*
X196957142Y-107559580D02*
X196909523Y-107607200D01*
X196909523Y-107607200D02*
X196766666Y-107654819D01*
X196766666Y-107654819D02*
X196671428Y-107654819D01*
X196671428Y-107654819D02*
X196528571Y-107607200D01*
X196528571Y-107607200D02*
X196433333Y-107511961D01*
X196433333Y-107511961D02*
X196385714Y-107416723D01*
X196385714Y-107416723D02*
X196338095Y-107226247D01*
X196338095Y-107226247D02*
X196338095Y-107083390D01*
X196338095Y-107083390D02*
X196385714Y-106892914D01*
X196385714Y-106892914D02*
X196433333Y-106797676D01*
X196433333Y-106797676D02*
X196528571Y-106702438D01*
X196528571Y-106702438D02*
X196671428Y-106654819D01*
X196671428Y-106654819D02*
X196766666Y-106654819D01*
X196766666Y-106654819D02*
X196909523Y-106702438D01*
X196909523Y-106702438D02*
X196957142Y-106750057D01*
X197909523Y-107654819D02*
X197338095Y-107654819D01*
X197623809Y-107654819D02*
X197623809Y-106654819D01*
X197623809Y-106654819D02*
X197528571Y-106797676D01*
X197528571Y-106797676D02*
X197433333Y-106892914D01*
X197433333Y-106892914D02*
X197338095Y-106940533D01*
X198861904Y-107654819D02*
X198290476Y-107654819D01*
X198576190Y-107654819D02*
X198576190Y-106654819D01*
X198576190Y-106654819D02*
X198480952Y-106797676D01*
X198480952Y-106797676D02*
X198385714Y-106892914D01*
X198385714Y-106892914D02*
X198290476Y-106940533D01*
X173754819Y-130658332D02*
X174469104Y-130658332D01*
X174469104Y-130658332D02*
X174611961Y-130705951D01*
X174611961Y-130705951D02*
X174707200Y-130801189D01*
X174707200Y-130801189D02*
X174754819Y-130944046D01*
X174754819Y-130944046D02*
X174754819Y-131039284D01*
X174754819Y-130182141D02*
X173754819Y-130182141D01*
X173754819Y-130182141D02*
X173754819Y-129801189D01*
X173754819Y-129801189D02*
X173802438Y-129705951D01*
X173802438Y-129705951D02*
X173850057Y-129658332D01*
X173850057Y-129658332D02*
X173945295Y-129610713D01*
X173945295Y-129610713D02*
X174088152Y-129610713D01*
X174088152Y-129610713D02*
X174183390Y-129658332D01*
X174183390Y-129658332D02*
X174231009Y-129705951D01*
X174231009Y-129705951D02*
X174278628Y-129801189D01*
X174278628Y-129801189D02*
X174278628Y-130182141D01*
X174754819Y-128658332D02*
X174754819Y-129229760D01*
X174754819Y-128944046D02*
X173754819Y-128944046D01*
X173754819Y-128944046D02*
X173897676Y-129039284D01*
X173897676Y-129039284D02*
X173992914Y-129134522D01*
X173992914Y-129134522D02*
X174040533Y-129229760D01*
X164759580Y-129266666D02*
X164807200Y-129314285D01*
X164807200Y-129314285D02*
X164854819Y-129457142D01*
X164854819Y-129457142D02*
X164854819Y-129552380D01*
X164854819Y-129552380D02*
X164807200Y-129695237D01*
X164807200Y-129695237D02*
X164711961Y-129790475D01*
X164711961Y-129790475D02*
X164616723Y-129838094D01*
X164616723Y-129838094D02*
X164426247Y-129885713D01*
X164426247Y-129885713D02*
X164283390Y-129885713D01*
X164283390Y-129885713D02*
X164092914Y-129838094D01*
X164092914Y-129838094D02*
X163997676Y-129790475D01*
X163997676Y-129790475D02*
X163902438Y-129695237D01*
X163902438Y-129695237D02*
X163854819Y-129552380D01*
X163854819Y-129552380D02*
X163854819Y-129457142D01*
X163854819Y-129457142D02*
X163902438Y-129314285D01*
X163902438Y-129314285D02*
X163950057Y-129266666D01*
X163854819Y-128361904D02*
X163854819Y-128838094D01*
X163854819Y-128838094D02*
X164331009Y-128885713D01*
X164331009Y-128885713D02*
X164283390Y-128838094D01*
X164283390Y-128838094D02*
X164235771Y-128742856D01*
X164235771Y-128742856D02*
X164235771Y-128504761D01*
X164235771Y-128504761D02*
X164283390Y-128409523D01*
X164283390Y-128409523D02*
X164331009Y-128361904D01*
X164331009Y-128361904D02*
X164426247Y-128314285D01*
X164426247Y-128314285D02*
X164664342Y-128314285D01*
X164664342Y-128314285D02*
X164759580Y-128361904D01*
X164759580Y-128361904D02*
X164807200Y-128409523D01*
X164807200Y-128409523D02*
X164854819Y-128504761D01*
X164854819Y-128504761D02*
X164854819Y-128742856D01*
X164854819Y-128742856D02*
X164807200Y-128838094D01*
X164807200Y-128838094D02*
X164759580Y-128885713D01*
X178854819Y-132842857D02*
X178378628Y-133176190D01*
X178854819Y-133414285D02*
X177854819Y-133414285D01*
X177854819Y-133414285D02*
X177854819Y-133033333D01*
X177854819Y-133033333D02*
X177902438Y-132938095D01*
X177902438Y-132938095D02*
X177950057Y-132890476D01*
X177950057Y-132890476D02*
X178045295Y-132842857D01*
X178045295Y-132842857D02*
X178188152Y-132842857D01*
X178188152Y-132842857D02*
X178283390Y-132890476D01*
X178283390Y-132890476D02*
X178331009Y-132938095D01*
X178331009Y-132938095D02*
X178378628Y-133033333D01*
X178378628Y-133033333D02*
X178378628Y-133414285D01*
X177950057Y-132461904D02*
X177902438Y-132414285D01*
X177902438Y-132414285D02*
X177854819Y-132319047D01*
X177854819Y-132319047D02*
X177854819Y-132080952D01*
X177854819Y-132080952D02*
X177902438Y-131985714D01*
X177902438Y-131985714D02*
X177950057Y-131938095D01*
X177950057Y-131938095D02*
X178045295Y-131890476D01*
X178045295Y-131890476D02*
X178140533Y-131890476D01*
X178140533Y-131890476D02*
X178283390Y-131938095D01*
X178283390Y-131938095D02*
X178854819Y-132509523D01*
X178854819Y-132509523D02*
X178854819Y-131890476D01*
X177854819Y-131033333D02*
X177854819Y-131223809D01*
X177854819Y-131223809D02*
X177902438Y-131319047D01*
X177902438Y-131319047D02*
X177950057Y-131366666D01*
X177950057Y-131366666D02*
X178092914Y-131461904D01*
X178092914Y-131461904D02*
X178283390Y-131509523D01*
X178283390Y-131509523D02*
X178664342Y-131509523D01*
X178664342Y-131509523D02*
X178759580Y-131461904D01*
X178759580Y-131461904D02*
X178807200Y-131414285D01*
X178807200Y-131414285D02*
X178854819Y-131319047D01*
X178854819Y-131319047D02*
X178854819Y-131128571D01*
X178854819Y-131128571D02*
X178807200Y-131033333D01*
X178807200Y-131033333D02*
X178759580Y-130985714D01*
X178759580Y-130985714D02*
X178664342Y-130938095D01*
X178664342Y-130938095D02*
X178426247Y-130938095D01*
X178426247Y-130938095D02*
X178331009Y-130985714D01*
X178331009Y-130985714D02*
X178283390Y-131033333D01*
X178283390Y-131033333D02*
X178235771Y-131128571D01*
X178235771Y-131128571D02*
X178235771Y-131319047D01*
X178235771Y-131319047D02*
X178283390Y-131414285D01*
X178283390Y-131414285D02*
X178331009Y-131461904D01*
X178331009Y-131461904D02*
X178426247Y-131509523D01*
X169524819Y-130442857D02*
X169048628Y-130776190D01*
X169524819Y-131014285D02*
X168524819Y-131014285D01*
X168524819Y-131014285D02*
X168524819Y-130633333D01*
X168524819Y-130633333D02*
X168572438Y-130538095D01*
X168572438Y-130538095D02*
X168620057Y-130490476D01*
X168620057Y-130490476D02*
X168715295Y-130442857D01*
X168715295Y-130442857D02*
X168858152Y-130442857D01*
X168858152Y-130442857D02*
X168953390Y-130490476D01*
X168953390Y-130490476D02*
X169001009Y-130538095D01*
X169001009Y-130538095D02*
X169048628Y-130633333D01*
X169048628Y-130633333D02*
X169048628Y-131014285D01*
X168620057Y-130061904D02*
X168572438Y-130014285D01*
X168572438Y-130014285D02*
X168524819Y-129919047D01*
X168524819Y-129919047D02*
X168524819Y-129680952D01*
X168524819Y-129680952D02*
X168572438Y-129585714D01*
X168572438Y-129585714D02*
X168620057Y-129538095D01*
X168620057Y-129538095D02*
X168715295Y-129490476D01*
X168715295Y-129490476D02*
X168810533Y-129490476D01*
X168810533Y-129490476D02*
X168953390Y-129538095D01*
X168953390Y-129538095D02*
X169524819Y-130109523D01*
X169524819Y-130109523D02*
X169524819Y-129490476D01*
X168953390Y-128919047D02*
X168905771Y-129014285D01*
X168905771Y-129014285D02*
X168858152Y-129061904D01*
X168858152Y-129061904D02*
X168762914Y-129109523D01*
X168762914Y-129109523D02*
X168715295Y-129109523D01*
X168715295Y-129109523D02*
X168620057Y-129061904D01*
X168620057Y-129061904D02*
X168572438Y-129014285D01*
X168572438Y-129014285D02*
X168524819Y-128919047D01*
X168524819Y-128919047D02*
X168524819Y-128728571D01*
X168524819Y-128728571D02*
X168572438Y-128633333D01*
X168572438Y-128633333D02*
X168620057Y-128585714D01*
X168620057Y-128585714D02*
X168715295Y-128538095D01*
X168715295Y-128538095D02*
X168762914Y-128538095D01*
X168762914Y-128538095D02*
X168858152Y-128585714D01*
X168858152Y-128585714D02*
X168905771Y-128633333D01*
X168905771Y-128633333D02*
X168953390Y-128728571D01*
X168953390Y-128728571D02*
X168953390Y-128919047D01*
X168953390Y-128919047D02*
X169001009Y-129014285D01*
X169001009Y-129014285D02*
X169048628Y-129061904D01*
X169048628Y-129061904D02*
X169143866Y-129109523D01*
X169143866Y-129109523D02*
X169334342Y-129109523D01*
X169334342Y-129109523D02*
X169429580Y-129061904D01*
X169429580Y-129061904D02*
X169477200Y-129014285D01*
X169477200Y-129014285D02*
X169524819Y-128919047D01*
X169524819Y-128919047D02*
X169524819Y-128728571D01*
X169524819Y-128728571D02*
X169477200Y-128633333D01*
X169477200Y-128633333D02*
X169429580Y-128585714D01*
X169429580Y-128585714D02*
X169334342Y-128538095D01*
X169334342Y-128538095D02*
X169143866Y-128538095D01*
X169143866Y-128538095D02*
X169048628Y-128585714D01*
X169048628Y-128585714D02*
X169001009Y-128633333D01*
X169001009Y-128633333D02*
X168953390Y-128728571D01*
X138354819Y-135042857D02*
X137878628Y-135376190D01*
X138354819Y-135614285D02*
X137354819Y-135614285D01*
X137354819Y-135614285D02*
X137354819Y-135233333D01*
X137354819Y-135233333D02*
X137402438Y-135138095D01*
X137402438Y-135138095D02*
X137450057Y-135090476D01*
X137450057Y-135090476D02*
X137545295Y-135042857D01*
X137545295Y-135042857D02*
X137688152Y-135042857D01*
X137688152Y-135042857D02*
X137783390Y-135090476D01*
X137783390Y-135090476D02*
X137831009Y-135138095D01*
X137831009Y-135138095D02*
X137878628Y-135233333D01*
X137878628Y-135233333D02*
X137878628Y-135614285D01*
X138354819Y-134090476D02*
X138354819Y-134661904D01*
X138354819Y-134376190D02*
X137354819Y-134376190D01*
X137354819Y-134376190D02*
X137497676Y-134471428D01*
X137497676Y-134471428D02*
X137592914Y-134566666D01*
X137592914Y-134566666D02*
X137640533Y-134661904D01*
X137783390Y-133519047D02*
X137735771Y-133614285D01*
X137735771Y-133614285D02*
X137688152Y-133661904D01*
X137688152Y-133661904D02*
X137592914Y-133709523D01*
X137592914Y-133709523D02*
X137545295Y-133709523D01*
X137545295Y-133709523D02*
X137450057Y-133661904D01*
X137450057Y-133661904D02*
X137402438Y-133614285D01*
X137402438Y-133614285D02*
X137354819Y-133519047D01*
X137354819Y-133519047D02*
X137354819Y-133328571D01*
X137354819Y-133328571D02*
X137402438Y-133233333D01*
X137402438Y-133233333D02*
X137450057Y-133185714D01*
X137450057Y-133185714D02*
X137545295Y-133138095D01*
X137545295Y-133138095D02*
X137592914Y-133138095D01*
X137592914Y-133138095D02*
X137688152Y-133185714D01*
X137688152Y-133185714D02*
X137735771Y-133233333D01*
X137735771Y-133233333D02*
X137783390Y-133328571D01*
X137783390Y-133328571D02*
X137783390Y-133519047D01*
X137783390Y-133519047D02*
X137831009Y-133614285D01*
X137831009Y-133614285D02*
X137878628Y-133661904D01*
X137878628Y-133661904D02*
X137973866Y-133709523D01*
X137973866Y-133709523D02*
X138164342Y-133709523D01*
X138164342Y-133709523D02*
X138259580Y-133661904D01*
X138259580Y-133661904D02*
X138307200Y-133614285D01*
X138307200Y-133614285D02*
X138354819Y-133519047D01*
X138354819Y-133519047D02*
X138354819Y-133328571D01*
X138354819Y-133328571D02*
X138307200Y-133233333D01*
X138307200Y-133233333D02*
X138259580Y-133185714D01*
X138259580Y-133185714D02*
X138164342Y-133138095D01*
X138164342Y-133138095D02*
X137973866Y-133138095D01*
X137973866Y-133138095D02*
X137878628Y-133185714D01*
X137878628Y-133185714D02*
X137831009Y-133233333D01*
X137831009Y-133233333D02*
X137783390Y-133328571D01*
X182939580Y-119430358D02*
X182987200Y-119477977D01*
X182987200Y-119477977D02*
X183034819Y-119620834D01*
X183034819Y-119620834D02*
X183034819Y-119716072D01*
X183034819Y-119716072D02*
X182987200Y-119858929D01*
X182987200Y-119858929D02*
X182891961Y-119954167D01*
X182891961Y-119954167D02*
X182796723Y-120001786D01*
X182796723Y-120001786D02*
X182606247Y-120049405D01*
X182606247Y-120049405D02*
X182463390Y-120049405D01*
X182463390Y-120049405D02*
X182272914Y-120001786D01*
X182272914Y-120001786D02*
X182177676Y-119954167D01*
X182177676Y-119954167D02*
X182082438Y-119858929D01*
X182082438Y-119858929D02*
X182034819Y-119716072D01*
X182034819Y-119716072D02*
X182034819Y-119620834D01*
X182034819Y-119620834D02*
X182082438Y-119477977D01*
X182082438Y-119477977D02*
X182130057Y-119430358D01*
X182130057Y-119049405D02*
X182082438Y-119001786D01*
X182082438Y-119001786D02*
X182034819Y-118906548D01*
X182034819Y-118906548D02*
X182034819Y-118668453D01*
X182034819Y-118668453D02*
X182082438Y-118573215D01*
X182082438Y-118573215D02*
X182130057Y-118525596D01*
X182130057Y-118525596D02*
X182225295Y-118477977D01*
X182225295Y-118477977D02*
X182320533Y-118477977D01*
X182320533Y-118477977D02*
X182463390Y-118525596D01*
X182463390Y-118525596D02*
X183034819Y-119097024D01*
X183034819Y-119097024D02*
X183034819Y-118477977D01*
X182463390Y-117906548D02*
X182415771Y-118001786D01*
X182415771Y-118001786D02*
X182368152Y-118049405D01*
X182368152Y-118049405D02*
X182272914Y-118097024D01*
X182272914Y-118097024D02*
X182225295Y-118097024D01*
X182225295Y-118097024D02*
X182130057Y-118049405D01*
X182130057Y-118049405D02*
X182082438Y-118001786D01*
X182082438Y-118001786D02*
X182034819Y-117906548D01*
X182034819Y-117906548D02*
X182034819Y-117716072D01*
X182034819Y-117716072D02*
X182082438Y-117620834D01*
X182082438Y-117620834D02*
X182130057Y-117573215D01*
X182130057Y-117573215D02*
X182225295Y-117525596D01*
X182225295Y-117525596D02*
X182272914Y-117525596D01*
X182272914Y-117525596D02*
X182368152Y-117573215D01*
X182368152Y-117573215D02*
X182415771Y-117620834D01*
X182415771Y-117620834D02*
X182463390Y-117716072D01*
X182463390Y-117716072D02*
X182463390Y-117906548D01*
X182463390Y-117906548D02*
X182511009Y-118001786D01*
X182511009Y-118001786D02*
X182558628Y-118049405D01*
X182558628Y-118049405D02*
X182653866Y-118097024D01*
X182653866Y-118097024D02*
X182844342Y-118097024D01*
X182844342Y-118097024D02*
X182939580Y-118049405D01*
X182939580Y-118049405D02*
X182987200Y-118001786D01*
X182987200Y-118001786D02*
X183034819Y-117906548D01*
X183034819Y-117906548D02*
X183034819Y-117716072D01*
X183034819Y-117716072D02*
X182987200Y-117620834D01*
X182987200Y-117620834D02*
X182939580Y-117573215D01*
X182939580Y-117573215D02*
X182844342Y-117525596D01*
X182844342Y-117525596D02*
X182653866Y-117525596D01*
X182653866Y-117525596D02*
X182558628Y-117573215D01*
X182558628Y-117573215D02*
X182511009Y-117620834D01*
X182511009Y-117620834D02*
X182463390Y-117716072D01*
X211433333Y-126554819D02*
X211100000Y-126078628D01*
X210861905Y-126554819D02*
X210861905Y-125554819D01*
X210861905Y-125554819D02*
X211242857Y-125554819D01*
X211242857Y-125554819D02*
X211338095Y-125602438D01*
X211338095Y-125602438D02*
X211385714Y-125650057D01*
X211385714Y-125650057D02*
X211433333Y-125745295D01*
X211433333Y-125745295D02*
X211433333Y-125888152D01*
X211433333Y-125888152D02*
X211385714Y-125983390D01*
X211385714Y-125983390D02*
X211338095Y-126031009D01*
X211338095Y-126031009D02*
X211242857Y-126078628D01*
X211242857Y-126078628D02*
X210861905Y-126078628D01*
X211766667Y-125554819D02*
X212433333Y-125554819D01*
X212433333Y-125554819D02*
X212004762Y-126554819D01*
X126785714Y-115054819D02*
X126785714Y-114054819D01*
X126785714Y-114054819D02*
X127023809Y-114054819D01*
X127023809Y-114054819D02*
X127166666Y-114102438D01*
X127166666Y-114102438D02*
X127261904Y-114197676D01*
X127261904Y-114197676D02*
X127309523Y-114292914D01*
X127309523Y-114292914D02*
X127357142Y-114483390D01*
X127357142Y-114483390D02*
X127357142Y-114626247D01*
X127357142Y-114626247D02*
X127309523Y-114816723D01*
X127309523Y-114816723D02*
X127261904Y-114911961D01*
X127261904Y-114911961D02*
X127166666Y-115007200D01*
X127166666Y-115007200D02*
X127023809Y-115054819D01*
X127023809Y-115054819D02*
X126785714Y-115054819D01*
X128309523Y-115054819D02*
X127738095Y-115054819D01*
X128023809Y-115054819D02*
X128023809Y-114054819D01*
X128023809Y-114054819D02*
X127928571Y-114197676D01*
X127928571Y-114197676D02*
X127833333Y-114292914D01*
X127833333Y-114292914D02*
X127738095Y-114340533D01*
X129166666Y-114054819D02*
X128976190Y-114054819D01*
X128976190Y-114054819D02*
X128880952Y-114102438D01*
X128880952Y-114102438D02*
X128833333Y-114150057D01*
X128833333Y-114150057D02*
X128738095Y-114292914D01*
X128738095Y-114292914D02*
X128690476Y-114483390D01*
X128690476Y-114483390D02*
X128690476Y-114864342D01*
X128690476Y-114864342D02*
X128738095Y-114959580D01*
X128738095Y-114959580D02*
X128785714Y-115007200D01*
X128785714Y-115007200D02*
X128880952Y-115054819D01*
X128880952Y-115054819D02*
X129071428Y-115054819D01*
X129071428Y-115054819D02*
X129166666Y-115007200D01*
X129166666Y-115007200D02*
X129214285Y-114959580D01*
X129214285Y-114959580D02*
X129261904Y-114864342D01*
X129261904Y-114864342D02*
X129261904Y-114626247D01*
X129261904Y-114626247D02*
X129214285Y-114531009D01*
X129214285Y-114531009D02*
X129166666Y-114483390D01*
X129166666Y-114483390D02*
X129071428Y-114435771D01*
X129071428Y-114435771D02*
X128880952Y-114435771D01*
X128880952Y-114435771D02*
X128785714Y-114483390D01*
X128785714Y-114483390D02*
X128738095Y-114531009D01*
X128738095Y-114531009D02*
X128690476Y-114626247D01*
X219959580Y-121642857D02*
X220007200Y-121690476D01*
X220007200Y-121690476D02*
X220054819Y-121833333D01*
X220054819Y-121833333D02*
X220054819Y-121928571D01*
X220054819Y-121928571D02*
X220007200Y-122071428D01*
X220007200Y-122071428D02*
X219911961Y-122166666D01*
X219911961Y-122166666D02*
X219816723Y-122214285D01*
X219816723Y-122214285D02*
X219626247Y-122261904D01*
X219626247Y-122261904D02*
X219483390Y-122261904D01*
X219483390Y-122261904D02*
X219292914Y-122214285D01*
X219292914Y-122214285D02*
X219197676Y-122166666D01*
X219197676Y-122166666D02*
X219102438Y-122071428D01*
X219102438Y-122071428D02*
X219054819Y-121928571D01*
X219054819Y-121928571D02*
X219054819Y-121833333D01*
X219054819Y-121833333D02*
X219102438Y-121690476D01*
X219102438Y-121690476D02*
X219150057Y-121642857D01*
X220054819Y-120690476D02*
X220054819Y-121261904D01*
X220054819Y-120976190D02*
X219054819Y-120976190D01*
X219054819Y-120976190D02*
X219197676Y-121071428D01*
X219197676Y-121071428D02*
X219292914Y-121166666D01*
X219292914Y-121166666D02*
X219340533Y-121261904D01*
X219054819Y-120357142D02*
X219054819Y-119690476D01*
X219054819Y-119690476D02*
X220054819Y-120119047D01*
X206906905Y-126954819D02*
X206906905Y-125954819D01*
X206906905Y-125954819D02*
X207145000Y-125954819D01*
X207145000Y-125954819D02*
X207287857Y-126002438D01*
X207287857Y-126002438D02*
X207383095Y-126097676D01*
X207383095Y-126097676D02*
X207430714Y-126192914D01*
X207430714Y-126192914D02*
X207478333Y-126383390D01*
X207478333Y-126383390D02*
X207478333Y-126526247D01*
X207478333Y-126526247D02*
X207430714Y-126716723D01*
X207430714Y-126716723D02*
X207383095Y-126811961D01*
X207383095Y-126811961D02*
X207287857Y-126907200D01*
X207287857Y-126907200D02*
X207145000Y-126954819D01*
X207145000Y-126954819D02*
X206906905Y-126954819D01*
X208430714Y-126954819D02*
X207859286Y-126954819D01*
X208145000Y-126954819D02*
X208145000Y-125954819D01*
X208145000Y-125954819D02*
X208049762Y-126097676D01*
X208049762Y-126097676D02*
X207954524Y-126192914D01*
X207954524Y-126192914D02*
X207859286Y-126240533D01*
X175235714Y-54954819D02*
X175235714Y-53954819D01*
X175235714Y-53954819D02*
X175473809Y-53954819D01*
X175473809Y-53954819D02*
X175616666Y-54002438D01*
X175616666Y-54002438D02*
X175711904Y-54097676D01*
X175711904Y-54097676D02*
X175759523Y-54192914D01*
X175759523Y-54192914D02*
X175807142Y-54383390D01*
X175807142Y-54383390D02*
X175807142Y-54526247D01*
X175807142Y-54526247D02*
X175759523Y-54716723D01*
X175759523Y-54716723D02*
X175711904Y-54811961D01*
X175711904Y-54811961D02*
X175616666Y-54907200D01*
X175616666Y-54907200D02*
X175473809Y-54954819D01*
X175473809Y-54954819D02*
X175235714Y-54954819D01*
X176759523Y-54954819D02*
X176188095Y-54954819D01*
X176473809Y-54954819D02*
X176473809Y-53954819D01*
X176473809Y-53954819D02*
X176378571Y-54097676D01*
X176378571Y-54097676D02*
X176283333Y-54192914D01*
X176283333Y-54192914D02*
X176188095Y-54240533D01*
X177378571Y-53954819D02*
X177473809Y-53954819D01*
X177473809Y-53954819D02*
X177569047Y-54002438D01*
X177569047Y-54002438D02*
X177616666Y-54050057D01*
X177616666Y-54050057D02*
X177664285Y-54145295D01*
X177664285Y-54145295D02*
X177711904Y-54335771D01*
X177711904Y-54335771D02*
X177711904Y-54573866D01*
X177711904Y-54573866D02*
X177664285Y-54764342D01*
X177664285Y-54764342D02*
X177616666Y-54859580D01*
X177616666Y-54859580D02*
X177569047Y-54907200D01*
X177569047Y-54907200D02*
X177473809Y-54954819D01*
X177473809Y-54954819D02*
X177378571Y-54954819D01*
X177378571Y-54954819D02*
X177283333Y-54907200D01*
X177283333Y-54907200D02*
X177235714Y-54859580D01*
X177235714Y-54859580D02*
X177188095Y-54764342D01*
X177188095Y-54764342D02*
X177140476Y-54573866D01*
X177140476Y-54573866D02*
X177140476Y-54335771D01*
X177140476Y-54335771D02*
X177188095Y-54145295D01*
X177188095Y-54145295D02*
X177235714Y-54050057D01*
X177235714Y-54050057D02*
X177283333Y-54002438D01*
X177283333Y-54002438D02*
X177378571Y-53954819D01*
X205658330Y-133749579D02*
X205610711Y-133797199D01*
X205610711Y-133797199D02*
X205467854Y-133844818D01*
X205467854Y-133844818D02*
X205372616Y-133844818D01*
X205372616Y-133844818D02*
X205229759Y-133797199D01*
X205229759Y-133797199D02*
X205134521Y-133701960D01*
X205134521Y-133701960D02*
X205086902Y-133606722D01*
X205086902Y-133606722D02*
X205039283Y-133416246D01*
X205039283Y-133416246D02*
X205039283Y-133273389D01*
X205039283Y-133273389D02*
X205086902Y-133082913D01*
X205086902Y-133082913D02*
X205134521Y-132987675D01*
X205134521Y-132987675D02*
X205229759Y-132892437D01*
X205229759Y-132892437D02*
X205372616Y-132844818D01*
X205372616Y-132844818D02*
X205467854Y-132844818D01*
X205467854Y-132844818D02*
X205610711Y-132892437D01*
X205610711Y-132892437D02*
X205658330Y-132940056D01*
X206229759Y-133273389D02*
X206134521Y-133225770D01*
X206134521Y-133225770D02*
X206086902Y-133178151D01*
X206086902Y-133178151D02*
X206039283Y-133082913D01*
X206039283Y-133082913D02*
X206039283Y-133035294D01*
X206039283Y-133035294D02*
X206086902Y-132940056D01*
X206086902Y-132940056D02*
X206134521Y-132892437D01*
X206134521Y-132892437D02*
X206229759Y-132844818D01*
X206229759Y-132844818D02*
X206420235Y-132844818D01*
X206420235Y-132844818D02*
X206515473Y-132892437D01*
X206515473Y-132892437D02*
X206563092Y-132940056D01*
X206563092Y-132940056D02*
X206610711Y-133035294D01*
X206610711Y-133035294D02*
X206610711Y-133082913D01*
X206610711Y-133082913D02*
X206563092Y-133178151D01*
X206563092Y-133178151D02*
X206515473Y-133225770D01*
X206515473Y-133225770D02*
X206420235Y-133273389D01*
X206420235Y-133273389D02*
X206229759Y-133273389D01*
X206229759Y-133273389D02*
X206134521Y-133321008D01*
X206134521Y-133321008D02*
X206086902Y-133368627D01*
X206086902Y-133368627D02*
X206039283Y-133463865D01*
X206039283Y-133463865D02*
X206039283Y-133654341D01*
X206039283Y-133654341D02*
X206086902Y-133749579D01*
X206086902Y-133749579D02*
X206134521Y-133797199D01*
X206134521Y-133797199D02*
X206229759Y-133844818D01*
X206229759Y-133844818D02*
X206420235Y-133844818D01*
X206420235Y-133844818D02*
X206515473Y-133797199D01*
X206515473Y-133797199D02*
X206563092Y-133749579D01*
X206563092Y-133749579D02*
X206610711Y-133654341D01*
X206610711Y-133654341D02*
X206610711Y-133463865D01*
X206610711Y-133463865D02*
X206563092Y-133368627D01*
X206563092Y-133368627D02*
X206515473Y-133321008D01*
X206515473Y-133321008D02*
X206420235Y-133273389D01*
X98515476Y-117022200D02*
X98658333Y-117069819D01*
X98658333Y-117069819D02*
X98896428Y-117069819D01*
X98896428Y-117069819D02*
X98991666Y-117022200D01*
X98991666Y-117022200D02*
X99039285Y-116974580D01*
X99039285Y-116974580D02*
X99086904Y-116879342D01*
X99086904Y-116879342D02*
X99086904Y-116784104D01*
X99086904Y-116784104D02*
X99039285Y-116688866D01*
X99039285Y-116688866D02*
X98991666Y-116641247D01*
X98991666Y-116641247D02*
X98896428Y-116593628D01*
X98896428Y-116593628D02*
X98705952Y-116546009D01*
X98705952Y-116546009D02*
X98610714Y-116498390D01*
X98610714Y-116498390D02*
X98563095Y-116450771D01*
X98563095Y-116450771D02*
X98515476Y-116355533D01*
X98515476Y-116355533D02*
X98515476Y-116260295D01*
X98515476Y-116260295D02*
X98563095Y-116165057D01*
X98563095Y-116165057D02*
X98610714Y-116117438D01*
X98610714Y-116117438D02*
X98705952Y-116069819D01*
X98705952Y-116069819D02*
X98944047Y-116069819D01*
X98944047Y-116069819D02*
X99086904Y-116117438D01*
X99420238Y-116069819D02*
X99658333Y-117069819D01*
X99658333Y-117069819D02*
X99848809Y-116355533D01*
X99848809Y-116355533D02*
X100039285Y-117069819D01*
X100039285Y-117069819D02*
X100277381Y-116069819D01*
X101182142Y-117069819D02*
X100610714Y-117069819D01*
X100896428Y-117069819D02*
X100896428Y-116069819D01*
X100896428Y-116069819D02*
X100801190Y-116212676D01*
X100801190Y-116212676D02*
X100705952Y-116307914D01*
X100705952Y-116307914D02*
X100610714Y-116355533D01*
X102039285Y-116403152D02*
X102039285Y-117069819D01*
X101801190Y-116022200D02*
X101563095Y-116736485D01*
X101563095Y-116736485D02*
X102182142Y-116736485D01*
X134354820Y-128374404D02*
X135164343Y-128374404D01*
X135164343Y-128374404D02*
X135259581Y-128326785D01*
X135259581Y-128326785D02*
X135307201Y-128279166D01*
X135307201Y-128279166D02*
X135354820Y-128183928D01*
X135354820Y-128183928D02*
X135354820Y-127993452D01*
X135354820Y-127993452D02*
X135307201Y-127898214D01*
X135307201Y-127898214D02*
X135259581Y-127850595D01*
X135259581Y-127850595D02*
X135164343Y-127802976D01*
X135164343Y-127802976D02*
X134354820Y-127802976D01*
X134354820Y-127422023D02*
X134354820Y-126802976D01*
X134354820Y-126802976D02*
X134735772Y-127136309D01*
X134735772Y-127136309D02*
X134735772Y-126993452D01*
X134735772Y-126993452D02*
X134783391Y-126898214D01*
X134783391Y-126898214D02*
X134831010Y-126850595D01*
X134831010Y-126850595D02*
X134926248Y-126802976D01*
X134926248Y-126802976D02*
X135164343Y-126802976D01*
X135164343Y-126802976D02*
X135259581Y-126850595D01*
X135259581Y-126850595D02*
X135307201Y-126898214D01*
X135307201Y-126898214D02*
X135354820Y-126993452D01*
X135354820Y-126993452D02*
X135354820Y-127279166D01*
X135354820Y-127279166D02*
X135307201Y-127374404D01*
X135307201Y-127374404D02*
X135259581Y-127422023D01*
X187901667Y-103272200D02*
X188044524Y-103319819D01*
X188044524Y-103319819D02*
X188282619Y-103319819D01*
X188282619Y-103319819D02*
X188377857Y-103272200D01*
X188377857Y-103272200D02*
X188425476Y-103224580D01*
X188425476Y-103224580D02*
X188473095Y-103129342D01*
X188473095Y-103129342D02*
X188473095Y-103034104D01*
X188473095Y-103034104D02*
X188425476Y-102938866D01*
X188425476Y-102938866D02*
X188377857Y-102891247D01*
X188377857Y-102891247D02*
X188282619Y-102843628D01*
X188282619Y-102843628D02*
X188092143Y-102796009D01*
X188092143Y-102796009D02*
X187996905Y-102748390D01*
X187996905Y-102748390D02*
X187949286Y-102700771D01*
X187949286Y-102700771D02*
X187901667Y-102605533D01*
X187901667Y-102605533D02*
X187901667Y-102510295D01*
X187901667Y-102510295D02*
X187949286Y-102415057D01*
X187949286Y-102415057D02*
X187996905Y-102367438D01*
X187996905Y-102367438D02*
X188092143Y-102319819D01*
X188092143Y-102319819D02*
X188330238Y-102319819D01*
X188330238Y-102319819D02*
X188473095Y-102367438D01*
X188806429Y-102319819D02*
X189044524Y-103319819D01*
X189044524Y-103319819D02*
X189235000Y-102605533D01*
X189235000Y-102605533D02*
X189425476Y-103319819D01*
X189425476Y-103319819D02*
X189663572Y-102319819D01*
X190520714Y-102319819D02*
X190044524Y-102319819D01*
X190044524Y-102319819D02*
X189996905Y-102796009D01*
X189996905Y-102796009D02*
X190044524Y-102748390D01*
X190044524Y-102748390D02*
X190139762Y-102700771D01*
X190139762Y-102700771D02*
X190377857Y-102700771D01*
X190377857Y-102700771D02*
X190473095Y-102748390D01*
X190473095Y-102748390D02*
X190520714Y-102796009D01*
X190520714Y-102796009D02*
X190568333Y-102891247D01*
X190568333Y-102891247D02*
X190568333Y-103129342D01*
X190568333Y-103129342D02*
X190520714Y-103224580D01*
X190520714Y-103224580D02*
X190473095Y-103272200D01*
X190473095Y-103272200D02*
X190377857Y-103319819D01*
X190377857Y-103319819D02*
X190139762Y-103319819D01*
X190139762Y-103319819D02*
X190044524Y-103272200D01*
X190044524Y-103272200D02*
X189996905Y-103224580D01*
X98657142Y-110559580D02*
X98609523Y-110607200D01*
X98609523Y-110607200D02*
X98466666Y-110654819D01*
X98466666Y-110654819D02*
X98371428Y-110654819D01*
X98371428Y-110654819D02*
X98228571Y-110607200D01*
X98228571Y-110607200D02*
X98133333Y-110511961D01*
X98133333Y-110511961D02*
X98085714Y-110416723D01*
X98085714Y-110416723D02*
X98038095Y-110226247D01*
X98038095Y-110226247D02*
X98038095Y-110083390D01*
X98038095Y-110083390D02*
X98085714Y-109892914D01*
X98085714Y-109892914D02*
X98133333Y-109797676D01*
X98133333Y-109797676D02*
X98228571Y-109702438D01*
X98228571Y-109702438D02*
X98371428Y-109654819D01*
X98371428Y-109654819D02*
X98466666Y-109654819D01*
X98466666Y-109654819D02*
X98609523Y-109702438D01*
X98609523Y-109702438D02*
X98657142Y-109750057D01*
X99609523Y-110654819D02*
X99038095Y-110654819D01*
X99323809Y-110654819D02*
X99323809Y-109654819D01*
X99323809Y-109654819D02*
X99228571Y-109797676D01*
X99228571Y-109797676D02*
X99133333Y-109892914D01*
X99133333Y-109892914D02*
X99038095Y-109940533D01*
X100514285Y-109654819D02*
X100038095Y-109654819D01*
X100038095Y-109654819D02*
X99990476Y-110131009D01*
X99990476Y-110131009D02*
X100038095Y-110083390D01*
X100038095Y-110083390D02*
X100133333Y-110035771D01*
X100133333Y-110035771D02*
X100371428Y-110035771D01*
X100371428Y-110035771D02*
X100466666Y-110083390D01*
X100466666Y-110083390D02*
X100514285Y-110131009D01*
X100514285Y-110131009D02*
X100561904Y-110226247D01*
X100561904Y-110226247D02*
X100561904Y-110464342D01*
X100561904Y-110464342D02*
X100514285Y-110559580D01*
X100514285Y-110559580D02*
X100466666Y-110607200D01*
X100466666Y-110607200D02*
X100371428Y-110654819D01*
X100371428Y-110654819D02*
X100133333Y-110654819D01*
X100133333Y-110654819D02*
X100038095Y-110607200D01*
X100038095Y-110607200D02*
X99990476Y-110559580D01*
X127457142Y-127659580D02*
X127409523Y-127707200D01*
X127409523Y-127707200D02*
X127266666Y-127754819D01*
X127266666Y-127754819D02*
X127171428Y-127754819D01*
X127171428Y-127754819D02*
X127028571Y-127707200D01*
X127028571Y-127707200D02*
X126933333Y-127611961D01*
X126933333Y-127611961D02*
X126885714Y-127516723D01*
X126885714Y-127516723D02*
X126838095Y-127326247D01*
X126838095Y-127326247D02*
X126838095Y-127183390D01*
X126838095Y-127183390D02*
X126885714Y-126992914D01*
X126885714Y-126992914D02*
X126933333Y-126897676D01*
X126933333Y-126897676D02*
X127028571Y-126802438D01*
X127028571Y-126802438D02*
X127171428Y-126754819D01*
X127171428Y-126754819D02*
X127266666Y-126754819D01*
X127266666Y-126754819D02*
X127409523Y-126802438D01*
X127409523Y-126802438D02*
X127457142Y-126850057D01*
X127838095Y-126850057D02*
X127885714Y-126802438D01*
X127885714Y-126802438D02*
X127980952Y-126754819D01*
X127980952Y-126754819D02*
X128219047Y-126754819D01*
X128219047Y-126754819D02*
X128314285Y-126802438D01*
X128314285Y-126802438D02*
X128361904Y-126850057D01*
X128361904Y-126850057D02*
X128409523Y-126945295D01*
X128409523Y-126945295D02*
X128409523Y-127040533D01*
X128409523Y-127040533D02*
X128361904Y-127183390D01*
X128361904Y-127183390D02*
X127790476Y-127754819D01*
X127790476Y-127754819D02*
X128409523Y-127754819D01*
X129314285Y-126754819D02*
X128838095Y-126754819D01*
X128838095Y-126754819D02*
X128790476Y-127231009D01*
X128790476Y-127231009D02*
X128838095Y-127183390D01*
X128838095Y-127183390D02*
X128933333Y-127135771D01*
X128933333Y-127135771D02*
X129171428Y-127135771D01*
X129171428Y-127135771D02*
X129266666Y-127183390D01*
X129266666Y-127183390D02*
X129314285Y-127231009D01*
X129314285Y-127231009D02*
X129361904Y-127326247D01*
X129361904Y-127326247D02*
X129361904Y-127564342D01*
X129361904Y-127564342D02*
X129314285Y-127659580D01*
X129314285Y-127659580D02*
X129266666Y-127707200D01*
X129266666Y-127707200D02*
X129171428Y-127754819D01*
X129171428Y-127754819D02*
X128933333Y-127754819D01*
X128933333Y-127754819D02*
X128838095Y-127707200D01*
X128838095Y-127707200D02*
X128790476Y-127659580D01*
X205889580Y-122580356D02*
X205937200Y-122627975D01*
X205937200Y-122627975D02*
X205984819Y-122770832D01*
X205984819Y-122770832D02*
X205984819Y-122866070D01*
X205984819Y-122866070D02*
X205937200Y-123008927D01*
X205937200Y-123008927D02*
X205841961Y-123104165D01*
X205841961Y-123104165D02*
X205746723Y-123151784D01*
X205746723Y-123151784D02*
X205556247Y-123199403D01*
X205556247Y-123199403D02*
X205413390Y-123199403D01*
X205413390Y-123199403D02*
X205222914Y-123151784D01*
X205222914Y-123151784D02*
X205127676Y-123104165D01*
X205127676Y-123104165D02*
X205032438Y-123008927D01*
X205032438Y-123008927D02*
X204984819Y-122866070D01*
X204984819Y-122866070D02*
X204984819Y-122770832D01*
X204984819Y-122770832D02*
X205032438Y-122627975D01*
X205032438Y-122627975D02*
X205080057Y-122580356D01*
X205984819Y-121627975D02*
X205984819Y-122199403D01*
X205984819Y-121913689D02*
X204984819Y-121913689D01*
X204984819Y-121913689D02*
X205127676Y-122008927D01*
X205127676Y-122008927D02*
X205222914Y-122104165D01*
X205222914Y-122104165D02*
X205270533Y-122199403D01*
X204984819Y-121294641D02*
X204984819Y-120675594D01*
X204984819Y-120675594D02*
X205365771Y-121008927D01*
X205365771Y-121008927D02*
X205365771Y-120866070D01*
X205365771Y-120866070D02*
X205413390Y-120770832D01*
X205413390Y-120770832D02*
X205461009Y-120723213D01*
X205461009Y-120723213D02*
X205556247Y-120675594D01*
X205556247Y-120675594D02*
X205794342Y-120675594D01*
X205794342Y-120675594D02*
X205889580Y-120723213D01*
X205889580Y-120723213D02*
X205937200Y-120770832D01*
X205937200Y-120770832D02*
X205984819Y-120866070D01*
X205984819Y-120866070D02*
X205984819Y-121151784D01*
X205984819Y-121151784D02*
X205937200Y-121247022D01*
X205937200Y-121247022D02*
X205889580Y-121294641D01*
X120957142Y-126154819D02*
X120623809Y-125678628D01*
X120385714Y-126154819D02*
X120385714Y-125154819D01*
X120385714Y-125154819D02*
X120766666Y-125154819D01*
X120766666Y-125154819D02*
X120861904Y-125202438D01*
X120861904Y-125202438D02*
X120909523Y-125250057D01*
X120909523Y-125250057D02*
X120957142Y-125345295D01*
X120957142Y-125345295D02*
X120957142Y-125488152D01*
X120957142Y-125488152D02*
X120909523Y-125583390D01*
X120909523Y-125583390D02*
X120861904Y-125631009D01*
X120861904Y-125631009D02*
X120766666Y-125678628D01*
X120766666Y-125678628D02*
X120385714Y-125678628D01*
X121338095Y-125250057D02*
X121385714Y-125202438D01*
X121385714Y-125202438D02*
X121480952Y-125154819D01*
X121480952Y-125154819D02*
X121719047Y-125154819D01*
X121719047Y-125154819D02*
X121814285Y-125202438D01*
X121814285Y-125202438D02*
X121861904Y-125250057D01*
X121861904Y-125250057D02*
X121909523Y-125345295D01*
X121909523Y-125345295D02*
X121909523Y-125440533D01*
X121909523Y-125440533D02*
X121861904Y-125583390D01*
X121861904Y-125583390D02*
X121290476Y-126154819D01*
X121290476Y-126154819D02*
X121909523Y-126154819D01*
X122242857Y-125154819D02*
X122861904Y-125154819D01*
X122861904Y-125154819D02*
X122528571Y-125535771D01*
X122528571Y-125535771D02*
X122671428Y-125535771D01*
X122671428Y-125535771D02*
X122766666Y-125583390D01*
X122766666Y-125583390D02*
X122814285Y-125631009D01*
X122814285Y-125631009D02*
X122861904Y-125726247D01*
X122861904Y-125726247D02*
X122861904Y-125964342D01*
X122861904Y-125964342D02*
X122814285Y-126059580D01*
X122814285Y-126059580D02*
X122766666Y-126107200D01*
X122766666Y-126107200D02*
X122671428Y-126154819D01*
X122671428Y-126154819D02*
X122385714Y-126154819D01*
X122385714Y-126154819D02*
X122290476Y-126107200D01*
X122290476Y-126107200D02*
X122242857Y-126059580D01*
X159829580Y-129379167D02*
X159877200Y-129426786D01*
X159877200Y-129426786D02*
X159924819Y-129569643D01*
X159924819Y-129569643D02*
X159924819Y-129664881D01*
X159924819Y-129664881D02*
X159877200Y-129807738D01*
X159877200Y-129807738D02*
X159781961Y-129902976D01*
X159781961Y-129902976D02*
X159686723Y-129950595D01*
X159686723Y-129950595D02*
X159496247Y-129998214D01*
X159496247Y-129998214D02*
X159353390Y-129998214D01*
X159353390Y-129998214D02*
X159162914Y-129950595D01*
X159162914Y-129950595D02*
X159067676Y-129902976D01*
X159067676Y-129902976D02*
X158972438Y-129807738D01*
X158972438Y-129807738D02*
X158924819Y-129664881D01*
X158924819Y-129664881D02*
X158924819Y-129569643D01*
X158924819Y-129569643D02*
X158972438Y-129426786D01*
X158972438Y-129426786D02*
X159020057Y-129379167D01*
X159258152Y-128522024D02*
X159924819Y-128522024D01*
X158877200Y-128760119D02*
X159591485Y-128998214D01*
X159591485Y-128998214D02*
X159591485Y-128379167D01*
X175761905Y-57354819D02*
X175761905Y-56354819D01*
X175761905Y-56354819D02*
X176000000Y-56354819D01*
X176000000Y-56354819D02*
X176142857Y-56402438D01*
X176142857Y-56402438D02*
X176238095Y-56497676D01*
X176238095Y-56497676D02*
X176285714Y-56592914D01*
X176285714Y-56592914D02*
X176333333Y-56783390D01*
X176333333Y-56783390D02*
X176333333Y-56926247D01*
X176333333Y-56926247D02*
X176285714Y-57116723D01*
X176285714Y-57116723D02*
X176238095Y-57211961D01*
X176238095Y-57211961D02*
X176142857Y-57307200D01*
X176142857Y-57307200D02*
X176000000Y-57354819D01*
X176000000Y-57354819D02*
X175761905Y-57354819D01*
X177190476Y-56354819D02*
X177000000Y-56354819D01*
X177000000Y-56354819D02*
X176904762Y-56402438D01*
X176904762Y-56402438D02*
X176857143Y-56450057D01*
X176857143Y-56450057D02*
X176761905Y-56592914D01*
X176761905Y-56592914D02*
X176714286Y-56783390D01*
X176714286Y-56783390D02*
X176714286Y-57164342D01*
X176714286Y-57164342D02*
X176761905Y-57259580D01*
X176761905Y-57259580D02*
X176809524Y-57307200D01*
X176809524Y-57307200D02*
X176904762Y-57354819D01*
X176904762Y-57354819D02*
X177095238Y-57354819D01*
X177095238Y-57354819D02*
X177190476Y-57307200D01*
X177190476Y-57307200D02*
X177238095Y-57259580D01*
X177238095Y-57259580D02*
X177285714Y-57164342D01*
X177285714Y-57164342D02*
X177285714Y-56926247D01*
X177285714Y-56926247D02*
X177238095Y-56831009D01*
X177238095Y-56831009D02*
X177190476Y-56783390D01*
X177190476Y-56783390D02*
X177095238Y-56735771D01*
X177095238Y-56735771D02*
X176904762Y-56735771D01*
X176904762Y-56735771D02*
X176809524Y-56783390D01*
X176809524Y-56783390D02*
X176761905Y-56831009D01*
X176761905Y-56831009D02*
X176714286Y-56926247D01*
X212074819Y-109579166D02*
X211598628Y-109912499D01*
X212074819Y-110150594D02*
X211074819Y-110150594D01*
X211074819Y-110150594D02*
X211074819Y-109769642D01*
X211074819Y-109769642D02*
X211122438Y-109674404D01*
X211122438Y-109674404D02*
X211170057Y-109626785D01*
X211170057Y-109626785D02*
X211265295Y-109579166D01*
X211265295Y-109579166D02*
X211408152Y-109579166D01*
X211408152Y-109579166D02*
X211503390Y-109626785D01*
X211503390Y-109626785D02*
X211551009Y-109674404D01*
X211551009Y-109674404D02*
X211598628Y-109769642D01*
X211598628Y-109769642D02*
X211598628Y-110150594D01*
X211074819Y-108722023D02*
X211074819Y-108912499D01*
X211074819Y-108912499D02*
X211122438Y-109007737D01*
X211122438Y-109007737D02*
X211170057Y-109055356D01*
X211170057Y-109055356D02*
X211312914Y-109150594D01*
X211312914Y-109150594D02*
X211503390Y-109198213D01*
X211503390Y-109198213D02*
X211884342Y-109198213D01*
X211884342Y-109198213D02*
X211979580Y-109150594D01*
X211979580Y-109150594D02*
X212027200Y-109102975D01*
X212027200Y-109102975D02*
X212074819Y-109007737D01*
X212074819Y-109007737D02*
X212074819Y-108817261D01*
X212074819Y-108817261D02*
X212027200Y-108722023D01*
X212027200Y-108722023D02*
X211979580Y-108674404D01*
X211979580Y-108674404D02*
X211884342Y-108626785D01*
X211884342Y-108626785D02*
X211646247Y-108626785D01*
X211646247Y-108626785D02*
X211551009Y-108674404D01*
X211551009Y-108674404D02*
X211503390Y-108722023D01*
X211503390Y-108722023D02*
X211455771Y-108817261D01*
X211455771Y-108817261D02*
X211455771Y-109007737D01*
X211455771Y-109007737D02*
X211503390Y-109102975D01*
X211503390Y-109102975D02*
X211551009Y-109150594D01*
X211551009Y-109150594D02*
X211646247Y-109198213D01*
X174911905Y-120354819D02*
X174911905Y-121164342D01*
X174911905Y-121164342D02*
X174959524Y-121259580D01*
X174959524Y-121259580D02*
X175007143Y-121307200D01*
X175007143Y-121307200D02*
X175102381Y-121354819D01*
X175102381Y-121354819D02*
X175292857Y-121354819D01*
X175292857Y-121354819D02*
X175388095Y-121307200D01*
X175388095Y-121307200D02*
X175435714Y-121259580D01*
X175435714Y-121259580D02*
X175483333Y-121164342D01*
X175483333Y-121164342D02*
X175483333Y-120354819D01*
X176483333Y-121354819D02*
X175911905Y-121354819D01*
X176197619Y-121354819D02*
X176197619Y-120354819D01*
X176197619Y-120354819D02*
X176102381Y-120497676D01*
X176102381Y-120497676D02*
X176007143Y-120592914D01*
X176007143Y-120592914D02*
X175911905Y-120640533D01*
X176816667Y-120354819D02*
X177435714Y-120354819D01*
X177435714Y-120354819D02*
X177102381Y-120735771D01*
X177102381Y-120735771D02*
X177245238Y-120735771D01*
X177245238Y-120735771D02*
X177340476Y-120783390D01*
X177340476Y-120783390D02*
X177388095Y-120831009D01*
X177388095Y-120831009D02*
X177435714Y-120926247D01*
X177435714Y-120926247D02*
X177435714Y-121164342D01*
X177435714Y-121164342D02*
X177388095Y-121259580D01*
X177388095Y-121259580D02*
X177340476Y-121307200D01*
X177340476Y-121307200D02*
X177245238Y-121354819D01*
X177245238Y-121354819D02*
X176959524Y-121354819D01*
X176959524Y-121354819D02*
X176864286Y-121307200D01*
X176864286Y-121307200D02*
X176816667Y-121259580D01*
X207920833Y-123984819D02*
X207587500Y-123508628D01*
X207349405Y-123984819D02*
X207349405Y-122984819D01*
X207349405Y-122984819D02*
X207730357Y-122984819D01*
X207730357Y-122984819D02*
X207825595Y-123032438D01*
X207825595Y-123032438D02*
X207873214Y-123080057D01*
X207873214Y-123080057D02*
X207920833Y-123175295D01*
X207920833Y-123175295D02*
X207920833Y-123318152D01*
X207920833Y-123318152D02*
X207873214Y-123413390D01*
X207873214Y-123413390D02*
X207825595Y-123461009D01*
X207825595Y-123461009D02*
X207730357Y-123508628D01*
X207730357Y-123508628D02*
X207349405Y-123508628D01*
X208873214Y-123984819D02*
X208301786Y-123984819D01*
X208587500Y-123984819D02*
X208587500Y-122984819D01*
X208587500Y-122984819D02*
X208492262Y-123127676D01*
X208492262Y-123127676D02*
X208397024Y-123222914D01*
X208397024Y-123222914D02*
X208301786Y-123270533D01*
X153666666Y-128954819D02*
X153666666Y-129669104D01*
X153666666Y-129669104D02*
X153619047Y-129811961D01*
X153619047Y-129811961D02*
X153523809Y-129907200D01*
X153523809Y-129907200D02*
X153380952Y-129954819D01*
X153380952Y-129954819D02*
X153285714Y-129954819D01*
X154666666Y-129954819D02*
X154095238Y-129954819D01*
X154380952Y-129954819D02*
X154380952Y-128954819D01*
X154380952Y-128954819D02*
X154285714Y-129097676D01*
X154285714Y-129097676D02*
X154190476Y-129192914D01*
X154190476Y-129192914D02*
X154095238Y-129240533D01*
X211064819Y-120942857D02*
X210588628Y-121276190D01*
X211064819Y-121514285D02*
X210064819Y-121514285D01*
X210064819Y-121514285D02*
X210064819Y-121133333D01*
X210064819Y-121133333D02*
X210112438Y-121038095D01*
X210112438Y-121038095D02*
X210160057Y-120990476D01*
X210160057Y-120990476D02*
X210255295Y-120942857D01*
X210255295Y-120942857D02*
X210398152Y-120942857D01*
X210398152Y-120942857D02*
X210493390Y-120990476D01*
X210493390Y-120990476D02*
X210541009Y-121038095D01*
X210541009Y-121038095D02*
X210588628Y-121133333D01*
X210588628Y-121133333D02*
X210588628Y-121514285D01*
X211064819Y-119990476D02*
X211064819Y-120561904D01*
X211064819Y-120276190D02*
X210064819Y-120276190D01*
X210064819Y-120276190D02*
X210207676Y-120371428D01*
X210207676Y-120371428D02*
X210302914Y-120466666D01*
X210302914Y-120466666D02*
X210350533Y-120561904D01*
X210064819Y-119371428D02*
X210064819Y-119276190D01*
X210064819Y-119276190D02*
X210112438Y-119180952D01*
X210112438Y-119180952D02*
X210160057Y-119133333D01*
X210160057Y-119133333D02*
X210255295Y-119085714D01*
X210255295Y-119085714D02*
X210445771Y-119038095D01*
X210445771Y-119038095D02*
X210683866Y-119038095D01*
X210683866Y-119038095D02*
X210874342Y-119085714D01*
X210874342Y-119085714D02*
X210969580Y-119133333D01*
X210969580Y-119133333D02*
X211017200Y-119180952D01*
X211017200Y-119180952D02*
X211064819Y-119276190D01*
X211064819Y-119276190D02*
X211064819Y-119371428D01*
X211064819Y-119371428D02*
X211017200Y-119466666D01*
X211017200Y-119466666D02*
X210969580Y-119514285D01*
X210969580Y-119514285D02*
X210874342Y-119561904D01*
X210874342Y-119561904D02*
X210683866Y-119609523D01*
X210683866Y-119609523D02*
X210445771Y-119609523D01*
X210445771Y-119609523D02*
X210255295Y-119561904D01*
X210255295Y-119561904D02*
X210160057Y-119514285D01*
X210160057Y-119514285D02*
X210112438Y-119466666D01*
X210112438Y-119466666D02*
X210064819Y-119371428D01*
X219204820Y-115924404D02*
X220014343Y-115924404D01*
X220014343Y-115924404D02*
X220109581Y-115876785D01*
X220109581Y-115876785D02*
X220157201Y-115829166D01*
X220157201Y-115829166D02*
X220204820Y-115733928D01*
X220204820Y-115733928D02*
X220204820Y-115543452D01*
X220204820Y-115543452D02*
X220157201Y-115448214D01*
X220157201Y-115448214D02*
X220109581Y-115400595D01*
X220109581Y-115400595D02*
X220014343Y-115352976D01*
X220014343Y-115352976D02*
X219204820Y-115352976D01*
X220204820Y-114829166D02*
X220204820Y-114638690D01*
X220204820Y-114638690D02*
X220157201Y-114543452D01*
X220157201Y-114543452D02*
X220109581Y-114495833D01*
X220109581Y-114495833D02*
X219966724Y-114400595D01*
X219966724Y-114400595D02*
X219776248Y-114352976D01*
X219776248Y-114352976D02*
X219395296Y-114352976D01*
X219395296Y-114352976D02*
X219300058Y-114400595D01*
X219300058Y-114400595D02*
X219252439Y-114448214D01*
X219252439Y-114448214D02*
X219204820Y-114543452D01*
X219204820Y-114543452D02*
X219204820Y-114733928D01*
X219204820Y-114733928D02*
X219252439Y-114829166D01*
X219252439Y-114829166D02*
X219300058Y-114876785D01*
X219300058Y-114876785D02*
X219395296Y-114924404D01*
X219395296Y-114924404D02*
X219633391Y-114924404D01*
X219633391Y-114924404D02*
X219728629Y-114876785D01*
X219728629Y-114876785D02*
X219776248Y-114829166D01*
X219776248Y-114829166D02*
X219823867Y-114733928D01*
X219823867Y-114733928D02*
X219823867Y-114543452D01*
X219823867Y-114543452D02*
X219776248Y-114448214D01*
X219776248Y-114448214D02*
X219728629Y-114400595D01*
X219728629Y-114400595D02*
X219633391Y-114352976D01*
X123754819Y-110814285D02*
X122754819Y-110814285D01*
X122754819Y-110814285D02*
X122754819Y-110576190D01*
X122754819Y-110576190D02*
X122802438Y-110433333D01*
X122802438Y-110433333D02*
X122897676Y-110338095D01*
X122897676Y-110338095D02*
X122992914Y-110290476D01*
X122992914Y-110290476D02*
X123183390Y-110242857D01*
X123183390Y-110242857D02*
X123326247Y-110242857D01*
X123326247Y-110242857D02*
X123516723Y-110290476D01*
X123516723Y-110290476D02*
X123611961Y-110338095D01*
X123611961Y-110338095D02*
X123707200Y-110433333D01*
X123707200Y-110433333D02*
X123754819Y-110576190D01*
X123754819Y-110576190D02*
X123754819Y-110814285D01*
X122850057Y-109861904D02*
X122802438Y-109814285D01*
X122802438Y-109814285D02*
X122754819Y-109719047D01*
X122754819Y-109719047D02*
X122754819Y-109480952D01*
X122754819Y-109480952D02*
X122802438Y-109385714D01*
X122802438Y-109385714D02*
X122850057Y-109338095D01*
X122850057Y-109338095D02*
X122945295Y-109290476D01*
X122945295Y-109290476D02*
X123040533Y-109290476D01*
X123040533Y-109290476D02*
X123183390Y-109338095D01*
X123183390Y-109338095D02*
X123754819Y-109909523D01*
X123754819Y-109909523D02*
X123754819Y-109290476D01*
X122754819Y-108671428D02*
X122754819Y-108576190D01*
X122754819Y-108576190D02*
X122802438Y-108480952D01*
X122802438Y-108480952D02*
X122850057Y-108433333D01*
X122850057Y-108433333D02*
X122945295Y-108385714D01*
X122945295Y-108385714D02*
X123135771Y-108338095D01*
X123135771Y-108338095D02*
X123373866Y-108338095D01*
X123373866Y-108338095D02*
X123564342Y-108385714D01*
X123564342Y-108385714D02*
X123659580Y-108433333D01*
X123659580Y-108433333D02*
X123707200Y-108480952D01*
X123707200Y-108480952D02*
X123754819Y-108576190D01*
X123754819Y-108576190D02*
X123754819Y-108671428D01*
X123754819Y-108671428D02*
X123707200Y-108766666D01*
X123707200Y-108766666D02*
X123659580Y-108814285D01*
X123659580Y-108814285D02*
X123564342Y-108861904D01*
X123564342Y-108861904D02*
X123373866Y-108909523D01*
X123373866Y-108909523D02*
X123135771Y-108909523D01*
X123135771Y-108909523D02*
X122945295Y-108861904D01*
X122945295Y-108861904D02*
X122850057Y-108814285D01*
X122850057Y-108814285D02*
X122802438Y-108766666D01*
X122802438Y-108766666D02*
X122754819Y-108671428D01*
X134535714Y-59454819D02*
X134535714Y-58454819D01*
X134535714Y-58454819D02*
X134773809Y-58454819D01*
X134773809Y-58454819D02*
X134916666Y-58502438D01*
X134916666Y-58502438D02*
X135011904Y-58597676D01*
X135011904Y-58597676D02*
X135059523Y-58692914D01*
X135059523Y-58692914D02*
X135107142Y-58883390D01*
X135107142Y-58883390D02*
X135107142Y-59026247D01*
X135107142Y-59026247D02*
X135059523Y-59216723D01*
X135059523Y-59216723D02*
X135011904Y-59311961D01*
X135011904Y-59311961D02*
X134916666Y-59407200D01*
X134916666Y-59407200D02*
X134773809Y-59454819D01*
X134773809Y-59454819D02*
X134535714Y-59454819D01*
X136059523Y-59454819D02*
X135488095Y-59454819D01*
X135773809Y-59454819D02*
X135773809Y-58454819D01*
X135773809Y-58454819D02*
X135678571Y-58597676D01*
X135678571Y-58597676D02*
X135583333Y-58692914D01*
X135583333Y-58692914D02*
X135488095Y-58740533D01*
X136630952Y-58883390D02*
X136535714Y-58835771D01*
X136535714Y-58835771D02*
X136488095Y-58788152D01*
X136488095Y-58788152D02*
X136440476Y-58692914D01*
X136440476Y-58692914D02*
X136440476Y-58645295D01*
X136440476Y-58645295D02*
X136488095Y-58550057D01*
X136488095Y-58550057D02*
X136535714Y-58502438D01*
X136535714Y-58502438D02*
X136630952Y-58454819D01*
X136630952Y-58454819D02*
X136821428Y-58454819D01*
X136821428Y-58454819D02*
X136916666Y-58502438D01*
X136916666Y-58502438D02*
X136964285Y-58550057D01*
X136964285Y-58550057D02*
X137011904Y-58645295D01*
X137011904Y-58645295D02*
X137011904Y-58692914D01*
X137011904Y-58692914D02*
X136964285Y-58788152D01*
X136964285Y-58788152D02*
X136916666Y-58835771D01*
X136916666Y-58835771D02*
X136821428Y-58883390D01*
X136821428Y-58883390D02*
X136630952Y-58883390D01*
X136630952Y-58883390D02*
X136535714Y-58931009D01*
X136535714Y-58931009D02*
X136488095Y-58978628D01*
X136488095Y-58978628D02*
X136440476Y-59073866D01*
X136440476Y-59073866D02*
X136440476Y-59264342D01*
X136440476Y-59264342D02*
X136488095Y-59359580D01*
X136488095Y-59359580D02*
X136535714Y-59407200D01*
X136535714Y-59407200D02*
X136630952Y-59454819D01*
X136630952Y-59454819D02*
X136821428Y-59454819D01*
X136821428Y-59454819D02*
X136916666Y-59407200D01*
X136916666Y-59407200D02*
X136964285Y-59359580D01*
X136964285Y-59359580D02*
X137011904Y-59264342D01*
X137011904Y-59264342D02*
X137011904Y-59073866D01*
X137011904Y-59073866D02*
X136964285Y-58978628D01*
X136964285Y-58978628D02*
X136916666Y-58931009D01*
X136916666Y-58931009D02*
X136821428Y-58883390D01*
X111890476Y-131607200D02*
X112033333Y-131654819D01*
X112033333Y-131654819D02*
X112271428Y-131654819D01*
X112271428Y-131654819D02*
X112366666Y-131607200D01*
X112366666Y-131607200D02*
X112414285Y-131559580D01*
X112414285Y-131559580D02*
X112461904Y-131464342D01*
X112461904Y-131464342D02*
X112461904Y-131369104D01*
X112461904Y-131369104D02*
X112414285Y-131273866D01*
X112414285Y-131273866D02*
X112366666Y-131226247D01*
X112366666Y-131226247D02*
X112271428Y-131178628D01*
X112271428Y-131178628D02*
X112080952Y-131131009D01*
X112080952Y-131131009D02*
X111985714Y-131083390D01*
X111985714Y-131083390D02*
X111938095Y-131035771D01*
X111938095Y-131035771D02*
X111890476Y-130940533D01*
X111890476Y-130940533D02*
X111890476Y-130845295D01*
X111890476Y-130845295D02*
X111938095Y-130750057D01*
X111938095Y-130750057D02*
X111985714Y-130702438D01*
X111985714Y-130702438D02*
X112080952Y-130654819D01*
X112080952Y-130654819D02*
X112319047Y-130654819D01*
X112319047Y-130654819D02*
X112461904Y-130702438D01*
X112795238Y-130654819D02*
X113033333Y-131654819D01*
X113033333Y-131654819D02*
X113223809Y-130940533D01*
X113223809Y-130940533D02*
X113414285Y-131654819D01*
X113414285Y-131654819D02*
X113652381Y-130654819D01*
X114557142Y-131654819D02*
X113985714Y-131654819D01*
X114271428Y-131654819D02*
X114271428Y-130654819D01*
X114271428Y-130654819D02*
X114176190Y-130797676D01*
X114176190Y-130797676D02*
X114080952Y-130892914D01*
X114080952Y-130892914D02*
X113985714Y-130940533D01*
X115128571Y-131083390D02*
X115033333Y-131035771D01*
X115033333Y-131035771D02*
X114985714Y-130988152D01*
X114985714Y-130988152D02*
X114938095Y-130892914D01*
X114938095Y-130892914D02*
X114938095Y-130845295D01*
X114938095Y-130845295D02*
X114985714Y-130750057D01*
X114985714Y-130750057D02*
X115033333Y-130702438D01*
X115033333Y-130702438D02*
X115128571Y-130654819D01*
X115128571Y-130654819D02*
X115319047Y-130654819D01*
X115319047Y-130654819D02*
X115414285Y-130702438D01*
X115414285Y-130702438D02*
X115461904Y-130750057D01*
X115461904Y-130750057D02*
X115509523Y-130845295D01*
X115509523Y-130845295D02*
X115509523Y-130892914D01*
X115509523Y-130892914D02*
X115461904Y-130988152D01*
X115461904Y-130988152D02*
X115414285Y-131035771D01*
X115414285Y-131035771D02*
X115319047Y-131083390D01*
X115319047Y-131083390D02*
X115128571Y-131083390D01*
X115128571Y-131083390D02*
X115033333Y-131131009D01*
X115033333Y-131131009D02*
X114985714Y-131178628D01*
X114985714Y-131178628D02*
X114938095Y-131273866D01*
X114938095Y-131273866D02*
X114938095Y-131464342D01*
X114938095Y-131464342D02*
X114985714Y-131559580D01*
X114985714Y-131559580D02*
X115033333Y-131607200D01*
X115033333Y-131607200D02*
X115128571Y-131654819D01*
X115128571Y-131654819D02*
X115319047Y-131654819D01*
X115319047Y-131654819D02*
X115414285Y-131607200D01*
X115414285Y-131607200D02*
X115461904Y-131559580D01*
X115461904Y-131559580D02*
X115509523Y-131464342D01*
X115509523Y-131464342D02*
X115509523Y-131273866D01*
X115509523Y-131273866D02*
X115461904Y-131178628D01*
X115461904Y-131178628D02*
X115414285Y-131131009D01*
X115414285Y-131131009D02*
X115319047Y-131083390D01*
X181654819Y-111642857D02*
X181178628Y-111976190D01*
X181654819Y-112214285D02*
X180654819Y-112214285D01*
X180654819Y-112214285D02*
X180654819Y-111833333D01*
X180654819Y-111833333D02*
X180702438Y-111738095D01*
X180702438Y-111738095D02*
X180750057Y-111690476D01*
X180750057Y-111690476D02*
X180845295Y-111642857D01*
X180845295Y-111642857D02*
X180988152Y-111642857D01*
X180988152Y-111642857D02*
X181083390Y-111690476D01*
X181083390Y-111690476D02*
X181131009Y-111738095D01*
X181131009Y-111738095D02*
X181178628Y-111833333D01*
X181178628Y-111833333D02*
X181178628Y-112214285D01*
X181654819Y-110690476D02*
X181654819Y-111261904D01*
X181654819Y-110976190D02*
X180654819Y-110976190D01*
X180654819Y-110976190D02*
X180797676Y-111071428D01*
X180797676Y-111071428D02*
X180892914Y-111166666D01*
X180892914Y-111166666D02*
X180940533Y-111261904D01*
X181654819Y-110214285D02*
X181654819Y-110023809D01*
X181654819Y-110023809D02*
X181607200Y-109928571D01*
X181607200Y-109928571D02*
X181559580Y-109880952D01*
X181559580Y-109880952D02*
X181416723Y-109785714D01*
X181416723Y-109785714D02*
X181226247Y-109738095D01*
X181226247Y-109738095D02*
X180845295Y-109738095D01*
X180845295Y-109738095D02*
X180750057Y-109785714D01*
X180750057Y-109785714D02*
X180702438Y-109833333D01*
X180702438Y-109833333D02*
X180654819Y-109928571D01*
X180654819Y-109928571D02*
X180654819Y-110119047D01*
X180654819Y-110119047D02*
X180702438Y-110214285D01*
X180702438Y-110214285D02*
X180750057Y-110261904D01*
X180750057Y-110261904D02*
X180845295Y-110309523D01*
X180845295Y-110309523D02*
X181083390Y-110309523D01*
X181083390Y-110309523D02*
X181178628Y-110261904D01*
X181178628Y-110261904D02*
X181226247Y-110214285D01*
X181226247Y-110214285D02*
X181273866Y-110119047D01*
X181273866Y-110119047D02*
X181273866Y-109928571D01*
X181273866Y-109928571D02*
X181226247Y-109833333D01*
X181226247Y-109833333D02*
X181178628Y-109785714D01*
X181178628Y-109785714D02*
X181083390Y-109738095D01*
X95357142Y-115484819D02*
X95023809Y-115008628D01*
X94785714Y-115484819D02*
X94785714Y-114484819D01*
X94785714Y-114484819D02*
X95166666Y-114484819D01*
X95166666Y-114484819D02*
X95261904Y-114532438D01*
X95261904Y-114532438D02*
X95309523Y-114580057D01*
X95309523Y-114580057D02*
X95357142Y-114675295D01*
X95357142Y-114675295D02*
X95357142Y-114818152D01*
X95357142Y-114818152D02*
X95309523Y-114913390D01*
X95309523Y-114913390D02*
X95261904Y-114961009D01*
X95261904Y-114961009D02*
X95166666Y-115008628D01*
X95166666Y-115008628D02*
X94785714Y-115008628D01*
X96309523Y-115484819D02*
X95738095Y-115484819D01*
X96023809Y-115484819D02*
X96023809Y-114484819D01*
X96023809Y-114484819D02*
X95928571Y-114627676D01*
X95928571Y-114627676D02*
X95833333Y-114722914D01*
X95833333Y-114722914D02*
X95738095Y-114770533D01*
X97214285Y-114484819D02*
X96738095Y-114484819D01*
X96738095Y-114484819D02*
X96690476Y-114961009D01*
X96690476Y-114961009D02*
X96738095Y-114913390D01*
X96738095Y-114913390D02*
X96833333Y-114865771D01*
X96833333Y-114865771D02*
X97071428Y-114865771D01*
X97071428Y-114865771D02*
X97166666Y-114913390D01*
X97166666Y-114913390D02*
X97214285Y-114961009D01*
X97214285Y-114961009D02*
X97261904Y-115056247D01*
X97261904Y-115056247D02*
X97261904Y-115294342D01*
X97261904Y-115294342D02*
X97214285Y-115389580D01*
X97214285Y-115389580D02*
X97166666Y-115437200D01*
X97166666Y-115437200D02*
X97071428Y-115484819D01*
X97071428Y-115484819D02*
X96833333Y-115484819D01*
X96833333Y-115484819D02*
X96738095Y-115437200D01*
X96738095Y-115437200D02*
X96690476Y-115389580D01*
X205654819Y-128761904D02*
X206464342Y-128761904D01*
X206464342Y-128761904D02*
X206559580Y-128714285D01*
X206559580Y-128714285D02*
X206607200Y-128666666D01*
X206607200Y-128666666D02*
X206654819Y-128571428D01*
X206654819Y-128571428D02*
X206654819Y-128380952D01*
X206654819Y-128380952D02*
X206607200Y-128285714D01*
X206607200Y-128285714D02*
X206559580Y-128238095D01*
X206559580Y-128238095D02*
X206464342Y-128190476D01*
X206464342Y-128190476D02*
X205654819Y-128190476D01*
X206654819Y-127190476D02*
X206654819Y-127761904D01*
X206654819Y-127476190D02*
X205654819Y-127476190D01*
X205654819Y-127476190D02*
X205797676Y-127571428D01*
X205797676Y-127571428D02*
X205892914Y-127666666D01*
X205892914Y-127666666D02*
X205940533Y-127761904D01*
X182454819Y-127714285D02*
X181454819Y-127714285D01*
X181454819Y-127714285D02*
X181454819Y-127476190D01*
X181454819Y-127476190D02*
X181502438Y-127333333D01*
X181502438Y-127333333D02*
X181597676Y-127238095D01*
X181597676Y-127238095D02*
X181692914Y-127190476D01*
X181692914Y-127190476D02*
X181883390Y-127142857D01*
X181883390Y-127142857D02*
X182026247Y-127142857D01*
X182026247Y-127142857D02*
X182216723Y-127190476D01*
X182216723Y-127190476D02*
X182311961Y-127238095D01*
X182311961Y-127238095D02*
X182407200Y-127333333D01*
X182407200Y-127333333D02*
X182454819Y-127476190D01*
X182454819Y-127476190D02*
X182454819Y-127714285D01*
X181550057Y-126761904D02*
X181502438Y-126714285D01*
X181502438Y-126714285D02*
X181454819Y-126619047D01*
X181454819Y-126619047D02*
X181454819Y-126380952D01*
X181454819Y-126380952D02*
X181502438Y-126285714D01*
X181502438Y-126285714D02*
X181550057Y-126238095D01*
X181550057Y-126238095D02*
X181645295Y-126190476D01*
X181645295Y-126190476D02*
X181740533Y-126190476D01*
X181740533Y-126190476D02*
X181883390Y-126238095D01*
X181883390Y-126238095D02*
X182454819Y-126809523D01*
X182454819Y-126809523D02*
X182454819Y-126190476D01*
X182454819Y-125238095D02*
X182454819Y-125809523D01*
X182454819Y-125523809D02*
X181454819Y-125523809D01*
X181454819Y-125523809D02*
X181597676Y-125619047D01*
X181597676Y-125619047D02*
X181692914Y-125714285D01*
X181692914Y-125714285D02*
X181740533Y-125809523D01*
X204854819Y-115661904D02*
X205664342Y-115661904D01*
X205664342Y-115661904D02*
X205759580Y-115614285D01*
X205759580Y-115614285D02*
X205807200Y-115566666D01*
X205807200Y-115566666D02*
X205854819Y-115471428D01*
X205854819Y-115471428D02*
X205854819Y-115280952D01*
X205854819Y-115280952D02*
X205807200Y-115185714D01*
X205807200Y-115185714D02*
X205759580Y-115138095D01*
X205759580Y-115138095D02*
X205664342Y-115090476D01*
X205664342Y-115090476D02*
X204854819Y-115090476D01*
X204854819Y-114709523D02*
X204854819Y-114042857D01*
X204854819Y-114042857D02*
X205854819Y-114471428D01*
D12*
%TO.C,R9*%
X209617224Y-106927500D02*
X209107776Y-106927500D01*
X209617224Y-107972500D02*
X209107776Y-107972500D01*
%TO.C,D3*%
X207635000Y-106285000D02*
X207635000Y-104015000D01*
X207635000Y-104015000D02*
X203575000Y-104015000D01*
X203575000Y-106285000D02*
X207635000Y-106285000D01*
%TO.C,R8*%
X209629724Y-105672500D02*
X209120276Y-105672500D01*
X209629724Y-104627500D02*
X209120276Y-104627500D01*
D13*
%TO.C,SW10*%
X118850000Y-118750000D02*
G75*
G02*
X118650000Y-118750000I-100000J0D01*
G01*
X118650000Y-118750000D02*
G75*
G02*
X118850000Y-118750000I100000J0D01*
G01*
D14*
X128000000Y-124000000D02*
X128000000Y-118000000D01*
X128000000Y-118000000D02*
X122000000Y-118000000D01*
X122000000Y-124000000D02*
X128000000Y-124000000D01*
X122000000Y-118000000D02*
X122000000Y-124000000D01*
D12*
%TO.C,R3*%
X217877500Y-125345276D02*
X217877500Y-125854724D01*
X218922500Y-125345276D02*
X218922500Y-125854724D01*
%TO.C,U2*%
X183300000Y-132765001D02*
X179300000Y-132765001D01*
X183300000Y-135984999D02*
X179300000Y-135984999D01*
X183820000Y-136125000D02*
X183820000Y-135645001D01*
X184300000Y-135645000D01*
X183820000Y-136125000D01*
G36*
X183820000Y-136125000D02*
G01*
X183820000Y-135645001D01*
X184300000Y-135645000D01*
X183820000Y-136125000D01*
G37*
%TO.C,BZ1*%
X172700000Y-103600000D02*
G75*
G02*
X160500000Y-103600000I-6100000J0D01*
G01*
X160500000Y-103600000D02*
G75*
G02*
X172700000Y-103600000I6100000J0D01*
G01*
%TO.C,U11*%
X140032500Y-111060000D02*
X139792500Y-110730000D01*
X140272500Y-110730000D01*
X140032500Y-111060000D01*
G36*
X140032500Y-111060000D02*
G01*
X139792500Y-110730000D01*
X140272500Y-110730000D01*
X140032500Y-111060000D01*
G37*
X142220000Y-114080000D02*
X143720000Y-114080000D01*
X142220000Y-114080000D02*
X140720000Y-114080000D01*
X142220000Y-110860000D02*
X143720000Y-110860000D01*
X142220000Y-110860000D02*
X140720000Y-110860000D01*
%TO.C,U10*%
X130850000Y-134210000D02*
X130370000Y-134210000D01*
X130610000Y-133880000D01*
X130850000Y-134210000D01*
G36*
X130850000Y-134210000D02*
G01*
X130370000Y-134210000D01*
X130610000Y-133880000D01*
X130850000Y-134210000D01*
G37*
X130610000Y-133155000D02*
X130610000Y-133640000D01*
X130610000Y-128660000D02*
X130610000Y-129385000D01*
X129885000Y-133880000D02*
X130310000Y-133880000D01*
X129885000Y-128660000D02*
X130610000Y-128660000D01*
X126115000Y-133880000D02*
X125390000Y-133880000D01*
X126115000Y-128660000D02*
X125390000Y-128660000D01*
X125390000Y-133880000D02*
X125390000Y-133155000D01*
X125390000Y-128660000D02*
X125390000Y-129385000D01*
%TO.C,SW19*%
D11*
X168290000Y-114650000D02*
X161590000Y-114650000D01*
X161590000Y-127350000D01*
X168290000Y-127350000D01*
X168290000Y-114650000D01*
%TO.C,SW16*%
X181360000Y-58010000D02*
X189260000Y-58010000D01*
X189260000Y-44810000D01*
X181360000Y-44810000D01*
X181360000Y-58010000D01*
%TO.C,SW15*%
X161000000Y-114650000D02*
X154300000Y-114650000D01*
X154300000Y-127350000D01*
X161000000Y-127350000D01*
X161000000Y-114650000D01*
%TO.C,SW12*%
X118740000Y-58010000D02*
X126640000Y-58010000D01*
X126640000Y-44810000D01*
X118740000Y-44810000D01*
X118740000Y-58010000D01*
%TO.C,SW11*%
X153700000Y-114650000D02*
X147000000Y-114650000D01*
X147000000Y-127350000D01*
X153700000Y-127350000D01*
X153700000Y-114650000D01*
%TO.C,SW7*%
X146410000Y-114650000D02*
X139710000Y-114650000D01*
X139710000Y-127350000D01*
X146410000Y-127350000D01*
X146410000Y-114650000D01*
D12*
%TO.C,SW3*%
X147160000Y-136537500D02*
X147160000Y-134437500D01*
X147160000Y-131837500D02*
X147160000Y-131327500D01*
X147160000Y-131327500D02*
X146640000Y-131327500D01*
X146640000Y-134667500D02*
X146640000Y-134437499D01*
X146640000Y-134667500D02*
X146100000Y-134667500D01*
X146640000Y-131837500D02*
X146640000Y-131327500D01*
X145000000Y-134667500D02*
X141600000Y-134667500D01*
X140500000Y-134667500D02*
X139960001Y-134667500D01*
X139960001Y-134667500D02*
X139960000Y-134437500D01*
X139960000Y-131837500D02*
X139960000Y-131327500D01*
X139960000Y-131327500D02*
X139440000Y-131327500D01*
X139440000Y-136537501D02*
X139440000Y-134437499D01*
X139440000Y-131837500D02*
X139440000Y-131327500D01*
%TO.C,SW2*%
X168610000Y-136537500D02*
X168610000Y-134437500D01*
X168610000Y-131837500D02*
X168610000Y-131327500D01*
X168610000Y-131327500D02*
X168090000Y-131327500D01*
X168090000Y-134667500D02*
X168090000Y-134437500D01*
X168090000Y-134667500D02*
X167550000Y-134667500D01*
X168090000Y-131837500D02*
X168090000Y-131327500D01*
X166450000Y-134667500D02*
X163050000Y-134667500D01*
X161950000Y-134667500D02*
X161410000Y-134667500D01*
X161410000Y-134667500D02*
X161410000Y-134437500D01*
X161410000Y-131837500D02*
X161410000Y-131327500D01*
X161410000Y-131327500D02*
X160890000Y-131327500D01*
X160890000Y-136537500D02*
X160890000Y-134437500D01*
X160890000Y-131837500D02*
X160890000Y-131327500D01*
%TO.C,Q4*%
X113680000Y-120640000D02*
X113200000Y-120640000D01*
X113440000Y-120310000D01*
X113680000Y-120640000D01*
G36*
X113680000Y-120640000D02*
G01*
X113200000Y-120640000D01*
X113440000Y-120310000D01*
X113680000Y-120640000D01*
G37*
X112140000Y-120280000D02*
X112940000Y-120280000D01*
X112140000Y-120280000D02*
X111340000Y-120280000D01*
X111340000Y-120280000D02*
X111340000Y-119350000D01*
X111340000Y-117120000D02*
X112800000Y-117120000D01*
X111340000Y-117120000D02*
X111340000Y-118050000D01*
D14*
%TO.C,SW6*%
X111000000Y-107000000D02*
X111000000Y-113000000D01*
X111000000Y-113000000D02*
X117000000Y-113000000D01*
X117000000Y-107000000D02*
X111000000Y-107000000D01*
X117000000Y-113000000D02*
X117000000Y-107000000D01*
D13*
X107850000Y-107750000D02*
G75*
G02*
X107650000Y-107750000I-100000J0D01*
G01*
X107650000Y-107750000D02*
G75*
G02*
X107850000Y-107750000I100000J0D01*
G01*
D12*
%TO.C,C14*%
X96183766Y-111490000D02*
X95891232Y-111490000D01*
X96183766Y-112510000D02*
X95891232Y-112510000D01*
D14*
%TO.C,SW9*%
X188910000Y-112250000D02*
X188910000Y-118250000D01*
X188910000Y-118250000D02*
X194910000Y-118250000D01*
X194910000Y-112250000D02*
X188910000Y-112250000D01*
X194910000Y-118250000D02*
X194910000Y-112250000D01*
D13*
X185760000Y-113000000D02*
G75*
G02*
X185560000Y-113000000I-100000J0D01*
G01*
X185560000Y-113000000D02*
G75*
G02*
X185760000Y-113000000I100000J0D01*
G01*
D12*
%TO.C,C22*%
X95353733Y-105990000D02*
X95646267Y-105990000D01*
X95353733Y-107010000D02*
X95646267Y-107010000D01*
%TO.C,U12*%
X176400000Y-106115000D02*
X174450000Y-106115000D01*
X176400000Y-106115000D02*
X178350000Y-106115000D01*
X176400000Y-116235000D02*
X174450000Y-116235000D01*
X176400000Y-116235000D02*
X178350000Y-116235000D01*
X179365000Y-116510000D02*
X178885000Y-116510000D01*
X179125000Y-116179999D01*
X179365000Y-116510000D01*
G36*
X179365000Y-116510000D02*
G01*
X178885000Y-116510000D01*
X179125000Y-116179999D01*
X179365000Y-116510000D01*
G37*
%TO.C,R24*%
X175217224Y-104602500D02*
X174707776Y-104602500D01*
X175217224Y-105647500D02*
X174707776Y-105647500D01*
%TO.C,Q5*%
X214860000Y-127470000D02*
X214060000Y-127470000D01*
X214860000Y-127470000D02*
X215660000Y-127470000D01*
X215660000Y-127470000D02*
X215660000Y-128400000D01*
X215660000Y-130630000D02*
X214200000Y-130630000D01*
X215660000Y-130630000D02*
X215660000Y-129700000D01*
X213560000Y-127440000D02*
X213320000Y-127110000D01*
X213800000Y-127110000D01*
X213560000Y-127440000D01*
G36*
X213560000Y-127440000D02*
G01*
X213320000Y-127110000D01*
X213800000Y-127110000D01*
X213560000Y-127440000D01*
G37*
%TO.C,R20*%
X124707776Y-126747500D02*
X125217224Y-126747500D01*
X124707776Y-127792500D02*
X125217224Y-127792500D01*
%TO.C,C18*%
X218090000Y-128916234D02*
X218090000Y-129208768D01*
X219110000Y-128916234D02*
X219110000Y-129208768D01*
%TO.C,C23*%
X182090000Y-107591234D02*
X182090000Y-107883768D01*
X183110000Y-107591234D02*
X183110000Y-107883768D01*
%TO.C,R21*%
X174877500Y-128832776D02*
X174877500Y-129342224D01*
X175922500Y-128832776D02*
X175922500Y-129342224D01*
%TO.C,R4*%
X216077500Y-125232776D02*
X216077500Y-125742224D01*
X217122500Y-125232776D02*
X217122500Y-125742224D01*
%TO.C,D8*%
X119910000Y-126400000D02*
X115900000Y-126400000D01*
X119910000Y-128400000D02*
X115900000Y-128400000D01*
X119910000Y-128400000D02*
X119910000Y-126400000D01*
%TO.C,U8*%
X216262500Y-109490000D02*
X215462500Y-109490001D01*
X216262500Y-109490000D02*
X217062500Y-109490001D01*
X216262500Y-112610002D02*
X215462500Y-112610001D01*
X216262500Y-112610002D02*
X217062500Y-112610001D01*
X217802500Y-112890001D02*
X217322500Y-112890001D01*
X217562500Y-112560001D01*
X217802500Y-112890001D01*
G36*
X217802500Y-112890001D02*
G01*
X217322500Y-112890001D01*
X217562500Y-112560001D01*
X217802500Y-112890001D01*
G37*
%TO.C,R5*%
X219077500Y-111157776D02*
X219077500Y-111667224D01*
X220122500Y-111157776D02*
X220122500Y-111667224D01*
%TO.C,C3*%
X158533766Y-94990000D02*
X158241232Y-94990000D01*
X158533766Y-96010000D02*
X158241232Y-96010000D01*
D14*
%TO.C,SW13*%
X188910000Y-120250000D02*
X188910000Y-126250000D01*
X188910000Y-126250000D02*
X194910000Y-126250000D01*
X194910000Y-120250000D02*
X188910000Y-120250000D01*
X194910000Y-126250000D02*
X194910000Y-120250000D01*
D13*
X185760000Y-121000000D02*
G75*
G02*
X185560000Y-121000000I-100000J0D01*
G01*
X185560000Y-121000000D02*
G75*
G02*
X185760000Y-121000000I100000J0D01*
G01*
D12*
%TO.C,C26*%
X111446267Y-125190000D02*
X111153733Y-125190000D01*
X111446267Y-126210000D02*
X111153733Y-126210000D01*
D14*
%TO.C,SW17*%
X188910000Y-128250000D02*
X188910000Y-134250000D01*
X188910000Y-134250000D02*
X194910000Y-134250000D01*
X194910000Y-128250000D02*
X188910000Y-128250000D01*
X194910000Y-134250000D02*
X194910000Y-128250000D01*
D13*
X185760000Y-129000000D02*
G75*
G02*
X185560000Y-129000000I-100000J0D01*
G01*
X185560000Y-129000000D02*
G75*
G02*
X185760000Y-129000000I100000J0D01*
G01*
D12*
%TO.C,C27*%
X161708768Y-66890000D02*
X161416234Y-66890000D01*
X161708768Y-67910000D02*
X161416234Y-67910000D01*
%TO.C,C12*%
X201990000Y-121791232D02*
X201990000Y-122083766D01*
X203010000Y-121791232D02*
X203010000Y-122083766D01*
%TO.C,D5*%
X170265000Y-132487500D02*
X170265000Y-136547500D01*
X170265000Y-136547500D02*
X172535000Y-136547500D01*
X172535000Y-136547500D02*
X172535000Y-132487500D01*
%TO.C,C7*%
X200490000Y-121791232D02*
X200490000Y-122083766D01*
X201510000Y-121791232D02*
X201510000Y-122083766D01*
%TO.C,D12*%
X108860000Y-115500000D02*
X104850000Y-115500000D01*
X108860000Y-117500000D02*
X104850000Y-117500000D01*
X108860000Y-117500000D02*
X108860000Y-115500000D01*
%TO.C,R17*%
X132335974Y-125247500D02*
X131826526Y-125247500D01*
X132335974Y-126292500D02*
X131826526Y-126292500D01*
%TO.C,D17*%
X181190000Y-130400000D02*
X181190000Y-132400000D01*
X181190000Y-130400000D02*
X185200000Y-130400000D01*
X181190000Y-132400000D02*
X185200000Y-132400000D01*
%TO.C,C24*%
X132691233Y-128690000D02*
X132983767Y-128690000D01*
X132691233Y-129710000D02*
X132983767Y-129710000D01*
%TO.C,R11*%
X116245276Y-113602501D02*
X116754724Y-113602501D01*
X116245276Y-114647501D02*
X116754724Y-114647501D01*
%TO.C,Q6*%
X208490000Y-127570000D02*
X208490000Y-128500000D01*
X208490000Y-127570000D02*
X209950000Y-127570000D01*
X208490000Y-130730000D02*
X208490000Y-129800000D01*
X209290000Y-130730000D02*
X208490000Y-130730000D01*
X209290000Y-130730000D02*
X210090000Y-130730000D01*
X210830000Y-131090000D02*
X210350000Y-131090000D01*
X210590000Y-130760000D01*
X210830000Y-131090000D01*
G36*
X210830000Y-131090000D02*
G01*
X210350000Y-131090000D01*
X210590000Y-130760000D01*
X210830000Y-131090000D01*
G37*
D11*
%TO.C,J7*%
X142540000Y-60450000D02*
X142540000Y-66350000D01*
X142540000Y-60450000D02*
X165400000Y-60450000D01*
X165420000Y-66350000D02*
X142540000Y-66350000D01*
X165420000Y-66350000D02*
X165420000Y-60450000D01*
D12*
%TO.C,R25*%
X179377500Y-128832776D02*
X179377500Y-129342224D01*
X180422500Y-128832776D02*
X180422500Y-129342224D01*
%TO.C,C9*%
X202691232Y-134290000D02*
X202983766Y-134290000D01*
X202691232Y-135310000D02*
X202983766Y-135310000D01*
%TO.C,D14*%
X134010000Y-55500000D02*
X130000000Y-55500000D01*
X134010000Y-57500000D02*
X130000000Y-57500000D01*
X134010000Y-57500000D02*
X134010000Y-55500000D01*
%TO.C,U5*%
X198589999Y-113950000D02*
X198590000Y-117710000D01*
X198590000Y-117710000D02*
X199849999Y-117710000D01*
X205410000Y-117710000D02*
X204150001Y-117710000D01*
X205410001Y-113950000D02*
X205410000Y-117710000D01*
X205640000Y-112910000D02*
X205310000Y-112670000D01*
X205640000Y-112430000D01*
X205640000Y-112910000D01*
G36*
X205640000Y-112910000D02*
G01*
X205310000Y-112670000D01*
X205640000Y-112430000D01*
X205640000Y-112910000D01*
G37*
%TO.C,R22*%
X128414026Y-125247500D02*
X128923474Y-125247500D01*
X128414026Y-126292500D02*
X128923474Y-126292500D01*
%TO.C,D2*%
X203612500Y-108635000D02*
X207672500Y-108635000D01*
X207672500Y-106365000D02*
X203612500Y-106365000D01*
X207672500Y-108635000D02*
X207672500Y-106365000D01*
%TO.C,R16*%
X133877500Y-134742224D02*
X133877500Y-134232776D01*
X134922500Y-134742224D02*
X134922500Y-134232776D01*
%TO.C,R2*%
X116245276Y-117277500D02*
X116754724Y-117277500D01*
X116245276Y-118322500D02*
X116754724Y-118322500D01*
%TO.C,C1*%
X184590000Y-134546267D02*
X184590000Y-134253733D01*
X185610000Y-134546267D02*
X185610000Y-134253733D01*
%TO.C,R27*%
X176377500Y-128832776D02*
X176377500Y-129342224D01*
X177422500Y-128832776D02*
X177422500Y-129342224D01*
%TO.C,C21*%
X95646267Y-104490000D02*
X95353733Y-104490000D01*
X95646267Y-105510000D02*
X95353733Y-105510000D01*
D14*
%TO.C,SW1*%
X151000000Y-103300000D02*
X151000000Y-109300000D01*
X151000000Y-109300000D02*
X157000000Y-109300000D01*
X157000000Y-103300000D02*
X151000000Y-103300000D01*
X157000000Y-109300000D02*
X157000000Y-103300000D01*
D13*
X147850000Y-104050000D02*
G75*
G02*
X147650000Y-104050000I-100000J0D01*
G01*
X147650000Y-104050000D02*
G75*
G02*
X147850000Y-104050000I100000J0D01*
G01*
D12*
%TO.C,Q2*%
X111340000Y-113520000D02*
X111340000Y-114450000D01*
X111340000Y-113520000D02*
X112800000Y-113520000D01*
X111340000Y-116680000D02*
X111340000Y-115750000D01*
X112140000Y-116680000D02*
X111340000Y-116680000D01*
X112140000Y-116680000D02*
X112940000Y-116680000D01*
X113680000Y-117040000D02*
X113200000Y-117040000D01*
X113440000Y-116710000D01*
X113680000Y-117040000D01*
G36*
X113680000Y-117040000D02*
G01*
X113200000Y-117040000D01*
X113440000Y-116710000D01*
X113680000Y-117040000D01*
G37*
%TO.C,Q1*%
X211920000Y-119060000D02*
X211920000Y-117600000D01*
X211920000Y-119060000D02*
X212850000Y-119060000D01*
X215080000Y-118260000D02*
X215080000Y-117460000D01*
X215080000Y-118260000D02*
X215080000Y-119060000D01*
X215080000Y-119060000D02*
X214150000Y-119060000D01*
X215440000Y-117200000D02*
X215110000Y-116960000D01*
X215440000Y-116720000D01*
X215440000Y-117200000D01*
G36*
X215440000Y-117200000D02*
G01*
X215110000Y-116960000D01*
X215440000Y-116720000D01*
X215440000Y-117200000D01*
G37*
%TO.C,C19*%
X212540000Y-112903733D02*
X212540000Y-113196267D01*
X213560000Y-112903733D02*
X213560000Y-113196267D01*
%TO.C,C11*%
X201441233Y-109990000D02*
X201733767Y-109990000D01*
X201441233Y-111010000D02*
X201733767Y-111010000D01*
%TO.C,JP1*%
X171700000Y-128424999D02*
X173700000Y-128424999D01*
X171700000Y-131224999D02*
X171700000Y-128424999D01*
X173700000Y-128424999D02*
X173700000Y-131224999D01*
X173700000Y-131224999D02*
X171700000Y-131224999D01*
%TO.C,C5*%
X161890000Y-129383766D02*
X161890000Y-129091232D01*
X162910000Y-129383766D02*
X162910000Y-129091232D01*
%TO.C,R26*%
X177877500Y-128832776D02*
X177877500Y-129342224D01*
X178922500Y-128832776D02*
X178922500Y-129342224D01*
%TO.C,R28*%
X169977500Y-130054724D02*
X169977500Y-129545276D01*
X171022500Y-130054724D02*
X171022500Y-129545276D01*
%TO.C,R18*%
X135477500Y-134767224D02*
X135477500Y-134257776D01*
X136522500Y-134767224D02*
X136522500Y-134257776D01*
%TO.C,C28*%
X180640000Y-118641234D02*
X180640000Y-118933768D01*
X181660000Y-118641234D02*
X181660000Y-118933768D01*
%TO.C,R7*%
X213882776Y-124577500D02*
X214392224Y-124577500D01*
X213882776Y-125622500D02*
X214392224Y-125622500D01*
%TO.C,D16*%
X130410000Y-115400000D02*
X126400000Y-115400000D01*
X130410000Y-117400000D02*
X126400000Y-117400000D01*
X130410000Y-117400000D02*
X130410000Y-115400000D01*
%TO.C,C17*%
X216841233Y-119840000D02*
X217133767Y-119840000D01*
X216841233Y-120860000D02*
X217133767Y-120860000D01*
%TO.C,D1*%
X205640000Y-123600000D02*
X205640000Y-125600000D01*
X205640000Y-123600000D02*
X209650000Y-123600000D01*
X205640000Y-125600000D02*
X209650000Y-125600000D01*
%TO.C,D10*%
X174090000Y-55500000D02*
X174090000Y-57500000D01*
X174090000Y-55500000D02*
X178100000Y-55500000D01*
X174090000Y-57500000D02*
X178100000Y-57500000D01*
%TO.C,C8*%
X202691231Y-132729999D02*
X202983765Y-132729999D01*
X202691231Y-133749999D02*
X202983765Y-133749999D01*
D14*
%TO.C,SW14*%
X100000000Y-118000000D02*
X100000000Y-124000000D01*
X100000000Y-124000000D02*
X106000000Y-124000000D01*
X106000000Y-118000000D02*
X100000000Y-118000000D01*
X106000000Y-124000000D02*
X106000000Y-118000000D01*
D13*
X96850000Y-118750000D02*
G75*
G02*
X96650000Y-118750000I-100000J0D01*
G01*
X96650000Y-118750000D02*
G75*
G02*
X96850000Y-118750000I100000J0D01*
G01*
D12*
%TO.C,U3*%
X135740000Y-127612500D02*
X135740001Y-126812500D01*
X135740000Y-127612500D02*
X135740001Y-128412500D01*
X138860002Y-127612500D02*
X138860001Y-126812500D01*
X138860002Y-127612500D02*
X138860001Y-128412500D01*
X135790001Y-128912500D02*
X135460001Y-129152500D01*
X135460001Y-128672500D01*
X135790001Y-128912500D01*
G36*
X135790001Y-128912500D02*
G01*
X135460001Y-129152500D01*
X135460001Y-128672500D01*
X135790001Y-128912500D01*
G37*
D14*
%TO.C,SW5*%
X188910000Y-104250000D02*
X188910000Y-110250000D01*
X188910000Y-110250000D02*
X194910000Y-110250000D01*
X194910000Y-104250000D02*
X188910000Y-104250000D01*
X194910000Y-110250000D02*
X194910000Y-104250000D01*
D13*
X185760000Y-105000000D02*
G75*
G02*
X185560000Y-105000000I-100000J0D01*
G01*
X185560000Y-105000000D02*
G75*
G02*
X185760000Y-105000000I100000J0D01*
G01*
D12*
%TO.C,C15*%
X95891232Y-109640000D02*
X96183766Y-109640000D01*
X95891232Y-110660000D02*
X96183766Y-110660000D01*
%TO.C,C25*%
X130691233Y-126790000D02*
X130983767Y-126790000D01*
X130691233Y-127810000D02*
X130983767Y-127810000D01*
%TO.C,C13*%
X203590000Y-121791232D02*
X203590000Y-122083766D01*
X204610000Y-121791232D02*
X204610000Y-122083766D01*
%TO.C,R23*%
X124707776Y-125247500D02*
X125217224Y-125247500D01*
X124707776Y-126292500D02*
X125217224Y-126292500D01*
%TO.C,C4*%
X160390000Y-129358768D02*
X160390000Y-129066234D01*
X161410000Y-129358768D02*
X161410000Y-129066234D01*
%TO.C,D6*%
X174140000Y-57900000D02*
X174140000Y-59900000D01*
X174140000Y-57900000D02*
X178150000Y-57900000D01*
X174140000Y-59900000D02*
X178150000Y-59900000D01*
%TO.C,R6*%
X212527500Y-109667224D02*
X212527500Y-109157776D01*
X213572500Y-109667224D02*
X213572500Y-109157776D01*
%TO.C,U13*%
X176150000Y-117115000D02*
X174200000Y-117115000D01*
X176150000Y-117115000D02*
X178100000Y-117115000D01*
X176150000Y-127235000D02*
X174200000Y-127235000D01*
X176150000Y-127235000D02*
X178100000Y-127235000D01*
X179115000Y-127510000D02*
X178635000Y-127510000D01*
X178875000Y-127179999D01*
X179115000Y-127510000D01*
G36*
X179115000Y-127510000D02*
G01*
X178635000Y-127510000D01*
X178875000Y-127179999D01*
X179115000Y-127510000D01*
G37*
%TO.C,R1*%
X208342224Y-121577500D02*
X207832776Y-121577500D01*
X208342224Y-122622500D02*
X207832776Y-122622500D01*
%TO.C,J1*%
X149330000Y-134900000D02*
X149330000Y-133200000D01*
X158670000Y-134900000D02*
X158670000Y-133200000D01*
%TO.C,R10*%
X208342224Y-119577500D02*
X207832776Y-119577500D01*
X208342224Y-120622500D02*
X207832776Y-120622500D01*
%TO.C,U9*%
X215790000Y-115162500D02*
X215790001Y-114362500D01*
X215790000Y-115162500D02*
X215790001Y-115962500D01*
X218910002Y-115162500D02*
X218910001Y-114362500D01*
X218910002Y-115162500D02*
X218910001Y-115962500D01*
X219190001Y-114102500D02*
X218860001Y-113862500D01*
X219190001Y-113622500D01*
X219190001Y-114102500D01*
G36*
X219190001Y-114102500D02*
G01*
X218860001Y-113862500D01*
X219190001Y-113622500D01*
X219190001Y-114102500D01*
G37*
%TO.C,D20*%
X120100000Y-111760000D02*
X120100000Y-107750000D01*
X120100000Y-111760000D02*
X122100000Y-111760000D01*
X122100000Y-111760000D02*
X122100000Y-107750000D01*
%TO.C,D18*%
X134010000Y-57900000D02*
X130000000Y-57900000D01*
X134010000Y-59900000D02*
X130000000Y-59900000D01*
X134010000Y-59900000D02*
X134010000Y-57900000D01*
D14*
%TO.C,SW18*%
X111000000Y-129000000D02*
X111000000Y-135000000D01*
X111000000Y-135000000D02*
X117000000Y-135000000D01*
X117000000Y-129000000D02*
X111000000Y-129000000D01*
X117000000Y-135000000D02*
X117000000Y-129000000D01*
D13*
X107850000Y-129750000D02*
G75*
G02*
X107650000Y-129750000I-100000J0D01*
G01*
X107650000Y-129750000D02*
G75*
G02*
X107850000Y-129750000I100000J0D01*
G01*
D12*
%TO.C,R19*%
X180527500Y-108017224D02*
X180527500Y-107507776D01*
X181572500Y-108017224D02*
X181572500Y-107507776D01*
%TO.C,R15*%
X96254724Y-113077500D02*
X95745276Y-113077500D01*
X96254724Y-114122500D02*
X95745276Y-114122500D01*
%TO.C,U1*%
X198539999Y-126200001D02*
X198540000Y-129960001D01*
X198540000Y-129960001D02*
X199799999Y-129960001D01*
X205360000Y-129960001D02*
X204100001Y-129960001D01*
X205360001Y-126200001D02*
X205360000Y-129960001D01*
X205590000Y-125160001D02*
X205260000Y-124920001D01*
X205590000Y-124680001D01*
X205590000Y-125160001D01*
G36*
X205590000Y-125160001D02*
G01*
X205260000Y-124920001D01*
X205590000Y-124680001D01*
X205590000Y-125160001D01*
G37*
%TO.C,D21*%
X180890000Y-128000000D02*
X180890000Y-130000000D01*
X180890000Y-128000000D02*
X184900000Y-128000000D01*
X180890000Y-130000000D02*
X184900000Y-130000000D01*
%TO.C,U7*%
X206290000Y-113850000D02*
X206290000Y-115800000D01*
X206290000Y-113850000D02*
X206290000Y-111900000D01*
X211410000Y-113850000D02*
X211410000Y-115800000D01*
X211410000Y-113850000D02*
X211410000Y-111900000D01*
X206385000Y-116550000D02*
X206055000Y-116790000D01*
X206055000Y-116310000D01*
X206385000Y-116550000D01*
G36*
X206385000Y-116550000D02*
G01*
X206055000Y-116790000D01*
X206055000Y-116310000D01*
X206385000Y-116550000D01*
G37*
%TD*%
M02*
