%TF.GenerationSoftware,KiCad,Pcbnew,9.0.2*%
%TF.CreationDate,2025-07-06T19:20:27+07:00*%
%TF.ProjectId,Gamepad PCB,47616d65-7061-4642-9050-43422e6b6963,v03*%
%TF.SameCoordinates,Original*%
%TF.FileFunction,Copper,L4,Bot*%
%TF.FilePolarity,Positive*%
%FSLAX46Y46*%
G04 Gerber Fmt 4.6, Leading zero omitted, Abs format (unit mm)*
G04 Created by KiCad (PCBNEW 9.0.2) date 2025-07-06 19:20:27*
%MOMM*%
%LPD*%
G01*
G04 APERTURE LIST*
G04 Aperture macros list*
%AMRoundRect*
0 Rectangle with rounded corners*
0 $1 Rounding radius*
0 $2 $3 $4 $5 $6 $7 $8 $9 X,Y pos of 4 corners*
0 Add a 4 corners polygon primitive as box body*
4,1,4,$2,$3,$4,$5,$6,$7,$8,$9,$2,$3,0*
0 Add four circle primitives for the rounded corners*
1,1,$1+$1,$2,$3*
1,1,$1+$1,$4,$5*
1,1,$1+$1,$6,$7*
1,1,$1+$1,$8,$9*
0 Add four rect primitives between the rounded corners*
20,1,$1+$1,$2,$3,$4,$5,0*
20,1,$1+$1,$4,$5,$6,$7,0*
20,1,$1+$1,$6,$7,$8,$9,0*
20,1,$1+$1,$8,$9,$2,$3,0*%
G04 Aperture macros list end*
%TA.AperFunction,ComponentPad*%
%ADD10C,3.600000*%
%TD*%
%TA.AperFunction,ConnectorPad*%
%ADD11C,5.600000*%
%TD*%
%TA.AperFunction,ComponentPad*%
%ADD12O,2.600000X1.700000*%
%TD*%
%TA.AperFunction,ComponentPad*%
%ADD13C,2.100000*%
%TD*%
%TA.AperFunction,ComponentPad*%
%ADD14C,1.750000*%
%TD*%
%TA.AperFunction,ComponentPad*%
%ADD15C,1.800000*%
%TD*%
%TA.AperFunction,ComponentPad*%
%ADD16O,3.300000X2.000000*%
%TD*%
%TA.AperFunction,HeatsinkPad*%
%ADD17C,0.500000*%
%TD*%
%TA.AperFunction,HeatsinkPad*%
%ADD18R,1.600000X1.800000*%
%TD*%
%TA.AperFunction,HeatsinkPad*%
%ADD19R,2.400000X1.800000*%
%TD*%
%TA.AperFunction,HeatsinkPad*%
%ADD20O,1.000000X2.100000*%
%TD*%
%TA.AperFunction,HeatsinkPad*%
%ADD21O,1.000000X1.800000*%
%TD*%
%TA.AperFunction,SMDPad,CuDef*%
%ADD22RoundRect,0.200000X-0.750000X-0.200000X0.750000X-0.200000X0.750000X0.200000X-0.750000X0.200000X0*%
%TD*%
%TA.AperFunction,SMDPad,CuDef*%
%ADD23RoundRect,0.237500X0.250000X0.237500X-0.250000X0.237500X-0.250000X-0.237500X0.250000X-0.237500X0*%
%TD*%
%TA.AperFunction,ComponentPad*%
%ADD24C,1.600000*%
%TD*%
%TA.AperFunction,SMDPad,CuDef*%
%ADD25RoundRect,0.250000X-0.650000X1.500000X-0.650000X-1.500000X0.650000X-1.500000X0.650000X1.500000X0*%
%TD*%
%TA.AperFunction,SMDPad,CuDef*%
%ADD26R,0.900000X1.500000*%
%TD*%
%TA.AperFunction,SMDPad,CuDef*%
%ADD27R,1.500000X0.900000*%
%TD*%
%TA.AperFunction,HeatsinkPad*%
%ADD28C,0.600000*%
%TD*%
%TA.AperFunction,SMDPad,CuDef*%
%ADD29R,3.900000X3.900000*%
%TD*%
%TA.AperFunction,SMDPad,CuDef*%
%ADD30RoundRect,0.237500X0.237500X-0.300000X0.237500X0.300000X-0.237500X0.300000X-0.237500X-0.300000X0*%
%TD*%
%TA.AperFunction,SMDPad,CuDef*%
%ADD31RoundRect,0.237500X-0.008839X-0.344715X0.344715X0.008839X0.008839X0.344715X-0.344715X-0.008839X0*%
%TD*%
%TA.AperFunction,SMDPad,CuDef*%
%ADD32RoundRect,0.190000X0.780000X-0.190000X0.780000X0.190000X-0.780000X0.190000X-0.780000X-0.190000X0*%
%TD*%
%TA.AperFunction,ComponentPad*%
%ADD33R,2.000000X2.000000*%
%TD*%
%TA.AperFunction,ComponentPad*%
%ADD34C,2.000000*%
%TD*%
%TA.AperFunction,ComponentPad*%
%ADD35R,1.905000X2.000000*%
%TD*%
%TA.AperFunction,ComponentPad*%
%ADD36O,1.905000X2.000000*%
%TD*%
%TA.AperFunction,ViaPad*%
%ADD37C,0.600000*%
%TD*%
%TA.AperFunction,ViaPad*%
%ADD38C,0.500000*%
%TD*%
%TA.AperFunction,Conductor*%
%ADD39C,0.500000*%
%TD*%
%TA.AperFunction,Conductor*%
%ADD40C,0.300000*%
%TD*%
G04 APERTURE END LIST*
D10*
%TO.P,H8,1*%
%TO.N,N/C*%
X168000000Y-90000000D03*
D11*
X168000000Y-90000000D03*
%TD*%
D10*
%TO.P,H5,1*%
%TO.N,N/C*%
X97610000Y-57610000D03*
D11*
X97610000Y-57610000D03*
%TD*%
D12*
%TO.P,SW19,1,A*%
%TO.N,Net-(SW19A-A)*%
X164940000Y-116300000D03*
%TO.P,SW19,2,B*%
%TO.N,Net-(SW11A-B)*%
X164940000Y-121000000D03*
%TO.P,SW19,3*%
%TO.N,N/C*%
X164940000Y-125700000D03*
%TD*%
D10*
%TO.P,H1,1*%
%TO.N,N/C*%
X132400000Y-51000000D03*
D11*
X132400000Y-51000000D03*
%TD*%
D13*
%TO.P,SW3,*%
%TO.N,*%
X146800000Y-133147501D03*
X139790000Y-133147500D03*
D14*
%TO.P,SW3,1,1*%
%TO.N,GND*%
X145550000Y-135637500D03*
%TO.P,SW3,2,2*%
%TO.N,/GPIO0*%
X141049999Y-135637500D03*
%TD*%
D10*
%TO.P,H2,1*%
%TO.N,N/C*%
X175600000Y-51000000D03*
D11*
X175600000Y-51000000D03*
%TD*%
D15*
%TO.P,J7,1,Pin_1*%
%TO.N,GND*%
X145000000Y-63750000D03*
%TO.P,J7,2,Pin_2*%
%TO.N,+3.3V_Perip*%
X147540000Y-63750000D03*
%TO.P,J7,3,Pin_3*%
%TO.N,/CLK*%
X150079999Y-63750000D03*
%TO.P,J7,4,Pin_4*%
%TO.N,/MOSI*%
X152620000Y-63750000D03*
%TO.P,J7,5,Pin_5*%
%TO.N,/IO17*%
X155160000Y-63750000D03*
%TO.P,J7,6,Pin_6*%
%TO.N,/IO18*%
X157700000Y-63750000D03*
%TO.P,J7,7,Pin_7*%
%TO.N,/IO19*%
X160240000Y-63750000D03*
%TO.P,J7,8,Pin_8*%
%TO.N,/IO20*%
X162780001Y-63750000D03*
%TD*%
D10*
%TO.P,H7,1*%
%TO.N,N/C*%
X140000000Y-90000000D03*
D11*
X140000000Y-90000000D03*
%TD*%
D16*
%TO.P,SW16,1,A*%
%TO.N,Net-(SW15A-A)*%
X185310000Y-56110000D03*
%TO.P,SW16,2,B*%
%TO.N,Net-(SW12A-B)*%
X185310000Y-51410000D03*
%TO.P,SW16,3*%
%TO.N,N/C*%
X185310000Y-46710000D03*
%TD*%
D17*
%TO.P,U11,11*%
%TO.N,N/C*%
X141670000Y-111820000D03*
X141670000Y-113120000D03*
D18*
X142220000Y-112470000D03*
D17*
X142770000Y-111820000D03*
X142770000Y-113120000D03*
%TD*%
D12*
%TO.P,SW7,1,A*%
%TO.N,Net-(SW7A-A)*%
X143060000Y-116300000D03*
%TO.P,SW7,2,B*%
%TO.N,Net-(SW11A-B)*%
X143060000Y-121000000D03*
%TO.P,SW7,3*%
%TO.N,N/C*%
X143060000Y-125700000D03*
%TD*%
D17*
%TO.P,U2,9,EP*%
%TO.N,unconnected-(U2-EP-Pad9)_6*%
X182250000Y-134900000D03*
%TO.N,unconnected-(U2-EP-Pad9)*%
X182250000Y-133600000D03*
%TO.N,unconnected-(U2-EP-Pad9)_5*%
X182249999Y-134250000D03*
D19*
%TO.N,unconnected-(U2-EP-Pad9)_4*%
X181300000Y-134250000D03*
D17*
%TO.N,unconnected-(U2-EP-Pad9)_3*%
X180350001Y-134250000D03*
%TO.N,unconnected-(U2-EP-Pad9)_7*%
X180350000Y-134900000D03*
%TO.N,unconnected-(U2-EP-Pad9)_2*%
X180350000Y-133600000D03*
%TD*%
D12*
%TO.P,SW15,1,A*%
%TO.N,Net-(SW15A-A)*%
X157650000Y-116300000D03*
%TO.P,SW15,2,B*%
%TO.N,Net-(SW11A-B)*%
X157650000Y-121000000D03*
%TO.P,SW15,3*%
%TO.N,N/C*%
X157650000Y-125700000D03*
%TD*%
D16*
%TO.P,SW12,1,A*%
%TO.N,Net-(SW11A-A)*%
X122690000Y-56110000D03*
%TO.P,SW12,2,B*%
%TO.N,Net-(SW12A-B)*%
X122690000Y-51410000D03*
%TO.P,SW12,3*%
%TO.N,N/C*%
X122690000Y-46710000D03*
%TD*%
D10*
%TO.P,H4,1*%
%TO.N,N/C*%
X211500000Y-135000000D03*
D11*
X211500000Y-135000000D03*
%TD*%
D10*
%TO.P,H6,1*%
%TO.N,N/C*%
X210390000Y-57610000D03*
D11*
X210390000Y-57610000D03*
%TD*%
D10*
%TO.P,H3,1*%
%TO.N,N/C*%
X96500000Y-135000000D03*
D11*
X96500000Y-135000000D03*
%TD*%
D20*
%TO.P,J1,S1,SHIELD*%
%TO.N,GND*%
X149680000Y-131895000D03*
D21*
X149680000Y-136075000D03*
D20*
X158320000Y-131895000D03*
D21*
X158320000Y-136075000D03*
%TD*%
D13*
%TO.P,SW2,*%
%TO.N,*%
X168250000Y-133147500D03*
X161240000Y-133147500D03*
D14*
%TO.P,SW2,1,1*%
%TO.N,GND*%
X167000000Y-135637500D03*
%TO.P,SW2,2,2*%
%TO.N,/EN*%
X162500000Y-135637500D03*
%TD*%
D12*
%TO.P,SW11,1,A*%
%TO.N,Net-(SW11A-A)*%
X150350000Y-116300000D03*
%TO.P,SW11,2,B*%
%TO.N,Net-(SW11A-B)*%
X150350000Y-121000000D03*
%TO.P,SW11,3*%
%TO.N,N/C*%
X150350000Y-125700000D03*
%TD*%
D15*
%TO.P,J6,1,Pin_1*%
%TO.N,+3.3V_Perip*%
X138080000Y-116400000D03*
%TO.P,J6,2,Pin_2*%
%TO.N,Net-(J6-Pin_2)*%
X135540000Y-116400000D03*
%TO.P,J6,3,Pin_3*%
%TO.N,GND*%
X133000000Y-116400000D03*
%TD*%
D22*
%TO.P,Q8,1*%
%TO.N,/IO48*%
X189200000Y-136650000D03*
%TO.P,Q8,2*%
%TO.N,GND*%
X189200000Y-134750000D03*
%TO.P,Q8,3*%
%TO.N,Net-(D4-A)*%
X192200000Y-135700000D03*
%TD*%
D23*
%TO.P,R12,1*%
%TO.N,/CLK*%
X115300000Y-116300000D03*
%TO.P,R12,2*%
%TO.N,Net-(U6-IO12)*%
X113475000Y-116300000D03*
%TD*%
D24*
%TO.P,C2,1*%
%TO.N,+3.3V*%
X159500000Y-99000000D03*
%TO.P,C2,2*%
%TO.N,GND*%
X157499999Y-99000000D03*
%TD*%
D25*
%TO.P,D4,1,K*%
%TO.N,+3.3V_Perip*%
X190600000Y-122800000D03*
%TO.P,D4,2,A*%
%TO.N,Net-(D4-A)*%
X190600000Y-127800000D03*
%TD*%
D26*
%TO.P,U6,1,GND*%
%TO.N,GND*%
X93880000Y-108085000D03*
%TO.P,U6,2,3V3*%
%TO.N,+3.3V*%
X95150000Y-108085000D03*
%TO.P,U6,3,EN*%
%TO.N,/EN*%
X96420000Y-108085000D03*
%TO.P,U6,4,IO4*%
%TO.N,unconnected-(U6-IO4-Pad4)*%
X97690000Y-108085000D03*
%TO.P,U6,5,IO5*%
%TO.N,unconnected-(U6-IO5-Pad5)*%
X98960000Y-108085000D03*
%TO.P,U6,6,IO6*%
%TO.N,unconnected-(U6-IO6-Pad6)*%
X100230000Y-108085000D03*
%TO.P,U6,7,IO7*%
%TO.N,unconnected-(U6-IO7-Pad7)*%
X101500000Y-108085000D03*
%TO.P,U6,8,IO15*%
%TO.N,unconnected-(U6-IO15-Pad8)*%
X102770000Y-108085000D03*
%TO.P,U6,9,IO16*%
%TO.N,unconnected-(U6-IO16-Pad9)*%
X104040000Y-108085000D03*
%TO.P,U6,10,IO17*%
%TO.N,/IO17*%
X105310000Y-108085000D03*
%TO.P,U6,11,IO18*%
%TO.N,/IO18*%
X106580000Y-108085000D03*
%TO.P,U6,12,IO8*%
%TO.N,unconnected-(U6-IO8-Pad12)*%
X107850000Y-108085000D03*
%TO.P,U6,13,IO19*%
%TO.N,/IO19*%
X109120000Y-108085000D03*
%TO.P,U6,14,IO20*%
%TO.N,/IO20*%
X110390000Y-108085000D03*
D27*
%TO.P,U6,15,IO3*%
%TO.N,unconnected-(U6-IO3-Pad15)*%
X111640000Y-109850000D03*
%TO.P,U6,16,IO46*%
%TO.N,unconnected-(U6-IO46-Pad16)*%
X111640000Y-111120000D03*
%TO.P,U6,17,IO9*%
%TO.N,unconnected-(U6-IO9-Pad17)*%
X111640000Y-112390000D03*
%TO.P,U6,18,IO10*%
%TO.N,unconnected-(U6-IO10-Pad18)*%
X111640000Y-113660000D03*
%TO.P,U6,19,IO11*%
%TO.N,Net-(U6-IO11)*%
X111640000Y-114930000D03*
%TO.P,U6,20,IO12*%
%TO.N,Net-(U6-IO12)*%
X111640000Y-116200000D03*
%TO.P,U6,21,IO13*%
%TO.N,/MISO*%
X111640000Y-117470000D03*
%TO.P,U6,22,IO14*%
%TO.N,/IO14*%
X111640000Y-118740000D03*
%TO.P,U6,23,IO21*%
%TO.N,/IO21*%
X111640000Y-120010000D03*
%TO.P,U6,24,IO47*%
%TO.N,/IO47*%
X111640000Y-121280000D03*
%TO.P,U6,25,IO48*%
%TO.N,/IO48*%
X111640000Y-122550000D03*
%TO.P,U6,26,IO45*%
%TO.N,unconnected-(U6-IO45-Pad26)*%
X111640000Y-123820000D03*
D26*
%TO.P,U6,27,IO0*%
%TO.N,/GPIO0*%
X110390000Y-125585000D03*
%TO.P,U6,28,IO35*%
%TO.N,/IO35*%
X109120000Y-125585000D03*
%TO.P,U6,29,IO36*%
%TO.N,/IO36*%
X107850000Y-125585000D03*
%TO.P,U6,30,IO37*%
%TO.N,/IO37*%
X106580000Y-125585000D03*
%TO.P,U6,31,IO38*%
%TO.N,/IO38*%
X105310000Y-125585000D03*
%TO.P,U6,32,IO39*%
%TO.N,/IO39*%
X104040000Y-125585000D03*
%TO.P,U6,33,IO40*%
%TO.N,/IO40*%
X102770000Y-125585000D03*
%TO.P,U6,34,IO41*%
%TO.N,/SDA*%
X101500000Y-125585000D03*
%TO.P,U6,35,IO42*%
%TO.N,/SCL*%
X100230000Y-125585000D03*
%TO.P,U6,36,RXD0*%
%TO.N,/TXD*%
X98960000Y-125585000D03*
%TO.P,U6,37,TXD0*%
%TO.N,/RXD*%
X97690000Y-125585000D03*
%TO.P,U6,38,IO2*%
%TO.N,unconnected-(U6-IO2-Pad38)*%
X96420000Y-125585000D03*
%TO.P,U6,39,IO1*%
%TO.N,unconnected-(U6-IO1-Pad39)*%
X95150000Y-125585000D03*
%TO.P,U6,40,GND*%
%TO.N,GND*%
X93880000Y-125585000D03*
D28*
%TO.P,U6,41,GND*%
X102300000Y-113935000D03*
X100900000Y-113935000D03*
X103000000Y-114635000D03*
X101600000Y-114635000D03*
X100200000Y-114635000D03*
X102300000Y-115335000D03*
D29*
X101600000Y-115335000D03*
D28*
X100900000Y-115335000D03*
X103000000Y-116035000D03*
X101600000Y-116035000D03*
X100200000Y-116035000D03*
X102300000Y-116735000D03*
X100900000Y-116735000D03*
%TD*%
D24*
%TO.P,C6,1*%
%TO.N,Net-(D1-K)*%
X199000000Y-120699999D03*
%TO.P,C6,2*%
%TO.N,GND*%
X199000000Y-122699999D03*
%TD*%
D15*
%TO.P,J5,1,Pin_1*%
%TO.N,+3.3V_Perip*%
X138100000Y-122700000D03*
%TO.P,J5,2,Pin_2*%
%TO.N,Net-(J5-Pin_2)*%
X135560000Y-122700000D03*
%TO.P,J5,3,Pin_3*%
%TO.N,GND*%
X133020000Y-122700000D03*
%TD*%
D30*
%TO.P,C20,1*%
%TO.N,+3.3V_Perip*%
X189300000Y-132625002D03*
%TO.P,C20,2*%
%TO.N,Net-(D4-A)*%
X189300000Y-130900000D03*
%TD*%
D24*
%TO.P,C10,1*%
%TO.N,Net-(D1-K)*%
X199400000Y-108550000D03*
%TO.P,C10,2*%
%TO.N,GND*%
X201400000Y-108550000D03*
%TD*%
D31*
%TO.P,R14,1*%
%TO.N,/MISO*%
X146054765Y-98445235D03*
%TO.P,R14,2*%
%TO.N,Net-(U4-MISO)*%
X147345235Y-97154765D03*
%TD*%
D13*
%TO.P,SW4,*%
%TO.N,*%
X109475500Y-58452499D03*
X102465500Y-58452500D03*
D14*
%TO.P,SW4,1,1*%
%TO.N,Net-(SW12A-B)*%
X108225500Y-55962500D03*
%TO.P,SW4,2,2*%
%TO.N,Net-(SW7A-A)*%
X103725499Y-55962500D03*
%TD*%
D23*
%TO.P,R13,1*%
%TO.N,/MOSI*%
X115300000Y-114810000D03*
%TO.P,R13,2*%
%TO.N,Net-(U6-IO11)*%
X113475000Y-114810000D03*
%TD*%
D24*
%TO.P,C16,1*%
%TO.N,+BATT*%
X216200000Y-118300000D03*
%TO.P,C16,2*%
%TO.N,GND*%
X218200000Y-118300000D03*
%TD*%
D15*
%TO.P,J2,1,A*%
%TO.N,Net-(J2-A)*%
X214609999Y-106100000D03*
%TO.P,J2,2,B*%
%TO.N,Net-(J2-B)*%
X217149999Y-106100000D03*
%TD*%
D13*
%TO.P,SW8,*%
%TO.N,*%
X205475500Y-58452499D03*
X198465500Y-58452500D03*
D14*
%TO.P,SW8,1,1*%
%TO.N,Net-(SW12A-B)*%
X204225500Y-55962500D03*
%TO.P,SW8,2,2*%
%TO.N,Net-(SW19A-A)*%
X199725499Y-55962500D03*
%TD*%
D15*
%TO.P,J4,1,Pin_1*%
%TO.N,+3.3V_Perip*%
X184400000Y-111300000D03*
%TO.P,J4,2,Pin_2*%
%TO.N,Net-(J4-Pin_2)*%
X184400000Y-113840000D03*
%TO.P,J4,3,Pin_3*%
%TO.N,GND*%
X184400000Y-116380000D03*
%TD*%
D32*
%TO.P,M1,1,+*%
%TO.N,+3.3V_Perip*%
X191312500Y-132400000D03*
%TO.P,M1,2,-*%
%TO.N,Net-(D4-A)*%
X191312500Y-131200000D03*
%TD*%
D33*
%TO.P,BZ1,1,+*%
%TO.N,+3.3V_Perip*%
X168100000Y-106200000D03*
D34*
%TO.P,BZ1,2,-*%
%TO.N,Net-(BZ1--)*%
X160499999Y-106200000D03*
%TD*%
D15*
%TO.P,U4,1,GND*%
%TO.N,GND*%
X157620000Y-93500000D03*
%TO.P,U4,2,VCC*%
%TO.N,+3.3V*%
X157620000Y-90960000D03*
%TO.P,U4,3,CE*%
%TO.N,/IO21*%
X155080000Y-93500000D03*
%TO.P,U4,4,~{CSN}*%
%TO.N,/IO14*%
X155080000Y-90960000D03*
%TO.P,U4,5,SCK*%
%TO.N,/CLK*%
X152540000Y-93500000D03*
%TO.P,U4,6,MOSI*%
%TO.N,/MOSI*%
X152540000Y-90960000D03*
%TO.P,U4,7,MISO*%
%TO.N,Net-(U4-MISO)*%
X150000000Y-93500000D03*
%TO.P,U4,8,IRQ*%
%TO.N,unconnected-(U4-IRQ-Pad8)*%
X150000000Y-90960000D03*
%TD*%
%TO.P,J3,1,Pin_1*%
%TO.N,+3.3V_Perip*%
X184400000Y-121600000D03*
%TO.P,J3,2,Pin_2*%
%TO.N,Net-(J3-Pin_2)*%
X184400000Y-124140000D03*
%TO.P,J3,3,Pin_3*%
%TO.N,GND*%
X184400000Y-126680000D03*
%TD*%
D22*
%TO.P,Q7,1*%
%TO.N,/IO47*%
X153400000Y-107200000D03*
%TO.P,Q7,2*%
%TO.N,GND*%
X153400000Y-105300000D03*
%TO.P,Q7,3*%
%TO.N,Net-(BZ1--)*%
X156400000Y-106250000D03*
%TD*%
D35*
%TO.P,Q3,1*%
%TO.N,Net-(Q3-Pad1)*%
X212820000Y-122950000D03*
D36*
%TO.P,Q3,2*%
%TO.N,Net-(J2-A)*%
X215360000Y-122950000D03*
%TO.P,Q3,3*%
%TO.N,+BATT*%
X217900000Y-122950000D03*
%TD*%
D37*
%TO.N,+3.3V_Perip*%
X146600000Y-112220000D03*
X182600000Y-118200002D03*
X202000000Y-118949999D03*
X169680053Y-108880053D03*
%TO.N,GND*%
X138500000Y-112300000D03*
X160900000Y-128350000D03*
D38*
X137300001Y-128750000D03*
D37*
X96900000Y-112000000D03*
D38*
X94637499Y-105000000D03*
D37*
X213400000Y-130000000D03*
X204100000Y-122800000D03*
X204875002Y-133350000D03*
X209490000Y-120500000D03*
D38*
X178900000Y-113079999D03*
D37*
X127756250Y-125770000D03*
X219587500Y-112337500D03*
D38*
X155500000Y-130100000D03*
D37*
X124050000Y-127270000D03*
D38*
X93880000Y-108085000D03*
D37*
X210750000Y-128200000D03*
D38*
X131300000Y-132000000D03*
D37*
X93880000Y-125585000D03*
X96899999Y-110150000D03*
X171400000Y-135575000D03*
X202450000Y-110500000D03*
X209135000Y-117850000D03*
X112162501Y-125700000D03*
X206595000Y-117850001D03*
X204224999Y-124875001D03*
X162400000Y-128374998D03*
X202500000Y-122800000D03*
X191000000Y-134000000D03*
X204300000Y-112650000D03*
X150800000Y-131320000D03*
D38*
X94637499Y-106500000D03*
D37*
X207275000Y-122550000D03*
X218600000Y-129925002D03*
D38*
X181100000Y-106850000D03*
D37*
X132900000Y-127500000D03*
X157200000Y-131320000D03*
D38*
X178650000Y-117729999D03*
D37*
X185100000Y-135262501D03*
D38*
X181150000Y-117925000D03*
X175900000Y-105125000D03*
D37*
X133700000Y-129200000D03*
D38*
X153091821Y-132548463D03*
D37*
X153400000Y-105300000D03*
X204875003Y-134850000D03*
%TO.N,+BATT*%
X210700000Y-129200000D03*
%TO.N,+3.3V*%
X201950000Y-124900002D03*
X95149999Y-108085000D03*
D38*
X162000000Y-104300000D03*
D37*
X130400000Y-130000000D03*
X124050000Y-125770000D03*
X132350000Y-135500000D03*
%TO.N,VBUS*%
X206595000Y-109549999D03*
X167800000Y-130100000D03*
X152481642Y-133350000D03*
X210405000Y-117850001D03*
X209650000Y-124600000D03*
D38*
X142600000Y-128300000D03*
D37*
%TO.N,/EN*%
X96420000Y-108085000D03*
X96362501Y-106500000D03*
%TO.N,/GPIO0*%
X110437499Y-125700000D03*
D38*
%TO.N,/CLK*%
X151300000Y-89600000D03*
D37*
%TO.N,/DTR*%
X124630762Y-135150001D03*
X129081378Y-135490689D03*
D38*
%TO.N,Net-(Q5-Pad1)*%
X158550000Y-104050000D03*
D37*
X216600000Y-126450000D03*
X213350000Y-126450000D03*
D38*
%TO.N,Net-(Q6-Pad3)*%
X158550000Y-105250000D03*
X207750000Y-129150000D03*
D37*
%TO.N,Net-(SW11A-A)*%
X129550000Y-118750000D03*
D38*
X173650000Y-121540000D03*
X178400000Y-130000000D03*
X152250000Y-112850000D03*
X163400000Y-99500000D03*
D37*
%TO.N,Net-(U12-A2)*%
X171989237Y-114870002D03*
X129550000Y-123250000D03*
D38*
%TO.N,Net-(SW11A-B)*%
X171801323Y-114001323D03*
%TO.N,/SCL*%
X177800000Y-135300003D03*
X148500000Y-129000000D03*
D37*
X134400000Y-133575000D03*
%TO.N,/SDA*%
X136000000Y-131600000D03*
D38*
X177800000Y-134500000D03*
X147600000Y-127600000D03*
D37*
%TO.N,/IO17*%
X108700000Y-103800000D03*
D38*
%TO.N,Net-(SW7A-A)*%
X173650000Y-120270001D03*
X179900000Y-130000000D03*
D37*
X118550000Y-107750000D03*
D38*
X162600000Y-101200000D03*
X150300000Y-113700000D03*
D37*
%TO.N,/IO18*%
X112600000Y-104699997D03*
%TO.N,/IO20*%
X119400000Y-106300003D03*
%TO.N,/IO19*%
X116000000Y-105500000D03*
%TO.N,Net-(U8-OC)*%
X217400000Y-110100002D03*
X216400002Y-116300000D03*
%TO.N,Net-(U8-OD)*%
X217400000Y-112000000D03*
X218300000Y-116300000D03*
%TO.N,/RXD*%
X97690000Y-125585000D03*
%TO.N,/TXD*%
X101200000Y-132000000D03*
D38*
%TO.N,Net-(SW15A-A)*%
X173650000Y-122810000D03*
X176900000Y-130000000D03*
D37*
X107550000Y-118750000D03*
D38*
X159200000Y-112900000D03*
X164200000Y-97900000D03*
D37*
%TO.N,Net-(U12-A3)*%
X196460000Y-109500000D03*
X173900000Y-110540000D03*
D38*
%TO.N,Net-(J3-Pin_2)*%
X146400000Y-113470000D03*
%TO.N,Net-(J4-Pin_2)*%
X145970000Y-112870000D03*
%TO.N,Net-(SW19A-A)*%
X164500000Y-96300000D03*
X173650000Y-124079999D03*
D37*
X118550000Y-129750000D03*
D38*
X175400000Y-130000000D03*
X164940000Y-112840000D03*
D37*
%TO.N,/IO36*%
X173900000Y-109270001D03*
%TO.N,/IO35*%
X173900000Y-108000000D03*
%TO.N,/IO37*%
X178650000Y-119000000D03*
%TO.N,/IO38*%
X178650000Y-125350000D03*
%TO.N,/IO40*%
X178650000Y-126620001D03*
%TO.N,/IO39*%
X173650000Y-125350000D03*
%TO.N,/IO48*%
X114400000Y-134000000D03*
X111640000Y-122550000D03*
%TD*%
D39*
%TO.N,+3.3V_Perip*%
X191087498Y-132625002D02*
X191312500Y-132400000D01*
X187600000Y-131300000D02*
X188925002Y-132625002D01*
X189300000Y-132625002D02*
X191087498Y-132625002D01*
X188925002Y-132625002D02*
X189300000Y-132625002D01*
X184400000Y-121600000D02*
X185600000Y-122800000D01*
X187600000Y-125800000D02*
X187600000Y-131300000D01*
X185600000Y-122800000D02*
X190600000Y-122800000D01*
X190600000Y-122800000D02*
X187600000Y-125800000D01*
%TO.N,Net-(BZ1--)*%
X156400000Y-106250000D02*
X160449999Y-106250000D01*
X160449999Y-106250000D02*
X160499999Y-106200000D01*
%TO.N,GND*%
X189200000Y-134750000D02*
X190250000Y-134750000D01*
X145000000Y-63750000D02*
X144950000Y-63750000D01*
X190250000Y-134750000D02*
X191000000Y-134000000D01*
%TO.N,Net-(D4-A)*%
X192733500Y-135166500D02*
X192200000Y-135700000D01*
X189300000Y-130900000D02*
X189300000Y-129100000D01*
X191312500Y-131200000D02*
X191994274Y-131200000D01*
X192733500Y-131939226D02*
X192733500Y-135166500D01*
X191994274Y-131200000D02*
X192733500Y-131939226D01*
X189600000Y-131200000D02*
X189300000Y-130900000D01*
X191312500Y-131200000D02*
X189600000Y-131200000D01*
X189300000Y-129100000D02*
X190600000Y-127800000D01*
D40*
%TO.N,/EN*%
X96362501Y-108027501D02*
X96362501Y-106500000D01*
X96420000Y-108085000D02*
X96362501Y-108027501D01*
%TO.N,/CLK*%
X116600000Y-116300000D02*
X127200000Y-105700000D01*
X152540000Y-97060000D02*
X152540000Y-93500000D01*
X150079999Y-88079999D02*
X150079999Y-63750000D01*
X115300000Y-116300000D02*
X116600000Y-116300000D01*
X127200000Y-105700000D02*
X143900000Y-105700000D01*
X151300000Y-89600000D02*
X151300000Y-89300000D01*
X151300000Y-89300000D02*
X150079999Y-88079999D01*
X143900000Y-105700000D02*
X152540000Y-97060000D01*
%TO.N,/MOSI*%
X151289000Y-95711000D02*
X151289000Y-92211000D01*
X142900000Y-104100000D02*
X151289000Y-95711000D01*
X126010000Y-104100000D02*
X142900000Y-104100000D01*
X152540000Y-90960000D02*
X152540000Y-63830000D01*
X152540000Y-63830000D02*
X152620000Y-63750000D01*
X115300000Y-114810000D02*
X126010000Y-104100000D01*
X151289000Y-92211000D02*
X152540000Y-90960000D01*
%TO.N,/IO21*%
X111640000Y-120010000D02*
X119190000Y-120010000D01*
X155080000Y-99620000D02*
X155080000Y-93500000D01*
X145200000Y-109500000D02*
X155080000Y-99620000D01*
X119190000Y-120010000D02*
X129700000Y-109500000D01*
X129700000Y-109500000D02*
X145200000Y-109500000D01*
%TO.N,/MISO*%
X111640000Y-117470000D02*
X113631346Y-117470000D01*
X114400000Y-116701346D02*
X114400000Y-113100000D01*
X113631346Y-117470000D02*
X114400000Y-116701346D01*
X125000000Y-102500000D02*
X142000000Y-102500000D01*
X142000000Y-102500000D02*
X146054765Y-98445235D01*
X114400000Y-113100000D02*
X125000000Y-102500000D01*
%TO.N,/SCL*%
X162130346Y-129025998D02*
X162104348Y-129000000D01*
X162695652Y-129000000D02*
X162669654Y-129025998D01*
X137500000Y-132600000D02*
X134400000Y-132600000D01*
X169700000Y-129000000D02*
X162695652Y-129000000D01*
X104200000Y-132600000D02*
X100230000Y-128630000D01*
X100230000Y-128630000D02*
X100230000Y-125585000D01*
X134400000Y-132600000D02*
X134400000Y-133575000D01*
X177800000Y-135300003D02*
X176000003Y-135300003D01*
X141100000Y-129000000D02*
X137500000Y-132600000D01*
X162104348Y-129000000D02*
X141100000Y-129000000D01*
X176000003Y-135300003D02*
X169700000Y-129000000D01*
X162669654Y-129025998D02*
X162130346Y-129025998D01*
X134400000Y-132600000D02*
X104200000Y-132600000D01*
%TO.N,/SDA*%
X104700000Y-130700000D02*
X101500000Y-127500000D01*
X136000000Y-130700000D02*
X104700000Y-130700000D01*
X147600000Y-127600000D02*
X170900000Y-127600000D01*
X170900000Y-127600000D02*
X177800000Y-134500000D01*
X136000000Y-130700000D02*
X136000000Y-131600000D01*
X139400000Y-127600000D02*
X136300000Y-130700000D01*
X136300000Y-130700000D02*
X136000000Y-130700000D01*
X101500000Y-127500000D02*
X101500000Y-125585000D01*
X147600000Y-127600000D02*
X139400000Y-127600000D01*
%TO.N,/IO14*%
X128400000Y-107600000D02*
X144400000Y-107600000D01*
X111640000Y-118740000D02*
X117260000Y-118740000D01*
X117260000Y-118740000D02*
X128400000Y-107600000D01*
X153800000Y-92240000D02*
X155080000Y-90960000D01*
X153800000Y-98200000D02*
X153800000Y-92240000D01*
X144400000Y-107600000D02*
X153800000Y-98200000D01*
%TO.N,/IO17*%
X105310000Y-107035000D02*
X105310000Y-108085000D01*
X108700000Y-103800000D02*
X108545000Y-103800000D01*
X108545000Y-103800000D02*
X105310000Y-107035000D01*
%TO.N,/IO18*%
X108915003Y-104699997D02*
X106580000Y-107035000D01*
X106580000Y-107035000D02*
X106580000Y-108085000D01*
X112600000Y-104699997D02*
X108915003Y-104699997D01*
%TO.N,/IO20*%
X119400000Y-106300003D02*
X112174997Y-106300003D01*
X112174997Y-106300003D02*
X110390000Y-108085000D01*
%TO.N,/IO19*%
X109120000Y-107180000D02*
X109120000Y-108085000D01*
X116000000Y-105500000D02*
X110800000Y-105500000D01*
X110800000Y-105500000D02*
X109120000Y-107180000D01*
%TO.N,/TXD*%
X98960000Y-129660000D02*
X98960000Y-125585000D01*
X101200000Y-132000000D02*
X101200000Y-131900000D01*
X101200000Y-131900000D02*
X98960000Y-129660000D01*
%TO.N,Net-(U6-IO12)*%
X113375000Y-116200000D02*
X113475000Y-116300000D01*
X111640000Y-116200000D02*
X113375000Y-116200000D01*
%TO.N,Net-(U6-IO11)*%
X111640000Y-114930000D02*
X113355000Y-114930000D01*
X113355000Y-114930000D02*
X113475000Y-114810000D01*
%TO.N,Net-(U4-MISO)*%
X150000000Y-94000000D02*
X150000000Y-93499999D01*
X150000000Y-94500000D02*
X150000000Y-93499999D01*
X147345235Y-97154765D02*
X150000000Y-94500000D01*
%TO.N,/IO36*%
X169800000Y-114200000D02*
X169800000Y-111600000D01*
X166200000Y-117800000D02*
X169800000Y-114200000D01*
X115699000Y-127501000D02*
X125400000Y-117800000D01*
X172129999Y-109270001D02*
X173900000Y-109270001D01*
X169800000Y-111600000D02*
X172129999Y-109270001D01*
X107850000Y-125585000D02*
X107850000Y-126635000D01*
X107850000Y-126635000D02*
X108716000Y-127501000D01*
X125400000Y-117800000D02*
X166200000Y-117800000D01*
X108716000Y-127501000D02*
X115699000Y-127501000D01*
%TO.N,/IO35*%
X166349000Y-115000000D02*
X168800000Y-112549000D01*
X109120000Y-126120000D02*
X110000000Y-127000000D01*
X109120000Y-125585000D02*
X109120000Y-126120000D01*
X171479346Y-108000000D02*
X173900000Y-108000000D01*
X168800000Y-110679346D02*
X171479346Y-108000000D01*
X115300000Y-127000000D02*
X127300000Y-115000000D01*
X110000000Y-127000000D02*
X115300000Y-127000000D01*
X168800000Y-112549000D02*
X168800000Y-110679346D01*
X127300000Y-115000000D02*
X166349000Y-115000000D01*
%TO.N,/IO37*%
X172000000Y-119000000D02*
X178650000Y-119000000D01*
X124400000Y-119800000D02*
X171200000Y-119800000D01*
X116198000Y-128002000D02*
X124400000Y-119800000D01*
X107947000Y-128002000D02*
X116198000Y-128002000D01*
X171200000Y-119800000D02*
X172000000Y-119000000D01*
X106580000Y-126635000D02*
X107947000Y-128002000D01*
X106580000Y-125585000D02*
X106580000Y-126635000D01*
%TO.N,/IO38*%
X139700000Y-124000000D02*
X141200000Y-122500000D01*
X173401057Y-124680999D02*
X177980999Y-124680999D01*
X107275000Y-128600000D02*
X116600000Y-128600000D01*
X121200000Y-124000000D02*
X139700000Y-124000000D01*
X171220058Y-122500000D02*
X173401057Y-124680999D01*
X105310000Y-125585000D02*
X105310000Y-126635000D01*
X116600000Y-128600000D02*
X121200000Y-124000000D01*
X105310000Y-126635000D02*
X107275000Y-128600000D01*
X141200000Y-122500000D02*
X171220058Y-122500000D01*
X177980999Y-124680999D02*
X178650000Y-125350000D01*
%TO.N,/IO40*%
X139900000Y-126421000D02*
X140479000Y-127000000D01*
X140479000Y-127000000D02*
X178270001Y-127000000D01*
X118280346Y-129099000D02*
X118301000Y-129099000D01*
X102770000Y-125585000D02*
X102770000Y-126635000D01*
X102770000Y-126635000D02*
X105836000Y-129701000D01*
X178270001Y-127000000D02*
X178650000Y-126620001D01*
X105836000Y-129701000D02*
X117699000Y-129701000D01*
X117899000Y-129480346D02*
X118280346Y-129099000D01*
X117899000Y-129501000D02*
X117899000Y-129480346D01*
X120979000Y-126421000D02*
X139900000Y-126421000D01*
X117699000Y-129701000D02*
X117899000Y-129501000D01*
X118301000Y-129099000D02*
X120979000Y-126421000D01*
%TO.N,/IO39*%
X141308520Y-123100000D02*
X170300000Y-123100000D01*
X104040000Y-126073520D02*
X104509000Y-126542520D01*
X104040000Y-125585000D02*
X104040000Y-126073520D01*
X173600000Y-125300000D02*
X173650000Y-125350000D01*
X104509000Y-126686000D02*
X104652480Y-126686000D01*
X107166480Y-129200000D02*
X116900000Y-129200000D01*
X116900000Y-129200000D02*
X121599000Y-124501000D01*
X104652480Y-126686000D02*
X107166480Y-129200000D01*
X121599000Y-124501000D02*
X139907520Y-124501000D01*
X172500000Y-125300000D02*
X173600000Y-125300000D01*
X104509000Y-126542520D02*
X104509000Y-126686000D01*
X139907520Y-124501000D02*
X141308520Y-123100000D01*
X170300000Y-123100000D02*
X172500000Y-125300000D01*
%TO.N,/IO48*%
X117726000Y-137326000D02*
X114400000Y-134000000D01*
X189200000Y-136650000D02*
X188524000Y-137326000D01*
X188524000Y-137326000D02*
X117726000Y-137326000D01*
%TO.N,/IO47*%
X146900000Y-114400000D02*
X126900000Y-114400000D01*
X120020000Y-121280000D02*
X111640000Y-121280000D01*
X149700000Y-109400000D02*
X149700000Y-111600000D01*
X126900000Y-114400000D02*
X120020000Y-121280000D01*
X153400000Y-107200000D02*
X151900000Y-107200000D01*
X151900000Y-107200000D02*
X149700000Y-109400000D01*
X149700000Y-111600000D02*
X146900000Y-114400000D01*
%TD*%
M02*
